<?xml version="1.0" encoding="UTF-8" standalone="no"?>
<!-- Created with Inkscape (http://www.inkscape.org/) -->

<svg
   xmlns:dc="http://purl.org/dc/elements/1.1/"
   xmlns:cc="http://creativecommons.org/ns#"
   xmlns:rdf="http://www.w3.org/1999/02/22-rdf-syntax-ns#"
   xmlns:svg="http://www.w3.org/2000/svg"
   xmlns="http://www.w3.org/2000/svg"
   xmlns:sodipodi="http://sodipodi.sourceforge.net/DTD/sodipodi-0.dtd"
   xmlns:inkscape="http://www.inkscape.org/namespaces/inkscape"
   id="svg18115"
   version="1.1"
   inkscape:version="0.91 r13725"
   width="900"
   height="891.5625"
   viewBox="0 0 900 891.5625"
   sodipodi:docname="bathroom1.svg">
  
  
  <g
     inkscape:groupmode="layer"
     id="layer8"
     inkscape:label="pavimento"
     style="display:inline">
    <rect
       style="opacity:1;fill:none;fill-opacity:1;stroke:#d23b5e;stroke-width:0.99952161;stroke-linecap:butt;stroke-miterlimit:4;stroke-dasharray:none;stroke-opacity:1"
       id="rect17506"
       width="115.8299"
       height="138.42178"
       x="204.60059"
       y="176.47125" />
    <path
       style="opacity:1;fill:#323ae7;fill-opacity:1;stroke:#bbd23b;stroke-width:0.588;stroke-miterlimit:4;stroke-dasharray:none;stroke-opacity:1"
       d="m 205.61545,245.83157 0,-68.5122 57.0445,0 57.0445,0 0,68.5122 0,68.5122 -57.0445,0 -57.0445,0 0,-68.5122 z"
       id="path4902"
       inkscape:connector-curvature="0" />
    <path
       style="opacity:1;fill:#323ae7;fill-opacity:1;stroke:#bbd23b;stroke-width:0.97805738;stroke-miterlimit:4;stroke-dasharray:none;stroke-opacity:1"
       d="m 205.94112,245.38263 0,-67.36619 56.55434,0 56.55434,0 0,67.36619 0,67.3662 -56.55434,0 -56.55434,0 0,-67.3662 z"
       id="path4904"
       inkscape:connector-curvature="0" />
    <path
       style="opacity:1;fill:#323ae7;fill-opacity:1;stroke:#bbd23b;stroke-width:0.24451435;stroke-miterlimit:4;stroke-dasharray:none;stroke-opacity:1"
       d="m 206.62444,245.46262 0,-66.74244 55.93058,0 55.93057,0 0,66.74244 0,66.74244 -55.93057,0 -55.93058,0 0,-66.74244 z"
       id="path4906"
       inkscape:connector-curvature="0" />
    <path
       style="opacity:1;fill:#323ae7;fill-opacity:1;stroke:#bbd23b;stroke-width:0.24451435;stroke-miterlimit:4;stroke-dasharray:none;stroke-opacity:1"
       d="m 207.04028,245.46262 0,-66.32659 55.51474,0 55.51473,0 0,66.32659 0,66.32659 -55.51473,0 -55.51474,0 0,-66.32659 z"
       id="path4908"
       inkscape:connector-curvature="0" />
    <path
       style="opacity:1;fill:#323ae7;fill-opacity:1;stroke:#bbd23b;stroke-width:0.24451435;stroke-miterlimit:4;stroke-dasharray:none;stroke-opacity:1"
       d="m 207.45612,245.46262 0,-65.91075 55.0989,0 55.09889,0 0,65.91075 0,65.91075 -55.09889,0 -55.0989,0 0,-65.91075 z"
       id="path4910"
       inkscape:connector-curvature="0" />
    <path
       style="opacity:1;fill:#323ae7;fill-opacity:1;stroke:#bbd23b;stroke-width:0.24451435;stroke-miterlimit:4;stroke-dasharray:none;stroke-opacity:1"
       d="m 207.87196,245.46262 0,-65.49491 54.68306,0 54.68305,0 0,65.49491 0,65.49491 -54.68305,0 -54.68306,0 0,-65.49491 z"
       id="path4912"
       inkscape:connector-curvature="0" />
    <path
       style="opacity:1;fill:#323ae7;fill-opacity:1;stroke:#bbd23b;stroke-width:0.24451435;stroke-miterlimit:4;stroke-dasharray:none;stroke-opacity:1"
       d="m 208.2878,245.46262 0,-65.07907 54.26722,0 54.26721,0 0,65.07907 0,65.07907 -54.26721,0 -54.26722,0 0,-65.07907 z"
       id="path4914"
       inkscape:connector-curvature="0" />
    <path
       style="opacity:1;fill:#323ae7;fill-opacity:1;stroke:#bbd23b;stroke-width:0.24451435;stroke-miterlimit:4;stroke-dasharray:none;stroke-opacity:1"
       d="m 208.70364,245.46262 0,-64.66323 53.85138,0 53.85137,0 0,64.66323 0,64.66323 -53.85137,0 -53.85138,0 0,-64.66323 z"
       id="path4916"
       inkscape:connector-curvature="0" />
    <path
       style="opacity:1;fill:#323ae7;fill-opacity:1;stroke:#bbd23b;stroke-width:0.24451435;stroke-miterlimit:4;stroke-dasharray:none;stroke-opacity:1"
       d="m 209.11948,245.46262 0,-64.24739 53.43554,0 53.43553,0 0,64.24739 0,64.24739 -53.43553,0 -53.43554,0 0,-64.24739 z"
       id="path4918"
       inkscape:connector-curvature="0" />
    <path
       style="opacity:1;fill:#323ae7;fill-opacity:1;stroke:#bbd23b;stroke-width:0.24451435;stroke-miterlimit:4;stroke-dasharray:none;stroke-opacity:1"
       d="m 209.53533,245.46262 0,-63.83155 53.01969,0 53.01969,0 0,63.83155 0,63.83155 -53.01969,0 -53.01969,0 0,-63.83155 z"
       id="path4920"
       inkscape:connector-curvature="0" />
    <path
       style="opacity:1;fill:#323ae7;fill-opacity:1;stroke:#bbd23b;stroke-width:0.24451435;stroke-miterlimit:4;stroke-dasharray:none;stroke-opacity:1"
       d="m 209.95117,245.46262 0,-63.41571 52.60385,0 52.60385,0 0,63.41571 0,63.41571 -52.60385,0 -52.60385,0 0,-63.41571 z"
       id="path4922"
       inkscape:connector-curvature="0" />
    <path
       style="opacity:1;fill:#323ae7;fill-opacity:1;stroke:#bbd23b;stroke-width:0.24451435;stroke-miterlimit:4;stroke-dasharray:none;stroke-opacity:1"
       d="m 210.36701,245.46262 0,-62.99987 52.18801,0 52.18801,0 0,62.99987 0,62.99987 -52.18801,0 -52.18801,0 0,-62.99987 z"
       id="path4924"
       inkscape:connector-curvature="0" />
    <path
       style="opacity:1;fill:#323ae7;fill-opacity:1;stroke:#bbd23b;stroke-width:0.24451435;stroke-miterlimit:4;stroke-dasharray:none;stroke-opacity:1"
       d="m 210.78285,245.46262 0,-62.58403 51.77217,0 51.77217,0 0,62.58403 0,62.58403 -51.77217,0 -51.77217,0 0,-62.58403 z"
       id="path4926"
       inkscape:connector-curvature="0" />
    <path
       style="opacity:1;fill:#323ae7;fill-opacity:1;stroke:#bbd23b;stroke-width:0.24451435;stroke-miterlimit:4;stroke-dasharray:none;stroke-opacity:1"
       d="m 211.19869,245.46262 0,-62.16819 51.35633,0 51.35633,0 0,62.16819 0,62.16819 -51.35633,0 -51.35633,0 0,-62.16819 z"
       id="path4928"
       inkscape:connector-curvature="0" />
    <path
       style="opacity:1;fill:#323ae7;fill-opacity:1;stroke:#bbd23b;stroke-width:0.24451435;stroke-miterlimit:4;stroke-dasharray:none;stroke-opacity:1"
       d="m 211.61453,245.46262 0,-61.75235 50.94049,0 50.94048,0 0,61.75235 0,61.75235 -50.94048,0 -50.94049,0 0,-61.75235 z"
       id="path4930"
       inkscape:connector-curvature="0" />
    <path
       style="opacity:1;fill:#323ae7;fill-opacity:1;stroke:#bbd23b;stroke-width:0.24451435;stroke-miterlimit:4;stroke-dasharray:none;stroke-opacity:1"
       d="m 212.03037,245.46262 0,-61.33651 50.52465,0 50.52464,0 0,61.33651 0,61.33651 -50.52464,0 -50.52465,0 0,-61.33651 z"
       id="path4932"
       inkscape:connector-curvature="0" />
    <path
       style="opacity:1;fill:#323ae7;fill-opacity:1;stroke:#bbd23b;stroke-width:0.24451435;stroke-miterlimit:4;stroke-dasharray:none;stroke-opacity:1"
       d="m 212.44621,245.46262 0,-60.92067 50.10881,0 50.1088,0 0,60.92067 0,60.92067 -50.1088,0 -50.10881,0 0,-60.92067 z"
       id="path4934"
       inkscape:connector-curvature="0" />
    <path
       style="opacity:1;fill:#323ae7;fill-opacity:1;stroke:#bbd23b;stroke-width:0.24451435;stroke-miterlimit:4;stroke-dasharray:none;stroke-opacity:1"
       d="m 212.86205,245.46262 0,-60.50482 49.69297,0 49.69296,0 0,60.50482 0,60.50482 -49.69296,0 -49.69297,0 0,-60.50482 z"
       id="path4936"
       inkscape:connector-curvature="0" />
    <path
       style="opacity:1;fill:#323ae7;fill-opacity:1;stroke:#bbd23b;stroke-width:0.24451435;stroke-miterlimit:4;stroke-dasharray:none;stroke-opacity:1"
       d="m 213.27789,245.46262 0,-60.08898 49.27713,0 49.27712,0 0,60.08898 0,60.08898 -49.27712,0 -49.27713,0 0,-60.08898 z"
       id="path4938"
       inkscape:connector-curvature="0" />
    <path
       style="opacity:1;fill:#323ae7;fill-opacity:1;stroke:#bbd23b;stroke-width:1;stroke-miterlimit:4;stroke-dasharray:none;stroke-opacity:1"
       d="m 213.69373,245.46262 0,-59.67314 48.86129,0 48.86128,0 0,59.67314 0,59.67314 -48.86128,0 -48.86129,0 0,-59.67314 z"
       id="path4940"
       inkscape:connector-curvature="0" />
    <path
       style="opacity:1;fill:#323ae7;fill-opacity:1;stroke:#bbd23b;stroke-width:0.41584072;stroke-miterlimit:4;stroke-dasharray:none;stroke-opacity:1"
       d="m 214.52541,245.46262 0,-58.84146 48.02961,0 48.0296,0 0,58.84146 0,58.84146 -48.0296,0 -48.02961,0 0,-58.84146 z"
       id="path4942"
       inkscape:connector-curvature="0" />
    <path
       style="opacity:1;fill:#323ae7;fill-opacity:1;stroke:#bbd23b;stroke-width:0.41584072;stroke-miterlimit:4;stroke-dasharray:none;stroke-opacity:1"
       d="m 214.94125,245.46262 0,-58.42562 47.61377,0 47.61376,0 0,58.42562 0,58.42562 -47.61376,0 -47.61377,0 0,-58.42562 z"
       id="path4944"
       inkscape:connector-curvature="0" />
    <path
       style="opacity:1;fill:#323ae7;fill-opacity:1;stroke:#bbd23b;stroke-width:0.41584072;stroke-miterlimit:4;stroke-dasharray:none;stroke-opacity:1"
       d="m 215.3571,245.46262 0,-58.00978 47.19792,0 47.19792,0 0,58.00978 0,58.00978 -47.19792,0 -47.19792,0 0,-58.00978 z"
       id="path4946"
       inkscape:connector-curvature="0" />
    <path
       style="opacity:1;fill:#323ae7;fill-opacity:1;stroke:#bbd23b;stroke-width:0.41584072;stroke-miterlimit:4;stroke-dasharray:none;stroke-opacity:1"
       d="m 215.77294,245.46262 0,-57.59394 46.78208,0 46.78208,0 0,57.59394 0,57.59394 -46.78208,0 -46.78208,0 0,-57.59394 z"
       id="path4948"
       inkscape:connector-curvature="0" />
    <path
       style="opacity:1;fill:#323ae7;fill-opacity:1;stroke:#bbd23b;stroke-width:0.41584072;stroke-miterlimit:4;stroke-dasharray:none;stroke-opacity:1"
       d="m 216.18878,245.46262 0,-57.1781 46.36624,0 46.36624,0 0,57.1781 0,57.1781 -46.36624,0 -46.36624,0 0,-57.1781 z"
       id="path4950"
       inkscape:connector-curvature="0" />
    <path
       style="opacity:1;fill:#323ae7;fill-opacity:1;stroke:#bbd23b;stroke-width:0.41584072;stroke-miterlimit:4;stroke-dasharray:none;stroke-opacity:1"
       d="m 216.60462,245.46262 0,-56.76226 45.9504,0 45.9504,0 0,56.76226 0,56.76226 -45.9504,0 -45.9504,0 0,-56.76226 z"
       id="path4952"
       inkscape:connector-curvature="0" />
    <path
       style="opacity:1;fill:#323ae7;fill-opacity:1;stroke:#bbd23b;stroke-width:0.41584072;stroke-miterlimit:4;stroke-dasharray:none;stroke-opacity:1"
       d="m 217.02046,245.46262 0,-56.34642 45.53456,0 45.53456,0 0,56.34642 0,56.34642 -45.53456,0 -45.53456,0 0,-56.34642 z"
       id="path4954"
       inkscape:connector-curvature="0" />
    <path
       style="opacity:1;fill:#323ae7;fill-opacity:1;stroke:#bbd23b;stroke-width:0.41584072;stroke-miterlimit:4;stroke-dasharray:none;stroke-opacity:1"
       d="m 217.4363,245.46262 0,-55.93058 45.11872,0 45.11871,0 0,55.93058 0,55.93058 -45.11871,0 -45.11872,0 0,-55.93058 z"
       id="path4956"
       inkscape:connector-curvature="0" />
    <path
       style="opacity:1;fill:#323ae7;fill-opacity:1;stroke:#bbd23b;stroke-width:0.41584072;stroke-miterlimit:4;stroke-dasharray:none;stroke-opacity:1"
       d="m 217.85214,245.46262 0,-55.51474 44.70288,0 44.70287,0 0,55.51474 0,55.51474 -44.70287,0 -44.70288,0 0,-55.51474 z"
       id="path4958"
       inkscape:connector-curvature="0" />
    <path
       style="opacity:1;fill:#323ae7;fill-opacity:1;stroke:#bbd23b;stroke-width:0.41584072;stroke-miterlimit:4;stroke-dasharray:none;stroke-opacity:1"
       d="m 218.26798,245.46262 0,-55.0989 44.28704,0 44.28703,0 0,55.0989 0,55.0989 -44.28703,0 -44.28704,0 0,-55.0989 z"
       id="path4960"
       inkscape:connector-curvature="0" />
    <path
       style="opacity:1;fill:#323ae7;fill-opacity:1;stroke:#bbd23b;stroke-width:0.41584072;stroke-miterlimit:4;stroke-dasharray:none;stroke-opacity:1"
       d="m 218.68382,245.46262 0,-54.68305 43.8712,0 43.87119,0 0,54.68305 0,54.68305 -43.87119,0 -43.8712,0 0,-54.68305 z"
       id="path4962"
       inkscape:connector-curvature="0" />
    <path
       style="opacity:1;fill:#323ae7;fill-opacity:1;stroke:#bbd23b;stroke-width:0.41584072;stroke-miterlimit:4;stroke-dasharray:none;stroke-opacity:1"
       d="m 219.09966,245.46262 0,-54.26721 43.45536,0 43.45535,0 0,54.26721 0,54.26721 -43.45535,0 -43.45536,0 0,-54.26721 z"
       id="path4964"
       inkscape:connector-curvature="0" />
    <path
       style="opacity:1;fill:#323ae7;fill-opacity:1;stroke:#bbd23b;stroke-width:0.41584072;stroke-miterlimit:4;stroke-dasharray:none;stroke-opacity:1"
       d="m 219.5155,245.46262 0,-53.85137 43.03952,0 43.03951,0 0,53.85137 0,53.85137 -43.03951,0 -43.03952,0 0,-53.85137 z"
       id="path4966"
       inkscape:connector-curvature="0" />
    <path
       style="opacity:1;fill:#323ae7;fill-opacity:1;stroke:#bbd23b;stroke-width:0.41584072;stroke-miterlimit:4;stroke-dasharray:none;stroke-opacity:1"
       d="m 219.93134,245.46262 0,-53.43553 42.62368,0 42.62367,0 0,53.43553 0,53.43553 -42.62367,0 -42.62368,0 0,-53.43553 z"
       id="path4968"
       inkscape:connector-curvature="0" />
    <path
       style="opacity:1;fill:#323ae7;fill-opacity:1;stroke:#bbd23b;stroke-width:0.41584072;stroke-miterlimit:4;stroke-dasharray:none;stroke-opacity:1"
       d="m 220.34718,245.46262 0,-53.01969 42.20784,0 42.20783,0 0,53.01969 0,53.01969 -42.20783,0 -42.20784,0 0,-53.01969 z"
       id="path4970"
       inkscape:connector-curvature="0" />
    <path
       style="opacity:1;fill:#323ae7;fill-opacity:1;stroke:#bbd23b;stroke-width:0.41584072;stroke-miterlimit:4;stroke-dasharray:none;stroke-opacity:1"
       d="m 220.76302,245.46262 0,-52.60385 41.792,0 41.79199,0 0,52.60385 0,52.60385 -41.79199,0 -41.792,0 0,-52.60385 z"
       id="path4972"
       inkscape:connector-curvature="0" />
    <path
       style="opacity:1;fill:#323ae7;fill-opacity:1;stroke:#bbd23b;stroke-width:0.41584072;stroke-miterlimit:4;stroke-dasharray:none;stroke-opacity:1"
       d="m 221.17887,245.46262 0,-52.18801 41.37615,0 41.37615,0 0,52.18801 0,52.18801 -41.37615,0 -41.37615,0 0,-52.18801 z"
       id="path4974"
       inkscape:connector-curvature="0" />
    <path
       style="opacity:1;fill:#323ae7;fill-opacity:1;stroke:#bbd23b;stroke-width:0.41584072;stroke-miterlimit:4;stroke-dasharray:none;stroke-opacity:1"
       d="m 221.59471,245.46262 0,-51.77217 40.96031,0 40.96031,0 0,51.77217 0,51.77217 -40.96031,0 -40.96031,0 0,-51.77217 z"
       id="path4976"
       inkscape:connector-curvature="0" />
    <path
       style="opacity:1;fill:#323ae7;fill-opacity:1;stroke:#bbd23b;stroke-width:0.41584072;stroke-miterlimit:4;stroke-dasharray:none;stroke-opacity:1"
       d="m 222.01055,245.46262 0,-51.35633 40.54447,0 40.54447,0 0,51.35633 0,51.35633 -40.54447,0 -40.54447,0 0,-51.35633 z"
       id="path4978"
       inkscape:connector-curvature="0" />
    <path
       style="opacity:1;fill:#323ae7;fill-opacity:1;stroke:#bbd23b;stroke-width:0.41584072;stroke-miterlimit:4;stroke-dasharray:none;stroke-opacity:1"
       d="m 222.42639,245.46262 0,-50.94049 40.12863,0 40.12863,0 0,50.94049 0,50.94049 -40.12863,0 -40.12863,0 0,-50.94049 z"
       id="path4980"
       inkscape:connector-curvature="0" />
    <path
       style="opacity:1;fill:#323ae7;fill-opacity:1;stroke:#bbd23b;stroke-width:0.41584072;stroke-miterlimit:4;stroke-dasharray:none;stroke-opacity:1"
       d="m 222.84223,245.46262 0,-50.52465 39.71279,0 39.71279,0 0,50.52465 0,50.52465 -39.71279,0 -39.71279,0 0,-50.52465 z"
       id="path4982"
       inkscape:connector-curvature="0" />
    <path
       style="opacity:1;fill:#323ae7;fill-opacity:1;stroke:#bbd23b;stroke-width:0.41584072;stroke-miterlimit:4;stroke-dasharray:none;stroke-opacity:1"
       d="m 223.25807,245.46262 0,-50.10881 39.29695,0 39.29694,0 0,50.10881 0,50.10881 -39.29694,0 -39.29695,0 0,-50.10881 z"
       id="path4984"
       inkscape:connector-curvature="0" />
    <path
       style="opacity:1;fill:#323ae7;fill-opacity:1;stroke:#bbd23b;stroke-width:0.41584072;stroke-miterlimit:4;stroke-dasharray:none;stroke-opacity:1"
       d="m 223.67391,245.46262 0,-49.69297 38.88111,0 38.8811,0 0,49.69297 0,49.69297 -38.8811,0 -38.88111,0 0,-49.69297 z"
       id="path4986"
       inkscape:connector-curvature="0" />
    <path
       style="opacity:1;fill:#323ae7;fill-opacity:1;stroke:#bbd23b;stroke-width:0.41584072;stroke-miterlimit:4;stroke-dasharray:none;stroke-opacity:1"
       d="m 224.08975,245.46262 0,-49.27713 38.46527,0 38.46526,0 0,49.27713 0,49.27712 -38.46526,0 -38.46527,0 0,-49.27712 z"
       id="path4988"
       inkscape:connector-curvature="0" />
    <path
       style="opacity:1;fill:#323ae7;fill-opacity:1;stroke:#bbd23b;stroke-width:0.41584072;stroke-miterlimit:4;stroke-dasharray:none;stroke-opacity:1"
       d="m 224.50559,245.46262 0,-48.86128 38.04943,0 38.04942,0 0,48.86128 0,48.86128 -38.04942,0 -38.04943,0 0,-48.86128 z"
       id="path4990"
       inkscape:connector-curvature="0" />
    <path
       style="opacity:1;fill:#323ae7;fill-opacity:1;stroke:#bbd23b;stroke-width:0.41584072;stroke-miterlimit:4;stroke-dasharray:none;stroke-opacity:1"
       d="m 224.92143,245.46262 0,-48.44544 37.63359,0 37.63358,0 0,48.44544 0,48.44544 -37.63358,0 -37.63359,0 0,-48.44544 z"
       id="path4992"
       inkscape:connector-curvature="0" />
    <path
       style="opacity:1;fill:#323ae7;fill-opacity:1;stroke:#bbd23b;stroke-width:0.41584072;stroke-miterlimit:4;stroke-dasharray:none;stroke-opacity:1"
       d="m 225.33727,245.46262 0,-48.0296 37.21775,0 37.21774,0 0,48.0296 0,48.0296 -37.21774,0 -37.21775,0 0,-48.0296 z"
       id="path4994"
       inkscape:connector-curvature="0" />
    <path
       style="opacity:1;fill:#323ae7;fill-opacity:1;stroke:#bbd23b;stroke-width:0.41584072;stroke-miterlimit:4;stroke-dasharray:none;stroke-opacity:1"
       d="m 225.75311,245.46262 0,-47.61376 36.80191,0 36.8019,0 0,47.61376 0,47.61376 -36.8019,0 -36.80191,0 0,-47.61376 z"
       id="path4996"
       inkscape:connector-curvature="0" />
    <path
       style="opacity:1;fill:#323ae7;fill-opacity:1;stroke:#bbd23b;stroke-width:0.41584072;stroke-miterlimit:4;stroke-dasharray:none;stroke-opacity:1"
       d="m 226.16895,245.46262 0,-47.19792 36.38607,0 36.38606,0 0,47.19792 0,47.19792 -36.38606,0 -36.38607,0 0,-47.19792 z"
       id="path4998"
       inkscape:connector-curvature="0" />
    <path
       style="opacity:1;fill:#323ae7;fill-opacity:1;stroke:#bbd23b;stroke-width:0.41584072;stroke-miterlimit:4;stroke-dasharray:none;stroke-opacity:1"
       d="m 226.58479,245.46262 0,-46.78208 35.97023,0 35.97022,0 0,46.78208 0,46.78208 -35.97022,0 -35.97023,0 0,-46.78208 z"
       id="path5000"
       inkscape:connector-curvature="0" />
    <path
       style="opacity:1;fill:#323ae7;fill-opacity:1;stroke:#bbd23b;stroke-width:0.41584072;stroke-miterlimit:4;stroke-dasharray:none;stroke-opacity:1"
       d="m 227.00064,245.46262 0,-46.36624 35.55438,0 35.55438,0 0,46.36624 0,46.36624 -35.55438,0 -35.55438,0 0,-46.36624 z"
       id="path5002"
       inkscape:connector-curvature="0" />
    <path
       style="opacity:1;fill:#323ae7;fill-opacity:1;stroke:#bbd23b;stroke-width:0.41584072;stroke-miterlimit:4;stroke-dasharray:none;stroke-opacity:1"
       d="m 227.41648,245.46262 0,-45.9504 35.13854,0 35.13854,0 0,45.9504 0,45.9504 -35.13854,0 -35.13854,0 0,-45.9504 z"
       id="path5004"
       inkscape:connector-curvature="0" />
    <path
       style="opacity:1;fill:#323ae7;fill-opacity:1;stroke:#bbd23b;stroke-width:0.41584072;stroke-miterlimit:4;stroke-dasharray:none;stroke-opacity:1"
       d="m 227.83232,245.46262 0,-45.53456 34.7227,0 34.7227,0 0,45.53456 0,45.53456 -34.7227,0 -34.7227,0 0,-45.53456 z"
       id="path5006"
       inkscape:connector-curvature="0" />
    <path
       style="opacity:1;fill:#323ae7;fill-opacity:1;stroke:#bbd23b;stroke-width:0.41584072;stroke-miterlimit:4;stroke-dasharray:none;stroke-opacity:1"
       d="m 228.24816,245.46262 0,-45.11872 34.30686,0 34.30686,0 0,45.11872 0,45.11872 -34.30686,0 -34.30686,0 0,-45.11872 z"
       id="path5008"
       inkscape:connector-curvature="0" />
    <path
       style="opacity:1;fill:#323ae7;fill-opacity:1;stroke:#bbd23b;stroke-width:0.41584072;stroke-miterlimit:4;stroke-dasharray:none;stroke-opacity:1"
       d="m 228.664,245.46262 0,-44.70288 33.89102,0 33.89102,0 0,44.70288 0,44.70288 -33.89102,0 -33.89102,0 0,-44.70288 z"
       id="path5010"
       inkscape:connector-curvature="0" />
    <path
       style="opacity:1;fill:#323ae7;fill-opacity:1;stroke:#bbd23b;stroke-width:0.41584072;stroke-miterlimit:4;stroke-dasharray:none;stroke-opacity:1"
       d="m 229.07984,245.46262 0,-44.28704 33.47518,0 33.47517,0 0,44.28704 0,44.28704 -33.47517,0 -33.47518,0 0,-44.28704 z"
       id="path5012"
       inkscape:connector-curvature="0" />
    <path
       style="opacity:1;fill:#323ae7;fill-opacity:1;stroke:#bbd23b;stroke-width:0.41584072;stroke-miterlimit:4;stroke-dasharray:none;stroke-opacity:1"
       d="m 229.49568,245.46262 0,-43.8712 33.05934,0 33.05933,0 0,43.8712 0,43.8712 -33.05933,0 -33.05934,0 0,-43.8712 z"
       id="path5014"
       inkscape:connector-curvature="0" />
    <path
       style="opacity:1;fill:#323ae7;fill-opacity:1;stroke:#bbd23b;stroke-width:0.41584072;stroke-miterlimit:4;stroke-dasharray:none;stroke-opacity:1"
       d="m 229.91152,245.46262 0,-43.45535 32.6435,0 32.64349,0 0,43.45535 0,43.45535 -32.64349,0 -32.6435,0 0,-43.45535 z"
       id="path5016"
       inkscape:connector-curvature="0" />
    <path
       style="opacity:1;fill:#323ae7;fill-opacity:1;stroke:#bbd23b;stroke-width:0.41584072;stroke-miterlimit:4;stroke-dasharray:none;stroke-opacity:1"
       d="m 230.32736,245.46262 0,-43.03951 32.22766,0 32.22765,0 0,43.03951 0,43.03951 -32.22765,0 -32.22766,0 0,-43.03951 z"
       id="path5018"
       inkscape:connector-curvature="0" />
    <path
       style="opacity:1;fill:#323ae7;fill-opacity:1;stroke:#bbd23b;stroke-width:0.41584072;stroke-miterlimit:4;stroke-dasharray:none;stroke-opacity:1"
       d="m 230.7432,245.46262 0,-42.62367 31.81182,0 31.81181,0 0,42.62367 0,42.62367 -31.81181,0 -31.81182,0 0,-42.62367 z"
       id="path5020"
       inkscape:connector-curvature="0" />
    <path
       style="opacity:1;fill:#323ae7;fill-opacity:1;stroke:#bbd23b;stroke-width:0.41584072;stroke-miterlimit:4;stroke-dasharray:none;stroke-opacity:1"
       d="m 231.15904,245.46262 0,-42.20783 31.39598,0 31.39597,0 0,42.20783 0,42.20783 -31.39597,0 -31.39598,0 0,-42.20783 z"
       id="path5022"
       inkscape:connector-curvature="0" />
    <path
       style="opacity:1;fill:#a78b1f;fill-opacity:1;stroke:#bbd23b;stroke-width:1;stroke-miterlimit:4;stroke-dasharray:none;stroke-opacity:1"
       d="m 231.57488,245.46262 0,-41.79199 30.98014,0 30.98013,0 0,41.79199 0,41.79199 -30.98013,0 -30.98014,0 0,-41.79199 z"
       id="path4215"
       inkscape:connector-curvature="0" />
    <path
       style="opacity:1;fill:#a78b1f;fill-opacity:1;stroke:#bbd23b;stroke-width:0.41584072;stroke-miterlimit:4;stroke-dasharray:none;stroke-opacity:1"
       d="m 232.18339,286.32169 c -0.10953,-0.28739 -0.15091,-18.8611 -0.0919,-41.27491 l 0.1072,-40.75239 30.35638,0 30.35637,0 0,41.16823 0,41.16823 -30.26442,0.10668 c -23.99124,0.0846 -30.3057,-0.002 -30.46358,-0.41584 z"
       id="path4217"
       inkscape:connector-curvature="0" />
    <path
       style="opacity:1;fill:#a78b1f;fill-opacity:1;stroke:#bbd23b;stroke-width:0.41584072;stroke-miterlimit:4;stroke-dasharray:none;stroke-opacity:1"
       d="m 232.92636,286.14753 c -0.41087,-0.1658 -0.5198,-8.74239 -0.5198,-40.92749 l 0,-40.71773 30.14846,0 30.14845,0 0,40.96031 0,40.96031 -29.62865,-0.0328 c -16.29576,-0.0181 -29.86257,-0.12722 -30.14846,-0.24257 l 0,-2e-5 z"
       id="path4219"
       inkscape:connector-curvature="0" />
    <path
       style="opacity:1;fill:#a78b1f;fill-opacity:1;stroke:#bbd23b;stroke-width:0.41584072;stroke-miterlimit:4;stroke-dasharray:none;stroke-opacity:1"
       d="m 233.0845,285.07145 c -0.13791,-0.51461 -0.2533,-18.75962 -0.25642,-40.54447 l -0.006,-39.60883 29.73262,0 29.73261,0 0,40.54447 0,40.54447 -29.47619,0 -29.4762,0 -0.25074,-0.93564 z"
       id="path4221"
       inkscape:connector-curvature="0" />
    <path
       style="opacity:1;fill:#a78b1f;fill-opacity:1;stroke:#bbd23b;stroke-width:0.41584072;stroke-miterlimit:4;stroke-dasharray:none;stroke-opacity:1"
       d="m 233.51547,285.31402 c -0.15247,-0.15247 -0.27723,-18.21036 -0.27723,-40.12863 l 0,-39.8514 29.31678,0 29.31677,0 0,40.12863 0,40.12863 -29.03955,0 c -15.97175,0 -29.16429,-0.12476 -29.31677,-0.27723 z"
       id="path4223"
       inkscape:connector-curvature="0" />
    <path
       style="opacity:1;fill:#a78b1f;fill-opacity:1;stroke:#bbd23b;stroke-width:0.41584072;stroke-miterlimit:4;stroke-dasharray:none;stroke-opacity:1"
       d="m 233.65409,245.46262 0,-39.71279 28.90093,0 28.90093,0 0,39.71279 0,39.71279 -28.90093,0 -28.90093,0 0,-39.71279 z"
       id="path4225"
       inkscape:connector-curvature="0" />
    <path
       style="opacity:1;fill:#a78b1f;fill-opacity:1;stroke:#bbd23b;stroke-width:0.41584072;stroke-miterlimit:4;stroke-dasharray:none;stroke-opacity:1"
       d="m 234.06993,245.46262 0,-39.29695 28.48509,0 28.48508,0 0,39.29695 0,39.29695 -28.48508,0 -28.48509,0 0,-39.29695 z"
       id="path4227"
       inkscape:connector-curvature="0" />
    <path
       style="opacity:1;fill:#a78b1f;fill-opacity:1;stroke:#bbd23b;stroke-width:0.41584072;stroke-miterlimit:4;stroke-dasharray:none;stroke-opacity:1"
       d="m 234.48577,245.46262 0,-38.88111 28.06925,0 28.06924,0 0,38.88111 0,38.8811 -28.06924,0 -28.06925,0 0,-38.8811 z"
       id="path4229"
       inkscape:connector-curvature="0" />
    <path
       style="opacity:1;fill:#a78b1f;fill-opacity:1;stroke:#bbd23b;stroke-width:0.41584072;stroke-miterlimit:4;stroke-dasharray:none;stroke-opacity:1"
       d="m 234.90161,245.46262 0,-38.46527 27.65341,0 27.6534,0 0,38.46527 0,38.46526 -27.6534,0 -27.65341,0 0,-38.46526 z"
       id="path4231"
       inkscape:connector-curvature="0" />
    <path
       style="opacity:1;fill:#a78b1f;fill-opacity:1;stroke:#bbd23b;stroke-width:0.41584072;stroke-miterlimit:4;stroke-dasharray:none;stroke-opacity:1"
       d="m 235.31745,245.46262 0,-38.04943 27.23757,0 27.23756,0 0,38.04943 0,38.04942 -27.23756,0 -27.23757,0 0,-38.04942 z"
       id="path4233"
       inkscape:connector-curvature="0" />
    <path
       style="opacity:1;fill:#a78b1f;fill-opacity:1;stroke:#bbd23b;stroke-width:0.41584072;stroke-miterlimit:4;stroke-dasharray:none;stroke-opacity:1"
       d="m 235.73329,245.46262 0,-37.63359 26.82173,0 26.82172,0 0,37.63359 0,37.63358 -26.82172,0 -26.82173,0 0,-37.63358 z"
       id="path4235"
       inkscape:connector-curvature="0" />
    <path
       style="opacity:1;fill:#a78b1f;fill-opacity:1;stroke:#bbd23b;stroke-width:0.41584072;stroke-miterlimit:4;stroke-dasharray:none;stroke-opacity:1"
       d="m 236.14913,245.46262 0,-37.21775 26.40589,0 26.40588,0 0,37.21775 0,37.21774 -26.40588,0 -26.40589,0 0,-37.21774 z"
       id="path4237"
       inkscape:connector-curvature="0" />
    <path
       style="opacity:1;fill:#a78b1f;fill-opacity:1;stroke:#bbd23b;stroke-width:0.41584072;stroke-miterlimit:4;stroke-dasharray:none;stroke-opacity:1"
       d="m 236.56497,245.46262 0,-36.80191 25.99005,0 25.99004,0 0,36.80191 0,36.8019 -25.99004,0 -25.99005,0 0,-36.8019 z"
       id="path4239"
       inkscape:connector-curvature="0" />
    <path
       style="opacity:1;fill:#a78b1f;fill-opacity:1;stroke:#bbd23b;stroke-width:0.41584072;stroke-miterlimit:4;stroke-dasharray:none;stroke-opacity:1"
       d="m 236.98081,245.46262 0,-36.38607 25.57421,0 25.5742,0 0,36.38607 0,36.38606 -25.5742,0 -25.57421,0 0,-36.38606 z"
       id="path4241"
       inkscape:connector-curvature="0" />
    <path
       style="opacity:1;fill:#a78b1f;fill-opacity:1;stroke:#bbd23b;stroke-width:0.41584072;stroke-miterlimit:4;stroke-dasharray:none;stroke-opacity:1"
       d="m 237.39665,245.46262 0,-35.97022 25.15837,0 25.15836,0 0,35.97022 0,35.97022 -25.15836,0 -25.15837,0 0,-35.97022 z"
       id="path4243"
       inkscape:connector-curvature="0" />
    <path
       style="opacity:1;fill:#a78b1f;fill-opacity:1;stroke:#bbd23b;stroke-width:0.41584072;stroke-miterlimit:4;stroke-dasharray:none;stroke-opacity:1"
       d="m 237.81249,245.46262 0,-35.55438 24.74253,0 24.74252,0 0,35.55438 0,35.55438 -24.74252,0 -24.74253,0 0,-35.55438 z"
       id="path4245"
       inkscape:connector-curvature="0" />
    <path
       style="opacity:1;fill:#a78b1f;fill-opacity:1;stroke:#bbd23b;stroke-width:0.41584072;stroke-miterlimit:4;stroke-dasharray:none;stroke-opacity:1"
       d="m 238.22833,245.46262 0,-35.13854 24.32669,0 24.32668,0 0,35.13854 0,35.13854 -24.32668,0 -24.32669,0 0,-35.13854 z"
       id="path4247"
       inkscape:connector-curvature="0" />
    <path
       style="opacity:1;fill:#a78b1f;fill-opacity:1;stroke:#bbd23b;stroke-width:0.41584072;stroke-miterlimit:4;stroke-dasharray:none;stroke-opacity:1"
       d="m 238.64417,245.46262 0,-34.7227 23.91085,0 23.91084,0 0,34.7227 0,34.7227 -23.91084,0 -23.91085,0 0,-34.7227 z"
       id="path4249"
       inkscape:connector-curvature="0" />
    <path
       style="opacity:1;fill:#a78b1f;fill-opacity:1;stroke:#bbd23b;stroke-width:0.41584072;stroke-miterlimit:4;stroke-dasharray:none;stroke-opacity:1"
       d="m 239.06001,245.46262 0,-34.30686 23.49501,0 23.495,0 0,34.30686 0,34.30686 -23.495,0 -23.49501,0 0,-34.30686 z"
       id="path4251"
       inkscape:connector-curvature="0" />
    <path
       style="opacity:1;fill:#a78b1f;fill-opacity:1;stroke:#bbd23b;stroke-width:0.41584072;stroke-miterlimit:4;stroke-dasharray:none;stroke-opacity:1"
       d="m 239.47586,245.46262 0,-33.89102 23.07916,0 23.07916,0 0,33.89102 0,33.89102 -23.07916,0 -23.07916,0 0,-33.89102 z"
       id="path4253"
       inkscape:connector-curvature="0" />
    <path
       style="opacity:1;fill:#a78b1f;fill-opacity:1;stroke:#bbd23b;stroke-width:0.41584072;stroke-miterlimit:4;stroke-dasharray:none;stroke-opacity:1"
       d="m 239.8917,245.46262 0,-33.47518 22.66332,0 22.66331,0 0,33.47518 0,33.47518 -22.66331,0 -22.66332,0 0,-33.47518 z"
       id="path4255"
       inkscape:connector-curvature="0" />
    <path
       style="opacity:1;fill:#a78b1f;fill-opacity:1;stroke:#bbd23b;stroke-width:0.41584072;stroke-miterlimit:4;stroke-dasharray:none;stroke-opacity:1"
       d="m 240.30754,245.46262 0,-33.05934 22.24748,0 22.24747,0 0,33.05934 0,33.05933 -22.24747,0 -22.24748,0 0,-33.05933 z"
       id="path4257"
       inkscape:connector-curvature="0" />
    <path
       style="opacity:1;fill:#a78b1f;fill-opacity:1;stroke:#bbd23b;stroke-width:0.41584072;stroke-miterlimit:4;stroke-dasharray:none;stroke-opacity:1"
       d="m 240.72338,245.46262 0,-32.6435 21.83164,0 21.83163,0 0,32.6435 0,32.64349 -21.83163,0 -21.83164,0 0,-32.64349 z"
       id="path4259"
       inkscape:connector-curvature="0" />
    <path
       style="opacity:1;fill:#a78b1f;fill-opacity:1;stroke:#bbd23b;stroke-width:0.41584072;stroke-miterlimit:4;stroke-dasharray:none;stroke-opacity:1"
       d="m 241.13922,245.46262 0,-32.22766 21.4158,0 21.41579,0 0,32.22766 0,32.22765 -21.41579,0 -21.4158,0 0,-32.22765 z"
       id="path4261"
       inkscape:connector-curvature="0" />
    <path
       style="opacity:1;fill:#a78b1f;fill-opacity:1;stroke:#bbd23b;stroke-width:0.41584072;stroke-miterlimit:4;stroke-dasharray:none;stroke-opacity:1"
       d="m 241.55506,245.46262 0,-31.81182 20.99996,0 20.99995,0 0,31.81182 0,31.81181 -20.99995,0 -20.99996,0 0,-31.81181 z"
       id="path4263"
       inkscape:connector-curvature="0" />
    <path
       style="opacity:1;fill:#a78b1f;fill-opacity:1;stroke:#bbd23b;stroke-width:0.41584072;stroke-miterlimit:4;stroke-dasharray:none;stroke-opacity:1"
       d="m 241.9709,245.46262 0,-31.39598 20.58412,0 20.58411,0 0,31.39598 0,31.39597 -20.58411,0 -20.58412,0 0,-31.39597 z"
       id="path4265"
       inkscape:connector-curvature="0" />
    <path
       style="opacity:1;fill:#a78b1f;fill-opacity:1;stroke:#bbd23b;stroke-width:0.41584072;stroke-miterlimit:4;stroke-dasharray:none;stroke-opacity:1"
       d="m 242.38674,245.46262 0,-30.98014 20.16828,0 20.16827,0 0,30.98014 0,30.98013 -20.16827,0 -20.16828,0 0,-30.98013 z"
       id="path4267"
       inkscape:connector-curvature="0" />
    <path
       style="opacity:1;fill:#a78b1f;fill-opacity:1;stroke:#bbd23b;stroke-width:0.41584072;stroke-miterlimit:4;stroke-dasharray:none;stroke-opacity:1"
       d="m 242.80258,245.46262 0,-30.5643 19.75244,0 19.75243,0 0,30.5643 0,30.56429 -19.75243,0 -19.75244,0 0,-30.56429 z"
       id="path4269"
       inkscape:connector-curvature="0" />
    <path
       style="opacity:1;fill:#a78b1f;fill-opacity:1;stroke:#bbd23b;stroke-width:0.41584072;stroke-miterlimit:4;stroke-dasharray:none;stroke-opacity:1"
       d="m 243.21842,245.46262 0,-30.14845 19.3366,0 19.33659,0 0,30.14845 0,30.14845 -19.33659,0 -19.3366,0 0,-30.14845 z"
       id="path4271"
       inkscape:connector-curvature="0" />
    <path
       style="opacity:1;fill:#a78b1f;fill-opacity:1;stroke:#bbd23b;stroke-width:0.41584072;stroke-miterlimit:4;stroke-dasharray:none;stroke-opacity:1"
       d="m 243.63426,245.46262 0,-29.73261 18.92076,0 18.92075,0 0,29.73261 0,29.73261 -18.92075,0 -18.92076,0 0,-29.73261 z"
       id="path4273"
       inkscape:connector-curvature="0" />
    <path
       style="opacity:1;fill:#a78b1f;fill-opacity:1;stroke:#bbd23b;stroke-width:0.41584072;stroke-miterlimit:4;stroke-dasharray:none;stroke-opacity:1"
       d="m 244.0501,245.46262 0,-29.31677 18.50492,0 18.50491,0 0,29.31677 0,29.31677 -18.50491,0 -18.50492,0 0,-29.31677 z"
       id="path4275"
       inkscape:connector-curvature="0" />
    <path
       style="opacity:1;fill:#a78b1f;fill-opacity:1;stroke:#bbd23b;stroke-width:0.41584072;stroke-miterlimit:4;stroke-dasharray:none;stroke-opacity:1"
       d="m 244.46594,245.46262 0,-28.90093 18.08908,0 18.08907,0 0,28.90093 0,28.90093 -18.08907,0 -18.08908,0 0,-28.90093 z"
       id="path4277"
       inkscape:connector-curvature="0" />
    <path
       style="opacity:1;fill:#a78b1f;fill-opacity:1;stroke:#bbd23b;stroke-width:0.41584072;stroke-miterlimit:4;stroke-dasharray:none;stroke-opacity:1"
       d="m 244.88178,245.46262 0,-28.48509 17.67324,0 17.67323,0 0,28.48509 0,28.48509 -17.67323,0 -17.67324,0 0,-28.48509 z"
       id="path4279"
       inkscape:connector-curvature="0" />
    <path
       style="opacity:1;fill:#a78b1f;fill-opacity:1;stroke:#bbd23b;stroke-width:0.41584072;stroke-miterlimit:4;stroke-dasharray:none;stroke-opacity:1"
       d="m 245.29763,245.46262 0,-28.06925 17.25739,0 17.25739,0 0,28.06925 0,28.06925 -17.25739,0 -17.25739,0 0,-28.06925 z"
       id="path4281"
       inkscape:connector-curvature="0" />
    <path
       style="opacity:1;fill:#a78b1f;fill-opacity:1;stroke:#bbd23b;stroke-width:0.41584072;stroke-miterlimit:4;stroke-dasharray:none;stroke-opacity:1"
       d="m 245.71347,245.46262 0,-27.65341 16.84155,0 16.84154,0 0,27.65341 0,27.65341 -16.84154,0 -16.84155,0 0,-27.65341 z"
       id="path4283"
       inkscape:connector-curvature="0" />
    <path
       style="opacity:1;fill:#a78b1f;fill-opacity:1;stroke:#bbd23b;stroke-width:0.41584072;stroke-miterlimit:4;stroke-dasharray:none;stroke-opacity:1"
       d="m 246.12931,245.46262 0,-27.23757 16.42571,0 16.4257,0 0,27.23757 0,27.23756 -16.4257,0 -16.42571,0 0,-27.23756 z"
       id="path4285"
       inkscape:connector-curvature="0" />
    <path
       style="opacity:1;fill:#a78b1f;fill-opacity:1;stroke:#bbd23b;stroke-width:0.41584072;stroke-miterlimit:4;stroke-dasharray:none;stroke-opacity:1"
       d="m 246.54515,245.46262 0,-26.82173 16.00987,0 16.00986,0 0,26.82173 0,26.82172 -16.00986,0 -16.00987,0 0,-26.82172 z"
       id="path4287"
       inkscape:connector-curvature="0" />
    <path
       style="opacity:1;fill:#a78b1f;fill-opacity:1;stroke:#bbd23b;stroke-width:0.41584072;stroke-miterlimit:4;stroke-dasharray:none;stroke-opacity:1"
       d="m 246.96099,245.46262 0,-26.40589 15.59403,0 15.59402,0 0,26.40589 0,26.40588 -15.59402,0 -15.59403,0 0,-26.40588 z"
       id="path4289"
       inkscape:connector-curvature="0" />
    <path
       style="opacity:1;fill:#a78b1f;fill-opacity:1;stroke:#bbd23b;stroke-width:0.41584072;stroke-miterlimit:4;stroke-dasharray:none;stroke-opacity:1"
       d="m 247.37683,245.46262 0,-25.99005 15.17819,0 15.17818,0 0,25.99005 0,25.99004 -15.17818,0 -15.17819,0 0,-25.99004 z"
       id="path4291"
       inkscape:connector-curvature="0" />
    <path
       style="opacity:1;fill:#a78b1f;fill-opacity:1;stroke:#bbd23b;stroke-width:0.41584072;stroke-miterlimit:4;stroke-dasharray:none;stroke-opacity:1"
       d="m 247.79267,245.46262 0,-25.57421 14.76235,0 14.76234,0 0,25.57421 0,25.5742 -14.76234,0 -14.76235,0 0,-25.5742 z"
       id="path4293"
       inkscape:connector-curvature="0" />
    <path
       style="opacity:1;fill:#a78b1f;fill-opacity:1;stroke:#bbd23b;stroke-width:0.41584072;stroke-miterlimit:4;stroke-dasharray:none;stroke-opacity:1"
       d="m 248.20851,245.46262 0,-25.15837 14.34651,0 14.3465,0 0,25.15837 0,25.15836 -14.3465,0 -14.34651,0 0,-25.15836 z"
       id="path4295"
       inkscape:connector-curvature="0" />
    <path
       style="opacity:1;fill:#a78b1f;fill-opacity:1;stroke:#bbd23b;stroke-width:0.41584072;stroke-miterlimit:4;stroke-dasharray:none;stroke-opacity:1"
       d="m 248.62435,245.46262 0,-24.74253 13.93067,0 13.93066,0 0,24.74253 0,24.74252 -13.93066,0 -13.93067,0 0,-24.74252 z"
       id="path4297"
       inkscape:connector-curvature="0" />
    <path
       style="opacity:1;fill:#323ae7;fill-opacity:1;stroke:#bbd23b;stroke-width:2.94043803;stroke-miterlimit:4;stroke-dasharray:none;stroke-opacity:1"
       d="m 248.8266,245.42847 0,-24.55266 13.67304,0 13.67303,0 0,24.55266 0,24.55265 -13.67303,0 -13.67304,0 0,-24.55265 z"
       id="path4250"
       inkscape:connector-curvature="0" />
    <path
       style="opacity:1;fill:#323ae7;fill-opacity:1;stroke:#bbd23b;stroke-width:2.94043803;stroke-miterlimit:4;stroke-dasharray:none;stroke-opacity:1"
       d="m 250.29682,245.42847 0,-23.08244 12.20282,0 12.20281,0 0,23.08244 0,23.08243 -12.20281,0 -12.20282,0 0,-23.08243 z"
       id="path4252"
       inkscape:connector-curvature="0" />
    <path
       style="opacity:1;fill:#323ae7;fill-opacity:1;stroke:#bbd23b;stroke-width:2.94043803;stroke-miterlimit:4;stroke-dasharray:none;stroke-opacity:1"
       d="m 251.76704,245.42847 0,-21.61222 10.7326,0 10.7326,0 0,21.61222 0,21.61222 -10.7326,0 -10.7326,0 0,-21.61222 z"
       id="path4254"
       inkscape:connector-curvature="0" />
    <path
       style="opacity:1;fill:#323ae7;fill-opacity:1;stroke:#bbd23b;stroke-width:2.94043803;stroke-miterlimit:4;stroke-dasharray:none;stroke-opacity:1"
       d="m 253.23726,245.42847 0,-20.142 9.26238,0 9.26238,0 0,20.142 0,20.142 -9.26238,0 -9.26238,0 0,-20.142 z"
       id="path4256"
       inkscape:connector-curvature="0" />
    <path
       style="opacity:1;fill:#323ae7;fill-opacity:1;stroke:#bbd23b;stroke-width:2.94043803;stroke-miterlimit:4;stroke-dasharray:none;stroke-opacity:1"
       d="m 254.70748,245.42847 0,-18.67178 7.79216,0 7.79216,0 0,18.67178 0,18.67178 -7.79216,0 -7.79216,0 0,-18.67178 z"
       id="path4258"
       inkscape:connector-curvature="0" />
    <path
       style="opacity:1;fill:#323ae7;fill-opacity:1;stroke:#bbd23b;stroke-width:2.94043803;stroke-miterlimit:4;stroke-dasharray:none;stroke-opacity:1"
       d="m 256.1777,245.42847 0,-17.20156 6.32194,0 6.32194,0 0,17.20156 0,17.20156 -6.32194,0 -6.32194,0 0,-17.20156 z"
       id="path4260"
       inkscape:connector-curvature="0" />
    <path
       style="opacity:1;fill:#323ae7;fill-opacity:1;stroke:#bbd23b;stroke-width:2.94043803;stroke-miterlimit:4;stroke-dasharray:none;stroke-opacity:1"
       d="m 257.64791,245.42847 0,-15.73135 4.85173,0 4.85172,0 0,15.73135 0,15.73134 -4.85172,0 -4.85173,0 0,-15.73134 z"
       id="path4262"
       inkscape:connector-curvature="0" />
    <path
       style="opacity:1;fill:#323ae7;fill-opacity:1;stroke:#bbd23b;stroke-width:2.94043803;stroke-miterlimit:4;stroke-dasharray:none;stroke-opacity:1"
       d="m 259.11813,245.42847 0,-14.26113 3.38151,0 3.3815,0 0,14.26113 0,14.26112 -3.3815,0 -3.38151,0 0,-14.26112 z"
       id="path4264"
       inkscape:connector-curvature="0" />
    <path
       style="opacity:1;fill:#323ae7;fill-opacity:1;stroke:#bbd23b;stroke-width:0.73510951;stroke-miterlimit:4;stroke-dasharray:none;stroke-opacity:1"
       d="m 260.60034,245.42622 0,-12.7909 1.87452,0 1.87453,0 0,12.7909 0,12.79091 -1.87453,0 -1.87452,0 0,-12.79091 z"
       id="path4266"
       inkscape:connector-curvature="0" />
    <path
       style="opacity:1;fill:#323ae7;fill-opacity:1;stroke:#bbd23b;stroke-width:0.73510951;stroke-miterlimit:4;stroke-dasharray:none;stroke-opacity:1"
       d="m 260.96789,245.42622 0,-12.42335 1.50697,0 1.50698,0 0,12.42335 0,12.42335 -1.50698,0 -1.50697,0 0,-12.42335 z"
       id="path4268"
       inkscape:connector-curvature="0" />
    <path
       style="opacity:1;fill:#323ae7;fill-opacity:1;stroke:#bbd23b;stroke-width:0.73510951;stroke-miterlimit:4;stroke-dasharray:none;stroke-opacity:1"
       d="m 261.33545,245.42622 0,-12.05579 1.13941,0 1.13942,0 0,12.05579 0,12.0558 -1.13942,0 -1.13941,0 0,-12.0558 z"
       id="path4270"
       inkscape:connector-curvature="0" />
    <path
       style="opacity:1;fill:#323ae7;fill-opacity:1;stroke:#bbd23b;stroke-width:0.73510951;stroke-miterlimit:4;stroke-dasharray:none;stroke-opacity:1"
       d="m 261.703,245.42622 0,-11.68824 0.77186,0 0.77187,0 0,11.68824 0,11.68824 -0.77187,0 -0.77186,0 0,-11.68824 z"
       id="path4272"
       inkscape:connector-curvature="0" />
    <path
       style="opacity:1;fill:#323ae7;fill-opacity:1;stroke:#bbd23b;stroke-width:0.73510951;stroke-miterlimit:4;stroke-dasharray:none;stroke-opacity:1"
       d="m 262.07055,245.42622 0,-11.32068 0.40431,0 0.40432,0 0,11.32068 0,11.32069 -0.40432,0 -0.40431,0 0,-11.32069 z"
       id="path4274"
       inkscape:connector-curvature="0" />
  </g>
  <g
     inkscape:groupmode="layer"
     id="layer12"
     inkscape:label="bordo"
     style="display:inline">
    <g
       style="display:inline"
       inkscape:label="bordo"
       id="layer9"
       transform="translate(1.0026851e-4,3.9980999e-4)">
      <g
         transform="matrix(0.98408585,0,0,0.97888478,-0.64744853,7.594777)"
         id="layer4"
         inkscape:label="bordo"
         style="display:inline;stroke-width:1;stroke-miterlimit:4;stroke-dasharray:none">
        <path
           style="color:#000000;clip-rule:nonzero;display:inline;overflow:visible;visibility:visible;opacity:1;isolation:auto;mix-blend-mode:normal;color-interpolation:sRGB;color-interpolation-filters:linearRGB;solid-color:#000000;solid-opacity:1;fill:none;fill-opacity:1;fill-rule:evenodd;stroke:#000000;stroke-width:1;stroke-linecap:butt;stroke-linejoin:miter;stroke-miterlimit:4;stroke-dasharray:none;stroke-dashoffset:0;stroke-opacity:1;color-rendering:auto;image-rendering:auto;shape-rendering:auto;text-rendering:auto;enable-background:accumulate"
           d="m 2.2796702,2.2791692 c 0,894.5596608 0,894.5596608 0,894.5596608 l 905.8926598,0 0,-894.5596608 z"
           id="path13590"
           inkscape:connector-curvature="0" />
      </g>
    </g>
  </g>
</svg>
