<?xml version="1.0" encoding="UTF-8" standalone="no"?>
<!-- Created with Inkscape (http://www.inkscape.org/) -->

<svg
   xmlns:dc="http://purl.org/dc/elements/1.1/"
   xmlns:cc="http://creativecommons.org/ns#"
   xmlns:rdf="http://www.w3.org/1999/02/22-rdf-syntax-ns#"
   xmlns:svg="http://www.w3.org/2000/svg"
   xmlns="http://www.w3.org/2000/svg"
   xmlns:sodipodi="http://sodipodi.sourceforge.net/DTD/sodipodi-0.dtd"
   xmlns:inkscape="http://www.inkscape.org/namespaces/inkscape"
   id="svg18115"
   version="1.1"
   inkscape:version="0.91 r13725"
   width="900"
   height="891.5625"
   viewBox="0 0 900 891.5625"
   sodipodi:docname="bedroom2.svg">
  
  <g
     inkscape:groupmode="layer"
     id="layer8"
     inkscape:label="pavimento"
     style="display:inline">
    <rect
       style="opacity:1;fill:none;fill-opacity:1;stroke:#bbd23b;stroke-width:1.00980175;stroke-miterlimit:4;stroke-dasharray:none;stroke-opacity:1"
       id="rect6052"
       width="83.079369"
       height="170.15532"
       x="140.13167"
       y="477.54297" />
    <rect
       style="opacity:1;fill:none;fill-opacity:1;stroke:#bbd23b;stroke-width:1.0112195;stroke-miterlimit:4;stroke-dasharray:none;stroke-opacity:1"
       id="rect6054"
       width="120.6021"
       height="170.85765"
       x="18.767681"
       y="476.79233" />
    <rect
       style="opacity:1;fill:none;fill-opacity:1;stroke:#bbd23b;stroke-width:0.98219585;stroke-miterlimit:4;stroke-dasharray:none;stroke-opacity:1"
       id="rect6056"
       width="118.94509"
       height="47.636101"
       x="18.943653"
       y="426.9791" />
    <path
       style="opacity:1;fill:none;fill-opacity:1;stroke:#d90f3e;stroke-width:0.67007399;stroke-miterlimit:4;stroke-dasharray:none;stroke-opacity:1"
       d="m 19.789079,450.85702 0,-23.11755 58.631474,0 58.631477,0 0,23.11755 0,23.11756 -58.631477,0 -58.631474,0 0,-23.11756 z"
       id="path6062"
       inkscape:connector-curvature="0" />
    <path
       style="opacity:1;fill:none;fill-opacity:1;stroke:#d90f3e;stroke-width:0.67007399;stroke-miterlimit:4;stroke-dasharray:none;stroke-opacity:1"
       d="m 20.459153,450.85702 0,-22.44747 57.9614,0 57.961397,0 0,22.44747 0,22.44748 -57.961397,0 -57.9614,0 0,-22.44748 z"
       id="path6064"
       inkscape:connector-curvature="0" />
    <path
       style="opacity:1;fill:none;fill-opacity:1;stroke:#d90f3e;stroke-width:0.67007399;stroke-miterlimit:4;stroke-dasharray:none;stroke-opacity:1"
       d="m 21.129227,450.85702 0,-21.7774 57.291326,0 57.291327,0 0,21.7774 0,21.77741 -57.291327,0 -57.291326,0 0,-21.77741 z"
       id="path6066"
       inkscape:connector-curvature="0" />
    <path
       style="opacity:1;fill:none;fill-opacity:1;stroke:#d90f3e;stroke-width:0.67007399;stroke-miterlimit:4;stroke-dasharray:none;stroke-opacity:1"
       d="m 21.799301,450.85702 0,-21.10733 56.621252,0 56.621257,0 0,21.10733 0,21.10734 -56.621257,0 -56.621252,0 0,-21.10734 z"
       id="path6068"
       inkscape:connector-curvature="0" />
    <path
       style="opacity:1;fill:none;fill-opacity:1;stroke:#d90f3e;stroke-width:0.67007399;stroke-miterlimit:4;stroke-dasharray:none;stroke-opacity:1"
       d="m 22.469375,450.85702 0,-20.43725 55.951178,0 55.951177,0 0,20.43725 0,20.43726 -55.951177,0 -55.951178,0 0,-20.43726 z"
       id="path6070"
       inkscape:connector-curvature="0" />
    <path
       style="opacity:1;fill:none;fill-opacity:1;stroke:#d90f3e;stroke-width:0.67007399;stroke-miterlimit:4;stroke-dasharray:none;stroke-opacity:1"
       d="m 23.139449,450.85702 0,-19.76718 55.281104,0 55.281107,0 0,19.76718 0,19.76719 -55.281107,0 -55.281104,0 0,-19.76719 z"
       id="path6072"
       inkscape:connector-curvature="0" />
    <path
       style="opacity:1;fill:none;fill-opacity:1;stroke:#d90f3e;stroke-width:0.67007399;stroke-miterlimit:4;stroke-dasharray:none;stroke-opacity:1"
       d="m 23.809523,450.85702 0,-19.0971 54.61103,0 54.611027,0 0,19.0971 0,19.09711 -54.611027,0 -54.61103,0 0,-19.09711 z"
       id="path6074"
       inkscape:connector-curvature="0" />
    <path
       style="opacity:1;fill:none;fill-opacity:1;stroke:#d90f3e;stroke-width:0.67007399;stroke-miterlimit:4;stroke-dasharray:none;stroke-opacity:1"
       d="m 24.479597,450.85702 0,-18.42703 53.940956,0 53.940957,0 0,18.42703 0,18.42704 -53.940957,0 -53.940956,0 0,-18.42704 z"
       id="path6076"
       inkscape:connector-curvature="0" />
    <path
       style="opacity:1;fill:none;fill-opacity:1;stroke:#d90f3e;stroke-width:0.67007399;stroke-miterlimit:4;stroke-dasharray:none;stroke-opacity:1"
       d="m 25.149671,450.85702 0,-17.75696 53.270882,0 53.270887,0 0,17.75696 0,17.75697 -53.270887,0 -53.270882,0 0,-17.75697 z"
       id="path6078"
       inkscape:connector-curvature="0" />
    <path
       style="opacity:1;fill:none;fill-opacity:1;stroke:#d90f3e;stroke-width:0.67007399;stroke-miterlimit:4;stroke-dasharray:none;stroke-opacity:1"
       d="m 25.819745,450.85702 0,-17.08688 52.600808,0 52.600807,0 0,17.08688 0,17.08689 -52.600807,0 -52.600808,0 0,-17.08689 z"
       id="path6080"
       inkscape:connector-curvature="0" />
    <path
       style="opacity:1;fill:none;fill-opacity:1;stroke:#d90f3e;stroke-width:0.67007399;stroke-miterlimit:4;stroke-dasharray:none;stroke-opacity:1"
       d="m 26.489819,450.85702 0,-16.41681 51.930734,0 51.930737,0 0,16.41681 0,16.41682 -51.930737,0 -51.930734,0 0,-16.41682 z"
       id="path6082"
       inkscape:connector-curvature="0" />
    <path
       style="opacity:1;fill:none;fill-opacity:1;stroke:#d90f3e;stroke-width:0.67007399;stroke-miterlimit:4;stroke-dasharray:none;stroke-opacity:1"
       d="m 27.159893,450.85702 0,-15.74673 51.26066,0 51.260657,0 0,15.74673 0,15.74674 -51.260657,0 -51.26066,0 0,-15.74674 z"
       id="path6084"
       inkscape:connector-curvature="0" />
    <path
       style="opacity:1;fill:none;fill-opacity:1;stroke:#d90f3e;stroke-width:0.67007399;stroke-miterlimit:4;stroke-dasharray:none;stroke-opacity:1"
       d="m 27.829967,450.85702 0,-15.07666 50.590586,0 50.590587,0 0,15.07666 0,15.07667 -50.590587,0 -50.590586,0 0,-15.07667 z"
       id="path6086"
       inkscape:connector-curvature="0" />
    <path
       style="opacity:1;fill:none;fill-opacity:1;stroke:#d90f3e;stroke-width:0.67007399;stroke-miterlimit:4;stroke-dasharray:none;stroke-opacity:1"
       d="m 28.500041,450.85702 0,-14.40659 49.920512,0 49.920517,0 0,14.40659 0,14.4066 -49.920517,0 -49.920512,0 0,-14.4066 z"
       id="path6088"
       inkscape:connector-curvature="0" />
    <path
       style="opacity:1;fill:none;fill-opacity:1;stroke:#d90f3e;stroke-width:0.67007399;stroke-miterlimit:4;stroke-dasharray:none;stroke-opacity:1"
       d="m 29.170115,450.85702 0,-13.73651 49.250438,0 49.250437,0 0,13.73651 0,13.73652 -49.250437,0 -49.250438,0 0,-13.73652 z"
       id="path6090"
       inkscape:connector-curvature="0" />
    <path
       style="opacity:1;fill:none;fill-opacity:1;stroke:#d90f3e;stroke-width:0.67007399;stroke-miterlimit:4;stroke-dasharray:none;stroke-opacity:1"
       d="m 29.840189,450.85702 0,-13.06644 48.580364,0 48.580367,0 0,13.06644 0,13.06645 -48.580367,0 -48.580364,0 0,-13.06645 z"
       id="path6092"
       inkscape:connector-curvature="0" />
    <path
       style="opacity:1;fill:none;fill-opacity:1;stroke:#d90f3e;stroke-width:0.67007399;stroke-miterlimit:4;stroke-dasharray:none;stroke-opacity:1"
       d="m 30.510263,450.85702 0,-12.39636 47.91029,0 47.910287,0 0,12.39636 0,12.39637 -47.910287,0 -47.91029,0 0,-12.39637 z"
       id="path6094"
       inkscape:connector-curvature="0" />
    <path
       style="opacity:1;fill:none;fill-opacity:1;stroke:#d90f3e;stroke-width:0.67007399;stroke-miterlimit:4;stroke-dasharray:none;stroke-opacity:1"
       d="m 31.180337,450.85702 0,-11.72629 47.240216,0 47.240217,0 0,11.72629 0,11.7263 -47.240217,0 -47.240216,0 0,-11.7263 z"
       id="path6096"
       inkscape:connector-curvature="0" />
    <path
       style="opacity:1;fill:none;fill-opacity:1;stroke:#d90f3e;stroke-width:0.67007399;stroke-miterlimit:4;stroke-dasharray:none;stroke-opacity:1"
       d="m 31.850411,450.85702 0,-11.05622 46.570142,0 46.570147,0 0,11.05622 0,11.05623 -46.570147,0 -46.570142,0 0,-11.05623 z"
       id="path6098"
       inkscape:connector-curvature="0" />
    <path
       style="opacity:1;fill:none;fill-opacity:1;stroke:#d90f3e;stroke-width:0.67007399;stroke-miterlimit:4;stroke-dasharray:none;stroke-opacity:1"
       d="m 32.520485,450.85702 0,-10.38614 45.900068,0 45.900067,0 0,10.38614 0,10.38615 -45.900067,0 -45.900068,0 0,-10.38615 z"
       id="path6100"
       inkscape:connector-curvature="0" />
    <path
       style="opacity:1;fill:none;fill-opacity:1;stroke:#d90f3e;stroke-width:0.67007399;stroke-miterlimit:4;stroke-dasharray:none;stroke-opacity:1"
       d="m 33.190559,450.85702 0,-9.71607 45.229994,0 45.229997,0 0,9.71607 0,9.71608 -45.229997,0 -45.229994,0 0,-9.71608 z"
       id="path6102"
       inkscape:connector-curvature="0" />
    <path
       style="opacity:1;fill:none;fill-opacity:1;stroke:#d90f3e;stroke-width:0.67007399;stroke-miterlimit:4;stroke-dasharray:none;stroke-opacity:1"
       d="m 33.860633,450.85702 0,-9.04599 44.55992,0 44.559917,0 0,9.04599 0,9.046 -44.559917,0 -44.55992,0 0,-9.046 z"
       id="path6104"
       inkscape:connector-curvature="0" />
    <path
       style="opacity:1;fill:none;fill-opacity:1;stroke:#d90f3e;stroke-width:0.67007399;stroke-miterlimit:4;stroke-dasharray:none;stroke-opacity:1"
       d="m 34.530707,450.85702 0,-8.37592 43.889846,0 43.889847,0 0,8.37592 0,8.37593 -43.889847,0 -43.889846,0 0,-8.37593 z"
       id="path6106"
       inkscape:connector-curvature="0" />
    <path
       style="opacity:1;fill:none;fill-opacity:1;stroke:#800000;stroke-width:0.67007399;stroke-miterlimit:4;stroke-dasharray:none;stroke-opacity:1"
       d="m 35.200781,450.85702 0,-7.70585 43.219772,0 43.219777,0 0,7.70585 0,7.70586 -43.219777,0 -43.219772,0 0,-7.70586 z"
       id="path6108"
       inkscape:connector-curvature="0" />
    <path
       style="opacity:1;fill:#800000;fill-opacity:1;stroke:#da2382;stroke-width:1;stroke-miterlimit:4;stroke-dasharray:none;stroke-opacity:1"
       d="m 35.870854,450.85702 0,-7.03578 42.549698,0 42.549698,0 0,7.03578 0,7.03578 -42.549698,0 -42.549698,0 0,-7.03578 z"
       id="path4178"
       inkscape:connector-curvature="0" />
    <path
       style="opacity:1;fill:#800000;fill-opacity:1;stroke:#da2382;stroke-width:1;stroke-miterlimit:4;stroke-dasharray:none;stroke-opacity:1"
       d="m 36.540928,450.85702 0,-6.3657 41.879624,0 41.879628,0 0,6.3657 0,6.3657 -41.879628,0 -41.879624,0 0,-6.3657 z"
       id="path4194"
       inkscape:connector-curvature="0" />
    <path
       style="opacity:1;fill:#800000;fill-opacity:1;stroke:#da2382;stroke-width:0.67007399;stroke-miterlimit:4;stroke-dasharray:none;stroke-opacity:1"
       d="m 37.211002,450.85702 0,-5.69563 41.20955,0 41.209548,0 0,5.69563 0,5.69563 -41.209548,0 -41.20955,0 0,-5.69563 z"
       id="path4196"
       inkscape:connector-curvature="0" />
    <path
       style="opacity:1;fill:#800000;fill-opacity:1;stroke:#da2382;stroke-width:0.67007399;stroke-miterlimit:4;stroke-dasharray:none;stroke-opacity:1"
       d="m 37.881076,450.85702 0,-5.02555 40.539476,0 40.539478,0 0,5.02555 0,5.02556 -40.539478,0 -40.539476,0 0,-5.02556 z"
       id="path4198"
       inkscape:connector-curvature="0" />
    <path
       style="opacity:1;fill:#800000;fill-opacity:1;stroke:#da2382;stroke-width:0.67007399;stroke-miterlimit:4;stroke-dasharray:none;stroke-opacity:1"
       d="m 38.55115,450.85702 0,-4.35548 39.869402,0 39.869398,0 0,4.35548 0,4.35548 -39.869398,0 -39.869402,0 0,-4.35548 z"
       id="path4200"
       inkscape:connector-curvature="0" />
    <path
       style="opacity:1;fill:#800000;fill-opacity:1;stroke:#da2382;stroke-width:0.67007399;stroke-miterlimit:4;stroke-dasharray:none;stroke-opacity:1"
       d="m 39.221224,450.85702 0,-3.68541 39.199328,0 39.199328,0 0,3.68541 0,3.68541 -39.199328,0 -39.199328,0 0,-3.68541 z"
       id="path4202"
       inkscape:connector-curvature="0" />
    <path
       style="opacity:1;fill:#800000;fill-opacity:1;stroke:#da2382;stroke-width:0.67007399;stroke-miterlimit:4;stroke-dasharray:none;stroke-opacity:1"
       d="m 59.203763,454.0402 c 10.806127,-0.10353 28.295058,-0.10346 38.864292,1.6e-4 10.569235,0.10363 1.727858,0.18833 -19.647503,0.18824 -21.37536,-9e-5 -30.022915,-0.0849 -19.216789,-0.1884 z"
       id="path4204"
       inkscape:connector-curvature="0" />
    <path
       style="opacity:1;fill:#800000;fill-opacity:1;stroke:#da2382;stroke-width:0.67007399;stroke-miterlimit:4;stroke-dasharray:none;stroke-opacity:1"
       d="m 66.57027,454.04067 c 6.74981,-0.10938 17.605009,-0.10921 24.122664,4e-4 6.517655,0.10961 0.995083,0.19911 -12.272382,0.19889 -13.267465,-2.2e-4 -18.600092,-0.0899 -11.850282,-0.19929 z"
       id="path4206"
       inkscape:connector-curvature="0" />
    <path
       style="opacity:1;fill:#800000;fill-opacity:1;stroke:#da2382;stroke-width:0.67007399;stroke-miterlimit:4;stroke-dasharray:none;stroke-opacity:1"
       d="m 66.57027,454.04067 c 6.74981,-0.10938 17.605009,-0.10921 24.122664,4e-4 6.517655,0.10961 0.995083,0.19911 -12.272382,0.19889 -13.267465,-2.2e-4 -18.600092,-0.0899 -11.850282,-0.19929 z"
       id="path4208"
       inkscape:connector-curvature="0" />
    <path
       style="opacity:1;fill:#800000;fill-opacity:1;stroke:#da2382;stroke-width:0.67007399;stroke-miterlimit:4;stroke-dasharray:none;stroke-opacity:1"
       d="m 39.891298,450.6895 0,-2.84781 38.529254,0 38.529258,0 0,2.84781 0,2.84782 -38.529258,0 -38.529254,0 0,-2.84782 z"
       id="path4210"
       inkscape:connector-curvature="0" />
    <path
       style="opacity:1;fill:#800000;fill-opacity:1;stroke:#da2382;stroke-width:0.67007399;stroke-miterlimit:4;stroke-dasharray:none;stroke-opacity:1"
       d="m 40.561372,450.85702 0,-2.34526 37.85918,0 37.859178,0 0,2.34526 0,2.34526 -37.859178,0 -37.85918,0 0,-2.34526 z"
       id="path4212"
       inkscape:connector-curvature="0" />
    <path
       style="opacity:1;fill:#800000;fill-opacity:1;stroke:#da2382;stroke-width:0.67007399;stroke-miterlimit:4;stroke-dasharray:none;stroke-opacity:1"
       d="m 41.231446,450.85702 0,-1.67518 37.189106,0 37.189108,0 0,1.67518 0,1.67519 -37.189108,0 -37.189106,0 0,-1.67519 z"
       id="path4214"
       inkscape:connector-curvature="0" />
    <path
       style="opacity:1;fill:#800000;fill-opacity:1;stroke:#da2382;stroke-width:0.67007399;stroke-miterlimit:4;stroke-dasharray:none;stroke-opacity:1"
       d="m 41.90152,450.85702 c 0,-0.88114 4.504386,-1.00511 36.519032,-1.00511 32.014648,0 36.519028,0.12397 36.519028,1.00511 0,0.88114 -4.50438,1.00511 -36.519028,1.00511 -32.014646,0 -36.519032,-0.12397 -36.519032,-1.00511 z"
       id="path4216"
       inkscape:connector-curvature="0" />
    <path
       style="opacity:1;fill:#800000;fill-opacity:1;stroke:#da2382;stroke-width:0.67007399;stroke-miterlimit:4;stroke-dasharray:none;stroke-opacity:1"
       d="m 66.57027,451.36038 c 6.74981,-0.10939 17.605009,-0.10921 24.122664,4e-4 6.517655,0.1096 0.995083,0.1991 -12.272382,0.19888 -13.267465,-2.1e-4 -18.600092,-0.0899 -11.850282,-0.19928 z"
       id="path4218"
       inkscape:connector-curvature="0" />
    <path
       style="opacity:1;fill:#e6e6e6;fill-opacity:1;stroke:#da2382;stroke-width:1;stroke-miterlimit:4;stroke-dasharray:none;stroke-opacity:1"
       d="m 19.789078,562.0893 0,-84.76436 59.301548,0 59.301544,0 0,84.76436 0,84.76436 -59.301544,0 -59.301548,0 0,-84.76436 z"
       id="path4220"
       inkscape:connector-curvature="0" />
    <path
       style="opacity:1;fill:#800000;fill-opacity:1;stroke:#da2382;stroke-width:0.67007399;stroke-miterlimit:4;stroke-dasharray:none;stroke-opacity:1"
       d="m 20.459152,562.0893 0,-84.09428 58.631474,0 58.631474,0 0,84.09428 0,84.09429 -58.631474,0 -58.631474,0 0,-84.09429 z"
       id="path4222"
       inkscape:connector-curvature="0" />
    <path
       style="opacity:1;fill:#800000;fill-opacity:1;stroke:#da2382;stroke-width:0.67007399;stroke-miterlimit:4;stroke-dasharray:none;stroke-opacity:1"
       d="m 21.129226,562.0893 0,-83.42421 57.9614,0 57.961404,0 0,83.42421 0,83.42422 -57.961404,0 -57.9614,0 0,-83.42422 z"
       id="path4224"
       inkscape:connector-curvature="0" />
    <path
       style="opacity:1;fill:#800000;fill-opacity:1;stroke:#da2382;stroke-width:0.67007399;stroke-miterlimit:4;stroke-dasharray:none;stroke-opacity:1"
       d="m 21.7993,562.0893 0,-82.75413 57.291326,0 57.291324,0 0,82.75413 0,82.75414 -57.291324,0 -57.291326,0 0,-82.75414 z"
       id="path4226"
       inkscape:connector-curvature="0" />
    <path
       style="opacity:1;fill:#800000;fill-opacity:1;stroke:#da2382;stroke-width:0.67007399;stroke-miterlimit:4;stroke-dasharray:none;stroke-opacity:1"
       d="m 22.469374,562.0893 0,-82.08406 56.621252,0 56.621254,0 0,82.08406 0,82.08407 -56.621254,0 -56.621252,0 0,-82.08407 z"
       id="path4228"
       inkscape:connector-curvature="0" />
    <path
       style="opacity:1;fill:#800000;fill-opacity:1;stroke:#da2382;stroke-width:0.67007399;stroke-miterlimit:4;stroke-dasharray:none;stroke-opacity:1"
       d="m 23.139448,562.0893 0,-81.41399 55.951178,0 55.951174,0 0,81.41399 0,81.41399 -55.951174,0 -55.951178,0 0,-81.41399 z"
       id="path4230"
       inkscape:connector-curvature="0" />
    <path
       style="opacity:1;fill:#800000;fill-opacity:1;stroke:#da2382;stroke-width:0.67007399;stroke-miterlimit:4;stroke-dasharray:none;stroke-opacity:1"
       d="m 23.809522,562.0893 0,-80.74391 55.281104,0 55.281104,0 0,80.74391 0,80.74392 -55.281104,0 -55.281104,0 0,-80.74392 z"
       id="path4232"
       inkscape:connector-curvature="0" />
    <path
       style="opacity:1;fill:#800000;fill-opacity:1;stroke:#da2382;stroke-width:0.67007399;stroke-miterlimit:4;stroke-dasharray:none;stroke-opacity:1"
       d="m 24.479596,562.0893 0,-80.07384 54.61103,0 54.611034,0 0,80.07384 0,80.07385 -54.611034,0 -54.61103,0 0,-80.07385 z"
       id="path4234"
       inkscape:connector-curvature="0" />
    <path
       style="opacity:1;fill:#800000;fill-opacity:1;stroke:#da2382;stroke-width:0.67007399;stroke-miterlimit:4;stroke-dasharray:none;stroke-opacity:1"
       d="m 25.14967,562.0893 0,-79.40376 53.940956,0 53.940954,0 0,79.40376 0,79.40377 -53.940954,0 -53.940956,0 0,-79.40377 z"
       id="path4236"
       inkscape:connector-curvature="0" />
    <path
       style="opacity:1;fill:#800000;fill-opacity:1;stroke:#da2382;stroke-width:0.67007399;stroke-miterlimit:4;stroke-dasharray:none;stroke-opacity:1"
       d="m 25.819744,562.0893 0,-78.73369 53.270882,0 53.270884,0 0,78.73369 0,78.7337 -53.270884,0 -53.270882,0 0,-78.7337 z"
       id="path4238"
       inkscape:connector-curvature="0" />
    <path
       style="opacity:1;fill:#800000;fill-opacity:1;stroke:#da2382;stroke-width:0.67007399;stroke-miterlimit:4;stroke-dasharray:none;stroke-opacity:1"
       d="m 26.489818,562.0893 0,-78.06362 52.600808,0 52.600804,0 0,78.06362 0,78.06362 -52.600804,0 -52.600808,0 0,-78.06362 z"
       id="path4240"
       inkscape:connector-curvature="0" />
    <path
       style="opacity:1;fill:#800000;fill-opacity:1;stroke:#da2382;stroke-width:0.67007399;stroke-miterlimit:4;stroke-dasharray:none;stroke-opacity:1"
       d="m 27.159892,562.0893 0,-77.39354 51.930734,0 51.930734,0 0,77.39354 0,77.39355 -51.930734,0 -51.930734,0 0,-77.39355 z"
       id="path4242"
       inkscape:connector-curvature="0" />
    <path
       style="opacity:1;fill:#800000;fill-opacity:1;stroke:#da2382;stroke-width:0.67007399;stroke-miterlimit:4;stroke-dasharray:none;stroke-opacity:1"
       d="m 27.829966,562.0893 0,-76.72347 51.26066,0 51.260664,0 0,76.72347 0,76.72348 -51.260664,0 -51.26066,0 0,-76.72348 z"
       id="path4244"
       inkscape:connector-curvature="0" />
    <path
       style="opacity:1;fill:#800000;fill-opacity:1;stroke:#da2382;stroke-width:0.67007399;stroke-miterlimit:4;stroke-dasharray:none;stroke-opacity:1"
       d="m 28.50004,562.0893 0,-76.05339 50.590586,0 50.590584,0 0,76.05339 0,76.0534 -50.590584,0 -50.590586,0 0,-76.0534 z"
       id="path4246"
       inkscape:connector-curvature="0" />
    <path
       style="opacity:1;fill:#800000;fill-opacity:1;stroke:#da2382;stroke-width:0.67007399;stroke-miterlimit:4;stroke-dasharray:none;stroke-opacity:1"
       d="m 29.170114,562.0893 0,-75.38332 49.920512,0 49.920514,0 0,75.38332 0,75.38333 -49.920514,0 -49.920512,0 0,-75.38333 z"
       id="path4248"
       inkscape:connector-curvature="0" />
    <path
       style="opacity:1;fill:#800000;fill-opacity:1;stroke:#da2382;stroke-width:0.67007399;stroke-miterlimit:4;stroke-dasharray:none;stroke-opacity:1"
       d="m 29.840188,562.0893 0,-74.71325 49.250438,0 49.250434,0 0,74.71325 0,74.71325 -49.250434,0 -49.250438,0 0,-74.71325 z"
       id="path4250"
       inkscape:connector-curvature="0" />
    <path
       style="opacity:1;fill:#800000;fill-opacity:1;stroke:#da2382;stroke-width:0.67007399;stroke-miterlimit:4;stroke-dasharray:none;stroke-opacity:1"
       d="m 30.510262,562.0893 0,-74.04317 48.580364,0 48.580364,0 0,74.04317 0,74.04318 -48.580364,0 -48.580364,0 0,-74.04318 z"
       id="path4252"
       inkscape:connector-curvature="0" />
    <path
       style="opacity:1;fill:#800000;fill-opacity:1;stroke:#da2382;stroke-width:0.67007399;stroke-miterlimit:4;stroke-dasharray:none;stroke-opacity:1"
       d="m 31.180336,562.0893 0,-73.3731 47.91029,0 47.910294,0 0,73.3731 0,73.37311 -47.910294,0 -47.91029,0 0,-73.37311 z"
       id="path4254"
       inkscape:connector-curvature="0" />
    <path
       style="opacity:1;fill:#800000;fill-opacity:1;stroke:#da2382;stroke-width:0.67007399;stroke-miterlimit:4;stroke-dasharray:none;stroke-opacity:1"
       d="m 31.85041,562.0893 0,-72.70302 47.240216,0 47.240214,0 0,72.70302 0,72.70303 -47.240214,0 -47.240216,0 0,-72.70303 z"
       id="path4256"
       inkscape:connector-curvature="0" />
    <path
       style="opacity:1;fill:#800000;fill-opacity:1;stroke:#da2382;stroke-width:0.67007399;stroke-miterlimit:4;stroke-dasharray:none;stroke-opacity:1"
       d="m 32.520484,562.0893 0,-72.03295 46.570142,0 46.570144,0 0,72.03295 0,72.03296 -46.570144,0 -46.570142,0 0,-72.03296 z"
       id="path4258"
       inkscape:connector-curvature="0" />
    <path
       style="opacity:1;fill:#800000;fill-opacity:1;stroke:#da2382;stroke-width:0.67007399;stroke-miterlimit:4;stroke-dasharray:none;stroke-opacity:1"
       d="m 33.190558,562.0893 0,-71.36288 45.900068,0 45.900064,0 0,71.36288 0,71.36288 -45.900064,0 -45.900068,0 0,-71.36288 z"
       id="path4260"
       inkscape:connector-curvature="0" />
    <path
       style="opacity:1;fill:#800000;fill-opacity:1;stroke:#da2382;stroke-width:0.67007399;stroke-miterlimit:4;stroke-dasharray:none;stroke-opacity:1"
       d="m 33.860632,562.0893 0,-70.6928 45.229994,0 45.229994,0 0,70.6928 0,70.69281 -45.229994,0 -45.229994,0 0,-70.69281 z"
       id="path4262"
       inkscape:connector-curvature="0" />
    <path
       style="opacity:1;fill:#800000;fill-opacity:1;stroke:#da2382;stroke-width:0.67007399;stroke-miterlimit:4;stroke-dasharray:none;stroke-opacity:1"
       d="m 34.530706,562.0893 0,-70.02273 44.55992,0 44.559924,0 0,70.02273 0,70.02274 -44.559924,0 -44.55992,0 0,-70.02274 z"
       id="path4264"
       inkscape:connector-curvature="0" />
    <path
       style="opacity:1;fill:#800000;fill-opacity:1;stroke:#da2382;stroke-width:0.67007399;stroke-miterlimit:4;stroke-dasharray:none;stroke-opacity:1"
       d="m 35.20078,562.0893 0,-69.35265 43.889846,0 43.889844,0 0,69.35265 0,69.35266 -43.889844,0 -43.889846,0 0,-69.35266 z"
       id="path4266"
       inkscape:connector-curvature="0" />
    <path
       style="opacity:1;fill:#800000;fill-opacity:1;stroke:#da2382;stroke-width:0.67007399;stroke-miterlimit:4;stroke-dasharray:none;stroke-opacity:1"
       d="m 35.870854,562.0893 0,-68.68258 43.219772,0 43.219774,0 0,68.68258 0,68.68259 -43.219774,0 -43.219772,0 0,-68.68259 z"
       id="path4268"
       inkscape:connector-curvature="0" />
    <path
       style="opacity:1;fill:#800000;fill-opacity:1;stroke:#da2382;stroke-width:0.67007399;stroke-miterlimit:4;stroke-dasharray:none;stroke-opacity:1"
       d="m 36.540928,562.0893 0,-68.01251 42.549698,0 42.549694,0 0,68.01251 0,68.01251 -42.549694,0 -42.549698,0 0,-68.01251 z"
       id="path4270"
       inkscape:connector-curvature="0" />
    <path
       style="opacity:1;fill:#800000;fill-opacity:1;stroke:#da2382;stroke-width:0.67007399;stroke-miterlimit:4;stroke-dasharray:none;stroke-opacity:1"
       d="m 37.211002,562.0893 0,-67.34243 41.879624,0 41.879624,0 0,67.34243 0,67.34244 -41.879624,0 -41.879624,0 0,-67.34244 z"
       id="path4272"
       inkscape:connector-curvature="0" />
    <path
       style="opacity:1;fill:#800000;fill-opacity:1;stroke:#da2382;stroke-width:0.67007399;stroke-miterlimit:4;stroke-dasharray:none;stroke-opacity:1"
       d="m 37.881076,562.0893 0,-66.67236 41.20955,0 41.209554,0 0,66.67236 0,66.67237 -41.209554,0 -41.20955,0 0,-66.67237 z"
       id="path4274"
       inkscape:connector-curvature="0" />
    <path
       style="opacity:1;fill:#800000;fill-opacity:1;stroke:#da2382;stroke-width:0.67007399;stroke-miterlimit:4;stroke-dasharray:none;stroke-opacity:1"
       d="m 38.55115,562.0893 0,-66.00228 40.539476,0 40.539474,0 0,66.00228 0,66.00229 -40.539474,0 -40.539476,0 0,-66.00229 z"
       id="path4276"
       inkscape:connector-curvature="0" />
    <path
       style="opacity:1;fill:#800000;fill-opacity:1;stroke:#da2382;stroke-width:0.67007399;stroke-miterlimit:4;stroke-dasharray:none;stroke-opacity:1"
       d="m 39.221224,562.0893 0,-65.33221 39.869402,0 39.869404,0 0,65.33221 0,65.33222 -39.869404,0 -39.869402,0 0,-65.33222 z"
       id="path4278"
       inkscape:connector-curvature="0" />
    <path
       style="opacity:1;fill:#800000;fill-opacity:1;stroke:#da2382;stroke-width:0.67007399;stroke-miterlimit:4;stroke-dasharray:none;stroke-opacity:1"
       d="m 39.891298,562.0893 0,-64.66214 39.199328,0 39.199324,0 0,64.66214 0,64.66214 -39.199324,0 -39.199328,0 0,-64.66214 z"
       id="path4280"
       inkscape:connector-curvature="0" />
    <path
       style="opacity:1;fill:#800000;fill-opacity:1;stroke:#da2382;stroke-width:0.67007399;stroke-miterlimit:4;stroke-dasharray:none;stroke-opacity:1"
       d="m 40.561372,562.0893 0,-63.99206 38.529254,0 38.529254,0 0,63.99206 0,63.99207 -38.529254,0 -38.529254,0 0,-63.99207 z"
       id="path4282"
       inkscape:connector-curvature="0" />
    <path
       style="opacity:1;fill:#800000;fill-opacity:1;stroke:#da2382;stroke-width:0.67007399;stroke-miterlimit:4;stroke-dasharray:none;stroke-opacity:1"
       d="m 41.231446,562.0893 0,-63.32199 37.85918,0 37.859184,0 0,63.32199 0,63.322 -37.859184,0 -37.85918,0 0,-63.322 z"
       id="path4284"
       inkscape:connector-curvature="0" />
    <path
       style="opacity:1;fill:#800000;fill-opacity:1;stroke:#da2382;stroke-width:0.67007399;stroke-miterlimit:4;stroke-dasharray:none;stroke-opacity:1"
       d="m 41.90152,562.0893 0,-62.65191 37.189106,0 37.189104,0 0,62.65191 0,62.65192 -37.189104,0 -37.189106,0 0,-62.65192 z"
       id="path4286"
       inkscape:connector-curvature="0" />
    <path
       style="opacity:1;fill:#800000;fill-opacity:1;stroke:#da2382;stroke-width:0.67007399;stroke-miterlimit:4;stroke-dasharray:none;stroke-opacity:1"
       d="m 42.571594,562.0893 0,-61.98184 36.519032,0 36.519034,0 0,61.98184 0,61.98185 -36.519034,0 -36.519032,0 0,-61.98185 z"
       id="path4288"
       inkscape:connector-curvature="0" />
    <path
       style="opacity:1;fill:#800000;fill-opacity:1;stroke:#da2382;stroke-width:0.67007399;stroke-miterlimit:4;stroke-dasharray:none;stroke-opacity:1"
       d="m 43.241668,562.0893 0,-61.31177 35.848958,0 35.848954,0 0,61.31177 0,61.31177 -35.848954,0 -35.848958,0 0,-61.31177 z"
       id="path4290"
       inkscape:connector-curvature="0" />
    <path
       style="opacity:1;fill:#800000;fill-opacity:1;stroke:#da2382;stroke-width:0.67007399;stroke-miterlimit:4;stroke-dasharray:none;stroke-opacity:1"
       d="m 43.911742,562.0893 0,-60.64169 35.178884,0 35.178884,0 0,60.64169 0,60.6417 -35.178884,0 -35.178884,0 0,-60.6417 z"
       id="path4292"
       inkscape:connector-curvature="0" />
    <path
       style="opacity:1;fill:#800000;fill-opacity:1;stroke:#da2382;stroke-width:0.67007399;stroke-miterlimit:4;stroke-dasharray:none;stroke-opacity:1"
       d="m 44.581816,562.0893 0,-59.97162 34.50881,0 34.508814,0 0,59.97162 0,59.97163 -34.508814,0 -34.50881,0 0,-59.97163 z"
       id="path4294"
       inkscape:connector-curvature="0" />
    <path
       style="opacity:1;fill:#800000;fill-opacity:1;stroke:#da2382;stroke-width:0.67007399;stroke-miterlimit:4;stroke-dasharray:none;stroke-opacity:1"
       d="m 45.251889,562.0893 0,-59.30154 33.838737,0 33.838734,0 0,59.30154 0,59.30155 -33.838734,0 -33.838737,0 0,-59.30155 z"
       id="path4296"
       inkscape:connector-curvature="0" />
    <path
       style="opacity:1;fill:#800000;fill-opacity:1;stroke:#da2382;stroke-width:0.67007399;stroke-miterlimit:4;stroke-dasharray:none;stroke-opacity:1"
       d="m 45.921963,562.0893 0,-58.63147 33.168663,0 33.168664,0 0,58.63147 0,58.63148 -33.168664,0 -33.168663,0 0,-58.63148 z"
       id="path4298"
       inkscape:connector-curvature="0" />
    <path
       style="opacity:1;fill:#800000;fill-opacity:1;stroke:#da2382;stroke-width:0.67007399;stroke-miterlimit:4;stroke-dasharray:none;stroke-opacity:1"
       d="m 46.592037,562.0893 0,-57.9614 32.498589,0 32.498584,0 0,57.9614 0,57.9614 -32.498584,0 -32.498589,0 0,-57.9614 z"
       id="path4300"
       inkscape:connector-curvature="0" />
    <path
       style="opacity:1;fill:#800000;fill-opacity:1;stroke:#da2382;stroke-width:0.67007399;stroke-miterlimit:4;stroke-dasharray:none;stroke-opacity:1"
       d="m 47.262111,562.0893 0,-57.29132 31.828515,0 31.828514,0 0,57.29132 0,57.29133 -31.828514,0 -31.828515,0 0,-57.29133 z"
       id="path4302"
       inkscape:connector-curvature="0" />
    <path
       style="opacity:1;fill:#800000;fill-opacity:1;stroke:#da2382;stroke-width:0.67007399;stroke-miterlimit:4;stroke-dasharray:none;stroke-opacity:1"
       d="m 47.932185,562.0893 0,-56.62125 31.158441,0 31.158444,0 0,56.62125 0,56.62126 -31.158444,0 -31.158441,0 0,-56.62126 z"
       id="path4304"
       inkscape:connector-curvature="0" />
    <path
       style="opacity:1;fill:#800000;fill-opacity:1;stroke:#da2382;stroke-width:0.67007399;stroke-miterlimit:4;stroke-dasharray:none;stroke-opacity:1"
       d="m 48.602259,562.0893 0,-55.95117 30.488367,0 30.488364,0 0,55.95117 0,55.95118 -30.488364,0 -30.488367,0 0,-55.95118 z"
       id="path4306"
       inkscape:connector-curvature="0" />
    <path
       style="opacity:1;fill:#800000;fill-opacity:1;stroke:#da2382;stroke-width:0.67007399;stroke-miterlimit:4;stroke-dasharray:none;stroke-opacity:1"
       d="m 49.272333,562.0893 0,-55.2811 29.818293,0 29.818294,0 0,55.2811 0,55.28111 -29.818294,0 -29.818293,0 0,-55.28111 z"
       id="path4308"
       inkscape:connector-curvature="0" />
    <path
       style="opacity:1;fill:#800000;fill-opacity:1;stroke:#da2382;stroke-width:0.67007399;stroke-miterlimit:4;stroke-dasharray:none;stroke-opacity:1"
       d="m 49.942407,562.0893 0,-54.61103 29.148219,0 29.148214,0 0,54.61103 0,54.61103 -29.148214,0 -29.148219,0 0,-54.61103 z"
       id="path4310"
       inkscape:connector-curvature="0" />
    <path
       style="opacity:1;fill:#800000;fill-opacity:1;stroke:#da2382;stroke-width:0.67007399;stroke-miterlimit:4;stroke-dasharray:none;stroke-opacity:1"
       d="m 50.612481,562.0893 0,-53.94095 28.478145,0 28.478144,0 0,53.94095 0,53.94096 -28.478144,0 -28.478145,0 0,-53.94096 z"
       id="path4312"
       inkscape:connector-curvature="0" />
    <path
       style="opacity:1;fill:#800000;fill-opacity:1;stroke:#da2382;stroke-width:0.67007399;stroke-miterlimit:4;stroke-dasharray:none;stroke-opacity:1"
       d="m 51.282555,562.0893 0,-53.27088 27.808071,0 27.808074,0 0,53.27088 0,53.27089 -27.808074,0 -27.808071,0 0,-53.27089 z"
       id="path4314"
       inkscape:connector-curvature="0" />
    <path
       style="opacity:1;fill:#800000;fill-opacity:1;stroke:#da2382;stroke-width:0.67007399;stroke-miterlimit:4;stroke-dasharray:none;stroke-opacity:1"
       d="m 51.952629,562.0893 0,-52.6008 27.137997,0 27.137994,0 0,52.6008 0,52.60081 -27.137994,0 -27.137997,0 0,-52.60081 z"
       id="path4316"
       inkscape:connector-curvature="0" />
    <path
       style="opacity:1;fill:#800000;fill-opacity:1;stroke:#da2382;stroke-width:0.67007399;stroke-miterlimit:4;stroke-dasharray:none;stroke-opacity:1"
       d="m 52.622703,562.0893 0,-51.93073 26.467923,0 26.467924,0 0,51.93073 0,51.93074 -26.467924,0 -26.467923,0 0,-51.93074 z"
       id="path4318"
       inkscape:connector-curvature="0" />
    <path
       style="opacity:1;fill:#800000;fill-opacity:1;stroke:#da2382;stroke-width:0.67007399;stroke-miterlimit:4;stroke-dasharray:none;stroke-opacity:1"
       d="m 53.292777,562.0893 0,-51.26066 25.797849,0 25.797844,0 0,51.26066 0,51.26066 -25.797844,0 -25.797849,0 0,-51.26066 z"
       id="path4320"
       inkscape:connector-curvature="0" />
    <path
       style="opacity:1;fill:#800000;fill-opacity:1;stroke:#da2382;stroke-width:0.67007399;stroke-miterlimit:4;stroke-dasharray:none;stroke-opacity:1"
       d="m 53.962851,562.0893 0,-50.59058 25.127775,0 25.127774,0 0,50.59058 0,50.59059 -25.127774,0 -25.127775,0 0,-50.59059 z"
       id="path4322"
       inkscape:connector-curvature="0" />
    <path
       style="opacity:1;fill:#800000;fill-opacity:1;stroke:#da2382;stroke-width:0.67007399;stroke-miterlimit:4;stroke-dasharray:none;stroke-opacity:1"
       d="m 54.632925,562.0893 0,-49.92051 24.457701,0 24.457704,0 0,49.92051 0,49.92052 -24.457704,0 -24.457701,0 0,-49.92052 z"
       id="path4324"
       inkscape:connector-curvature="0" />
    <path
       style="opacity:1;fill:#800000;fill-opacity:1;stroke:#da2382;stroke-width:0.67007399;stroke-miterlimit:4;stroke-dasharray:none;stroke-opacity:1"
       d="m 55.302999,562.0893 0,-49.25043 23.787627,0 23.787624,0 0,49.25043 0,49.25044 -23.787624,0 -23.787627,0 0,-49.25044 z"
       id="path4326"
       inkscape:connector-curvature="0" />
    <path
       style="opacity:1;fill:#800000;fill-opacity:1;stroke:#da2382;stroke-width:0.67007399;stroke-miterlimit:4;stroke-dasharray:none;stroke-opacity:1"
       d="m 55.973073,562.0893 0,-48.58036 23.117553,0 23.117554,0 0,48.58036 0,48.58037 -23.117554,0 -23.117553,0 0,-48.58037 z"
       id="path4328"
       inkscape:connector-curvature="0" />
    <path
       style="opacity:1;fill:#800000;fill-opacity:1;stroke:#da2382;stroke-width:0.67007399;stroke-miterlimit:4;stroke-dasharray:none;stroke-opacity:1"
       d="m 56.643147,562.0893 0,-47.91029 22.447479,0 22.447474,0 0,47.91029 0,47.91029 -22.447474,0 -22.447479,0 0,-47.91029 z"
       id="path4330"
       inkscape:connector-curvature="0" />
    <path
       style="opacity:1;fill:#800000;fill-opacity:1;stroke:#da2382;stroke-width:0.67007399;stroke-miterlimit:4;stroke-dasharray:none;stroke-opacity:1"
       d="m 57.313221,562.0893 0,-47.24021 21.777405,0 21.777404,0 0,47.24021 0,47.24022 -21.777404,0 -21.777405,0 0,-47.24022 z"
       id="path4332"
       inkscape:connector-curvature="0" />
    <path
       style="opacity:1;fill:#800000;fill-opacity:1;stroke:#da2382;stroke-width:0.67007399;stroke-miterlimit:4;stroke-dasharray:none;stroke-opacity:1"
       d="m 57.983295,562.0893 0,-46.57014 21.107331,0 21.107334,0 0,46.57014 0,46.57015 -21.107334,0 -21.107331,0 0,-46.57015 z"
       id="path4334"
       inkscape:connector-curvature="0" />
    <path
       style="opacity:1;fill:#800000;fill-opacity:1;stroke:#da2382;stroke-width:0.67007399;stroke-miterlimit:4;stroke-dasharray:none;stroke-opacity:1"
       d="m 58.653369,562.0893 0,-45.90006 20.437257,0 20.437257,0 0,45.90006 0,45.90007 -20.437257,0 -20.437257,0 0,-45.90007 z"
       id="path4336"
       inkscape:connector-curvature="0" />
    <path
       style="opacity:1;fill:#800000;fill-opacity:1;stroke:#da2382;stroke-width:0.67007399;stroke-miterlimit:4;stroke-dasharray:none;stroke-opacity:1"
       d="m 59.323443,562.0893 0,-45.22999 19.767183,0 19.767183,0 0,45.22999 0,45.23 -19.767183,0 -19.767183,0 0,-45.23 z"
       id="path4338"
       inkscape:connector-curvature="0" />
    <path
       style="opacity:1;fill:#800000;fill-opacity:1;stroke:#da2382;stroke-width:0.67007399;stroke-miterlimit:4;stroke-dasharray:none;stroke-opacity:1"
       d="m 59.993517,562.0893 0,-44.55992 19.097109,0 19.097109,0 0,44.55992 0,44.55992 -19.097109,0 -19.097109,0 0,-44.55992 z"
       id="path4340"
       inkscape:connector-curvature="0" />
    <path
       style="opacity:1;fill:#800000;fill-opacity:1;stroke:#da2382;stroke-width:0.67007399;stroke-miterlimit:4;stroke-dasharray:none;stroke-opacity:1"
       d="m 60.663591,562.0893 0,-43.88984 18.427035,0 18.427035,0 0,43.88984 0,43.88985 -18.427035,0 -18.427035,0 0,-43.88985 z"
       id="path4342"
       inkscape:connector-curvature="0" />
    <path
       style="opacity:1;fill:#800000;fill-opacity:1;stroke:#da2382;stroke-width:0.67007399;stroke-miterlimit:4;stroke-dasharray:none;stroke-opacity:1"
       d="m 61.333665,562.0893 0,-43.21977 17.756961,0 17.756961,0 0,43.21977 0,43.21978 -17.756961,0 -17.756961,0 0,-43.21978 z"
       id="path4344"
       inkscape:connector-curvature="0" />
    <path
       style="opacity:1;fill:#800000;fill-opacity:1;stroke:#da2382;stroke-width:0.67007399;stroke-miterlimit:4;stroke-dasharray:none;stroke-opacity:1"
       d="m 62.003739,562.0893 0,-42.54969 17.086887,0 17.086887,0 0,42.54969 0,42.5497 -17.086887,0 -17.086887,0 0,-42.5497 z"
       id="path4346"
       inkscape:connector-curvature="0" />
    <path
       style="opacity:1;fill:#800000;fill-opacity:1;stroke:#da2382;stroke-width:0.67007399;stroke-miterlimit:4;stroke-dasharray:none;stroke-opacity:1"
       d="m 62.673813,562.0893 0,-41.87962 16.416813,0 16.416813,0 0,41.87962 0,41.87963 -16.416813,0 -16.416813,0 0,-41.87963 z"
       id="path4348"
       inkscape:connector-curvature="0" />
    <path
       style="opacity:1;fill:#800000;fill-opacity:1;stroke:#da2382;stroke-width:0.67007399;stroke-miterlimit:4;stroke-dasharray:none;stroke-opacity:1"
       d="m 63.343887,562.0893 0,-41.20955 15.746739,0 15.746739,0 0,41.20955 0,41.20955 -15.746739,0 -15.746739,0 0,-41.20955 z"
       id="path4350"
       inkscape:connector-curvature="0" />
    <path
       style="opacity:1;fill:#800000;fill-opacity:1;stroke:#da2382;stroke-width:0.67007399;stroke-miterlimit:4;stroke-dasharray:none;stroke-opacity:1"
       d="m 64.013961,562.0893 0,-40.53947 15.076665,0 15.076665,0 0,40.53947 0,40.53948 -15.076665,0 -15.076665,0 0,-40.53948 z"
       id="path4352"
       inkscape:connector-curvature="0" />
    <path
       style="opacity:1;fill:#800000;fill-opacity:1;stroke:#da2382;stroke-width:0.67007399;stroke-miterlimit:4;stroke-dasharray:none;stroke-opacity:1"
       d="m 64.684035,562.0893 0,-39.8694 14.406591,0 14.406591,0 0,39.8694 0,39.86941 -14.406591,0 -14.406591,0 0,-39.86941 z"
       id="path4354"
       inkscape:connector-curvature="0" />
    <path
       style="opacity:1;fill:#800000;fill-opacity:1;stroke:#da2382;stroke-width:0.67007399;stroke-miterlimit:4;stroke-dasharray:none;stroke-opacity:1"
       d="m 65.354109,562.0893 0,-39.19932 13.736517,0 13.736517,0 0,39.19932 0,39.19933 -13.736517,0 -13.736517,0 0,-39.19933 z"
       id="path4356"
       inkscape:connector-curvature="0" />
    <path
       style="opacity:1;fill:#800000;fill-opacity:1;stroke:#da2382;stroke-width:0.67007399;stroke-miterlimit:4;stroke-dasharray:none;stroke-opacity:1"
       d="m 66.024183,562.0893 0,-38.52925 13.066443,0 13.066443,0 0,38.52925 0,38.52926 -13.066443,0 -13.066443,0 0,-38.52926 z"
       id="path4358"
       inkscape:connector-curvature="0" />
    <path
       style="opacity:1;fill:#800000;fill-opacity:1;stroke:#da2382;stroke-width:0.67007399;stroke-miterlimit:4;stroke-dasharray:none;stroke-opacity:1"
       d="m 66.694257,562.0893 0,-37.85918 12.396369,0 12.396369,0 0,37.85918 0,37.85918 -12.396369,0 -12.396369,0 0,-37.85918 z"
       id="path4360"
       inkscape:connector-curvature="0" />
    <path
       style="opacity:1;fill:#800000;fill-opacity:1;stroke:#da2382;stroke-width:0.67007399;stroke-miterlimit:4;stroke-dasharray:none;stroke-opacity:1"
       d="m 67.364331,562.0893 0,-37.1891 11.726295,0 11.726295,0 0,37.1891 0,37.18911 -11.726295,0 -11.726295,0 0,-37.18911 z"
       id="path4362"
       inkscape:connector-curvature="0" />
    <path
       style="opacity:1;fill:#800000;fill-opacity:1;stroke:#da2382;stroke-width:0.67007399;stroke-miterlimit:4;stroke-dasharray:none;stroke-opacity:1"
       d="m 68.034405,562.0893 0,-36.51903 11.056221,0 11.056221,0 0,36.51903 0,36.51904 -11.056221,0 -11.056221,0 0,-36.51904 z"
       id="path4364"
       inkscape:connector-curvature="0" />
    <path
       style="opacity:1;fill:#800000;fill-opacity:1;stroke:#da2382;stroke-width:0.67007399;stroke-miterlimit:4;stroke-dasharray:none;stroke-opacity:1"
       d="m 68.704479,562.0893 0,-35.84895 10.386147,0 10.386147,0 0,35.84895 0,35.84896 -10.386147,0 -10.386147,0 0,-35.84896 z"
       id="path4366"
       inkscape:connector-curvature="0" />
    <path
       style="opacity:1;fill:#800000;fill-opacity:1;stroke:#da2382;stroke-width:0.67007399;stroke-miterlimit:4;stroke-dasharray:none;stroke-opacity:1"
       d="m 69.374553,562.0893 0,-35.17888 9.716073,0 9.716073,0 0,35.17888 0,35.17889 -9.716073,0 -9.716073,0 0,-35.17889 z"
       id="path4368"
       inkscape:connector-curvature="0" />
    <path
       style="opacity:1;fill:#800000;fill-opacity:1;stroke:#da2382;stroke-width:0.67007399;stroke-miterlimit:4;stroke-dasharray:none;stroke-opacity:1"
       d="m 70.044627,562.0893 0,-34.50881 9.045999,0 9.045999,0 0,34.50881 0,34.50881 -9.045999,0 -9.045999,0 0,-34.50881 z"
       id="path4370"
       inkscape:connector-curvature="0" />
    <path
       style="opacity:1;fill:#800000;fill-opacity:1;stroke:#da2382;stroke-width:0.67007399;stroke-miterlimit:4;stroke-dasharray:none;stroke-opacity:1"
       d="m 70.714701,562.0893 0,-33.83873 8.375925,0 8.375925,0 0,33.83873 0,33.83874 -8.375925,0 -8.375925,0 0,-33.83874 z"
       id="path4372"
       inkscape:connector-curvature="0" />
    <path
       style="opacity:1;fill:#800000;fill-opacity:1;stroke:#da2382;stroke-width:0.67007399;stroke-miterlimit:4;stroke-dasharray:none;stroke-opacity:1"
       d="m 71.384775,562.0893 0,-33.16866 7.705851,0 7.705851,0 0,33.16866 0,33.16867 -7.705851,0 -7.705851,0 0,-33.16867 z"
       id="path4374"
       inkscape:connector-curvature="0" />
    <path
       style="opacity:1;fill:#800000;fill-opacity:1;stroke:#da2382;stroke-width:0.67007399;stroke-miterlimit:4;stroke-dasharray:none;stroke-opacity:1"
       d="m 72.054849,562.0893 0,-32.49858 7.035777,0 7.035777,0 0,32.49858 0,32.49859 -7.035777,0 -7.035777,0 0,-32.49859 z"
       id="path4376"
       inkscape:connector-curvature="0" />
    <path
       style="opacity:1;fill:#800000;fill-opacity:1;stroke:#da2382;stroke-width:0.67007399;stroke-miterlimit:4;stroke-dasharray:none;stroke-opacity:1"
       d="m 72.724923,562.0893 0,-31.82851 6.365703,0 6.365703,0 0,31.82851 0,31.82852 -6.365703,0 -6.365703,0 0,-31.82852 z"
       id="path4378"
       inkscape:connector-curvature="0" />
    <path
       style="opacity:1;fill:#800000;fill-opacity:1;stroke:#da2382;stroke-width:0.67007399;stroke-miterlimit:4;stroke-dasharray:none;stroke-opacity:1"
       d="m 73.394997,562.0893 0,-31.15844 5.695629,0 5.695629,0 0,31.15844 0,31.15844 -5.695629,0 -5.695629,0 0,-31.15844 z"
       id="path4380"
       inkscape:connector-curvature="0" />
    <path
       style="opacity:1;fill:#800000;fill-opacity:1;stroke:#da2382;stroke-width:0.67007399;stroke-miterlimit:4;stroke-dasharray:none;stroke-opacity:1"
       d="m 74.065071,562.0893 0,-30.48836 5.025555,0 5.025555,0 0,30.48836 0,30.48837 -5.025555,0 -5.025555,0 0,-30.48837 z"
       id="path4382"
       inkscape:connector-curvature="0" />
    <path
       style="opacity:1;fill:#800000;fill-opacity:1;stroke:#da2382;stroke-width:0.67007399;stroke-miterlimit:4;stroke-dasharray:none;stroke-opacity:1"
       d="m 74.735145,562.0893 0,-29.81829 4.355481,0 4.355481,0 0,29.81829 0,29.8183 -4.355481,0 -4.355481,0 0,-29.8183 z"
       id="path4384"
       inkscape:connector-curvature="0" />
    <path
       style="opacity:1;fill:#800000;fill-opacity:1;stroke:#da2382;stroke-width:0.67007399;stroke-miterlimit:4;stroke-dasharray:none;stroke-opacity:1"
       d="m 75.405219,562.0893 0,-29.14821 3.685407,0 3.685407,0 0,29.14821 0,29.14822 -3.685407,0 -3.685407,0 0,-29.14822 z"
       id="path4386"
       inkscape:connector-curvature="0" />
    <path
       style="opacity:1;fill:#800000;fill-opacity:1;stroke:#da2382;stroke-width:0.67007399;stroke-miterlimit:4;stroke-dasharray:none;stroke-opacity:1"
       d="m 76.075293,562.0893 0,-28.47814 3.015333,0 3.015333,0 0,28.47814 0,28.47815 -3.015333,0 -3.015333,0 0,-28.47815 z"
       id="path4388"
       inkscape:connector-curvature="0" />
    <path
       style="opacity:1;fill:#800000;fill-opacity:1;stroke:#da2382;stroke-width:0.67007399;stroke-miterlimit:4;stroke-dasharray:none;stroke-opacity:1"
       d="m 76.745367,562.0893 0,-27.80807 2.345259,0 2.345259,0 0,27.80807 0,27.80807 -2.345259,0 -2.345259,0 0,-27.80807 z"
       id="path4390"
       inkscape:connector-curvature="0" />
    <path
       style="opacity:1;fill:#800000;fill-opacity:1;stroke:#da2382;stroke-width:0.67007399;stroke-miterlimit:4;stroke-dasharray:none;stroke-opacity:1"
       d="m 77.415441,562.0893 0,-27.13799 1.675185,0 1.675185,0 0,27.13799 0,27.138 -1.675185,0 -1.675185,0 0,-27.138 z"
       id="path4392"
       inkscape:connector-curvature="0" />
    <path
       style="opacity:1;fill:#800000;fill-opacity:1;stroke:#da2382;stroke-width:0.08375925;stroke-miterlimit:4;stroke-dasharray:none;stroke-opacity:1"
       d="m 77.803023,562.06839 0,-26.76108 1.298268,0 1.298269,0 0,26.76108 0,26.76108 -1.298269,0 -1.298268,0 0,-26.76108 z"
       id="path4394"
       inkscape:connector-curvature="0" />
    <path
       style="opacity:1;fill:#800000;fill-opacity:1;stroke:#da2382;stroke-width:0.08375925;stroke-miterlimit:4;stroke-dasharray:none;stroke-opacity:1"
       d="m 77.886782,562.06839 0,-26.67732 1.214509,0 1.214509,0 0,26.67732 0,26.67732 -1.214509,0 -1.214509,0 0,-26.67732 z"
       id="path4396"
       inkscape:connector-curvature="0" />
    <path
       style="opacity:1;fill:#800000;fill-opacity:1;stroke:#da2382;stroke-width:0.08375925;stroke-miterlimit:4;stroke-dasharray:none;stroke-opacity:1"
       d="m 77.970541,562.06839 0,-26.59357 1.13075,0 1.13075,0 0,26.59357 0,26.59356 -1.13075,0 -1.13075,0 0,-26.59356 z"
       id="path4398"
       inkscape:connector-curvature="0" />
    <path
       style="opacity:1;fill:#800000;fill-opacity:1;stroke:#da2382;stroke-width:0.08375925;stroke-miterlimit:4;stroke-dasharray:none;stroke-opacity:1"
       d="m 78.054301,562.06839 0,-26.50981 1.04699,0 1.046991,0 0,26.50981 0,26.5098 -1.046991,0 -1.04699,0 0,-26.5098 z"
       id="path4400"
       inkscape:connector-curvature="0" />
    <path
       style="opacity:1;fill:#800000;fill-opacity:1;stroke:#da2382;stroke-width:0.08375925;stroke-miterlimit:4;stroke-dasharray:none;stroke-opacity:1"
       d="m 78.13806,562.06839 0,-26.42605 0.963231,0 0.963232,0 0,26.42605 0,26.42604 -0.963232,0 -0.963231,0 0,-26.42604 z"
       id="path4402"
       inkscape:connector-curvature="0" />
    <path
       style="opacity:1;fill:#800000;fill-opacity:1;stroke:#da2382;stroke-width:0.08375925;stroke-miterlimit:4;stroke-dasharray:none;stroke-opacity:1"
       d="m 78.221819,562.06839 0,-26.34229 0.879472,0 0.879472,0 0,26.34229 0,26.34228 -0.879472,0 -0.879472,0 0,-26.34228 z"
       id="path4404"
       inkscape:connector-curvature="0" />
    <path
       style="opacity:1;fill:#800000;fill-opacity:1;stroke:#da2382;stroke-width:0.08375925;stroke-miterlimit:4;stroke-dasharray:none;stroke-opacity:1"
       d="m 78.305578,562.06839 0,-26.25853 0.795713,0 0.795713,0 0,26.25853 0,26.25852 -0.795713,0 -0.795713,0 0,-26.25852 z"
       id="path4406"
       inkscape:connector-curvature="0" />
    <path
       style="opacity:1;fill:#800000;fill-opacity:1;stroke:#da2382;stroke-width:0.08375925;stroke-miterlimit:4;stroke-dasharray:none;stroke-opacity:1"
       d="m 78.389338,562.06839 0,-26.17477 0.711953,0 0.711954,0 0,26.17477 0,26.17476 -0.711954,0 -0.711953,0 0,-26.17476 z"
       id="path4408"
       inkscape:connector-curvature="0" />
    <path
       style="opacity:1;fill:#800000;fill-opacity:1;stroke:#da2382;stroke-width:0.08375925;stroke-miterlimit:4;stroke-dasharray:none;stroke-opacity:1"
       d="m 78.473097,562.06839 0,-26.09101 0.628194,0 0.628195,0 0,26.09101 0,26.091 -0.628195,0 -0.628194,0 0,-26.091 z"
       id="path4410"
       inkscape:connector-curvature="0" />
    <path
       style="opacity:1;fill:#800000;fill-opacity:1;stroke:#da2382;stroke-width:0.08375925;stroke-miterlimit:4;stroke-dasharray:none;stroke-opacity:1"
       d="m 78.556856,562.06839 0,-26.00725 0.544435,0 0.544435,0 0,26.00725 0,26.00724 -0.544435,0 -0.544435,0 0,-26.00724 z"
       id="path4412"
       inkscape:connector-curvature="0" />
    <path
       style="opacity:1;fill:#800000;fill-opacity:1;stroke:#da2382;stroke-width:0.08375925;stroke-miterlimit:4;stroke-dasharray:none;stroke-opacity:1"
       d="m 78.640615,562.06839 0,-25.92349 0.460676,0 0.460676,0 0,25.92349 0,25.92348 -0.460676,0 -0.460676,0 0,-25.92348 z"
       id="path4414"
       inkscape:connector-curvature="0" />
    <path
       style="opacity:1;fill:#800000;fill-opacity:1;stroke:#da2382;stroke-width:0.08375925;stroke-miterlimit:4;stroke-dasharray:none;stroke-opacity:1"
       d="m 78.724375,562.06839 0,-25.83973 0.376916,0 0.376917,0 0,25.83973 0,25.83972 -0.376917,0 -0.376916,0 0,-25.83972 z"
       id="path4416"
       inkscape:connector-curvature="0" />
    <path
       style="opacity:1;fill:#800000;fill-opacity:1;stroke:#da2382;stroke-width:0.08375925;stroke-miterlimit:4;stroke-dasharray:none;stroke-opacity:1"
       d="m 78.808134,562.06839 0,-25.75597 0.293157,0 0.293158,0 0,25.75597 0,25.75597 -0.293158,0 -0.293157,0 0,-25.75597 z"
       id="path4418"
       inkscape:connector-curvature="0" />
    <path
       style="opacity:1;fill:#800000;fill-opacity:1;stroke:#da2382;stroke-width:0.08375925;stroke-miterlimit:4;stroke-dasharray:none;stroke-opacity:1"
       d="m 78.891893,562.06839 0,-25.67221 0.209398,0 0.209398,0 0,25.67221 0,25.67221 -0.209398,0 -0.209398,0 0,-25.67221 z"
       id="path4420"
       inkscape:connector-curvature="0" />
    <path
       style="opacity:1;fill:#800000;fill-opacity:1;stroke:#da2382;stroke-width:0.08375925;stroke-miterlimit:4;stroke-dasharray:none;stroke-opacity:1"
       d="m 78.975652,562.06839 c 0,-22.68945 0.01423,-25.58845 0.125639,-25.58845 0.111405,0 0.125639,2.899 0.125639,25.58845 0,22.68945 -0.01423,25.58845 -0.125639,25.58845 -0.111405,0 -0.125639,-2.899 -0.125639,-25.58845 z"
       id="path4422"
       inkscape:connector-curvature="0" />
    <path
       style="opacity:1;fill:#800000;fill-opacity:1;stroke:#da2382;stroke-width:0.08375925;stroke-miterlimit:4;stroke-dasharray:none;stroke-opacity:1"
       d="m 79.184218,562.06839 c 10e-7,-9.02925 0.0098,-12.71061 0.02177,-8.1808 0.01197,4.5298 0.01197,11.91737 -2e-6,16.41681 -0.01197,4.49944 -0.02177,0.79323 -0.02177,-8.23601 z"
       id="path4424"
       inkscape:connector-curvature="0" />
    <path
       style="opacity:1;fill:#800000;fill-opacity:1;stroke:#da2382;stroke-width:0.67007399;stroke-miterlimit:4;stroke-dasharray:none;stroke-opacity:1"
       d="m 140.99371,562.48651 0,-84.42933 40.87451,0 40.87452,0 0,84.42933 0,84.42932 -40.87452,0 -40.87451,0 0,-84.42932 z"
       id="path4426"
       inkscape:connector-curvature="0" />
    <path
       style="opacity:1;fill:#800000;fill-opacity:1;stroke:#da2382;stroke-width:0.67007399;stroke-miterlimit:4;stroke-dasharray:none;stroke-opacity:1"
       d="m 141.66378,562.48651 0,-83.75925 40.20444,0 40.20444,0 0,83.75925 0,83.75925 -40.20444,0 -40.20444,0 0,-83.75925 z"
       id="path4428"
       inkscape:connector-curvature="0" />
    <path
       style="opacity:1;fill:#800000;fill-opacity:1;stroke:#da2382;stroke-width:0.67007399;stroke-miterlimit:4;stroke-dasharray:none;stroke-opacity:1"
       d="m 142.33386,562.48651 0,-83.08918 39.53436,0 39.53437,0 0,83.08918 0,83.08917 -39.53437,0 -39.53436,0 0,-83.08917 z"
       id="path4430"
       inkscape:connector-curvature="0" />
    <path
       style="opacity:1;fill:#800000;fill-opacity:1;stroke:#da2382;stroke-width:0.67007399;stroke-miterlimit:4;stroke-dasharray:none;stroke-opacity:1"
       d="m 143.00393,562.48651 0,-82.4191 38.86429,0 38.8643,0 0,82.4191 0,82.4191 -38.8643,0 -38.86429,0 0,-82.4191 z"
       id="path4432"
       inkscape:connector-curvature="0" />
    <path
       style="opacity:1;fill:#800000;fill-opacity:1;stroke:#da2382;stroke-width:0.67007399;stroke-miterlimit:4;stroke-dasharray:none;stroke-opacity:1"
       d="m 143.67401,562.48651 0,-81.74903 38.19421,0 38.19422,0 0,81.74903 0,81.74902 -38.19422,0 -38.19421,0 0,-81.74902 z"
       id="path4434"
       inkscape:connector-curvature="0" />
    <path
       style="opacity:1;fill:#800000;fill-opacity:1;stroke:#da2382;stroke-width:0.67007399;stroke-miterlimit:4;stroke-dasharray:none;stroke-opacity:1"
       d="m 144.34408,562.48651 0,-81.07896 37.52414,0 37.52415,0 0,81.07896 0,81.07895 -37.52415,0 -37.52414,0 0,-81.07895 z"
       id="path4436"
       inkscape:connector-curvature="0" />
    <path
       style="opacity:1;fill:#800000;fill-opacity:1;stroke:#da2382;stroke-width:0.67007399;stroke-miterlimit:4;stroke-dasharray:none;stroke-opacity:1"
       d="m 145.01415,562.48651 0,-80.40888 36.85407,0 36.85407,0 0,80.40888 0,80.40888 -36.85407,0 -36.85407,0 0,-80.40888 z"
       id="path4438"
       inkscape:connector-curvature="0" />
    <path
       style="opacity:1;fill:#800000;fill-opacity:1;stroke:#da2382;stroke-width:0.67007399;stroke-miterlimit:4;stroke-dasharray:none;stroke-opacity:1"
       d="m 145.68423,562.48651 0,-79.73881 36.18399,0 36.184,0 0,79.73881 0,79.7388 -36.184,0 -36.18399,0 0,-79.7388 z"
       id="path4440"
       inkscape:connector-curvature="0" />
    <path
       style="opacity:1;fill:#800000;fill-opacity:1;stroke:#da2382;stroke-width:0.67007399;stroke-miterlimit:4;stroke-dasharray:none;stroke-opacity:1"
       d="m 146.3543,562.48651 0,-79.06873 35.51392,0 35.51393,0 0,79.06873 0,79.06873 -35.51393,0 -35.51392,0 0,-79.06873 z"
       id="path4442"
       inkscape:connector-curvature="0" />
    <path
       style="opacity:1;fill:#800000;fill-opacity:1;stroke:#da2382;stroke-width:0.67007399;stroke-miterlimit:4;stroke-dasharray:none;stroke-opacity:1"
       d="m 147.02438,562.48651 0,-78.39866 34.84384,0 34.84385,0 0,78.39866 0,78.39865 -34.84385,0 -34.84384,0 0,-78.39865 z"
       id="path4444"
       inkscape:connector-curvature="0" />
    <path
       style="opacity:1;fill:#800000;fill-opacity:1;stroke:#da2382;stroke-width:0.67007399;stroke-miterlimit:4;stroke-dasharray:none;stroke-opacity:1"
       d="m 147.69445,562.48651 0,-77.72859 34.17377,0 34.17378,0 0,77.72859 0,77.72858 -34.17378,0 -34.17377,0 0,-77.72858 z"
       id="path4446"
       inkscape:connector-curvature="0" />
    <path
       style="opacity:1;fill:#800000;fill-opacity:1;stroke:#da2382;stroke-width:0.67007399;stroke-miterlimit:4;stroke-dasharray:none;stroke-opacity:1"
       d="m 148.36452,562.48651 0,-77.05851 33.5037,0 33.5037,0 0,77.05851 0,77.05851 -33.5037,0 -33.5037,0 0,-77.05851 z"
       id="path4448"
       inkscape:connector-curvature="0" />
    <path
       style="opacity:1;fill:#800000;fill-opacity:1;stroke:#da2382;stroke-width:0.67007399;stroke-miterlimit:4;stroke-dasharray:none;stroke-opacity:1"
       d="m 149.0346,562.48651 0,-76.38844 32.83362,0 32.83363,0 0,76.38844 0,76.38843 -32.83363,0 -32.83362,0 0,-76.38843 z"
       id="path4450"
       inkscape:connector-curvature="0" />
    <path
       style="opacity:1;fill:#800000;fill-opacity:1;stroke:#da2382;stroke-width:0.67007399;stroke-miterlimit:4;stroke-dasharray:none;stroke-opacity:1"
       d="m 149.70467,562.48651 0,-75.71836 32.16355,0 32.16356,0 0,75.71836 0,75.71836 -32.16356,0 -32.16355,0 0,-75.71836 z"
       id="path4452"
       inkscape:connector-curvature="0" />
    <path
       style="opacity:1;fill:#800000;fill-opacity:1;stroke:#da2382;stroke-width:0.67007399;stroke-miterlimit:4;stroke-dasharray:none;stroke-opacity:1"
       d="m 150.37475,562.48651 0,-75.04829 31.49347,0 31.49348,0 0,75.04829 0,75.04828 -31.49348,0 -31.49347,0 0,-75.04828 z"
       id="path4454"
       inkscape:connector-curvature="0" />
    <path
       style="opacity:1;fill:#800000;fill-opacity:1;stroke:#da2382;stroke-width:0.67007399;stroke-miterlimit:4;stroke-dasharray:none;stroke-opacity:1"
       d="m 151.04482,562.48651 0,-74.37822 30.8234,0 30.82341,0 0,74.37822 0,74.37821 -30.82341,0 -30.8234,0 0,-74.37821 z"
       id="path4456"
       inkscape:connector-curvature="0" />
    <path
       style="opacity:1;fill:#800000;fill-opacity:1;stroke:#da2382;stroke-width:0.67007399;stroke-miterlimit:4;stroke-dasharray:none;stroke-opacity:1"
       d="m 151.71489,562.48651 0,-73.70814 30.15333,0 30.15333,0 0,73.70814 0,73.70814 -30.15333,0 -30.15333,0 0,-73.70814 z"
       id="path4458"
       inkscape:connector-curvature="0" />
    <path
       style="opacity:1;fill:#800000;fill-opacity:1;stroke:#da2382;stroke-width:0.67007399;stroke-miterlimit:4;stroke-dasharray:none;stroke-opacity:1"
       d="m 152.38497,562.48651 0,-73.03807 29.48325,0 29.48326,0 0,73.03807 0,73.03806 -29.48326,0 -29.48325,0 0,-73.03806 z"
       id="path4460"
       inkscape:connector-curvature="0" />
    <path
       style="opacity:1;fill:#800000;fill-opacity:1;stroke:#da2382;stroke-width:0.67007399;stroke-miterlimit:4;stroke-dasharray:none;stroke-opacity:1"
       d="m 153.05504,562.48651 0,-72.36799 28.81318,0 28.81319,0 0,72.36799 0,72.36799 -28.81319,0 -28.81318,0 0,-72.36799 z"
       id="path4462"
       inkscape:connector-curvature="0" />
    <path
       style="opacity:1;fill:#800000;fill-opacity:1;stroke:#da2382;stroke-width:0.67007399;stroke-miterlimit:4;stroke-dasharray:none;stroke-opacity:1"
       d="m 153.72512,562.48651 0,-71.69792 28.1431,0 28.14311,0 0,71.69792 0,71.69791 -28.14311,0 -28.1431,0 0,-71.69791 z"
       id="path4464"
       inkscape:connector-curvature="0" />
    <path
       style="opacity:1;fill:#800000;fill-opacity:1;stroke:#da2382;stroke-width:0.67007399;stroke-miterlimit:4;stroke-dasharray:none;stroke-opacity:1"
       d="m 154.39519,562.48651 0,-71.02785 27.47303,0 27.47304,0 0,71.02785 0,71.02784 -27.47304,0 -27.47303,0 0,-71.02784 z"
       id="path4466"
       inkscape:connector-curvature="0" />
    <path
       style="opacity:1;fill:#800000;fill-opacity:1;stroke:#da2382;stroke-width:0.67007399;stroke-miterlimit:4;stroke-dasharray:none;stroke-opacity:1"
       d="m 155.06526,562.48651 0,-70.35777 26.80296,0 26.80296,0 0,70.35777 0,70.35777 -26.80296,0 -26.80296,0 0,-70.35777 z"
       id="path4468"
       inkscape:connector-curvature="0" />
    <path
       style="opacity:1;fill:#800000;fill-opacity:1;stroke:#da2382;stroke-width:0.67007399;stroke-miterlimit:4;stroke-dasharray:none;stroke-opacity:1"
       d="m 155.73534,562.48651 0,-69.6877 26.13288,0 26.13289,0 0,69.6877 0,69.68769 -26.13289,0 -26.13288,0 0,-69.68769 z"
       id="path4470"
       inkscape:connector-curvature="0" />
    <path
       style="opacity:1;fill:#800000;fill-opacity:1;stroke:#da2382;stroke-width:0.67007399;stroke-miterlimit:4;stroke-dasharray:none;stroke-opacity:1"
       d="m 156.40541,562.48651 0,-69.01762 25.46281,0 25.46282,0 0,69.01762 0,69.01762 -25.46282,0 -25.46281,0 0,-69.01762 z"
       id="path4472"
       inkscape:connector-curvature="0" />
    <path
       style="opacity:1;fill:#800000;fill-opacity:1;stroke:#da2382;stroke-width:0.67007399;stroke-miterlimit:4;stroke-dasharray:none;stroke-opacity:1"
       d="m 157.07549,562.48651 0,-68.34755 24.79273,0 24.79274,0 0,68.34755 0,68.34754 -24.79274,0 -24.79273,0 0,-68.34754 z"
       id="path4474"
       inkscape:connector-curvature="0" />
    <path
       style="opacity:1;fill:#800000;fill-opacity:1;stroke:#da2382;stroke-width:0.67007399;stroke-miterlimit:4;stroke-dasharray:none;stroke-opacity:1"
       d="m 157.74556,562.48651 0,-67.67748 24.12266,0 24.12267,0 0,67.67748 0,67.67747 -24.12267,0 -24.12266,0 0,-67.67747 z"
       id="path4476"
       inkscape:connector-curvature="0" />
    <path
       style="opacity:1;fill:#800000;fill-opacity:1;stroke:#da2382;stroke-width:0.67007399;stroke-miterlimit:4;stroke-dasharray:none;stroke-opacity:1"
       d="m 158.41563,562.48651 0,-67.0074 23.45259,0 23.45259,0 0,67.0074 0,67.0074 -23.45259,0 -23.45259,0 0,-67.0074 z"
       id="path4478"
       inkscape:connector-curvature="0" />
    <path
       style="opacity:1;fill:#800000;fill-opacity:1;stroke:#da2382;stroke-width:0.67007399;stroke-miterlimit:4;stroke-dasharray:none;stroke-opacity:1"
       d="m 159.08571,562.48651 0,-66.33733 22.78251,0 22.78252,0 0,66.33733 0,66.33732 -22.78252,0 -22.78251,0 0,-66.33732 z"
       id="path4480"
       inkscape:connector-curvature="0" />
    <path
       style="opacity:1;fill:#800000;fill-opacity:1;stroke:#da2382;stroke-width:0.67007399;stroke-miterlimit:4;stroke-dasharray:none;stroke-opacity:1"
       d="m 159.75578,562.48651 0,-65.66725 22.11244,0 22.11245,0 0,65.66725 0,65.66725 -22.11245,0 -22.11244,0 0,-65.66725 z"
       id="path4482"
       inkscape:connector-curvature="0" />
    <path
       style="opacity:1;fill:#800000;fill-opacity:1;stroke:#da2382;stroke-width:0.67007399;stroke-miterlimit:4;stroke-dasharray:none;stroke-opacity:1"
       d="m 160.42586,562.48651 0,-64.99718 21.44236,0 21.44237,0 0,64.99718 0,64.99717 -21.44237,0 -21.44236,0 0,-64.99717 z"
       id="path4484"
       inkscape:connector-curvature="0" />
    <path
       style="opacity:1;fill:#800000;fill-opacity:1;stroke:#da2382;stroke-width:0.67007399;stroke-miterlimit:4;stroke-dasharray:none;stroke-opacity:1"
       d="m 161.09593,562.48651 0,-64.32711 20.77229,0 20.7723,0 0,64.32711 0,64.3271 -20.7723,0 -20.77229,0 0,-64.3271 z"
       id="path4486"
       inkscape:connector-curvature="0" />
    <path
       style="opacity:1;fill:#800000;fill-opacity:1;stroke:#da2382;stroke-width:0.67007399;stroke-miterlimit:4;stroke-dasharray:none;stroke-opacity:1"
       d="m 161.766,562.48651 0,-63.65703 20.10222,0 20.10222,0 0,63.65703 0,63.65703 -20.10222,0 -20.10222,0 0,-63.65703 z"
       id="path4488"
       inkscape:connector-curvature="0" />
    <path
       style="opacity:1;fill:#800000;fill-opacity:1;stroke:#da2382;stroke-width:0.67007399;stroke-miterlimit:4;stroke-dasharray:none;stroke-opacity:1"
       d="m 162.43608,562.48651 0,-62.98696 19.43214,0 19.43215,0 0,62.98696 0,62.98695 -19.43215,0 -19.43214,0 0,-62.98695 z"
       id="path4490"
       inkscape:connector-curvature="0" />
    <path
       style="opacity:1;fill:#800000;fill-opacity:1;stroke:#da2382;stroke-width:0.67007399;stroke-miterlimit:4;stroke-dasharray:none;stroke-opacity:1"
       d="m 163.10615,562.48651 0,-62.31688 18.76207,0 18.76208,0 0,62.31688 0,62.31688 -18.76208,0 -18.76207,0 0,-62.31688 z"
       id="path4492"
       inkscape:connector-curvature="0" />
    <path
       style="opacity:1;fill:#800000;fill-opacity:1;stroke:#da2382;stroke-width:0.67007399;stroke-miterlimit:4;stroke-dasharray:none;stroke-opacity:1"
       d="m 163.77623,562.48651 0,-61.64681 18.09199,0 18.092,0 0,61.64681 0,61.6468 -18.092,0 -18.09199,0 0,-61.6468 z"
       id="path4494"
       inkscape:connector-curvature="0" />
    <path
       style="opacity:1;fill:#800000;fill-opacity:1;stroke:#da2382;stroke-width:0.67007399;stroke-miterlimit:4;stroke-dasharray:none;stroke-opacity:1"
       d="m 164.4463,562.48651 0,-60.97674 17.42192,0 17.42193,0 0,60.97674 0,60.97673 -17.42193,0 -17.42192,0 0,-60.97673 z"
       id="path4496"
       inkscape:connector-curvature="0" />
    <path
       style="opacity:1;fill:#800000;fill-opacity:1;stroke:#da2382;stroke-width:0.67007399;stroke-miterlimit:4;stroke-dasharray:none;stroke-opacity:1"
       d="m 165.11637,562.48651 0,-60.30666 16.75185,0 16.75185,0 0,60.30666 0,60.30666 -16.75185,0 -16.75185,0 0,-60.30666 z"
       id="path4498"
       inkscape:connector-curvature="0" />
    <path
       style="opacity:1;fill:#800000;fill-opacity:1;stroke:#da2382;stroke-width:0.67007399;stroke-miterlimit:4;stroke-dasharray:none;stroke-opacity:1"
       d="m 165.78645,562.48651 0,-59.63659 16.08177,0 16.08178,0 0,59.63659 0,59.63658 -16.08178,0 -16.08177,0 0,-59.63658 z"
       id="path4500"
       inkscape:connector-curvature="0" />
    <path
       style="opacity:1;fill:#800000;fill-opacity:1;stroke:#da2382;stroke-width:0.67007399;stroke-miterlimit:4;stroke-dasharray:none;stroke-opacity:1"
       d="m 166.45652,562.48651 0,-58.96651 15.4117,0 15.41171,0 0,58.96651 0,58.96651 -15.41171,0 -15.4117,0 0,-58.96651 z"
       id="path4502"
       inkscape:connector-curvature="0" />
    <path
       style="opacity:1;fill:#800000;fill-opacity:1;stroke:#da2382;stroke-width:0.67007399;stroke-miterlimit:4;stroke-dasharray:none;stroke-opacity:1"
       d="m 167.1266,562.48651 0,-58.29644 14.74162,0 14.74163,0 0,58.29644 0,58.29643 -14.74163,0 -14.74162,0 0,-58.29643 z"
       id="path4504"
       inkscape:connector-curvature="0" />
    <path
       style="opacity:1;fill:#800000;fill-opacity:1;stroke:#da2382;stroke-width:0.67007399;stroke-miterlimit:4;stroke-dasharray:none;stroke-opacity:1"
       d="m 167.79667,562.48651 0,-57.62637 14.07155,0 14.07156,0 0,57.62637 0,57.62636 -14.07156,0 -14.07155,0 0,-57.62636 z"
       id="path4506"
       inkscape:connector-curvature="0" />
    <path
       style="opacity:1;fill:#800000;fill-opacity:1;stroke:#da2382;stroke-width:0.67007399;stroke-miterlimit:4;stroke-dasharray:none;stroke-opacity:1"
       d="m 168.46674,562.48651 0,-56.95629 13.40148,0 13.40148,0 0,56.95629 0,56.95629 -13.40148,0 -13.40148,0 0,-56.95629 z"
       id="path4508"
       inkscape:connector-curvature="0" />
    <path
       style="opacity:1;fill:#800000;fill-opacity:1;stroke:#da2382;stroke-width:0.67007399;stroke-miterlimit:4;stroke-dasharray:none;stroke-opacity:1"
       d="m 169.13682,562.48651 0,-56.28622 12.7314,0 12.73141,0 0,56.28622 0,56.28621 -12.73141,0 -12.7314,0 0,-56.28621 z"
       id="path4510"
       inkscape:connector-curvature="0" />
    <path
       style="opacity:1;fill:#800000;fill-opacity:1;stroke:#da2382;stroke-width:0.67007399;stroke-miterlimit:4;stroke-dasharray:none;stroke-opacity:1"
       d="m 169.80689,562.48651 0,-55.61614 12.06133,0 12.06134,0 0,55.61614 0,55.61614 -12.06134,0 -12.06133,0 0,-55.61614 z"
       id="path4512"
       inkscape:connector-curvature="0" />
    <path
       style="opacity:1;fill:#800000;fill-opacity:1;stroke:#da2382;stroke-width:0.67007399;stroke-miterlimit:4;stroke-dasharray:none;stroke-opacity:1"
       d="m 170.47697,562.48651 0,-54.94607 11.39125,0 11.39126,0 0,54.94607 0,54.94606 -11.39126,0 -11.39125,0 0,-54.94606 z"
       id="path4514"
       inkscape:connector-curvature="0" />
    <path
       style="opacity:1;fill:#800000;fill-opacity:1;stroke:#da2382;stroke-width:0.67007399;stroke-miterlimit:4;stroke-dasharray:none;stroke-opacity:1"
       d="m 171.14704,562.48651 0,-54.276 10.72118,0 10.72119,0 0,54.276 0,54.27599 -10.72119,0 -10.72118,0 0,-54.27599 z"
       id="path4516"
       inkscape:connector-curvature="0" />
    <path
       style="opacity:1;fill:#800000;fill-opacity:1;stroke:#da2382;stroke-width:0.67007399;stroke-miterlimit:4;stroke-dasharray:none;stroke-opacity:1"
       d="m 171.81711,562.48651 0,-53.60592 10.05111,0 10.05111,0 0,53.60592 0,53.60592 -10.05111,0 -10.05111,0 0,-53.60592 z"
       id="path4518"
       inkscape:connector-curvature="0" />
    <path
       style="opacity:1;fill:#800000;fill-opacity:1;stroke:#da2382;stroke-width:0.67007399;stroke-miterlimit:4;stroke-dasharray:none;stroke-opacity:1"
       d="m 172.48719,562.48651 0,-52.93585 9.38103,0 9.38104,0 0,52.93585 0,52.93584 -9.38104,0 -9.38103,0 0,-52.93584 z"
       id="path4520"
       inkscape:connector-curvature="0" />
    <path
       style="opacity:1;fill:#800000;fill-opacity:1;stroke:#da2382;stroke-width:0.67007399;stroke-miterlimit:4;stroke-dasharray:none;stroke-opacity:1"
       d="m 173.15726,562.48651 0,-52.26577 8.71096,0 8.71097,0 0,52.26577 0,52.26577 -8.71097,0 -8.71096,0 0,-52.26577 z"
       id="path4522"
       inkscape:connector-curvature="0" />
    <path
       style="opacity:1;fill:#800000;fill-opacity:1;stroke:#da2382;stroke-width:0.67007399;stroke-miterlimit:4;stroke-dasharray:none;stroke-opacity:1"
       d="m 173.82734,562.48651 0,-51.5957 8.04088,0 8.04089,0 0,51.5957 0,51.59569 -8.04089,0 -8.04088,0 0,-51.59569 z"
       id="path4524"
       inkscape:connector-curvature="0" />
    <path
       style="opacity:1;fill:#800000;fill-opacity:1;stroke:#da2382;stroke-width:0.67007399;stroke-miterlimit:4;stroke-dasharray:none;stroke-opacity:1"
       d="m 174.49741,562.48651 0,-50.92563 7.37081,0 7.37082,0 0,50.92563 0,50.92562 -7.37082,0 -7.37081,0 0,-50.92562 z"
       id="path4526"
       inkscape:connector-curvature="0" />
    <path
       style="opacity:1;fill:#800000;fill-opacity:1;stroke:#da2382;stroke-width:0.67007399;stroke-miterlimit:4;stroke-dasharray:none;stroke-opacity:1"
       d="m 175.16748,562.48651 0,-50.25555 6.70074,0 6.70074,0 0,50.25555 0,50.25555 -6.70074,0 -6.70074,0 0,-50.25555 z"
       id="path4528"
       inkscape:connector-curvature="0" />
    <path
       style="opacity:1;fill:#800000;fill-opacity:1;stroke:#da2382;stroke-width:0.67007399;stroke-miterlimit:4;stroke-dasharray:none;stroke-opacity:1"
       d="m 175.83756,562.48651 0,-49.58548 6.03066,0 6.03067,0 0,49.58548 0,49.58547 -6.03067,0 -6.03066,0 0,-49.58547 z"
       id="path4530"
       inkscape:connector-curvature="0" />
    <path
       style="opacity:1;fill:#800000;fill-opacity:1;stroke:#da2382;stroke-width:0.67007399;stroke-miterlimit:4;stroke-dasharray:none;stroke-opacity:1"
       d="m 176.50763,562.48651 0,-48.9154 5.36059,0 5.3606,0 0,48.9154 0,48.9154 -5.3606,0 -5.36059,0 0,-48.9154 z"
       id="path4532"
       inkscape:connector-curvature="0" />
    <path
       style="opacity:1;fill:#800000;fill-opacity:1;stroke:#da2382;stroke-width:0.67007399;stroke-miterlimit:4;stroke-dasharray:none;stroke-opacity:1"
       d="m 177.17771,562.48651 0,-48.24533 4.69051,0 4.69052,0 0,48.24533 0,48.24533 -4.69052,0 -4.69051,0 0,-48.24533 z"
       id="path4534"
       inkscape:connector-curvature="0" />
    <path
       style="opacity:1;fill:#800000;fill-opacity:1;stroke:#da2382;stroke-width:0.67007399;stroke-miterlimit:4;stroke-dasharray:none;stroke-opacity:1"
       d="m 177.84778,562.48651 0,-47.57526 4.02044,0 4.02045,0 0,47.57526 0,47.57525 -4.02045,0 -4.02044,0 0,-47.57525 z"
       id="path4536"
       inkscape:connector-curvature="0" />
    <path
       style="opacity:1;fill:#800000;fill-opacity:1;stroke:#da2382;stroke-width:0.67007399;stroke-miterlimit:4;stroke-dasharray:none;stroke-opacity:1"
       d="m 178.51785,562.48651 0,-46.90518 3.35037,0 3.35037,0 0,46.90518 0,46.90518 -3.35037,0 -3.35037,0 0,-46.90518 z"
       id="path4538"
       inkscape:connector-curvature="0" />
    <path
       style="opacity:1;fill:#800000;fill-opacity:1;stroke:#da2382;stroke-width:0.67007399;stroke-miterlimit:4;stroke-dasharray:none;stroke-opacity:1"
       d="m 179.18793,562.48651 0,-46.23511 2.68029,0 2.6803,0 0,46.23511 0,46.2351 -2.6803,0 -2.68029,0 0,-46.2351 z"
       id="path4540"
       inkscape:connector-curvature="0" />
    <path
       style="opacity:1;fill:#800000;fill-opacity:1;stroke:#da2382;stroke-width:0.67007399;stroke-miterlimit:4;stroke-dasharray:none;stroke-opacity:1"
       d="m 179.858,562.48651 0,-45.56503 2.01022,0 2.01023,0 0,45.56503 0,45.56503 -2.01023,0 -2.01022,0 0,-45.56503 z"
       id="path4542"
       inkscape:connector-curvature="0" />
    <path
       style="opacity:1;fill:#800000;fill-opacity:1;stroke:#da2382;stroke-width:0.67007399;stroke-miterlimit:4;stroke-dasharray:none;stroke-opacity:1"
       d="m 180.52808,562.48651 c 0,-44.44824 0.0133,-44.89496 1.34014,-44.89496 1.32682,0 1.34015,0.44672 1.34015,44.89496 0,44.44824 -0.0133,44.89496 -1.34015,44.89496 -1.32681,0 -1.34014,-0.44672 -1.34014,-44.89496 z"
       id="path4544"
       inkscape:connector-curvature="0" />
    <path
       style="opacity:1;fill:#800000;fill-opacity:1;stroke:#da2382;stroke-width:0.67007399;stroke-miterlimit:4;stroke-dasharray:none;stroke-opacity:1"
       d="m 182.8474,562.48651 c 0,-17.13714 0.0868,-24.14779 0.19284,-15.57922 0.10606,8.56857 0.10606,22.58987 0,31.15844 -0.10606,8.56857 -0.19284,1.55792 -0.19284,-15.57922 z"
       id="path4546"
       inkscape:connector-curvature="0" />
    <path
       style="opacity:1;fill:#800000;fill-opacity:1;stroke:#da2382;stroke-width:0.67007399;stroke-miterlimit:4;stroke-dasharray:none;stroke-opacity:1"
       d="m 182.83464,562.48651 c 0,-10.87195 0.0922,-15.31957 0.20478,-9.88359 0.11263,5.43597 0.11263,14.3312 0,19.76718 -0.11263,5.43597 -0.20478,0.98836 -0.20478,-9.88359 z"
       id="path4548"
       inkscape:connector-curvature="0" />
    <path
       style="opacity:1;fill:#800000;fill-opacity:1;stroke:#da2382;stroke-width:0.08375925;stroke-miterlimit:4;stroke-dasharray:none;stroke-opacity:1"
       d="m 181.15337,603.74224 c -0.16959,-2.93431 -0.21395,-11.33071 -0.21593,-40.87451 l -0.002,-32.60329 0.90815,0 0.90816,0 0.06,6.29084 c 0.0572,5.99912 0.053,6.29859 -0.0915,6.45819 -0.14348,0.15848 -0.15517,0.67999 -0.22045,9.83282 -0.0379,5.316 -0.0379,14.02191 0,19.34645 0.0653,9.17424 0.0768,9.68675 0.21943,9.79099 0.14423,0.10542 0.14671,0.51712 0.0596,9.89774 -0.05,5.38325 -0.12541,10.3908 -0.16758,11.12788 -0.0422,0.73708 -0.0784,1.42495 -0.0805,1.52861 -0.004,0.17912 -0.0365,0.18845 -0.66207,0.18845 l -0.6582,0 -0.0569,-0.98417 z"
       id="path4550"
       inkscape:connector-curvature="0" />
    <path
       style="opacity:1;fill:#800000;fill-opacity:1;stroke:#da2382;stroke-width:0.08375925;stroke-miterlimit:4;stroke-dasharray:none;stroke-opacity:1"
       d="m 181.23648,603.90976 c -0.14894,-1.8655 -0.21119,-14.2785 -0.2142,-42.71721 l -0.003,-30.84435 0.82748,0 0.82748,0 0.0622,6.05775 c 0.0577,5.61342 0.0516,6.09415 -0.0831,6.55416 -0.13238,0.45214 -0.15111,1.34539 -0.21005,10.01543 -0.0356,5.23545 -0.0323,13.82915 0.007,19.0971 0.0629,8.36123 0.089,9.63663 0.20524,10.03878 0.11833,0.40928 0.12738,1.10077 0.0812,6.19818 -0.0676,7.45355 -0.1975,15.24132 -0.26446,15.85144 l -0.0529,0.48162 -0.56224,0 -0.56224,0 -0.0585,-0.7329 z"
       id="path4552"
       inkscape:connector-curvature="0" />
    <path
       style="opacity:1;fill:#800000;fill-opacity:1;stroke:#da2382;stroke-width:0.08375925;stroke-miterlimit:4;stroke-dasharray:none;stroke-opacity:1"
       d="m 181.32209,604.07728 c -0.13395,-1.16454 -0.21255,-17.34859 -0.21581,-44.43428 l -0.004,-29.21104 0.74379,0 0.74379,0 0.0614,5.0465 c 0.0658,5.41666 0.0404,6.92552 -0.13465,7.97806 -0.17423,1.0477 -0.1632,36.48269 0.0118,38.0267 0.0983,0.86731 0.11967,2.17966 0.10497,6.44947 -0.0204,5.93643 -0.16411,15.60843 -0.24104,16.22835 l -0.0494,0.39786 -0.48298,0 -0.48298,0 -0.0554,-0.48162 z"
       id="path4554"
       inkscape:connector-curvature="0" />
    <path
       style="opacity:1;fill:#800000;fill-opacity:1;stroke:#da2382;stroke-width:0.08375925;stroke-miterlimit:4;stroke-dasharray:none;stroke-opacity:1"
       d="m 181.40409,604.16104 c -0.11992,-0.67711 -0.21071,-20.33948 -0.21405,-46.36074 l -0.004,-27.28458 0.6601,0 0.66011,0 0.063,4.33454 c 0.0636,4.37394 0.0259,7.14578 -0.12321,9.06694 -0.10631,1.36979 -0.11086,34.58181 -0.005,36.77031 0.15192,3.14185 0.0479,22.12357 -0.12837,23.43165 l -0.048,0.35598 -0.4027,0 c -0.39962,0 -0.40314,-0.002 -0.45834,-0.3141 z"
       id="path4556"
       inkscape:connector-curvature="0" />
    <path
       style="opacity:1;fill:#800000;fill-opacity:1;stroke:#da2382;stroke-width:0.08375925;stroke-miterlimit:4;stroke-dasharray:none;stroke-opacity:1"
       d="m 181.48678,604.20292 c -0.1099,-0.38128 -0.20947,-22.74616 -0.21293,-47.82653 l -0.004,-25.77691 0.57646,0 0.57646,0 0.0605,3.53883 c 0.0616,3.60187 0.0568,4.10899 -0.12195,12.71046 -0.0998,4.80283 -0.0773,23.39896 0.048,39.74377 0.0471,6.14286 -0.0696,17.18388 -0.18619,17.61038 -0.0418,0.15297 -0.11092,0.18846 -0.367,0.18846 -0.25525,0 -0.32587,-0.036 -0.36982,-0.18846 z"
       id="path4558"
       inkscape:connector-curvature="0" />
    <path
       style="opacity:1;fill:#800000;fill-opacity:1;stroke:#da2382;stroke-width:0.08375925;stroke-miterlimit:4;stroke-dasharray:none;stroke-opacity:1"
       d="m 181.56649,604.16104 c -0.10378,-0.26803 -0.20601,-24.20623 -0.20925,-48.99916 l -0.003,-24.47864 0.4928,0 0.4928,0 0.0638,3.07815 c 0.0368,1.77846 0.0236,5.69522 -0.0313,9.27634 -0.17947,11.69972 -0.1865,14.02868 -0.0962,31.82851 0.0852,16.79832 0.0313,28.87511 -0.13081,29.29764 -0.0746,0.19433 -0.50309,0.19222 -0.57862,-0.003 l 0,0 z"
       id="path4560"
       inkscape:connector-curvature="0" />
    <path
       style="opacity:1;fill:#800000;fill-opacity:1;stroke:#da2382;stroke-width:0.08375925;stroke-miterlimit:4;stroke-dasharray:none;stroke-opacity:1"
       d="m 181.64837,604.142 c -0.10035,-0.16238 -0.2036,-24.78571 -0.20713,-49.39892 l -0.003,-23.97608 0.40921,0 0.4092,0 0.0643,2.49184 c 0.037,1.43246 0.0198,5.9103 -0.0404,10.53272 -0.0661,5.07444 -0.094,14.06649 -0.0757,24.37394 0.033,18.55735 -0.003,33.52962 -0.0836,35.01137 -0.0516,0.94547 -0.0656,1.00664 -0.23541,1.03084 -0.0993,0.0141 -0.20598,-0.0154 -0.23707,-0.0657 z"
       id="path4562"
       inkscape:connector-curvature="0" />
    <path
       style="opacity:1;fill:#800000;fill-opacity:1;stroke:#da2382;stroke-width:0.08375925;stroke-miterlimit:4;stroke-dasharray:none;stroke-opacity:1"
       d="m 181.65964,601.22947 c -0.0299,-1.60085 -0.0789,-18.09095 -0.10894,-36.64468 l -0.0546,-33.73403 0.3384,0 0.33841,0 0.0635,1.98928 c 0.0349,1.0941 0.0343,4.15655 -0.001,6.80544 -0.0356,2.64888 -0.0893,18.17785 -0.11951,34.50881 -0.0302,16.33096 -0.086,29.75861 -0.12403,29.83923 -0.038,0.0806 -0.11606,0.14658 -0.1734,0.14658 -0.0801,0 -0.11681,-0.67386 -0.15855,-2.91063 z"
       id="path4564"
       inkscape:connector-curvature="0" />
    <path
       style="opacity:1;fill:#800000;fill-opacity:1;stroke:#da2382;stroke-width:0.08375925;stroke-miterlimit:4;stroke-dasharray:none;stroke-opacity:1"
       d="m 181.82669,603.80506 c -0.0927,-0.27034 -0.20445,-28.06816 -0.21395,-53.20806 l -0.007,-19.66248 0.24553,0 0.24553,0 0.0306,0.81665 c 0.0427,1.13925 -0.0976,54.23258 -0.16954,64.13864 -0.0342,4.70421 -0.0892,8.0365 -0.13078,7.91525 z"
       id="path4566"
       inkscape:connector-curvature="0" />
    <path
       style="opacity:1;fill:#800000;fill-opacity:1;stroke:#da2382;stroke-width:0.08375925;stroke-miterlimit:4;stroke-dasharray:none;stroke-opacity:1"
       d="m 181.75193,581.27383 c -0.0345,-8.26914 -0.0628,-22.95946 -0.0628,-32.64517 l -3e-5,-17.61038 0.18134,0 0.18135,0 -0.0673,30.5093 c -0.037,16.78012 -0.0904,31.47045 -0.11853,32.64517 -0.0282,1.17472 -0.0795,-4.62979 -0.11398,-12.89892 z"
       id="path4568"
       inkscape:connector-curvature="0" />
    <path
       style="opacity:1;fill:#800000;fill-opacity:1;stroke:#da2382;stroke-width:0.08375925;stroke-miterlimit:4;stroke-dasharray:none;stroke-opacity:1"
       d="m 181.89485,568.33302 c -2e-5,-1.88877 0.011,-2.6734 0.0245,-1.74361 0.0135,0.92978 0.0135,2.47514 4e-5,3.43413 -0.0135,0.95898 -0.0245,0.19825 -0.0245,-1.69052 z"
       id="path4570"
       inkscape:connector-curvature="0" />
    <path
       style="opacity:1;fill:#800000;fill-opacity:1;stroke:#da2382;stroke-width:0.08375925;stroke-miterlimit:4;stroke-dasharray:none;stroke-opacity:1"
       d="m 182.61043,604.39345 c 0,-0.31928 -0.008,-0.32974 -0.20643,-0.25448 -0.32069,0.12193 -0.32117,-0.0311 -0.001,-0.36067 0.27099,-0.27903 0.29132,-0.33738 0.29132,-0.83592 0,-0.88292 -0.10292,-1.87368 -0.17539,-1.68839 -0.0353,0.0902 -0.0668,0.34297 -0.07,0.56179 -0.003,0.21882 -0.0436,0.39786 -0.0897,0.39786 -0.0461,0 -0.0875,0.1225 -0.0921,0.27221 -0.008,0.25792 -0.0119,0.26122 -0.0754,0.0628 -0.0369,-0.11516 -0.0645,-0.52977 -0.0613,-0.92135 0.006,-0.69581 0.007,-0.70056 0.0613,-0.2094 l 0.0556,0.50256 0.0154,-0.54444 c 0.0109,-0.38631 0.0389,-0.50794 0.0966,-0.41879 0.0566,0.0876 0.0833,-0.0644 0.0882,-0.50256 0.009,-0.78215 0.12433,-0.58444 0.22052,0.37692 0.0528,0.52743 0.0782,0.11734 0.11937,-1.92646 0.0682,-3.38569 0.0615,-10.71111 -0.009,-10.00923 -0.0538,0.53358 -0.0551,0.52857 -0.0671,-0.25128 -0.007,-0.43764 0.0238,-1.81115 0.0679,-3.05224 0.0597,-1.68162 0.0552,-2.33972 -0.0177,-2.58305 -0.075,-0.25026 -0.0747,-0.36365 0.001,-0.48545 0.13823,-0.22135 0.12383,-0.46889 -0.0307,-0.5282 -0.0745,-0.0286 -0.10816,-0.0146 -0.0788,0.0329 0.0281,0.0455 0.0127,0.0828 -0.0344,0.0828 -0.0501,0 -0.097,0.32127 -0.1132,0.77477 l -0.0276,0.77477 -0.0115,-0.83759 c -0.006,-0.46067 0.0162,-0.90809 0.0501,-0.99425 0.0339,-0.0862 0.0319,-0.35 -0.004,-0.58631 -0.0627,-0.40925 -0.15644,-4.31369 -0.27972,-11.6534 -0.0309,-1.8427 -0.0716,-3.36608 -0.0903,-3.38527 -0.0187,-0.0192 -0.0424,1.01733 -0.0526,2.30338 l -0.0185,2.33828 -0.0458,-1.88458 -0.0458,-1.88459 -0.0422,1.67519 -0.0422,1.67518 -0.0191,-2.11492 c -0.0105,-1.16321 0.009,-2.1149 0.0438,-2.11488 0.0345,2e-5 0.0609,-1.8186 0.0587,-4.04138 -0.004,-3.68308 -7e-5,-3.79635 0.0419,-1.27737 0.036,2.16088 0.0599,1.00938 0.1094,-5.27683 0.0348,-4.42249 0.10237,-8.68165 0.15006,-9.4648 0.1818,-2.98561 0.20012,-3.16833 0.32173,-3.20826 0.0699,-0.023 0.0933,-8.4e-4 0.0585,0.0555 -0.0368,0.0596 -0.0106,0.0755 0.0721,0.0438 0.14507,-0.0557 0.17594,-0.32872 0.0462,-0.40888 -0.0461,-0.0285 -0.0838,-0.12715 -0.0838,-0.21928 0,-0.10564 0.0359,-0.14537 0.097,-0.10754 0.115,0.0711 0.0386,-3.78668 -0.0956,-4.82437 -0.0447,-0.34551 -0.10329,-0.96742 -0.13027,-1.38203 -0.027,-0.41461 -0.0848,-0.92345 -0.1285,-1.13075 -0.10173,-0.48264 -0.24404,-1.86822 -0.23657,-2.30338 0.005,-0.30777 0.0113,-0.31643 0.0746,-0.10647 0.11493,0.38161 0.41541,2.23671 0.49207,3.03804 0.0543,0.56738 0.0749,0.003 0.0834,-2.28243 l 0.0113,-3.03628 0.29316,0 0.29315,0 0.0122,2.28244 c 0.007,1.25534 0.0368,8.21888 0.067,15.47452 l 0.0548,13.19208 0.0168,-15.47452 0.0168,-15.47452 0.29316,0 0.29316,0 0,37.23099 0,37.23098 -0.29316,0 -0.29316,0 -0.014,-20.50007 -0.014,-20.50008 -0.0638,16.29118 c -0.0577,14.72206 -0.15301,22.40701 -0.29896,24.10172 l -0.0523,0.60725 -0.28101,0 c -0.27171,0 -0.28101,-0.011 -0.28101,-0.33296 z m -0.1103,-25.64811 c -0.0267,-0.0668 -0.0466,-0.047 -0.0506,0.0506 -0.004,0.0883 0.0162,0.13776 0.044,0.10993 0.0278,-0.0278 0.0308,-0.10007 0.007,-0.16054 z m -0.002,-0.42403 c -0.0232,-0.0576 -0.0422,-0.0105 -0.0422,0.1047 0,0.11517 0.019,0.16228 0.0422,0.1047 0.0232,-0.0576 0.0232,-0.15181 0,-0.2094 z m -0.16033,-18.76207 c -0.0139,-0.7486 -0.0252,-0.13611 -0.0252,1.36109 0,1.49719 0.0114,2.10968 0.0252,1.36109 0.0139,-0.7486 0.0139,-1.97358 0,-2.72218 z m -0.007,-1.67519 c -0.0232,-0.0576 -0.0422,-0.0105 -0.0422,0.1047 0,0.11517 0.019,0.16229 0.0422,0.1047 0.0232,-0.0576 0.0232,-0.15181 0,-0.2094 z m 0.003,-1.12915 c -0.0212,-0.0815 -0.04,-0.0351 -0.0417,0.1031 -0.002,0.13821 0.0157,0.20488 0.0386,0.14818 0.0229,-0.0567 0.0243,-0.16979 0.003,-0.25128 z m 0.17122,-5.99038 c -0.0169,-0.24186 -0.0308,-0.044 -0.0308,0.43973 0,0.48371 0.0139,0.6816 0.0308,0.43974 0.0169,-0.24185 0.0169,-0.63762 0,-0.87947 z m 0.0797,-3.55977 c -0.0211,-0.0806 -0.0383,-0.0147 -0.0383,0.14658 0,0.16124 0.0172,0.2272 0.0383,0.14658 0.0211,-0.0806 0.0211,-0.21254 0,-0.29316 z m -0.0823,-1.71609 c -0.02,-0.10419 -0.0372,-0.0387 -0.0381,0.1456 -9.3e-4,0.18427 0.0155,0.26952 0.0364,0.18944 0.021,-0.0801 0.0217,-0.23085 0.002,-0.33504 z m 0.08,-1.50864 c -0.0232,-0.0576 -0.0423,-0.0105 -0.0423,0.1047 0,0.11517 0.019,0.16228 0.0423,0.1047 0.0232,-0.0576 0.0232,-0.15182 0,-0.2094 z"
       id="path4572"
       inkscape:connector-curvature="0" />
    <path
       style="opacity:1;fill:#800000;fill-opacity:1;stroke:#da2382;stroke-width:0.08375925;stroke-miterlimit:4;stroke-dasharray:none;stroke-opacity:1"
       d="m 182.67856,604.37373 c -0.0199,-0.20356 -0.0748,-0.28026 -0.22582,-0.31555 -0.18418,-0.043 -0.1886,-0.0557 -0.0573,-0.16471 0.36754,-0.30503 0.45919,-0.94539 0.31141,-2.17576 -0.0543,-0.45195 -0.21438,-0.65535 -0.28907,-0.36724 -0.0275,0.10614 -0.0421,0.0875 -0.0489,-0.0624 -0.005,-0.11747 0.0243,-0.2494 0.0659,-0.29316 0.0416,-0.0438 0.0938,-0.15495 0.11593,-0.24709 0.0311,-0.12913 0.0425,-0.11586 0.05,0.0579 0.005,0.12396 0.043,0.24598 0.0837,0.27114 0.1483,0.0916 0.1836,-1.27448 0.17297,-6.69472 -0.0156,-7.9705 0.002,-11.94821 0.0537,-12.0317 0.0721,-0.11672 -0.0502,-0.40655 -0.17158,-0.40655 -0.13502,0 -0.23882,-1.35028 -0.20605,-2.6803 0.0119,-0.48371 -10e-4,-0.93601 -0.0293,-1.00511 -0.028,-0.0691 -0.0917,-2.63213 -0.14139,-5.69563 -0.094,-5.79114 -0.1235,-6.48884 -0.27043,-6.39802 -0.0861,0.0532 -0.0569,-2.77421 0.0663,-6.41502 0.0437,-1.29063 0.0751,-1.56516 0.18922,-1.65425 0.1261,-0.0984 0.12533,-0.11576 -0.01,-0.22075 -0.17797,-0.13834 -0.21486,-0.90483 -0.0419,-0.87024 0.0576,0.0115 0.10469,-0.0544 0.10469,-0.14658 0,-0.0966 -0.0479,-0.15745 -0.11318,-0.14375 -0.0944,0.0198 -0.10462,-0.64068 -0.0615,-3.97856 0.0683,-5.29394 0.12515,-6.89099 0.24445,-6.86813 0.1263,0.0242 0.17723,-0.35489 0.063,-0.46911 -0.05,-0.05 -0.0908,-0.31473 -0.0908,-0.58836 0,-0.37672 0.0356,-0.5238 0.14658,-0.6058 0.11744,-0.0868 0.12577,-0.1294 0.0419,-0.21444 -0.0576,-0.0584 -0.1047,-0.27176 -0.1047,-0.47416 0,-0.2955 0.0325,-0.37649 0.16475,-0.41109 0.20492,-0.0536 0.30077,-0.32844 0.16964,-0.48645 -0.0753,-0.0907 -0.0744,-0.19068 0.004,-0.42734 0.18821,-0.57029 -0.0362,-4.87629 -0.38643,-7.41622 -0.074,-0.53685 -0.11961,-1.04569 -0.10128,-1.13075 0.0183,-0.0851 0.10239,0.36359 0.1868,0.99702 0.26652,2.00008 0.38159,1.40932 0.38159,-1.95909 l 0,-2.33357 0.19567,0 0.19567,0 0.0556,5.03936 c 0.0306,2.77165 0.0556,8.19307 0.0556,12.0476 0,7.52758 0.0897,14.24183 0.17729,13.27577 0.0292,-0.32247 0.0579,-7.28601 0.0636,-15.47452 l 0.0104,-14.88821 0.2094,0 0.2094,0 0,37.14723 0,37.14723 -0.2094,0 -0.2094,0 0,-20.43232 c 0,-13.53119 -0.0283,-20.4498 -0.0838,-20.48408 -0.0461,-0.0285 -0.0842,-0.0213 -0.0848,0.016 -5.7e-4,0.0373 -0.0382,7.28571 -0.0837,16.10766 -0.0778,15.10008 -0.17977,23.28337 -0.30324,24.33387 -0.0479,0.40728 -0.0756,0.45887 -0.24649,0.45887 -0.15547,0 -0.19761,-0.0518 -0.2188,-0.26893 z m -0.23565,-43.4534 c 0,-1.01985 -0.0325,-1.68537 -0.0838,-1.71707 -0.0548,-0.0339 -0.0838,0.55918 -0.0838,1.71707 0,1.15789 0.0289,1.75095 0.0838,1.71706 0.0513,-0.0317 0.0838,-0.69721 0.0838,-1.71706 z m 0.16752,-9.71608 c 0,-0.27096 -0.0336,-0.51343 -0.0747,-0.53882 -0.0914,-0.0565 -0.15537,0.43262 -0.10882,0.83131 0.0537,0.4598 0.18349,0.25287 0.18349,-0.29249 z m 0.0838,-3.85292 c 0,-0.20635 -0.15455,-0.29878 -0.21895,-0.13095 -0.066,0.17197 0.0269,0.40724 0.1346,0.34071 0.0464,-0.0287 0.0844,-0.12306 0.0844,-0.20976 z"
       id="path4574"
       inkscape:connector-curvature="0" />
    <path
       style="opacity:1;fill:#800000;fill-opacity:1;stroke:#da2382;stroke-width:0.08375925;stroke-miterlimit:4;stroke-dasharray:none;stroke-opacity:1"
       d="m 182.73761,604.31462 c -0.0295,-0.13436 -0.11302,-0.26707 -0.18558,-0.29491 -0.11899,-0.0457 -0.11925,-0.0648 -0.003,-0.19545 0.23394,-0.26215 0.33477,-0.85271 0.27415,-1.6058 -0.0313,-0.38892 -0.0939,-0.77615 -0.139,-0.86051 -0.0586,-0.10952 -0.0487,-0.18672 0.0345,-0.27 0.19643,-0.19644 0.22538,-1.52906 0.22826,-10.50771 0.003,-7.93258 -0.008,-8.58791 -0.13863,-8.73242 -0.14901,-0.16465 -0.20716,-1.77464 -0.43471,-12.03485 -0.0533,-2.40522 -0.10878,-3.57576 -0.17236,-3.63934 -0.10743,-0.10743 -0.11596,-3.20346 -0.01,-3.62 0.0517,-0.20315 0.0658,-0.21518 0.0738,-0.0628 0.019,0.36201 0.16584,0.18471 0.22249,-0.26872 0.0934,-0.74742 0.0128,-2.99955 -0.10881,-3.04007 -0.15249,-0.0508 -0.13066,-0.78257 0.0302,-1.01224 0.1228,-0.17532 0.1228,-0.20363 0,-0.33933 -0.14608,-0.16141 -0.18568,-0.76305 -0.0502,-0.76305 0.0461,0 0.0838,-0.0942 0.0838,-0.2094 0,-0.11517 -0.0377,-0.20939 -0.0838,-0.20939 -0.054,0 -0.0838,-0.89685 -0.0838,-2.52304 0,-2.28742 0.0123,-2.5128 0.13202,-2.41346 0.18472,0.15331 0.28421,-0.0245 0.28421,-0.50786 0,-0.41665 -0.0965,-0.6385 -0.23935,-0.55022 -0.0671,0.0414 -0.0931,-0.38507 -0.0931,-1.52452 l 0,-1.58208 0.18846,0.007 c 0.26112,0.009 0.32137,-0.36215 0.0695,-0.42803 -0.1494,-0.0391 -0.17415,-0.11021 -0.17415,-0.5006 0,-0.25301 0.0594,-0.56995 0.1338,-0.7138 0.10447,-0.20202 0.11365,-0.30294 0.0419,-0.46045 -0.13953,-0.30624 -0.11514,-1.03447 0.0404,-1.20634 0.10227,-0.11301 0.11178,-0.18457 0.0419,-0.31519 -0.14852,-0.27751 -0.10923,-0.65988 0.0815,-0.7935 0.0946,-0.0662 0.16889,-0.19089 0.16512,-0.27697 -0.004,-0.0861 -0.003,-0.26958 0.002,-0.40779 0.0446,-1.27937 -0.0158,-3.72071 -0.12332,-4.98227 -0.15771,-1.85065 -0.15492,-1.68119 -0.0272,-1.65565 0.15544,0.0311 0.20935,-0.75714 0.22055,-3.22473 0.008,-1.85696 0.0273,-2.1568 0.13543,-2.1568 0.0888,0 0.12653,0.0921 0.12868,0.3141 0.002,0.17275 0.0379,6.77822 0.0805,14.67881 0.0727,13.47727 0.10402,15.4117 0.24973,15.4117 0.0991,0 0.16927,-8.0838 0.16927,-19.4878 0,-9.64799 0.0146,-10.91681 0.12564,-10.91681 0.11149,0 0.12564,4.174 0.12564,37.06347 0,32.88946 -0.0141,37.06347 -0.12564,37.06347 -0.11128,0 -0.12564,-2.01801 -0.12564,-17.65953 0,-19.15247 -0.039,-23.21499 -0.22294,-23.21499 -0.0909,0 -0.11214,0.43216 -0.11233,2.28244 -0.001,12.06522 -0.25928,37.50206 -0.38826,38.27798 -0.0622,0.37391 -0.24636,0.41386 -0.32192,0.0698 z"
       id="path4576"
       inkscape:connector-curvature="0" />
    <path
       style="opacity:1;fill:#800000;fill-opacity:1;stroke:#da2382;stroke-width:0.08375925;stroke-miterlimit:4;stroke-dasharray:none;stroke-opacity:1"
       d="m 182.78267,604.23525 c -0.0598,-0.14447 -0.14065,-0.26267 -0.17957,-0.26267 -0.0389,0 0.0105,-0.13783 0.10994,-0.30628 0.15427,-0.26148 0.17897,-0.42385 0.1688,-1.10981 -0.007,-0.44194 -0.0443,-0.91506 -0.084,-1.05138 -0.05,-0.17197 -0.0329,-0.35147 0.0558,-0.58631 0.11177,-0.29585 0.12823,-1.50379 0.13075,-9.59387 0.002,-7.21199 -0.0203,-9.31838 -0.10201,-9.54069 -0.12527,-0.34068 -0.23021,-2.90793 -0.35813,-8.7607 -0.0503,-2.30338 -0.13265,-4.82872 -0.18291,-5.61187 -0.0503,-0.78315 -0.10617,-2.11702 -0.12424,-2.96416 -0.0319,-1.49355 -0.0273,-1.54619 0.1511,-1.73607 0.16393,-0.17449 0.1878,-0.30775 0.21921,-1.2238 0.0194,-0.56539 -0.009,-1.32952 -0.0624,-1.69806 -0.0945,-0.64874 -0.11593,-1.10601 -0.0803,-1.71707 0.009,-0.16123 -0.0109,-0.39953 -0.0452,-0.52954 -0.0392,-0.14884 -0.0214,-0.31278 0.0481,-0.44271 0.0876,-0.16369 0.0899,-0.26321 0.0109,-0.48152 -0.0676,-0.18707 -0.0995,-1.00408 -0.0995,-2.55168 0,-2.20306 0.005,-2.27649 0.16373,-2.27649 0.12079,0 0.17814,-0.0769 0.21872,-0.29316 0.0715,-0.38126 -0.0188,-0.85058 -0.17533,-0.91063 -0.10215,-0.0392 -0.12336,-0.29982 -0.12336,-1.51576 0,-1.39551 0.008,-1.46841 0.16188,-1.46841 0.25684,0 0.31484,-0.33251 0.0879,-0.50372 -0.17259,-0.13019 -0.1835,-0.18451 -0.12771,-0.63597 0.0335,-0.27149 0.0743,-0.85169 0.0905,-1.28933 0.0679,-1.829 0.075,-1.89041 0.23923,-2.0549 0.15087,-0.15113 0.15622,-0.2817 0.1096,-2.67458 -0.027,-1.38363 -0.0914,-2.94349 -0.14326,-3.46635 -0.0835,-0.84262 -0.0783,-0.98432 0.0463,-1.2469 0.11738,-0.24737 0.1494,-0.70555 0.19404,-2.77664 l 0.0534,-2.48038 0.051,3.18285 c 0.028,1.75057 0.0583,5.9155 0.0673,9.2554 0.021,7.81969 0.1408,17.67323 0.21713,17.86166 0.27409,0.67662 0.30514,-0.6031 0.37165,-15.31811 0.0444,-9.81768 0.0594,-4.14196 0.0583,22.03979 -0.001,32.8838 -0.006,33.97999 -0.0651,16.24929 -0.035,-10.45734 -0.0938,-19.25834 -0.13071,-19.55778 -0.0673,-0.5467 -0.18753,-0.6794 -0.28903,-0.31904 -0.0299,0.10637 -0.0584,2.49259 -0.0632,5.30271 -0.0201,11.74079 -0.29471,34.82443 -0.4182,35.15825 -0.0568,0.15357 -0.0725,0.145 -0.17133,-0.0936 z"
       id="path4578"
       inkscape:connector-curvature="0" />
  </g>
  <g
     inkscape:groupmode="layer"
     id="layer12"
     inkscape:label="bordo"
     style="display:inline">
    <g
       style="display:inline"
       inkscape:label="bordo"
       id="layer9"
       transform="translate(1.0026851e-4,3.9980999e-4)">
      <g
         transform="matrix(0.98408585,0,0,0.97888478,-0.64744853,7.594777)"
         id="layer4"
         inkscape:label="bordo"
         style="display:inline;stroke-width:1;stroke-miterlimit:4;stroke-dasharray:none">
        <path
           style="color:#000000;clip-rule:nonzero;display:inline;overflow:visible;visibility:visible;opacity:1;isolation:auto;mix-blend-mode:normal;color-interpolation:sRGB;color-interpolation-filters:linearRGB;solid-color:#000000;solid-opacity:1;fill:none;fill-opacity:1;fill-rule:evenodd;stroke:#000000;stroke-width:1;stroke-linecap:butt;stroke-linejoin:miter;stroke-miterlimit:4;stroke-dasharray:none;stroke-dashoffset:0;stroke-opacity:1;color-rendering:auto;image-rendering:auto;shape-rendering:auto;text-rendering:auto;enable-background:accumulate"
           d="m 2.2796702,2.2791692 c 0,894.5596608 0,894.5596608 0,894.5596608 l 905.8926598,0 0,-894.5596608 z"
           id="path13590"
           inkscape:connector-curvature="0" />
      </g>
    </g>
  </g>
</svg>
