<?xml version="1.0" encoding="UTF-8" standalone="no"?>
<!-- Created with Inkscape (http://www.inkscape.org/) -->

<svg
   xmlns:dc="http://purl.org/dc/elements/1.1/"
   xmlns:cc="http://creativecommons.org/ns#"
   xmlns:rdf="http://www.w3.org/1999/02/22-rdf-syntax-ns#"
   xmlns:svg="http://www.w3.org/2000/svg"
   xmlns="http://www.w3.org/2000/svg"
   xmlns:sodipodi="http://sodipodi.sourceforge.net/DTD/sodipodi-0.dtd"
   xmlns:inkscape="http://www.inkscape.org/namespaces/inkscape"
   id="svg18115"
   version="1.1"
   inkscape:version="0.91 r13725"
   width="900"
   height="891.5625"
   viewBox="0 0 900 891.5625"
   sodipodi:docname="floor_bedroom1.svg">
  
  <g
     inkscape:groupmode="layer"
     id="layer8"
     inkscape:label="pavimento"
     style="display:inline">
    <rect
       style="opacity:1;fill:none;fill-opacity:1;stroke:#d23b5e;stroke-width:1.00512648;stroke-miterlimit:4;stroke-dasharray:none;stroke-opacity:1"
       id="rect16919"
       width="184.81216"
       height="248.30055"
       x="17.642723"
       y="175.58401" />
    <path
       style="opacity:1;fill:#323ae7;fill-opacity:1;stroke:#bbd23b;stroke-width:1;stroke-miterlimit:4;stroke-dasharray:none;stroke-opacity:1"
       d="m 18.516193,300.14695 0,-123.08885 91.484957,0 91.48495,0 0,123.08885 0,123.08884 -91.48495,0 -91.484957,0 0,-123.08884 z"
       id="path4209"
       inkscape:connector-curvature="0" />
    <path
       style="opacity:1;fill:#323ae7;fill-opacity:1;stroke:#bbd23b;stroke-width:1.66336286;stroke-miterlimit:4;stroke-dasharray:none;stroke-opacity:1"
       d="m 20.179556,300.14695 0,-121.42549 89.821594,0 89.82159,0 0,121.42549 0,121.42548 -89.82159,0 -89.821594,0 0,-121.42548 z"
       id="path4211"
       inkscape:connector-curvature="0" />
    <path
       style="opacity:1;fill:#323ae7;fill-opacity:1;stroke:#bbd23b;stroke-width:1.66336286;stroke-miterlimit:4;stroke-dasharray:none;stroke-opacity:1"
       d="m 21.842919,300.14695 0,-119.76213 88.158231,0 88.15823,0 0,119.76213 0,119.76212 -88.15823,0 -88.158231,0 0,-119.76212 z"
       id="path4213"
       inkscape:connector-curvature="0" />
    <path
       style="opacity:1;fill:#323ae7;fill-opacity:1;stroke:#bbd23b;stroke-width:1.66336286;stroke-miterlimit:4;stroke-dasharray:none;stroke-opacity:1"
       d="m 23.506281,300.14695 0,-118.09876 86.494869,0 86.49486,0 0,118.09876 0,118.09876 -86.49486,0 -86.494869,0 0,-118.09876 z"
       id="path4215"
       inkscape:connector-curvature="0" />
    <path
       style="opacity:1;fill:#323ae7;fill-opacity:1;stroke:#bbd23b;stroke-width:1.66336286;stroke-miterlimit:4;stroke-dasharray:none;stroke-opacity:1"
       d="m 25.169644,300.14695 0,-116.4354 84.831506,0 84.8315,0 0,116.4354 0,116.43539 -84.8315,0 -84.831506,0 0,-116.43539 z"
       id="path4217"
       inkscape:connector-curvature="0" />
    <path
       style="opacity:1;fill:#323ae7;fill-opacity:1;stroke:#bbd23b;stroke-width:1.66336286;stroke-miterlimit:4;stroke-dasharray:none;stroke-opacity:1"
       d="m 26.833007,300.14695 0,-114.77204 83.168143,0 83.16814,0 0,114.77204 0,114.77203 -83.16814,0 -83.168143,0 0,-114.77203 z"
       id="path4219"
       inkscape:connector-curvature="0" />
    <path
       style="opacity:1;fill:#323ae7;fill-opacity:1;stroke:#bbd23b;stroke-width:1.66336286;stroke-miterlimit:4;stroke-dasharray:none;stroke-opacity:1"
       d="m 28.49637,300.14695 0,-113.10868 81.50478,0 81.50478,0 0,113.10868 0,113.10867 -81.50478,0 -81.50478,0 0,-113.10867 z"
       id="path4221"
       inkscape:connector-curvature="0" />
    <path
       style="opacity:1;fill:#323ae7;fill-opacity:1;stroke:#bbd23b;stroke-width:1.66336286;stroke-miterlimit:4;stroke-dasharray:none;stroke-opacity:1"
       d="m 30.159733,300.14695 0,-111.44531 79.841417,0 79.84141,0 0,111.44531 0,111.4453 -79.84141,0 -79.841417,0 0,-111.4453 z"
       id="path4223"
       inkscape:connector-curvature="0" />
    <path
       style="fill:#323ae7;stroke-width:1;stroke-miterlimit:4;stroke-dasharray:none;opacity:1;stroke:#bbd23b;stroke-opacity:1;fill-opacity:1"
       d="m 31.823095,300.14695 0,-109.78195 78.178055,0 78.17805,0 0,109.78195 0,109.78194 -78.17805,0 -78.178055,0 0,-109.78194 z"
       id="path4225"
       inkscape:connector-curvature="0" />
    <path
       style="opacity:1;fill:#323ae7;fill-opacity:1;stroke:#bbd23b;stroke-width:1.66336286;stroke-miterlimit:4;stroke-dasharray:none;stroke-opacity:1"
       d="m 33.486458,300.14695 0,-108.11859 76.514692,0 76.51469,0 0,108.11859 0,108.11858 -76.51469,0 -76.514692,0 0,-108.11858 z"
       id="path4227"
       inkscape:connector-curvature="0" />
    <path
       style="opacity:1;fill:#323ae7;fill-opacity:1;stroke:#bbd23b;stroke-width:1.66336286;stroke-miterlimit:4;stroke-dasharray:none;stroke-opacity:1"
       d="m 35.149821,300.14695 0,-106.45522 74.851329,0 74.85132,0 0,106.45522 0,106.45522 -74.85132,0 -74.851329,0 0,-106.45522 z"
       id="path4229"
       inkscape:connector-curvature="0" />
    <path
       style="opacity:1;fill:#323ae7;fill-opacity:1;stroke:#bbd23b;stroke-width:1.66336286;stroke-miterlimit:4;stroke-dasharray:none;stroke-opacity:1"
       d="m 36.813184,300.14695 0,-104.79186 73.187966,0 73.18796,0 0,104.79186 0,104.79185 -73.18796,0 -73.187966,0 0,-104.79185 z"
       id="path4231"
       inkscape:connector-curvature="0" />
    <path
       style="opacity:1;fill:#323ae7;fill-opacity:1;stroke:#bbd23b;stroke-width:1.66336286;stroke-miterlimit:4;stroke-dasharray:none;stroke-opacity:1"
       d="m 38.476547,300.14695 0,-103.1285 71.524603,0 71.5246,0 0,103.1285 0,103.12849 -71.5246,0 -71.524603,0 0,-103.12849 z"
       id="path4233"
       inkscape:connector-curvature="0" />
    <path
       style="opacity:1;fill:#323ae7;fill-opacity:1;stroke:#bbd23b;stroke-width:1.66336286;stroke-miterlimit:4;stroke-dasharray:none;stroke-opacity:1"
       d="m 40.139909,300.14695 0,-101.46514 69.861241,0 69.86124,0 0,101.46514 0,101.46513 -69.86124,0 -69.861241,0 0,-101.46513 z"
       id="path4235"
       inkscape:connector-curvature="0" />
    <path
       style="opacity:1;fill:#323ae7;fill-opacity:1;stroke:#bbd23b;stroke-width:1.66336286;stroke-miterlimit:4;stroke-dasharray:none;stroke-opacity:1"
       d="m 41.803272,300.14695 0,-99.80177 68.197878,0 68.19787,0 0,99.80177 0,99.80176 -68.19787,0 -68.197878,0 0,-99.80176 z"
       id="path4237"
       inkscape:connector-curvature="0" />
    <path
       style="opacity:1;fill:#323ae7;fill-opacity:1;stroke:#bbd23b;stroke-width:1.66336286;stroke-miterlimit:4;stroke-dasharray:none;stroke-opacity:1"
       d="m 43.466635,300.14695 0,-98.13841 66.534515,0 66.53451,0 0,98.13841 0,98.1384 -66.53451,0 -66.534515,0 0,-98.1384 z"
       id="path4239"
       inkscape:connector-curvature="0" />
    <path
       style="opacity:1;fill:#323ae7;fill-opacity:1;stroke:#bbd23b;stroke-width:1.66336286;stroke-miterlimit:4;stroke-dasharray:none;stroke-opacity:1"
       d="m 45.129998,300.14695 0,-96.47505 64.871152,0 64.87115,0 0,96.47505 0,96.47504 -64.87115,0 -64.871152,0 0,-96.47504 z"
       id="path4241"
       inkscape:connector-curvature="0" />
    <path
       style="opacity:1;fill:#323ae7;fill-opacity:1;stroke:#bbd23b;stroke-width:1.66336286;stroke-miterlimit:4;stroke-dasharray:none;stroke-opacity:1"
       d="m 46.793361,300.14695 0,-94.81168 63.207789,0 63.20778,0 0,94.81168 0,94.81168 -63.20778,0 -63.207789,0 0,-94.81168 z"
       id="path4243"
       inkscape:connector-curvature="0" />
    <path
       style="opacity:1;fill:#323ae7;fill-opacity:1;stroke:#bbd23b;stroke-width:1.66336286;stroke-miterlimit:4;stroke-dasharray:none;stroke-opacity:1"
       d="m 48.456724,300.14695 0,-93.14832 61.544426,0 61.54442,0 0,93.14832 0,93.14831 -61.54442,0 -61.544426,0 0,-93.14831 z"
       id="path4245"
       inkscape:connector-curvature="0" />
    <path
       style="opacity:1;fill:#323ae7;fill-opacity:1;stroke:#bbd23b;stroke-width:1.66336286;stroke-miterlimit:4;stroke-dasharray:none;stroke-opacity:1"
       d="m 50.120086,300.14695 0,-91.48496 59.881064,0 59.88106,0 0,91.48496 0,91.48495 -59.88106,0 -59.881064,0 0,-91.48495 z"
       id="path4247"
       inkscape:connector-curvature="0" />
    <path
       style="opacity:1;fill:#323ae7;fill-opacity:1;stroke:#bbd23b;stroke-width:1.66336286;stroke-miterlimit:4;stroke-dasharray:none;stroke-opacity:1"
       d="m 51.783449,300.14695 0,-89.8216 58.217701,0 58.2177,0 0,89.8216 0,89.82159 -58.2177,0 -58.217701,0 0,-89.82159 z"
       id="path4249"
       inkscape:connector-curvature="0" />
    <path
       style="opacity:1;fill:#323ae7;fill-opacity:1;stroke:#bbd23b;stroke-width:1.66336286;stroke-miterlimit:4;stroke-dasharray:none;stroke-opacity:1"
       d="m 53.446812,300.14695 0,-88.15823 56.554338,0 56.55433,0 0,88.15823 0,88.15822 -56.55433,0 -56.554338,0 0,-88.15822 z"
       id="path4251"
       inkscape:connector-curvature="0" />
    <path
       style="opacity:1;fill:#323ae7;fill-opacity:1;stroke:#bbd23b;stroke-width:1.66336286;stroke-miterlimit:4;stroke-dasharray:none;stroke-opacity:1"
       d="m 55.110175,300.14695 0,-86.49487 54.890975,0 54.89097,0 0,86.49487 0,86.49486 -54.89097,0 -54.890975,0 0,-86.49486 z"
       id="path4253"
       inkscape:connector-curvature="0" />
    <path
       style="opacity:1;fill:#323ae7;fill-opacity:1;stroke:#bbd23b;stroke-width:1.66336286;stroke-miterlimit:4;stroke-dasharray:none;stroke-opacity:1"
       d="m 56.773538,300.14695 0,-84.83151 53.227612,0 53.22761,0 0,84.83151 0,84.8315 -53.22761,0 -53.227612,0 0,-84.8315 z"
       id="path4255"
       inkscape:connector-curvature="0" />
    <path
       style="opacity:1;fill:#323ae7;fill-opacity:1;stroke:#bbd23b;stroke-width:1.66336286;stroke-miterlimit:4;stroke-dasharray:none;stroke-opacity:1"
       d="m 58.4369,300.14695 0,-83.16815 51.56425,0 51.56424,0 0,83.16815 0,83.16814 -51.56424,0 -51.56425,0 0,-83.16814 z"
       id="path4257"
       inkscape:connector-curvature="0" />
    <path
       style="opacity:1;fill:#323ae7;fill-opacity:1;stroke:#bbd23b;stroke-width:1.66336286;stroke-miterlimit:4;stroke-dasharray:none;stroke-opacity:1"
       d="m 60.100263,300.14695 0,-81.50478 49.900887,0 49.90088,0 0,81.50478 0,81.50477 -49.90088,0 -49.900887,0 0,-81.50477 z"
       id="path4259"
       inkscape:connector-curvature="0" />
    <path
       style="opacity:1;fill:#323ae7;fill-opacity:1;stroke:#bbd23b;stroke-width:1.66336286;stroke-miterlimit:4;stroke-dasharray:none;stroke-opacity:1"
       d="m 61.763626,300.14695 0,-79.84142 48.237524,0 48.23752,0 0,79.84142 0,79.84141 -48.23752,0 -48.237524,0 0,-79.84141 z"
       id="path4261"
       inkscape:connector-curvature="0" />
    <path
       style="opacity:1;fill:#323ae7;fill-opacity:1;stroke:#bbd23b;stroke-width:1.66336286;stroke-miterlimit:4;stroke-dasharray:none;stroke-opacity:1"
       d="m 63.426989,300.14695 0,-78.17806 46.574161,0 46.57416,0 0,78.17806 0,78.17805 -46.57416,0 -46.574161,0 0,-78.17805 z"
       id="path4263"
       inkscape:connector-curvature="0" />
    <path
       style="opacity:1;fill:#323ae7;fill-opacity:1;stroke:#bbd23b;stroke-width:1.66336286;stroke-miterlimit:4;stroke-dasharray:none;stroke-opacity:1"
       d="m 65.090352,300.14695 0,-76.51469 44.910798,0 44.91079,0 0,76.51469 0,76.51468 -44.91079,0 -44.910798,0 0,-76.51468 z"
       id="path4265"
       inkscape:connector-curvature="0" />
    <path
       style="opacity:1;fill:#323ae7;fill-opacity:1;stroke:#bbd23b;stroke-width:1.66336286;stroke-miterlimit:4;stroke-dasharray:none;stroke-opacity:1"
       d="m 66.753714,300.14695 0,-74.85133 43.247436,0 43.24743,0 0,74.85133 0,74.85132 -43.24743,0 -43.247436,0 0,-74.85132 z"
       id="path4267"
       inkscape:connector-curvature="0" />
    <path
       style="opacity:1;fill:#323ae7;fill-opacity:1;stroke:#bbd23b;stroke-width:1.66336286;stroke-miterlimit:4;stroke-dasharray:none;stroke-opacity:1"
       d="m 68.417077,300.14695 0,-73.18797 41.584073,0 41.58407,0 0,73.18797 0,73.18796 -41.58407,0 -41.584073,0 0,-73.18796 z"
       id="path4269"
       inkscape:connector-curvature="0" />
    <path
       style="opacity:1;fill:#323ae7;fill-opacity:1;stroke:#bbd23b;stroke-width:1.66336286;stroke-miterlimit:4;stroke-dasharray:none;stroke-opacity:1"
       d="m 70.08044,300.14695 0,-71.52461 39.92071,0 39.92071,0 0,71.52461 0,71.5246 -39.92071,0 -39.92071,0 0,-71.5246 z"
       id="path4271"
       inkscape:connector-curvature="0" />
    <path
       style="opacity:1;fill:#323ae7;fill-opacity:1;stroke:#bbd23b;stroke-width:1.66336286;stroke-miterlimit:4;stroke-dasharray:none;stroke-opacity:1"
       d="m 71.743803,300.14695 0,-69.86124 38.257347,0 38.25734,0 0,69.86124 0,69.86123 -38.25734,0 -38.257347,0 0,-69.86123 z"
       id="path4273"
       inkscape:connector-curvature="0" />
    <path
       style="opacity:1;fill:#323ae7;fill-opacity:1;stroke:#bbd23b;stroke-width:1.66336286;stroke-miterlimit:4;stroke-dasharray:none;stroke-opacity:1"
       d="m 73.407166,300.14695 0,-68.19788 36.593984,0 36.59398,0 0,68.19788 0,68.19787 -36.59398,0 -36.593984,0 0,-68.19787 z"
       id="path4275"
       inkscape:connector-curvature="0" />
    <path
       style="opacity:1;fill:#323ae7;fill-opacity:1;stroke:#bbd23b;stroke-width:1.66336286;stroke-miterlimit:4;stroke-dasharray:none;stroke-opacity:1"
       d="m 75.070528,300.14695 0,-66.53452 34.930622,0 34.93062,0 0,66.53452 0,66.53451 -34.93062,0 -34.930622,0 0,-66.53451 z"
       id="path4277"
       inkscape:connector-curvature="0" />
    <path
       style="opacity:1;fill:#323ae7;fill-opacity:1;stroke:#bbd23b;stroke-width:1.66336286;stroke-miterlimit:4;stroke-dasharray:none;stroke-opacity:1"
       d="m 76.733891,300.14695 0,-64.87115 33.267259,0 33.26725,0 0,64.87115 0,64.87115 -33.26725,0 -33.267259,0 0,-64.87115 z"
       id="path4279"
       inkscape:connector-curvature="0" />
    <path
       style="opacity:1;fill:#323ae7;fill-opacity:1;stroke:#bbd23b;stroke-width:1.66336286;stroke-miterlimit:4;stroke-dasharray:none;stroke-opacity:1"
       d="m 78.397254,300.14695 0,-63.20779 31.603896,0 31.60389,0 0,63.20779 0,63.20778 -31.60389,0 -31.603896,0 0,-63.20778 z"
       id="path4281"
       inkscape:connector-curvature="0" />
    <path
       style="opacity:1;fill:#323ae7;fill-opacity:1;stroke:#bbd23b;stroke-width:1.66336286;stroke-miterlimit:4;stroke-dasharray:none;stroke-opacity:1"
       d="m 80.060617,300.14695 0,-61.54443 29.940533,0 29.94053,0 0,61.54443 0,61.54442 -29.94053,0 -29.940533,0 0,-61.54442 z"
       id="path4283"
       inkscape:connector-curvature="0" />
    <path
       style="opacity:1;fill:#323ae7;fill-opacity:1;stroke:#bbd23b;stroke-width:1.66336286;stroke-miterlimit:4;stroke-dasharray:none;stroke-opacity:1"
       d="m 81.72398,300.14695 0,-59.88107 28.27717,0 28.27717,0 0,59.88107 0,59.88106 -28.27717,0 -28.27717,0 0,-59.88106 z"
       id="path4285"
       inkscape:connector-curvature="0" />
    <path
       style="opacity:1;fill:#323ae7;fill-opacity:1;stroke:#bbd23b;stroke-width:1.66336286;stroke-miterlimit:4;stroke-dasharray:none;stroke-opacity:1"
       d="m 83.387343,300.14695 0,-58.2177 26.613807,0 26.6138,0 0,58.2177 0,58.21769 -26.6138,0 -26.613807,0 0,-58.21769 z"
       id="path4287"
       inkscape:connector-curvature="0" />
    <path
       style="opacity:1;fill:#323ae7;fill-opacity:1;stroke:#bbd23b;stroke-width:1.66336286;stroke-miterlimit:4;stroke-dasharray:none;stroke-opacity:1"
       d="m 85.050705,300.14695 0,-56.55434 24.950445,0 24.95044,0 0,56.55434 0,56.55433 -24.95044,0 -24.950445,0 0,-56.55433 z"
       id="path4289"
       inkscape:connector-curvature="0" />
    <path
       style="opacity:1;fill:#323ae7;fill-opacity:1;stroke:#bbd23b;stroke-width:1.66336286;stroke-miterlimit:4;stroke-dasharray:none;stroke-opacity:1"
       d="m 86.714068,300.14695 0,-54.89098 23.287082,0 23.28708,0 0,54.89098 0,54.89097 -23.28708,0 -23.287082,0 0,-54.89097 z"
       id="path4291"
       inkscape:connector-curvature="0" />
    <path
       style="opacity:1;fill:#323ae7;fill-opacity:1;stroke:#bbd23b;stroke-width:1.66336286;stroke-miterlimit:4;stroke-dasharray:none;stroke-opacity:1"
       d="m 88.377431,300.14695 0,-53.22761 21.623719,0 21.62371,0 0,53.22761 0,53.22761 -21.62371,0 -21.623719,0 0,-53.22761 z"
       id="path4293"
       inkscape:connector-curvature="0" />
    <path
       style="opacity:1;fill:#323ae7;fill-opacity:1;stroke:#bbd23b;stroke-width:1.66336286;stroke-miterlimit:4;stroke-dasharray:none;stroke-opacity:1"
       d="m 90.040794,300.14695 0,-51.56425 19.960356,0 19.96035,0 0,51.56425 0,51.56424 -19.96035,0 -19.960356,0 0,-51.56424 z"
       id="path4295"
       inkscape:connector-curvature="0" />
    <path
       style="opacity:1;fill:#323ae7;fill-opacity:1;stroke:#bbd23b;stroke-width:1.66336286;stroke-miterlimit:4;stroke-dasharray:none;stroke-opacity:1"
       d="m 91.704157,300.14695 0,-49.90089 18.296993,0 18.29699,0 0,49.90089 0,49.90088 -18.29699,0 -18.296993,0 0,-49.90088 z"
       id="path4297"
       inkscape:connector-curvature="0" />
    <path
       style="opacity:1;fill:#323ae7;fill-opacity:1;stroke:#bbd23b;stroke-width:1.66336286;stroke-miterlimit:4;stroke-dasharray:none;stroke-opacity:1"
       d="m 93.367519,300.14695 0,-48.23753 16.633631,0 16.63363,0 0,48.23753 0,48.23752 -16.63363,0 -16.633631,0 0,-48.23752 z"
       id="path4299"
       inkscape:connector-curvature="0" />
    <path
       style="opacity:1;fill:#323ae7;fill-opacity:1;stroke:#bbd23b;stroke-width:1.66336286;stroke-miterlimit:4;stroke-dasharray:none;stroke-opacity:1"
       d="m 95.030882,300.14695 0,-46.57416 14.970268,0 14.97026,0 0,46.57416 0,46.57415 -14.97026,0 -14.970268,0 0,-46.57415 z"
       id="path4301"
       inkscape:connector-curvature="0" />
    <path
       style="opacity:1;fill:#323ae7;fill-opacity:1;stroke:#bbd23b;stroke-width:1.66336286;stroke-miterlimit:4;stroke-dasharray:none;stroke-opacity:1"
       d="m 96.694245,300.14695 0,-44.9108 13.306905,0 13.3069,0 0,44.9108 0,44.91079 -13.3069,0 -13.306905,0 0,-44.91079 z"
       id="path4303"
       inkscape:connector-curvature="0" />
    <path
       style="opacity:1;fill:#323ae7;fill-opacity:1;stroke:#bbd23b;stroke-width:1.66336286;stroke-miterlimit:4;stroke-dasharray:none;stroke-opacity:1"
       d="m 98.357608,300.14695 0,-43.24744 11.643542,0 11.64354,0 0,43.24744 0,43.24743 -11.64354,0 -11.643542,0 0,-43.24743 z"
       id="path4305"
       inkscape:connector-curvature="0" />
    <path
       style="opacity:1;fill:#323ae7;fill-opacity:1;stroke:#bbd23b;stroke-width:1.66336286;stroke-miterlimit:4;stroke-dasharray:none;stroke-opacity:1"
       d="m 100.02097,300.14695 0,-41.58407 9.98018,0 9.98017,0 0,41.58407 0,41.58407 -9.98017,0 -9.98018,0 0,-41.58407 z"
       id="path4307"
       inkscape:connector-curvature="0" />
    <path
       style="opacity:1;fill:#323ae7;fill-opacity:1;stroke:#bbd23b;stroke-width:1.66336286;stroke-miterlimit:4;stroke-dasharray:none;stroke-opacity:1"
       d="m 101.68433,300.14695 0,-39.92071 8.31682,0 8.31681,0 0,39.92071 0,39.9207 -8.31681,0 -8.31682,0 0,-39.9207 z"
       id="path4309"
       inkscape:connector-curvature="0" />
    <path
       style="opacity:1;fill:#323ae7;fill-opacity:1;stroke:#bbd23b;stroke-width:1.66336286;stroke-miterlimit:4;stroke-dasharray:none;stroke-opacity:1"
       d="m 103.3477,300.14695 0,-38.25735 6.65345,0 6.65345,0 0,38.25735 0,38.25734 -6.65345,0 -6.65345,0 0,-38.25734 z"
       id="path4311"
       inkscape:connector-curvature="0" />
    <path
       style="opacity:1;fill:#323ae7;fill-opacity:1;stroke:#bbd23b;stroke-width:1.66336286;stroke-miterlimit:4;stroke-dasharray:none;stroke-opacity:1"
       d="m 105.01106,300.14695 0,-36.59399 4.99009,0 4.99009,0 0,36.59399 0,36.59398 -4.99009,0 -4.99009,0 0,-36.59398 z"
       id="path4313"
       inkscape:connector-curvature="0" />
    <path
       style="opacity:1;fill:#323ae7;fill-opacity:1;stroke:#bbd23b;stroke-width:1.66336286;stroke-miterlimit:4;stroke-dasharray:none;stroke-opacity:1"
       d="m 106.67442,300.14695 c 0,-33.82172 0.10561,-34.93062 3.32673,-34.93062 3.22111,0 3.32672,1.1089 3.32672,34.93062 0,33.82171 -0.10561,34.93061 -3.32672,34.93061 -3.22112,0 -3.32673,-1.1089 -3.32673,-34.93061 z"
       id="path4315"
       inkscape:connector-curvature="0" />
    <path
       style="opacity:1;fill:#323ae7;fill-opacity:1;stroke:#bbd23b;stroke-width:1.66336286;stroke-miterlimit:4;stroke-dasharray:none;stroke-opacity:1"
       d="m 112.31608,300.14695 c 0,-12.35047 0.26186,-17.40294 0.5819,-11.2277 0.32004,6.17523 0.32004,16.28016 0,22.45539 -0.32004,6.17524 -0.5819,1.12277 -0.5819,-11.22769 z"
       id="path4317"
       inkscape:connector-curvature="0" />
    <path
       style="opacity:1;fill:#323ae7;fill-opacity:1;stroke:#bbd23b;stroke-width:0.20792036;stroke-miterlimit:4;stroke-dasharray:none;stroke-opacity:1"
       d="m 108.76062,333.70254 c -0.97206,-1.85773 -1.11222,-6.86331 -1.01451,-36.23012 0.0891,-26.76485 0.14601,-28.72857 0.88487,-30.50491 0.30442,-0.73186 0.99087,-1.02502 1.8785,-0.80224 1.23036,0.3088 1.54631,2.4866 1.7216,11.8666 0.12313,6.5894 0.10366,7.30954 -0.206,7.6192 -0.53131,0.53131 -0.63914,3.73289 -0.56035,16.6383 0.0682,11.1791 0.0849,11.59448 0.4865,12.16335 0.40266,0.57031 0.41182,0.81622 0.28919,7.76223 -0.12387,7.01587 -0.35434,9.80654 -0.92297,11.17571 -0.26384,0.63526 -0.34312,0.67575 -1.32354,0.67575 -0.78209,0 -1.09051,-0.091 -1.23329,-0.36387 z"
       id="path4319"
       inkscape:connector-curvature="0" />
    <path
       style="opacity:1;fill:#323ae7;fill-opacity:1;stroke:#bbd23b;stroke-width:0.20792036;stroke-miterlimit:4;stroke-dasharray:none;stroke-opacity:1"
       d="m 108.98101,333.60037 c -0.84764,-1.02134 -1.07599,-7.30911 -1.06661,-29.37054 0.008,-19.78422 0.26106,-34.88226 0.6071,-36.27902 0.28706,-1.15871 0.73021,-1.66644 1.45448,-1.66644 1.23368,0 1.59996,1.19678 1.87724,6.13365 0.26908,4.79092 0.2549,12.85892 -0.0231,13.13692 -0.48804,0.48804 -0.64461,5.17221 -0.55124,16.49173 0.0864,10.46954 0.12963,11.62345 0.46664,12.44404 0.3402,0.82835 0.36112,1.48443 0.24863,7.79701 -0.12191,6.84055 -0.35918,9.94351 -0.83698,10.9454 -0.19581,0.41059 -0.4289,0.53464 -1.09676,0.58368 -0.52333,0.0384 -0.93668,-0.0444 -1.0794,-0.21643 z"
       id="path4321"
       inkscape:connector-curvature="0" />
    <path
       style="opacity:1;fill:#323ae7;fill-opacity:1;stroke:#bbd23b;stroke-width:0.20792036;stroke-miterlimit:4;stroke-dasharray:none;stroke-opacity:1"
       d="m 109.16905,333.36851 c -0.90388,-1.08912 -1.1432,-10.11861 -0.97895,-36.93569 0.16943,-27.66175 0.25494,-29.48265 1.40159,-29.84658 1.6197,-0.51407 1.98529,1.3146 2.18578,10.93299 0.12001,5.75786 0.0956,6.52222 -0.2628,8.21285 -0.36525,1.72319 -0.39329,2.82302 -0.37088,14.54727 0.0219,11.44056 0.0606,12.82573 0.39532,14.13858 0.33363,1.30862 0.35721,2.11615 0.23379,8.00494 -0.14813,7.06817 -0.38743,10.0139 -0.87379,10.75618 -0.35099,0.53567 -1.35177,0.64527 -1.73006,0.18946 z"
       id="path4323"
       inkscape:connector-curvature="0" />
    <path
       style="opacity:1;fill:#323ae7;fill-opacity:1;stroke:#bbd23b;stroke-width:0.20792036;stroke-miterlimit:4;stroke-dasharray:none;stroke-opacity:1"
       d="m 109.15431,332.74527 c -0.48212,-1.46085 -0.64812,-5.44168 -0.76424,-18.32734 -0.13278,-14.73326 0.22322,-44.00438 0.55873,-45.94052 0.23817,-1.37438 0.47555,-1.7772 1.0473,-1.7772 1.03806,0 1.37887,2.38123 1.5623,10.91582 0.10852,5.04904 0.075,6.33403 -0.20595,7.90097 -0.49694,2.77144 -0.50002,25.96668 -0.004,28.71776 0.27929,1.54843 0.31175,2.85337 0.20109,8.08307 -0.19792,9.35313 -0.4633,11.12481 -1.66639,11.12481 -0.38165,0 -0.55296,-0.16386 -0.72904,-0.69737 z"
       id="path4325"
       inkscape:connector-curvature="0" />
    <path
       style="opacity:1;fill:#323ae7;fill-opacity:1;stroke:#bbd23b;stroke-width:0.20792036;stroke-miterlimit:4;stroke-dasharray:none;stroke-opacity:1"
       d="m 109.34823,332.70444 c -0.58116,-1.52857 -0.70378,-6.8145 -0.67984,-29.30629 0.0248,-23.31766 0.24242,-34.57675 0.69239,-35.82489 0.29382,-0.815 0.79759,-0.81966 1.18519,-0.011 0.14369,0.29981 0.35909,1.49837 0.47865,2.66346 0.31716,3.09067 0.34385,13.4986 0.0448,17.47441 -0.33866,4.50255 -0.33938,20.08864 -10e-4,24.43064 0.30432,3.90632 0.27107,14.57714 -0.0557,17.88115 -0.22717,2.29688 -0.5577,3.22276 -1.15051,3.22276 -0.17173,0 -0.40296,-0.23863 -0.51385,-0.53028 z"
       id="path4327"
       inkscape:connector-curvature="0" />
    <path
       style="opacity:1;fill:#323ae7;fill-opacity:1;stroke:#bbd23b;stroke-width:0.20792036;stroke-miterlimit:4;stroke-dasharray:none;stroke-opacity:1"
       d="m 109.56094,332.61246 c -0.568,-1.06132 -0.66219,-6.7896 -0.5573,-33.89251 0.0979,-25.29696 0.21088,-30.66854 0.66028,-31.39568 0.26391,-0.42702 0.69627,0.20141 0.97638,1.41914 0.21068,0.91591 0.25344,3.64271 0.19131,12.19935 -0.12932,17.81166 -0.11374,26.42906 0.0664,36.69794 0.16918,9.64627 0.0478,13.09203 -0.51836,14.71036 -0.27162,0.77646 -0.50341,0.85047 -0.81867,0.2614 z"
       id="path4329"
       inkscape:connector-curvature="0" />
    <path
       style="opacity:1;fill:#323ae7;fill-opacity:1;stroke:#bbd23b;stroke-width:0.20792036;stroke-miterlimit:4;stroke-dasharray:none;stroke-opacity:1"
       d="m 109.66636,332.45383 c -0.34367,-0.85793 -0.50204,-8.27841 -0.50032,-23.44183 0.002,-17.21925 0.29225,-40.15002 0.52077,-41.13536 0.15925,-0.68666 0.38359,-0.46085 0.69037,0.69485 0.11348,0.4275 0.21674,13.29421 0.25031,31.18806 0.0451,24.04818 0.001,30.71124 -0.20721,31.65224 -0.28529,1.2863 -0.52394,1.61616 -0.75392,1.04204 z"
       id="path4331"
       inkscape:connector-curvature="0" />
    <path
       style="opacity:1;fill:#323ae7;fill-opacity:1;stroke:#bbd23b;stroke-width:0.20792036;stroke-miterlimit:4;stroke-dasharray:none;stroke-opacity:1"
       d="m 109.63359,330.83142 c -0.22406,-2.08535 -0.21247,-46.94697 0.0145,-56.10813 0.13003,-5.24824 0.22434,-6.75053 0.40466,-6.44553 0.33924,0.5738 0.33598,63.22682 -0.003,63.80118 -0.19977,0.33815 -0.26721,0.13582 -0.41584,-1.24752 z"
       id="path4333"
       inkscape:connector-curvature="0" />
    <path
       style="opacity:1;fill:#323ae7;fill-opacity:1;stroke:#bbd23b;stroke-width:0.20792036;stroke-miterlimit:4;stroke-dasharray:none;stroke-opacity:1"
       d="m 110.28304,300.07143 c -2e-5,-9.26285 0.0255,-13.08257 0.0567,-8.48827 0.0312,4.59431 0.0312,12.17301 3e-5,16.84155 -0.0312,4.66855 -0.0567,0.90957 -0.0567,-8.35328 z"
       id="path4335"
       inkscape:connector-curvature="0" />
  </g>
  <g
     inkscape:groupmode="layer"
     id="layer12"
     inkscape:label="bordo"
     style="display:inline">
    <g
       style="display:inline"
       inkscape:label="bordo"
       id="layer9"
       transform="translate(1.0026851e-4,3.9980999e-4)">
      <g
         transform="matrix(0.98408585,0,0,0.97888478,-0.64744853,7.594777)"
         id="layer4"
         inkscape:label="bordo"
         style="display:inline;stroke-width:1;stroke-miterlimit:4;stroke-dasharray:none">
        <path
           style="color:#000000;clip-rule:nonzero;display:inline;overflow:visible;visibility:visible;opacity:1;isolation:auto;mix-blend-mode:normal;color-interpolation:sRGB;color-interpolation-filters:linearRGB;solid-color:#000000;solid-opacity:1;fill:none;fill-opacity:1;fill-rule:evenodd;stroke:#000000;stroke-width:1;stroke-linecap:butt;stroke-linejoin:miter;stroke-miterlimit:4;stroke-dasharray:none;stroke-dashoffset:0;stroke-opacity:1;color-rendering:auto;image-rendering:auto;shape-rendering:auto;text-rendering:auto;enable-background:accumulate"
           d="m 2.2796702,2.2791692 c 0,894.5596608 0,894.5596608 0,894.5596608 l 905.8926598,0 0,-894.5596608 z"
           id="path13590"
           inkscape:connector-curvature="0" />
      </g>
    </g>
  </g>
</svg>
