<?xml version="1.0" encoding="UTF-8" standalone="no"?>
<!-- Created with Inkscape (http://www.inkscape.org/) -->

<svg
   xmlns:dc="http://purl.org/dc/elements/1.1/"
   xmlns:cc="http://creativecommons.org/ns#"
   xmlns:rdf="http://www.w3.org/1999/02/22-rdf-syntax-ns#"
   xmlns:svg="http://www.w3.org/2000/svg"
   xmlns="http://www.w3.org/2000/svg"
   xmlns:sodipodi="http://sodipodi.sourceforge.net/DTD/sodipodi-0.dtd"
   xmlns:inkscape="http://www.inkscape.org/namespaces/inkscape"
   id="svg18115"
   version="1.1"
   inkscape:version="0.91 r13725"
   width="900"
   height="891.5625"
   viewBox="0 0 900 891.5625"
   sodipodi:docname="garage.svg">
  
  <g
     inkscape:groupmode="layer"
     id="layer8"
     inkscape:label="pavimento"
     style="display:inline">
    <rect
       style="opacity:1;fill:none;fill-opacity:1;stroke:#d23b5e;stroke-width:0.99940336;stroke-linecap:butt;stroke-miterlimit:4;stroke-dasharray:none;stroke-opacity:1"
       id="rect17518"
       width="281.15628"
       height="279.48672"
       x="564.31458"
       y="586.36469" />
    <path
       style="opacity:1;fill:#e732dd;fill-opacity:1;stroke:#cf3bd2;stroke-width:0.94445181;stroke-miterlimit:4;stroke-dasharray:none;stroke-opacity:1"
       d="m 564.91401,726.4942 0,-138.83442 139.77887,0 139.77886,0 0,138.83442 0,138.83441 -139.77886,0 -139.77887,0 0,-138.83441 z"
       id="path4866"
       inkscape:connector-curvature="0" />
    <path
       style="opacity:1;fill:#e732dd;fill-opacity:1;stroke:#cf3bd2;stroke-width:0.94445181;stroke-miterlimit:4;stroke-dasharray:none;stroke-opacity:1"
       d="m 565.35123,864.15118 c -0.24769,-0.65103 -0.34114,-63.02168 -0.20767,-138.60143 l 0.24268,-137.41774 139.30664,0 139.30664,0 0,138.36219 0,138.36219 -139.09897,0.23924 c -110.78221,0.19054 -139.19065,-0.002 -139.54932,-0.94445 z"
       id="path4868"
       inkscape:connector-curvature="0" />
    <path
       style="opacity:1;fill:#e732dd;fill-opacity:1;stroke:#cf3bd2;stroke-width:0.94445181;stroke-miterlimit:4;stroke-dasharray:none;stroke-opacity:1"
       d="m 565.85846,726.4942 0,-137.88996 138.83442,0 138.83441,0 0,137.88996 0,137.88996 -138.83441,0 -138.83442,0 0,-137.88996 z"
       id="path4870"
       inkscape:connector-curvature="0" />
    <path
       style="opacity:1;fill:#e732dd;fill-opacity:1;stroke:#cf3bd2;stroke-width:0.94445181;stroke-miterlimit:4;stroke-dasharray:none;stroke-opacity:1"
       d="m 566.29568,863.20674 c -0.2477,-0.65104 -0.34116,-62.59669 -0.20768,-137.65699 l 0.24269,-136.47329 138.36219,0 138.36219,0 0,137.41774 0,137.41774 -138.15452,0.23925 c -110.02661,0.19056 -138.24619,-0.002 -138.60487,-0.94445 z"
       id="path4872"
       inkscape:connector-curvature="0" />
    <path
       style="opacity:1;fill:#e732dd;fill-opacity:1;stroke:#cf3bd2;stroke-width:0.94445181;stroke-miterlimit:4;stroke-dasharray:none;stroke-opacity:1"
       d="m 566.80291,726.4942 0,-136.94551 137.88997,0 137.88996,0 0,136.94551 0,136.94551 -137.88996,0 -137.88997,0 0,-136.94551 z"
       id="path4874"
       inkscape:connector-curvature="0" />
    <path
       style="opacity:1;fill:#e732dd;fill-opacity:1;stroke:#cf3bd2;stroke-width:0.94445181;stroke-miterlimit:4;stroke-dasharray:none;stroke-opacity:1"
       d="m 567.24013,862.26232 c -0.24772,-0.65106 -0.34117,-62.17171 -0.20769,-136.71257 l 0.2427,-135.52884 137.41774,0 137.41774,0 0,136.47329 0,136.47329 -137.21006,0.23928 c -109.27102,0.19056 -137.30175,-0.002 -137.66043,-0.94445 z"
       id="path4876"
       inkscape:connector-curvature="0" />
    <path
       style="opacity:1;fill:#e732dd;fill-opacity:1;stroke:#cf3bd2;stroke-width:0.94445181;stroke-miterlimit:4;stroke-dasharray:none;stroke-opacity:1"
       d="m 567.74737,726.4942 0,-136.00106 136.94551,0 136.94551,0 0,136.00106 0,136.00106 -136.94551,0 -136.94551,0 0,-136.00106 z"
       id="path4878"
       inkscape:connector-curvature="0" />
    <path
       style="opacity:1;fill:#e732dd;fill-opacity:1;stroke:#cf3bd2;stroke-width:0.94445181;stroke-miterlimit:4;stroke-dasharray:none;stroke-opacity:1"
       d="m 568.18458,861.31789 c -0.24773,-0.65107 -0.34119,-61.74673 -0.2077,-135.76814 l 0.24271,-134.58438 136.47329,0 136.47328,0 0,135.52883 0,135.52883 -136.26559,0.23931 c -108.51543,0.19057 -136.35731,-0.002 -136.71599,-0.94445 z"
       id="path4880"
       inkscape:connector-curvature="0" />
    <path
       style="opacity:1;fill:#e732dd;fill-opacity:1;stroke:#cf3bd2;stroke-width:0.94445181;stroke-miterlimit:4;stroke-dasharray:none;stroke-opacity:1"
       d="m 568.69182,726.4942 0,-135.05661 136.00106,0 136.00106,0 0,135.05661 0,135.05661 -136.00106,0 -136.00106,0 0,-135.05661 z"
       id="path4882"
       inkscape:connector-curvature="0" />
    <path
       style="opacity:1;fill:#e732dd;fill-opacity:1;stroke:#cf3bd2;stroke-width:0.94445181;stroke-miterlimit:4;stroke-dasharray:none;stroke-opacity:1"
       d="m 569.12902,860.37345 c -0.24773,-0.65107 -0.3412,-61.32174 -0.2077,-134.8237 l 0.24272,-133.63993 135.52884,0 135.52883,0 0,134.58438 0,134.58438 -135.32113,0.23933 c -107.75983,0.19058 -135.41287,-0.002 -135.77156,-0.94446 z"
       id="path4884"
       inkscape:connector-curvature="0" />
    <path
       style="opacity:1;fill:#e732dd;fill-opacity:1;stroke:#cf3bd2;stroke-width:0.94445181;stroke-miterlimit:4;stroke-dasharray:none;stroke-opacity:1"
       d="m 569.63627,726.4942 0,-134.11216 135.05661,0 135.05661,0 0,134.11216 0,134.11216 -135.05661,0 -135.05661,0 0,-134.11216 z"
       id="path4886"
       inkscape:connector-curvature="0" />
    <path
       style="opacity:1;fill:#e732dd;fill-opacity:1;stroke:#cf3bd2;stroke-width:0.94445181;stroke-miterlimit:4;stroke-dasharray:none;stroke-opacity:1"
       d="m 570.07347,859.42903 c -0.24774,-0.6511 -0.34122,-60.89677 -0.20771,-133.87928 l 0.24274,-132.69548 134.58438,0 134.58438,0 0,133.63993 0,133.63993 -134.37667,0.23935 c -107.00424,0.19059 -134.46842,-0.002 -134.82712,-0.94445 z"
       id="path4888"
       inkscape:connector-curvature="0" />
    <path
       style="opacity:1;fill:#e732dd;fill-opacity:1;stroke:#cf3bd2;stroke-width:0.94445181;stroke-miterlimit:4;stroke-dasharray:none;stroke-opacity:1"
       d="m 570.58072,726.4942 0,-133.1677 134.11216,0 134.11215,0 0,133.1677 0,133.1677 -134.11215,0 -134.11216,0 0,-133.1677 z"
       id="path4890"
       inkscape:connector-curvature="0" />
    <path
       style="opacity:1;fill:#e732dd;fill-opacity:1;stroke:#cf3bd2;stroke-width:0.94445181;stroke-miterlimit:4;stroke-dasharray:none;stroke-opacity:1"
       d="m 571.01792,858.4846 c -0.24776,-0.65111 -0.34123,-60.47179 -0.20772,-132.93485 l 0.24275,-131.75103 133.63993,0 133.63993,0 0,132.69548 0,132.69548 -133.43221,0.23937 c -106.24864,0.19061 -133.52398,-0.002 -133.88268,-0.94445 z"
       id="path4892"
       inkscape:connector-curvature="0" />
    <path
       style="opacity:1;fill:#e732dd;fill-opacity:1;stroke:#cf3bd2;stroke-width:0.94445181;stroke-miterlimit:4;stroke-dasharray:none;stroke-opacity:1"
       d="m 571.52517,726.4942 0,-132.22325 133.16771,0 133.1677,0 0,132.22325 0,132.22325 -133.1677,0 -133.16771,0 0,-132.22325 z"
       id="path4894"
       inkscape:connector-curvature="0" />
    <path
       style="opacity:1;fill:#e732dd;fill-opacity:1;stroke:#cf3bd2;stroke-width:0.94445181;stroke-miterlimit:4;stroke-dasharray:none;stroke-opacity:1"
       d="m 571.96237,857.54016 c -0.24777,-0.65111 -0.34125,-60.0468 -0.20773,-131.99041 l 0.24276,-130.80658 132.69548,0 132.69548,0 0,131.75103 0,131.75103 -132.48775,0.23939 c -105.49305,0.19062 -132.57954,-0.002 -132.93824,-0.94446 z"
       id="path4896"
       inkscape:connector-curvature="0" />
    <path
       style="opacity:1;fill:#e732dd;fill-opacity:1;stroke:#cf3bd2;stroke-width:0.94445181;stroke-miterlimit:4;stroke-dasharray:none;stroke-opacity:1"
       d="m 572.46963,726.4942 0,-131.2788 132.22325,0 132.22325,0 0,131.2788 0,131.2788 -132.22325,0 -132.22325,0 0,-131.2788 z"
       id="path4898"
       inkscape:connector-curvature="0" />
    <path
       style="opacity:1;fill:#e732dd;fill-opacity:1;stroke:#cf3bd2;stroke-width:2.67131305;stroke-miterlimit:4;stroke-dasharray:none;stroke-opacity:1"
       d="m 570.52004,848.04026 c 0,-10.52563 -1.1605,-16.52295 -3.33914,-17.25621 -2.61343,-0.8796 -2.55386,-2.07524 0.27406,-5.50135 3.54308,-4.29253 3.2858,-17.63683 -0.66625,-34.55754 -0.96848,-4.14655 -0.58655,-7.34611 0.8769,-7.34611 1.6224,0 2.66506,-34.62316 2.78609,-92.51658 0.10638,-50.88411 0.83726,-93.55834 1.62419,-94.83161 0.78692,-1.27328 60.86332,-2.31504 133.50311,-2.31504 l 132.07235,0 0,132.22999 0,132.23 -6.01046,0.0858 c -3.30575,0.0473 -61.79105,0.0526 -129.96735,0.0134 -87.528,-0.0521 -125.01438,0.80388 -127.5552,2.91258 -2.9493,2.4465 -3.5983,0.0754 -3.5983,-13.14724 z"
       id="path4900"
       inkscape:connector-curvature="0" />
    <path
       style="opacity:1;fill:#e732dd;fill-opacity:1;stroke:#cf3bd2;stroke-width:2.67131305;stroke-miterlimit:4;stroke-dasharray:none;stroke-opacity:1"
       d="m 571.14207,857.02321 c -3.32037,-5.37695 -0.0795,-256.12234 3.36142,-260.06888 0.36849,-0.42265 59.42699,-1.02369 131.2411,-1.33566 l 130.5711,-0.5672 0,130.89434 0,130.89435 -131.81853,1.33565 c -80.08787,0.81149 -132.42154,0.35916 -133.35509,-1.1526 z"
       id="path4902"
       inkscape:connector-curvature="0" />
    <path
       style="opacity:1;fill:#e732dd;fill-opacity:1;stroke:#cf3bd2;stroke-width:2.67131305;stroke-miterlimit:4;stroke-dasharray:none;stroke-opacity:1"
       d="m 573.42063,855.70273 c -3.21004,-2.03195 -3.50823,-21.06719 -1.98443,-126.67766 0.9863,-68.35751 2.51435,-126.16548 3.39567,-128.46216 1.4226,-3.70723 16.10765,-4.17578 130.87528,-4.17578 l 129.27289,0 0,129.12997 0,129.12997 -70.12197,1.7589 c -97.99809,2.45814 -186.95943,2.13133 -191.43744,-0.70324 z"
       id="path4904"
       inkscape:connector-curvature="0" />
    <path
       style="opacity:1;fill:#e732dd;fill-opacity:1;stroke:#cf3bd2;stroke-width:2.67131305;stroke-miterlimit:4;stroke-dasharray:none;stroke-opacity:1"
       d="m 594.07261,856.18321 -20.5241,-0.89702 -1.6173,-13.91524 c -2.12528,-18.2859 2.47563,-239.07581 5.0353,-241.63548 1.08713,-1.08712 59.28438,-1.98471 129.32723,-1.99464 l 127.35064,-0.018 0.69361,127.35976 0.6936,127.35976 -14.05016,1.41806 c -17.06786,1.72264 -198.21326,3.577 -226.90882,2.32284 z"
       id="path4906"
       inkscape:connector-curvature="0" />
    <path
       style="opacity:1;fill:#e732dd;fill-opacity:1;stroke:#cf3bd2;stroke-width:2.67131305;stroke-miterlimit:4;stroke-dasharray:none;stroke-opacity:1"
       d="m 574.15251,851.48487 c -2.25567,-5.87818 0.78107,-241.55437 3.19349,-247.84103 1.62835,-4.24343 11.16881,-4.5854 127.92555,-4.5854 l 126.16596,0 1.74427,124.77732 c 1.11901,80.04979 0.80886,125.71272 -0.86524,127.38682 -1.59097,1.59097 -52.13011,3.07155 -129.48216,3.79326 -119.40148,1.11405 -126.9792,0.90612 -128.68187,-3.53097 z"
       id="path4908"
       inkscape:connector-curvature="0" />
    <path
       style="opacity:1;fill:#e732dd;fill-opacity:1;stroke:#cf3bd2;stroke-width:2.67131305;stroke-miterlimit:4;stroke-dasharray:none;stroke-opacity:1"
       d="m 583.4808,853.76798 c -4.41583,-0.77227 -7.66158,-3.43892 -8.63751,-7.09643 -1.77821,-6.66428 0.487,-202.96482 2.62937,-227.85822 l 1.40349,-16.30784 24.28111,-1.72353 c 13.35461,-0.94793 69.65988,-1.72352 125.12281,-1.72352 l 100.8417,0 1.21465,14.0244 c 0.66806,7.71341 1.40955,64.11081 1.64775,125.32754 l 0.4331,111.30315 -7.40038,1.41787 c -9.574,1.83431 -232.22622,4.26476 -241.53609,2.63658 z"
       id="path4910"
       inkscape:connector-curvature="0" />
    <path
       style="opacity:1;fill:#e732dd;fill-opacity:1;stroke:#cf3bd2;stroke-width:2.67131305;stroke-miterlimit:4;stroke-dasharray:none;stroke-opacity:1"
       d="m 579.20181,851.21876 c -2.57571,-1.15868 -3.33914,-22.12063 -3.33914,-91.68474 0,-110.6501 2.00384,-154.30522 7.17392,-156.28916 6.80559,-2.61155 243.03114,-5.13235 244.54785,-2.6096 0.80358,1.33658 2.34089,57.26487 3.41625,124.28509 1.63478,101.88505 1.35495,122.23361 -1.70752,124.16558 -4.00045,2.5237 -244.66005,4.57609 -250.09136,2.13283 z"
       id="path4912"
       inkscape:connector-curvature="0" />
    <path
       style="opacity:1;fill:#e732dd;fill-opacity:1;stroke:#cf3bd2;stroke-width:2.67131305;stroke-miterlimit:4;stroke-dasharray:none;stroke-opacity:1"
       d="m 577.06597,821.44526 c -2.05437,-29.76312 0.3317,-183.96644 3.16665,-204.64965 1.59016,-11.60148 1.76992,-11.77763 13.68575,-13.41087 6.64093,-0.91024 61.61074,-1.65498 122.15512,-1.65498 l 110.08071,0 1.7416,28.46434 c 0.95789,15.65539 1.74161,70.82296 1.74161,122.5946 0,83.37022 -0.48301,94.31561 -4.22545,95.75172 -2.324,0.8918 -58.70659,1.62145 -125.29465,1.62145 l -121.06921,0 -1.98213,-28.71661 z"
       id="path4914"
       inkscape:connector-curvature="0" />
    <path
       style="opacity:1;fill:#e732dd;fill-opacity:1;stroke:#cf3bd2;stroke-width:2.67131305;stroke-miterlimit:4;stroke-dasharray:none;stroke-opacity:1"
       d="m 579.56445,846.32287 c -0.83444,-2.17451 -1.10713,-55.65121 -0.60599,-118.83712 0.81764,-103.09043 1.37007,-115.34217 5.38156,-119.35208 4.00042,-3.99884 16.80314,-4.60951 121.78381,-5.80882 113.20888,-1.2933 117.38324,-1.1636 119.30871,3.70715 1.0974,2.77604 2.43361,58.11893 2.96935,122.9842 l 0.97408,117.93686 -23.24327,1.22002 c -12.7838,0.67102 -68.65003,1.4188 -124.14718,1.66174 -86.90241,0.38042 -101.11443,-0.1069 -102.42107,-3.51195 z"
       id="path4916"
       inkscape:connector-curvature="0" />
    <path
       style="opacity:1;fill:#e732dd;fill-opacity:1;stroke:#cf3bd2;stroke-width:2.67131305;stroke-miterlimit:4;stroke-dasharray:none;stroke-opacity:1"
       d="m 602.19543,848.14847 -20.41522,-0.87229 -1.53265,-8.57458 c -2.40868,-13.47563 1.14703,-221.6489 3.87288,-226.74219 1.48169,-2.76858 6.9014,-5.10594 13.78751,-5.94613 18.2793,-2.23033 208.21913,-4.66424 217.38653,-2.78562 8.1421,1.66851 8.40586,2.18345 9.97525,19.47498 1.79225,19.74702 3.06872,221.72043 1.41028,223.14533 -1.51464,1.30135 -200.21242,3.33759 -224.48458,2.3005 z"
       id="path4918"
       inkscape:connector-curvature="0" />
    <path
       style="opacity:1;fill:#e732dd;fill-opacity:1;stroke:#cf3bd2;stroke-width:2.67131305;stroke-miterlimit:4;stroke-dasharray:none;stroke-opacity:1"
       d="m 582.09874,843.29449 c -0.8856,-2.30784 -1.05271,-54.63438 -0.37136,-116.28118 0.89813,-81.26034 2.10779,-112.95408 4.39856,-115.24485 5.32331,-5.32331 37.7892,-7.03009 136.99969,-7.20224 80.39103,-0.1395 95.67586,0.44154 98.4143,3.74116 2.37858,2.866 3.6407,34.76448 4.73924,119.77834 l 1.4973,115.87204 -28.86953,1.7664 c -15.87824,0.97152 -70.79344,1.7664 -122.03377,1.7664 -82.21445,0 -93.35349,-0.49317 -94.77443,-4.19607 z"
       id="path4920"
       inkscape:connector-curvature="0" />
    <path
       style="opacity:1;fill:#e732dd;fill-opacity:1;stroke:#cf3bd2;stroke-width:2.67131305;stroke-miterlimit:4;stroke-dasharray:none;stroke-opacity:1"
       d="m 599.42083,845.72246 c -14.35008,-1.09578 -15.27208,-1.59688 -16.94393,-9.20878 -2.16837,-9.87252 1.42872,-209.12291 3.94518,-218.53234 1.32807,-4.96583 4.23536,-7.26026 10.98342,-8.66809 14.36316,-2.99656 177.68447,-5.48577 201.48312,-3.07084 l 21.34181,2.16563 1.67748,12.02091 c 0.92261,6.6115 2.54433,59.03361 3.60381,116.49359 1.69732,92.052 1.44509,104.65736 -2.12159,106.02602 -5.00168,1.91932 -203.04004,4.37206 -223.9693,2.7739 z"
       id="path4922"
       inkscape:connector-curvature="0" />
    <path
       style="opacity:1;fill:#e732dd;fill-opacity:1;stroke:#cf3bd2;stroke-width:2.67131305;stroke-miterlimit:4;stroke-dasharray:none;stroke-opacity:1"
       d="m 586.87453,842.40632 c -3.06356,-1.94044 -3.46082,-20.62424 -2.37042,-111.48641 0.72046,-60.03542 2.16904,-111.16602 3.21907,-113.62356 1.05003,-2.45754 3.91985,-5.36387 6.37739,-6.4585 5.63379,-2.50939 203.09453,-4.93371 215.30304,-2.64338 4.96799,0.932 9.87706,3.76551 10.90903,6.29668 1.03198,2.53118 2.52042,54.59734 3.30766,115.70259 l 1.43133,111.10045 -24.83062,1.76253 c -36.54043,2.59371 -209.055,2.06779 -213.34648,-0.6504 z"
       id="path4924"
       inkscape:connector-curvature="0" />
    <path
       style="opacity:1;fill:#e732dd;fill-opacity:1;stroke:#cf3bd2;stroke-width:2.67131305;stroke-miterlimit:4;stroke-dasharray:none;stroke-opacity:1"
       d="m 615.59714,843.03027 -28.38401,-1.05634 -1.77889,-13.4099 c -2.0895,-15.75146 1.15186,-198.42543 3.69046,-207.98344 1.08258,-4.076 4.44046,-7.25061 8.94283,-8.45473 10.14979,-2.71447 207.60414,-4.17716 214.69744,-1.59042 7.8502,2.86277 8.34683,9.04652 10.36455,129.05277 1.48856,88.53437 1.21926,99.29609 -2.52072,100.73126 -5.23034,2.00706 -166.59048,4.14068 -205.01166,2.7108 z"
       id="path4926"
       inkscape:connector-curvature="0" />
    <path
       style="opacity:1;fill:#e732dd;fill-opacity:1;stroke:#cf3bd2;stroke-width:2.67131305;stroke-miterlimit:4;stroke-dasharray:none;stroke-opacity:1"
       d="m 587.54118,838.21195 c -2.3089,-6.01688 0.48511,-212.62755 2.95443,-218.47389 1.09133,-2.58382 5.15739,-5.52666 9.03569,-6.53964 3.87831,-1.01298 53.67199,-1.90417 110.65263,-1.98042 84.16024,-0.11263 104.02088,0.53754 105.83785,3.46476 1.23017,1.98188 3.00141,15.80592 3.93608,30.7201 2.34279,37.38293 2.65573,191.30226 0.39355,193.56718 -1.01201,1.01323 -53.43005,2.2429 -116.48454,2.73259 -104.29922,0.81002 -114.79624,0.49502 -116.32569,-3.49068 z"
       id="path4928"
       inkscape:connector-curvature="0" />
    <path
       style="opacity:1;fill:#e732dd;fill-opacity:1;stroke:#cf3bd2;stroke-width:2.67131305;stroke-miterlimit:4;stroke-dasharray:none;stroke-opacity:1"
       d="m 599.37741,840.35602 c -9.30965,-1.11709 -9.96822,-1.82813 -11.47138,-12.38534 -0.8771,-6.16012 -0.63778,-55.3191 0.53182,-109.24216 1.61489,-74.45264 2.9602,-98.87635 5.59139,-101.5099 2.688,-2.69041 26.04524,-3.65079 104.17646,-4.28342 55.39138,-0.4485 104.52672,-0.11071 109.18963,0.75065 8.26403,1.52659 8.52878,2.01913 10.48954,19.51466 2.23102,19.90702 3.18389,202.39272 1.06729,204.39623 -1.78657,1.69111 -206.98678,4.26975 -219.57475,2.75928 z"
       id="path4930"
       inkscape:connector-curvature="0" />
    <path
       style="opacity:1;fill:#e732dd;fill-opacity:1;stroke:#cf3bd2;stroke-width:2.67131305;stroke-miterlimit:4;stroke-dasharray:none;stroke-opacity:1"
       d="m 591.062,837.75764 c -2.27092,-2.27092 -1.92063,-152.27938 0.44379,-190.04862 1.1403,-18.21514 2.90242,-28.21121 5.22584,-29.64487 4.92677,-3.04006 157.2959,-6.31772 189.75785,-4.08194 20.82201,1.43409 27.28133,2.81216 28.83074,6.15093 1.09823,2.36653 2.4698,51.98313 3.04794,110.25911 l 1.05115,105.95633 -19.6006,1.10215 c -34.79787,1.9567 -206.85397,2.20965 -208.75671,0.30691 z"
       id="path4932"
       inkscape:connector-curvature="0" />
    <path
       style="opacity:1;fill:#e732dd;fill-opacity:1;stroke:#cf3bd2;stroke-width:2.67131305;stroke-miterlimit:4;stroke-dasharray:none;stroke-opacity:1"
       d="m 627.48647,837.397 -35.19388,-0.74396 -0.96707,-21.9622 c -1.42416,-32.3426 0.75348,-172.35409 2.87498,-184.84775 l 1.82539,-10.7498 22.64197,-1.73836 c 29.59177,-2.27193 175.83355,-2.75109 186.53314,-0.61117 6.74552,1.3491 8.52545,3.21263 9.56802,10.01742 0.70447,4.59799 2.03957,53.13504 2.9669,107.86009 1.38705,81.85441 1.05223,99.70191 -1.88799,100.638 -4.73221,1.50662 -143.64016,3.08309 -188.36146,2.13773 z"
       id="path4934"
       inkscape:connector-curvature="0" />
    <path
       style="opacity:1;fill:#e732dd;fill-opacity:1;stroke:#cf3bd2;stroke-width:2.67131305;stroke-miterlimit:4;stroke-dasharray:none;stroke-opacity:1"
       d="m 593.67142,835.02443 c -2.23833,-2.23833 -1.84573,-150.90205 0.49031,-185.66122 0.95468,-14.20522 2.69976,-26.78941 3.87796,-27.96487 1.17819,-1.17546 34.23569,-3.16932 73.46111,-4.43079 71.58932,-2.30229 132.65698,-0.72914 139.65792,3.59768 3.09239,1.91119 3.92468,20.83127 4.73026,107.53039 l 0.97759,105.21111 -18.32422,1.7303 c -24.21192,2.28625 -202.58305,2.27529 -204.87093,-0.0126 l 0,-4e-5 z"
       id="path4936"
       inkscape:connector-curvature="0" />
    <path
       style="opacity:1;fill:#e732dd;fill-opacity:1;stroke:#cf3bd2;stroke-width:2.67131305;stroke-miterlimit:4;stroke-dasharray:none;stroke-opacity:1"
       d="m 610.1082,834.96635 -15.17376,-1.08786 -0.9783,-24.58189 c -1.36293,-34.24669 0.81077,-163.88079 2.96536,-176.84674 l 1.77561,-10.68526 25.31333,-1.70448 c 33.34322,-2.24518 167.96653,-2.75559 178.36327,-0.67625 5.33977,1.06796 8.59665,3.58986 9.48704,7.34611 3.0268,12.769 5.13934,203.97288 2.27318,205.74426 -3.23866,2.0016 -180.64239,4.16853 -204.02573,2.49211 z"
       id="path4938"
       inkscape:connector-curvature="0" />
    <path
       style="opacity:1;fill:#e732dd;fill-opacity:1;stroke:#cf3bd2;stroke-width:2.67131305;stroke-miterlimit:4;stroke-dasharray:none;stroke-opacity:1"
       d="m 596.34273,832.35312 c -4.46748,-4.46748 -0.9256,-199.32086 3.76092,-206.90381 4.46427,-7.22333 196.97642,-9.25936 208.40066,-2.20407 3.11376,1.92298 3.9235,20.16758 4.65437,104.86949 l 0.8848,102.5415 -16.63671,1.73888 c -21.91674,2.29076 -198.76823,2.25382 -201.06404,-0.042 z"
       id="path4940"
       inkscape:connector-curvature="0" />
    <path
       style="opacity:1;fill:#e732dd;fill-opacity:1;stroke:#cf3bd2;stroke-width:2.67131305;stroke-miterlimit:4;stroke-dasharray:none;stroke-opacity:1"
       d="m 611.35304,832.37535 c -13.62569,-1.15945 -13.96885,-1.39815 -15.76361,-10.96499 -1.97122,-10.50753 0.70529,-151.40295 3.39643,-178.79293 1.13858,-11.58827 2.92037,-17.09986 5.94693,-18.39559 6.0459,-2.58837 170.25458,-4.87016 188.2926,-2.61646 10.52442,1.31494 15.16164,3.14643 16.06874,6.34641 0.70129,2.47394 2.10353,48.51473 3.11608,102.31288 1.32078,70.1749 1.00922,98.32888 -1.10259,99.63405 -3.38068,2.08938 -178.95007,4.26397 -199.95458,2.47663 z"
       id="path4942"
       inkscape:connector-curvature="0" />
    <path
       style="opacity:1;fill:#e732dd;fill-opacity:1;stroke:#cf3bd2;stroke-width:2.67131305;stroke-miterlimit:4;stroke-dasharray:none;stroke-opacity:1"
       d="m 600.10533,828.97203 c -6.72402,-4.25554 -3.22494,-195.71998 3.70358,-202.65425 2.71948,-2.72175 145.2691,-6.34301 173.92534,-4.41831 13.3261,0.89505 25.94805,2.68959 28.04879,3.98787 3.17333,1.96116 3.98064,19.25672 4.77184,102.23018 l 0.95231,99.86967 -12.67823,1.73775 c -19.35173,2.65245 -194.3908,1.98927 -198.72363,-0.75291 z"
       id="path4944"
       inkscape:connector-curvature="0" />
    <path
       style="opacity:1;fill:#e732dd;fill-opacity:1;stroke:#cf3bd2;stroke-width:2.67131305;stroke-miterlimit:4;stroke-dasharray:none;stroke-opacity:1"
       d="m 628.82426,829.67547 -28.51345,-1.06073 -1.93668,-17.94305 c -2.12051,-19.64614 0.73482,-152.24821 3.69386,-171.54355 l 1.84346,-12.02091 24.04182,-1.72063 c 31.70813,-2.26929 158.65896,-2.74387 169.21542,-0.63258 4.54784,0.90957 8.83913,3.61427 9.53621,6.01046 0.69707,2.39618 2.09874,47.15913 3.11482,99.47323 1.34848,69.42748 1.03477,95.61879 -1.16153,96.97618 -3.51282,2.17104 -138.11666,4.01351 -179.83393,2.46158 z"
       id="path4946"
       inkscape:connector-curvature="0" />
    <path
       style="opacity:1;fill:#e732dd;fill-opacity:1;stroke:#cf3bd2;stroke-width:2.67131305;stroke-miterlimit:4;stroke-dasharray:none;stroke-opacity:1"
       d="m 601.17909,826.02128 c -2.31091,-3.73914 -2.02793,-133.34061 0.36521,-167.26138 0.94854,-13.4447 2.70058,-26.02406 3.89343,-27.95413 3.85278,-6.23392 180.0677,-9.5006 195.38686,-3.62209 3.1669,1.21526 4.55774,7.45961 5.8218,26.13761 2.61336,38.61572 3.15657,169.48149 0.71364,171.92799 -3.63909,3.64442 -203.94216,4.39441 -206.18094,0.772 z"
       id="path4948"
       inkscape:connector-curvature="0" />
    <path
       style="opacity:1;fill:#e732dd;fill-opacity:1;stroke:#cf3bd2;stroke-width:2.67131305;stroke-miterlimit:4;stroke-dasharray:none;stroke-opacity:1"
       d="m 634.11489,826.79833 -31.23677,-0.84521 -1.89229,-12.60527 c -2.11639,-14.09808 0.52139,-156.71702 3.18095,-171.98631 1.17689,-6.7569 3.46916,-10.35207 7.403,-11.61078 9.27282,-2.96704 184.22024,-4.57877 188.38196,-1.73551 5.06836,3.46268 7.92955,49.39374 8.14409,130.73799 0.13103,49.67957 -0.61057,65.10519 -3.16807,65.89703 -4.87572,1.5096 -134.27092,3.13681 -170.81287,2.14806 z"
       id="path4950"
       inkscape:connector-curvature="0" />
    <path
       style="opacity:1;fill:#e732dd;fill-opacity:1;stroke:#cf3bd2;stroke-width:2.67131305;stroke-miterlimit:4;stroke-dasharray:none;stroke-opacity:1"
       d="m 603.57741,822.90824 c -2.31426,-3.74454 -1.8334,-145.32169 0.57523,-169.36628 0.89841,-8.96845 2.66936,-17.98413 3.93546,-20.03485 1.88382,-3.05123 19.48482,-3.87789 96.88848,-4.55054 89.17895,-0.77499 94.69539,-0.54591 96.49143,4.00697 3.06089,7.7592 7.37279,138.75457 5.4447,165.40999 l -1.7609,24.34408 -17.80947,1.68223 c -33.99774,3.21133 -181.59881,2.01327 -183.76493,-1.4916 z"
       id="path4952"
       inkscape:connector-curvature="0" />
    <path
       style="opacity:1;fill:#e732dd;fill-opacity:1;stroke:#cf3bd2;stroke-width:2.67131305;stroke-miterlimit:4;stroke-dasharray:none;stroke-opacity:1"
       d="m 632.05122,824.32834 c -15.76852,-0.68306 -26.05946,-2.31162 -27.34005,-4.32661 -2.81389,-4.42764 -2.49622,-125.27992 0.41499,-157.87613 1.30696,-14.63383 3.73926,-27.2744 5.45179,-28.3328 4.35947,-2.6943 158.7042,-6.11602 175.4211,-3.88897 10.9172,1.4544 14.14071,3.02614 15.45276,7.53452 3.2391,11.12997 5.13578,182.41069 2.04111,184.3233 -3.47774,2.14936 -135.46064,4.12531 -171.4417,2.56669 z"
       id="path4954"
       inkscape:connector-curvature="0" />
    <path
       style="opacity:1;fill:#e732dd;fill-opacity:1;stroke:#cf3bd2;stroke-width:2.67131305;stroke-miterlimit:4;stroke-dasharray:none;stroke-opacity:1"
       d="m 611.63905,821.6135 c -5.27814,-1.03864 -5.73396,-3.30524 -7.31356,-36.36677 -1.70655,-35.71863 1.68375,-138.52369 4.828,-146.40112 1.29107,-3.23457 7.09817,-4.7088 23.61253,-5.99445 33.99702,-2.64666 160.30088,-1.97583 164.81563,0.87537 3.40806,2.1523 4.13034,16.26295 4.83232,94.40603 l 0.82535,91.8755 -12.55127,1.72034 c -13.42338,1.83988 -169.62459,1.73964 -179.049,-0.1149 z"
       id="path4956"
       inkscape:connector-curvature="0" />
    <path
       style="opacity:1;fill:#e732dd;fill-opacity:1;stroke:#cf3bd2;stroke-width:2.67131305;stroke-miterlimit:4;stroke-dasharray:none;stroke-opacity:1"
       d="m 645.48054,820.9164 -35.899,-1.47463 -2.48876,-9.34959 c -2.67188,-10.03749 -0.62384,-157.45453 2.3271,-167.50317 2.56967,-8.75036 15.80027,-9.98796 106.19471,-9.9335 62.41599,0.0376 80.11156,0.79905 81.79293,3.51957 2.97492,4.81352 6.61524,179.27794 3.79433,181.84548 -3.03376,2.76127 -110.39355,4.75776 -155.72131,2.89584 z"
       id="path4958"
       inkscape:connector-curvature="0" />
    <path
       style="opacity:1;fill:#e732dd;fill-opacity:1;stroke:#cf3bd2;stroke-width:2.67131305;stroke-miterlimit:4;stroke-dasharray:none;stroke-opacity:1"
       d="m 619.93933,818.39487 -10.68525,-1.62441 0,-87.58517 c 0,-74.12463 0.60268,-87.95731 3.92151,-90.00657 2.15682,-1.33176 11.17251,-3.17222 20.03484,-4.08991 22.11756,-2.29025 160.76132,-0.47073 163.3707,2.14403 1.15904,1.16142 2.60542,42.14266 3.21418,91.06943 l 1.10684,88.95774 -24.77679,1.75871 c -29.73475,2.11064 -141.12549,1.66571 -156.18603,-0.62385 z"
       id="path4960"
       inkscape:connector-curvature="0" />
    <path
       style="opacity:1;fill:#e732dd;fill-opacity:1;stroke:#cf3bd2;stroke-width:2.67131305;stroke-miterlimit:4;stroke-dasharray:none;stroke-opacity:1"
       d="m 654.6664,818.80226 c -17.63066,-0.36916 -34.76046,-1.30076 -38.06621,-2.07022 l -6.01045,-1.39902 0.0409,-84.7633 c 0.0225,-46.61981 1.09146,-86.42196 2.37546,-88.44922 3.89615,-6.15145 45.06454,-8.52613 115.72329,-6.67516 57.57784,1.50831 66.20692,2.2837 67.27998,6.04565 0.67702,2.37349 2.06187,42.4205 3.07743,88.99335 l 1.84648,84.67793 -6.35061,1.30481 c -8.23088,1.69114 -98.62397,3.19979 -139.91627,2.33518 z"
       id="path4962"
       inkscape:connector-curvature="0" />
    <path
       style="opacity:1;fill:#e732dd;fill-opacity:1;stroke:#cf3bd2;stroke-width:2.67131305;stroke-miterlimit:4;stroke-dasharray:none;stroke-opacity:1"
       d="m 619.93933,815.89034 -8.01394,-1.88077 0.52481,-85.19118 c 0.40903,-66.398 1.28789,-85.66281 3.98396,-87.32907 1.90254,-1.17583 9.78577,-2.92833 17.51829,-3.89445 17.49807,-2.18624 157.2948,-0.34894 159.74319,2.09945 2.31651,2.3165 7.34115,173.17578 5.157,175.35993 -2.33758,2.33759 -169.19296,3.11732 -178.91331,0.83609 z"
       id="path4964"
       inkscape:connector-curvature="0" />
    <path
       style="opacity:1;fill:#e732dd;fill-opacity:1;stroke:#cf3bd2;stroke-width:2.67131305;stroke-miterlimit:4;stroke-dasharray:none;stroke-opacity:1"
       d="m 615.04193,813.65393 c -2.26099,-2.26099 -2.35002,-142.91463 -0.10085,-159.32412 1.44254,-10.52453 2.66975,-12.4462 8.68176,-13.5947 20.31339,-3.88054 45.13773,-4.55701 103.684,-2.82542 53.07428,1.56974 64.89516,2.61153 66.12945,5.82804 0.82663,2.15415 2.29164,41.66723 3.25559,87.80685 l 1.75264,83.89022 -90.81086,0 c -49.94597,0 -91.61225,-0.80139 -92.59173,-1.78087 z"
       id="path4966"
       inkscape:connector-curvature="0" />
    <path
       style="opacity:1;fill:#e732dd;fill-opacity:1;stroke:#cf3bd2;stroke-width:2.67131305;stroke-miterlimit:4;stroke-dasharray:none;stroke-opacity:1"
       d="m 630.20574,813.47403 -13.77541,-0.97247 -1.35272,-13.89343 c -1.83764,-18.87392 -0.0541,-146.36885 2.12399,-151.83412 0.95899,-2.40627 5.42331,-5.11098 9.9207,-6.01046 10.79282,-2.15856 127.74379,-2.10925 148.52318,0.0626 l 16.24592,1.69804 1.42892,16.33333 c 0.7859,8.98333 2.16799,47.88821 3.07132,86.45529 l 1.64241,70.12197 -77.02645,-0.49414 c -42.36455,-0.27178 -83.22538,-0.93176 -90.80186,-1.46663 z"
       id="path4968"
       inkscape:connector-curvature="0" />
    <path
       style="opacity:1;fill:#e732dd;fill-opacity:1;stroke:#cf3bd2;stroke-width:2.67131305;stroke-miterlimit:4;stroke-dasharray:none;stroke-opacity:1"
       d="m 680.04388,812.83789 -62.77586,-1.41006 0,-82.24251 c 0,-68.43013 0.64148,-82.6386 3.81952,-84.60091 7.03109,-4.3414 54.43073,-6.21285 111.02054,-4.38336 30.83914,0.997 56.98289,2.72444 58.09721,3.83877 2.35782,2.35782 7.99312,165.5646 5.83716,169.05301 -0.79608,1.28809 -13.09686,2.07493 -27.33507,1.74854 -14.2382,-0.32638 -54.13678,-1.22795 -88.6635,-2.00348 z"
       id="path4970"
       inkscape:connector-curvature="0" />
    <path
       style="opacity:1;fill:#e732dd;fill-opacity:1;stroke:#cf3bd2;stroke-width:2.67131305;stroke-miterlimit:4;stroke-dasharray:none;stroke-opacity:1"
       d="m 636.63504,810.78258 -18.03136,-0.93451 0.0409,-79.34951 c 0.0233,-45.25606 1.12778,-81.07115 2.57051,-83.35648 2.11273,-3.34665 13.44157,-4.14801 68.7454,-4.86283 36.4187,-0.47072 73.57636,-0.0909 82.57259,0.84415 l 16.35678,1.70001 1.58786,11.58473 c 0.87333,6.3716 2.41807,44.15812 3.43277,83.97004 l 1.8449,72.38531 -70.5445,-0.5232 c -38.79947,-0.28777 -78.6586,-0.94374 -88.57585,-1.45771 z"
       id="path4972"
       inkscape:connector-curvature="0" />
    <path
       style="opacity:1;fill:#e732dd;fill-opacity:1;stroke:#cf3bd2;stroke-width:2.67131305;stroke-miterlimit:4;stroke-dasharray:none;stroke-opacity:1"
       d="m 673.36559,810.17774 -53.42626,-1.42122 0.27276,-79.73757 c 0.20736,-60.62087 1.07244,-80.23181 3.60833,-81.79907 4.91936,-3.04034 112.44604,-5.61051 140.36982,-3.35522 l 24.04182,1.94176 1.67253,21.37051 c 0.9199,11.75377 2.47849,49.31911 3.46355,83.47853 l 1.79101,62.10803 -34.18365,-0.58226 c -18.80101,-0.32025 -58.22546,-1.22182 -87.60991,-2.00349 z"
       id="path4974"
       inkscape:connector-curvature="0" />
    <path
       style="opacity:1;fill:#e732dd;fill-opacity:1;stroke:#cf3bd2;stroke-width:2.67131305;stroke-miterlimit:4;stroke-dasharray:none;stroke-opacity:1"
       d="m 704.08569,810.00419 c -38.93438,-1.03866 -73.56127,-2.04482 -76.94863,-2.2359 l -6.15884,-0.34743 0.81621,-78.58528 c 0.44892,-43.22191 1.81715,-79.58516 3.04052,-80.80722 2.71812,-2.71523 158.14826,-2.99986 160.86448,-0.29459 2.43605,2.42625 5.7637,58.98202 6.9595,118.28174 l 0.91575,45.41232 -9.34959,0.23242 c -5.14228,0.12783 -41.20501,-0.61739 -80.1394,-1.65606 z"
       id="path4976"
       inkscape:connector-curvature="0" />
    <path
       style="opacity:1;fill:#e732dd;fill-opacity:1;stroke:#cf3bd2;stroke-width:2.67131305;stroke-miterlimit:4;stroke-dasharray:none;stroke-opacity:1"
       d="m 658.67337,807.53964 -36.06272,-1.45443 0.93351,-77.46808 c 0.51344,-42.60745 1.79415,-78.38816 2.84602,-79.5127 1.05187,-1.12454 37.29556,-1.72559 80.54153,-1.33566 l 78.62903,0.70896 1.73792,18.6992 c 0.95585,10.28455 2.64055,46.6478 3.74377,80.80722 l 2.00586,62.10803 -49.1561,-0.54906 c -27.03585,-0.30198 -65.38432,-1.20354 -85.21882,-2.00348 z"
       id="path4978"
       inkscape:connector-curvature="0" />
    <path
       style="opacity:1;fill:#e732dd;fill-opacity:1;stroke:#cf3bd2;stroke-width:2.67131305;stroke-miterlimit:4;stroke-dasharray:none;stroke-opacity:1"
       d="m 689.39347,807.27318 c -32.32289,-1.01566 -60.2715,-1.99898 -62.10803,-2.18514 -3.7661,-0.38177 -4.66768,-71.69206 -1.58319,-125.22238 l 1.73166,-30.05227 78.18334,0 78.18334,0 1.51451,7.34611 c 1.28695,6.24231 6.85244,123.56869 6.90604,145.58657 l 0.0179,7.34611 -22.03834,-0.48617 c -12.12108,-0.26739 -48.48433,-1.31716 -80.80722,-2.33283 z"
       id="path4980"
       inkscape:connector-curvature="0" />
    <path
       style="opacity:1;fill:#e732dd;fill-opacity:1;stroke:#cf3bd2;stroke-width:2.67131305;stroke-miterlimit:4;stroke-dasharray:none;stroke-opacity:1"
       d="m 724.12054,807.34535 c -29.38444,-1.02968 -63.82034,-2.03497 -76.52421,-2.23398 l -23.09795,-0.36182 0.82953,-70.12197 c 0.45624,-38.56708 1.66443,-73.42772 2.68487,-77.46808 l 1.85533,-7.34611 75.68518,0 c 41.62685,0 76.34136,1.06172 77.14335,2.35937 1.78242,2.88402 6.25811,77.56189 7.38332,123.19235 l 0.82341,33.39141 -6.67828,0.23049 c -3.67306,0.12677 -30.7201,-0.61198 -60.10455,-1.64166 z"
       id="path4982"
       inkscape:connector-curvature="0" />
    <path
       style="opacity:1;fill:#e732dd;fill-opacity:1;stroke:#cf3bd2;stroke-width:2.67131305;stroke-miterlimit:4;stroke-dasharray:none;stroke-opacity:1"
       d="m 671.1426,805.42092 -44.96401,-0.80254 0.88734,-74.06335 c 0.48804,-40.73485 1.97628,-75.75435 3.3072,-77.82112 2.02729,-3.14814 14.33137,-3.48395 75.84332,-2.06998 40.3829,0.92828 74.03059,2.29491 74.77265,3.03697 2.11005,2.11005 5.28112,46.01561 7.38839,102.29719 l 1.92536,51.42277 -37.09812,-0.5987 c -20.40397,-0.32929 -57.33193,-0.95985 -82.06213,-1.40124 z"
       id="path4984"
       inkscape:connector-curvature="0" />
    <path
       style="opacity:1;fill:#e732dd;fill-opacity:1;stroke:#cf3bd2;stroke-width:2.67131305;stroke-miterlimit:4;stroke-dasharray:none;stroke-opacity:1"
       d="m 693.40044,804.82128 -65.44717,-1.40739 0.7286,-69.45414 c 0.40073,-38.19977 1.31199,-72.10619 2.02501,-75.34758 0.91386,-4.15436 3.85196,-6.3308 9.95666,-7.37552 10.41388,-1.78218 137.13228,1.94147 139.28319,4.09286 1.67923,1.67961 5.80356,59.06725 8.29074,115.3608 l 1.62284,36.73055 -15.50635,-0.5961 c -8.52849,-0.32785 -44.95757,-1.22942 -80.95352,-2.00348 z"
       id="path4986"
       inkscape:connector-curvature="0" />
    <path
       style="opacity:1;fill:#e732dd;fill-opacity:1;stroke:#cf3bd2;stroke-width:2.67131305;stroke-miterlimit:4;stroke-dasharray:none;stroke-opacity:1"
       d="m 716.1066,804.63798 c -35.26133,-1.00964 -69.2204,-1.99862 -75.46459,-2.19773 l -11.35308,-0.36201 0.26418,-59.43672 c 0.1453,-32.69019 1.04687,-66.04822 2.00349,-74.12894 l 1.7393,-14.69222 34.72707,-0.85488 c 19.09989,-0.47019 51.78804,-0.0481 72.64035,0.93789 l 37.91327,1.79277 1.43852,7.07605 c 1.57603,7.75244 6.14088,81.14707 7.41451,119.21192 0.66271,19.80666 0.10474,24.02668 -3.20453,24.23606 -2.20384,0.13944 -32.85715,-0.57255 -68.11849,-1.58219 z"
       id="path4988"
       inkscape:connector-curvature="0" />
    <path
       style="opacity:1;fill:#e732dd;fill-opacity:1;stroke:#cf3bd2;stroke-width:2.67131305;stroke-miterlimit:4;stroke-dasharray:none;stroke-opacity:1"
       d="m 669.35862,802.1903 -38.73404,-1.44772 0.15908,-37.39838 c 0.31527,-74.11967 1.30203,-101.57892 3.79179,-105.51687 2.1609,-3.41779 12.63046,-3.92055 71.20309,-3.41921 37.76833,0.32327 69.65881,1.57689 70.86774,2.78582 2.54279,2.54278 6.45278,48.2777 9.13214,106.81809 l 1.86454,40.73752 -39.77515,-0.55577 c -21.87633,-0.30567 -57.20546,-1.20723 -78.50919,-2.00348 z"
       id="path4990"
       inkscape:connector-curvature="0" />
    <path
       style="opacity:1;fill:#e732dd;fill-opacity:1;stroke:#cf3bd2;stroke-width:2.67131305;stroke-miterlimit:4;stroke-dasharray:none;stroke-opacity:1"
       d="m 696.07176,801.77223 c -28.64984,-0.90291 -54.9137,-1.80448 -58.36414,-2.00348 l -6.27353,-0.36183 0.93091,-69.55276 c 0.77912,-58.21287 1.58419,-69.96555 4.93787,-72.08455 4.44358,-2.80765 102.89886,-3.52353 124.68167,-0.90658 11.13106,1.33727 14.09102,2.76301 15.20298,7.3229 1.45118,5.95095 5.55276,59.60319 8.45615,110.61386 l 1.71633,30.15478 -19.59882,-0.77034 c -10.77935,-0.42369 -43.03959,-1.50908 -71.68942,-2.412 z"
       id="path4992"
       inkscape:connector-curvature="0" />
    <path
       style="opacity:1;fill:#e732dd;fill-opacity:1;stroke:#cf3bd2;stroke-width:2.67131305;stroke-miterlimit:4;stroke-dasharray:none;stroke-opacity:1"
       d="m 725.4562,801.93056 c -25.71139,-1.03001 -57.4344,-2.0192 -70.49558,-2.1982 l -23.7476,-0.32544 1.93516,-67.15301 c 1.06434,-36.93415 2.50547,-68.63922 3.20252,-70.4557 2.7951,-7.28391 127.33032,-8.0459 136.31249,-0.83405 4.14558,3.32852 5.59555,14.02279 8.81047,64.98165 1.48306,23.50756 3.38267,50.85513 4.22136,60.77238 l 1.52489,18.03136 -7.50787,-0.47311 c -4.12932,-0.26022 -28.54445,-1.31586 -54.25584,-2.34588 z"
       id="path4994"
       inkscape:connector-curvature="0" />
    <path
       style="opacity:1;fill:#e732dd;fill-opacity:1;stroke:#cf3bd2;stroke-width:2.67131305;stroke-miterlimit:4;stroke-dasharray:none;stroke-opacity:1"
       d="m 745.49105,801.74175 c -20.56911,-0.92563 -54.61526,-1.82963 -75.6581,-2.0089 l -38.25972,-0.32593 1.60421,-47.4158 c 0.88232,-26.0787 2.27233,-57.24818 3.08891,-69.26552 l 1.4847,-21.84971 16.47161,-1.7571 c 9.05939,-0.9664 38.36929,-1.35181 65.13311,-0.85645 38.93993,0.72072 49.46546,1.7057 52.68579,4.93038 3.06194,3.06607 5.22748,19.99458 9.05562,70.78979 2.76722,36.71804 4.30252,67.36355 3.41178,68.10114 -0.89074,0.73758 -18.4488,0.58373 -39.01791,-0.3419 z"
       id="path4996"
       inkscape:connector-curvature="0" />
    <path
       style="opacity:1;fill:#e732dd;fill-opacity:1;stroke:#cf3bd2;stroke-width:2.67131305;stroke-miterlimit:4;stroke-dasharray:none;stroke-opacity:1"
       d="m 688.80649,800.0779 -56.68456,-0.77676 1.55947,-39.34898 c 0.85771,-21.64193 2.32394,-52.57197 3.2583,-68.73342 l 1.69882,-29.38444 21.37051,-2.01524 c 24.89701,-2.34778 102.16062,0.19306 108.54513,3.56955 2.40016,1.26933 5.09759,6.24725 5.99429,11.06204 1.60904,8.63968 9.66836,109.95965 9.67382,121.61713 0.003,5.73686 -0.87876,5.98261 -19.3642,5.39867 -10.65186,-0.33649 -44.87507,-0.96133 -76.05158,-1.38855 z"
       id="path4998"
       inkscape:connector-curvature="0" />
    <path
       style="opacity:1;fill:#e732dd;fill-opacity:1;stroke:#cf3bd2;stroke-width:2.67131305;stroke-miterlimit:4;stroke-dasharray:none;stroke-opacity:1"
       d="m 633.95869,797.40344 c -1.21612,-2.46564 2.74686,-100.96418 4.8256,-119.93897 1.23,-11.22741 2.58193,-14.04258 7.35881,-15.32358 7.86108,-2.10806 90.3883,-2.03021 108.14198,0.10202 9.61198,1.1544 14.95409,3.2252 16.6906,6.4699 2.17446,4.06302 6.4051,45.09965 11.75258,113.99841 l 1.29581,16.6957 -74.5386,0 c -40.99624,0 -74.98329,-0.90156 -75.52678,-2.00348 z"
       id="path5000"
       inkscape:connector-curvature="0" />
    <path
       style="opacity:1;fill:#e732dd;fill-opacity:1;stroke:#cf3bd2;stroke-width:2.67131305;stroke-miterlimit:4;stroke-dasharray:none;stroke-opacity:1"
       d="m 653.62087,797.41583 -19.74472,-0.92952 1.79477,-44.61984 c 2.27156,-56.47325 4.39257,-81.84856 7.22385,-86.42433 2.97115,-4.80183 112.89877,-4.9726 121.65242,-0.18898 3.24714,1.77446 6.40447,6.88143 7.33776,11.8688 2.24661,12.00551 9.6389,96.93613 9.65542,110.93188 l 0.0134,11.35308 -54.09409,-0.53078 c -29.75175,-0.29193 -62.97921,-0.94907 -73.83881,-1.46031 z"
       id="path5002"
       inkscape:connector-curvature="0" />
    <path
       style="opacity:1;fill:#e732dd;fill-opacity:1;stroke:#cf3bd2;stroke-width:2.67131305;stroke-miterlimit:4;stroke-dasharray:none;stroke-opacity:1"
       d="m 689.94645,797.40613 -55.54459,-0.77961 1.67398,-38.01167 c 2.13899,-48.5707 5.71641,-90.14015 7.94925,-92.36984 0.95802,-0.95667 28.18411,-1.7394 60.50242,-1.7394 65.68936,0 64.0891,-0.46288 67.2748,19.4594 3.06129,19.14427 9.74753,110.61583 8.26138,113.02047 -0.82309,1.33179 -8.93866,2.14668 -18.03459,1.81086 -9.09593,-0.33582 -41.53312,-0.96142 -72.08265,-1.39021 z"
       id="path5004"
       inkscape:connector-curvature="0" />
    <path
       style="opacity:1;fill:#e732dd;fill-opacity:1;stroke:#cf3bd2;stroke-width:2.67131305;stroke-miterlimit:4;stroke-dasharray:none;stroke-opacity:1"
       d="m 636.39398,794.73213 c -1.44511,-2.36505 2.94203,-88.36948 5.68909,-111.52733 l 1.90128,-16.02787 54.76032,-0.75655 c 59.77108,-0.82578 65.33748,-0.25423 69.28066,7.11368 2.71463,5.07232 10.81452,87.63528 10.84193,110.51281 l 0.0152,12.68874 -70.63214,0 c -38.84768,0 -71.18303,-0.90157 -71.85634,-2.00348 z"
       id="path5006"
       inkscape:connector-curvature="0" />
    <path
       style="opacity:1;fill:#e732dd;fill-opacity:1;stroke:#cf3bd2;stroke-width:2.67131305;stroke-miterlimit:4;stroke-dasharray:none;stroke-opacity:1"
       d="m 653.59376,794.74727 -17.10051,-0.95892 1.79342,-37.92824 c 2.49507,-52.76715 4.80473,-81.07542 6.89021,-84.4498 1.15476,-1.86845 21.54697,-3.11172 58.28687,-3.55365 47.33524,-0.56937 57.14948,-0.0291 60.44492,3.32724 5.71335,5.81898 17.94839,115.90625 13.65401,122.85471 -1.58156,2.55903 -82.70176,3.02275 -123.96892,0.70866 z"
       id="path5008"
       inkscape:connector-curvature="0" />
    <path
       style="opacity:1;fill:#e732dd;fill-opacity:1;stroke:#cf3bd2;stroke-width:2.67131305;stroke-miterlimit:4;stroke-dasharray:none;stroke-opacity:1"
       d="m 637.32871,789.3895 c 0.0654,-11.82441 5.43046,-96.80356 6.79042,-107.55526 l 1.52492,-12.05581 55.26612,-0.82441 c 42.70522,-0.63703 56.32569,-0.022 59.92804,2.70622 5.84767,4.42864 12.18952,43.58136 14.5262,89.68047 l 1.65869,32.72359 -69.86012,0 c -64.76241,0 -69.85823,-0.34112 -69.83427,-4.6748 z"
       id="path5010"
       inkscape:connector-curvature="0" />
    <path
       style="opacity:1;fill:#e732dd;fill-opacity:1;stroke:#cf3bd2;stroke-width:2.67131305;stroke-miterlimit:4;stroke-dasharray:none;stroke-opacity:1"
       d="m 647.98812,791.61708 -9.3496,-1.55975 0.74977,-18.69919 c 0.8441,-21.05165 6.18955,-98.61007 6.84124,-99.26108 1.33135,-1.32997 95.63198,-2.86227 104.12178,-1.69189 7.87328,1.08539 10.80674,2.9948 12.84755,8.36252 3.80662,10.01218 9.60267,53.19021 11.63364,86.66555 l 1.74744,28.80218 -59.62111,-0.52929 c -32.79161,-0.29111 -63.82843,-1.23118 -68.97071,-2.08905 z"
       id="path5012"
       inkscape:connector-curvature="0" />
    <path
       style="opacity:1;fill:#e732dd;fill-opacity:1;stroke:#cf3bd2;stroke-width:2.67131305;stroke-miterlimit:4;stroke-dasharray:none;stroke-opacity:1"
       d="m 679.263,792.06658 c -29.44434,-0.65998 -37.14688,-1.61615 -38.35372,-4.76112 -1.59799,-4.16432 3.84788,-103.47673 6.11128,-111.44677 1.2068,-4.24949 6.12543,-4.67479 54.06327,-4.67479 38.03657,0 53.97487,0.93072 57.18149,3.33914 2.90059,2.17856 5.82586,11.69529 8.41642,27.38096 4.5684,27.66145 9.72356,87.01371 7.82461,90.08626 -1.22258,1.97818 -10.0777,1.98528 -95.24335,0.0763 z"
       id="path5014"
       inkscape:connector-curvature="0" />
    <path
       style="opacity:1;fill:#e732dd;fill-opacity:1;stroke:#cf3bd2;stroke-width:2.67131305;stroke-miterlimit:4;stroke-dasharray:none;stroke-opacity:1"
       d="m 648.24308,789.45365 -6.42331,-1.21177 1.75784,-47.17591 c 0.96681,-25.94675 2.48736,-51.53203 3.37898,-56.85616 1.57005,-9.37518 2.05383,-9.73224 15.35073,-11.32986 17.40246,-2.09091 65.68794,-1.77659 83.17827,0.54145 12.45942,1.65129 13.56516,2.42407 16.55596,11.57079 3.68775,11.27819 11.49024,74.88708 11.49504,93.71206 l 0.003,12.68873 -59.43672,-0.36378 c -32.6902,-0.20008 -62.32721,-0.90908 -65.86004,-1.57555 z"
       id="path5016"
       inkscape:connector-curvature="0" />
    <path
       style="opacity:1;fill:#e732dd;fill-opacity:1;stroke:#cf3bd2;stroke-width:2.67131305;stroke-miterlimit:4;stroke-dasharray:none;stroke-opacity:1"
       d="m 674.03342,789.43553 -31.38793,-0.88341 0.0971,-9.93265 c 0.38801,-39.68459 5.39004,-98.0397 8.68621,-101.33587 4.4857,-4.48571 89.91042,-5.38249 101.27118,-1.06313 5.75823,2.18927 7.55667,5.26182 9.86378,16.8518 4.09976,20.59552 8.25648,56.76453 8.99699,78.28587 l 0.64341,18.69919 -33.39142,0.1308 c -18.36527,0.0719 -47.51598,-0.26673 -64.77934,-0.7526 z"
       id="path5018"
       inkscape:connector-curvature="0" />
    <path
       style="opacity:1;fill:#e732dd;fill-opacity:1;stroke:#cf3bd2;stroke-width:2.67131305;stroke-miterlimit:4;stroke-dasharray:none;stroke-opacity:1"
       d="m 644.20857,786.41833 c -1.77608,-2.87375 3.28171,-86.4854 6.00115,-99.20656 1.83709,-8.59365 2.96199,-9.49557 13.91294,-11.15507 15.62945,-2.36848 62.58131,-2.66055 78.43252,-0.4879 8.5207,1.16789 13.39775,3.38728 15.31476,6.96925 3.99188,7.45888 9.90702,46.1938 12.00158,78.59153 l 1.78388,27.59209 -63.01165,0 c -34.6564,0 -63.65223,-1.0365 -64.43518,-2.30334 z"
       id="path5020"
       inkscape:connector-curvature="0" />
    <path
       style="opacity:1;fill:#e732dd;fill-opacity:1;stroke:#cf3bd2;stroke-width:2.67131305;stroke-miterlimit:4;stroke-dasharray:none;stroke-opacity:1"
       d="m 660.27853,786.63471 -15.75838,-0.87474 1.79278,-37.94245 c 2.1015,-44.47614 5.06095,-65.75931 9.52779,-68.51997 4.61325,-2.85115 52.41668,-5.40337 71.12389,-3.79731 23.04871,1.97879 27.42983,3.21508 30.28244,8.54524 3.00435,5.61369 9.74063,51.1078 12.24824,82.71973 l 1.75468,22.1202 -47.60653,-0.68798 c -26.18359,-0.37838 -54.6978,-1.0816 -63.36491,-1.56272 z"
       id="path5022"
       inkscape:connector-curvature="0" />
    <path
       style="opacity:1;fill:#e732dd;fill-opacity:1;stroke:#cf3bd2;stroke-width:2.67131305;stroke-miterlimit:4;stroke-dasharray:none;stroke-opacity:1"
       d="m 689.87235,786.72186 -44.93344,-0.80239 1.70384,-31.32249 c 2.20095,-40.46126 6.07878,-70.51536 9.54616,-73.98501 1.66773,-1.66882 20.50968,-2.74979 47.93032,-2.74979 36.60482,0 45.9411,0.76069 49.17916,4.00697 5.87473,5.88963 19.81338,98.31963 15.81146,104.84904 -0.67537,1.10191 -8.67007,1.73406 -17.766,1.40478 -9.09593,-0.32929 -36.7581,-0.95979 -61.4715,-1.40111 z"
       id="path5024"
       inkscape:connector-curvature="0" />
    <path
       style="opacity:1;fill:#e732dd;fill-opacity:1;stroke:#cf3bd2;stroke-width:2.67131305;stroke-miterlimit:4;stroke-dasharray:none;stroke-opacity:1"
       d="m 646.9463,783.85448 c -1.3989,-2.26346 2.20211,-58.26207 5.26984,-81.95048 3.06838,-23.69338 0.88939,-22.70616 50.11732,-22.70616 30.57407,0 44.8199,0.99071 48.01476,3.33914 5.36255,3.94182 14.25336,46.48159 16.89366,80.83095 l 1.74351,22.68243 -60.34098,0 c -33.18754,0 -60.95169,-0.98815 -61.69811,-2.19588 z"
       id="path5026"
       inkscape:connector-curvature="0" />
    <path
       style="opacity:1;fill:#e732dd;fill-opacity:1;stroke:#cf3bd2;stroke-width:2.67131305;stroke-miterlimit:4;stroke-dasharray:none;stroke-opacity:1"
       d="m 664.2908,784.06232 -17.08873,-0.95861 1.80134,-31.25026 c 2.22269,-38.55991 5.82498,-64.53653 9.45261,-68.16417 3.60157,-3.60156 55.84775,-5.40172 76.34148,-2.63036 15.46985,2.09198 16.13111,2.50678 19.26995,12.08772 3.86744,11.80493 10.34028,49.67622 12.79692,74.87236 l 1.75808,18.03136 -43.62146,-0.51471 c -23.9918,-0.28309 -51.31139,-0.94609 -60.71019,-1.47333 z"
       id="path5028"
       inkscape:connector-curvature="0" />
    <path
       style="opacity:1;fill:#e732dd;fill-opacity:1;stroke:#cf3bd2;stroke-width:2.67131305;stroke-miterlimit:4;stroke-dasharray:none;stroke-opacity:1"
       d="m 692.53719,784.05052 -44.93991,-0.80242 1.64092,-24.64418 c 2.93427,-44.06842 6.98395,-69.82021 11.54205,-73.39563 5.24865,-4.11709 78.53222,-4.68933 86.03897,-0.67184 3.38146,1.80971 6.36009,8.89553 9.26411,22.03834 5.1706,23.4007 12.00978,74.68227 10.33209,77.47208 -0.66266,1.10192 -7.44486,1.73407 -15.07157,1.40478 -7.62671,-0.32929 -34.0897,-0.9598 -58.80666,-1.40113 z"
       id="path5030"
       inkscape:connector-curvature="0" />
    <path
       style="opacity:1;fill:#e732dd;fill-opacity:1;stroke:#cf3bd2;stroke-width:2.67131305;stroke-miterlimit:4;stroke-dasharray:none;stroke-opacity:1"
       d="m 649.67922,781.28285 c -3.25984,-5.27452 6.62465,-90.10902 11.00754,-94.47313 3.30014,-3.28601 49.3561,-5.78323 68.61732,-3.72053 17.04467,1.82533 18.18422,2.38223 21.59929,10.55565 3.82898,9.16403 10.51924,45.3327 13.51023,73.0385 l 1.80238,16.69571 -57.62062,0 c -31.69134,0 -58.2036,-0.94329 -58.91614,-2.0962 z"
       id="path5032"
       inkscape:connector-curvature="0" />
    <path
       style="opacity:1;fill:#e732dd;fill-opacity:1;stroke:#cf3bd2;stroke-width:2.67131305;stroke-miterlimit:4;stroke-dasharray:none;stroke-opacity:1"
       d="m 665.62611,781.39324 -15.75341,-0.9756 1.62961,-24.5646 c 0.89629,-13.51053 3.03602,-33.97123 4.75496,-45.46822 2.73345,-18.28251 3.94006,-21.21338 9.6229,-23.37399 8.80372,-3.34717 72.01688,-3.14842 78.36011,0.24637 6.7421,3.60827 12.16037,26.33143 19.89438,83.43311 l 1.71859,12.68874 -42.23686,-0.50511 c -23.23027,-0.27781 -49.32589,-0.94412 -57.99028,-1.4807 z"
       id="path5034"
       inkscape:connector-curvature="0" />
    <path
       style="opacity:1;fill:#e732dd;fill-opacity:1;stroke:#cf3bd2;stroke-width:2.67131305;stroke-miterlimit:4;stroke-dasharray:none;stroke-opacity:1"
       d="m 693.76076,781.43671 -43.71634,-0.86427 1.77125,-20.63503 c 2.84724,-33.1702 7.07842,-62.80403 9.65458,-67.61764 3.08748,-5.769 34.74893,-8.97229 62.74876,-6.34849 18.59934,1.7429 20.43369,2.46751 24.07573,9.51043 3.60383,6.96903 12.88364,54.69935 15.01171,77.21208 l 0.88379,9.3496 -13.35657,0.12878 c -7.34611,0.0708 -33.02892,-0.26012 -57.07291,-0.73546 z"
       id="path5036"
       inkscape:connector-curvature="0" />
    <path
       style="opacity:1;fill:#e732dd;fill-opacity:1;stroke:#cf3bd2;stroke-width:2.67131305;stroke-miterlimit:4;stroke-dasharray:none;stroke-opacity:1"
       d="m 652.19173,778.35459 c -1.41225,-2.28507 4.86532,-63.51703 8.05962,-78.61427 0.98782,-4.6687 4.085,-8.45558 8.19295,-10.01742 8.78243,-3.33908 66.70845,-3.22824 73.00146,0.13968 2.72419,1.45794 6.21294,6.56683 7.75277,11.35308 3.16605,9.84104 13.65605,67.15835 13.65605,74.61664 0,4.56069 -3.52503,4.87543 -54.60426,4.87543 -30.03235,0 -55.25871,-1.05891 -56.05859,-2.35314 z"
       id="path5038"
       inkscape:connector-curvature="0" />
    <path
       style="opacity:1;fill:#e732dd;fill-opacity:1;stroke:#cf3bd2;stroke-width:2.67131305;stroke-miterlimit:4;stroke-dasharray:none;stroke-opacity:1"
       d="m 667.35514,778.73833 c -13.97305,-0.97752 -14.02439,-1.01433 -14.02439,-10.05429 0,-19.92975 8.36541,-72.24397 12.16262,-76.06055 3.05425,-3.06984 11.63153,-3.93789 38.9106,-3.93789 32.80121,0 35.28994,0.36706 39.73857,5.86089 4.0194,4.96374 9.89481,30.71888 17.29554,75.81578 1.03519,6.30799 0.15155,7.18343 -8.73331,8.65237 -10.0635,1.6638 -59.92434,1.50238 -85.34963,-0.27631 z"
       id="path5040"
       inkscape:connector-curvature="0" />
    <path
       style="opacity:1;fill:#e732dd;fill-opacity:1;stroke:#cf3bd2;stroke-width:2.67131305;stroke-miterlimit:4;stroke-dasharray:none;stroke-opacity:1"
       d="m 656.43228,775.68752 c -2.67286,-1.69415 -3.13383,-6.24063 -1.82409,-17.99045 3.765,-33.77629 9.7429,-61.17426 14.06763,-64.47484 2.9517,-2.25271 15.05345,-3.33914 37.19452,-3.33914 31.95898,0 32.93266,0.17307 37.14537,6.60247 5.09567,7.77699 18.45446,71.67288 16.20843,77.52593 -1.29884,3.38473 -9.31226,4.01842 -50.37981,3.98402 -26.85942,-0.0225 -50.44484,-1.06109 -52.41205,-2.30799 z"
       id="path5042"
       inkscape:connector-curvature="0" />
    <path
       style="opacity:1;fill:#e732dd;fill-opacity:1;stroke:#cf3bd2;stroke-width:2.67131305;stroke-miterlimit:4;stroke-dasharray:none;stroke-opacity:1"
       d="m 670.02645,776.06702 -14.02439,-0.98112 0.004,-12.54913 c 0.004,-14.22433 6.19538,-51.69323 10.31197,-62.40723 2.4615,-6.40641 4.51389,-7.30764 20.55374,-9.02536 22.3083,-2.38902 48.87329,-0.1186 53.44641,4.56787 4.33807,4.44559 14.03472,42.18381 16.22615,63.15024 l 1.64349,15.72403 -12.7315,1.74505 c -12.70383,1.74126 -48.87002,1.63368 -75.42952,-0.22435 z"
       id="path5044"
       inkscape:connector-curvature="0" />
    <path
       style="opacity:1;fill:#e732dd;fill-opacity:1;stroke:#cf3bd2;stroke-width:2.67131305;stroke-miterlimit:4;stroke-dasharray:none;stroke-opacity:1"
       d="m 657.12072,771.75593 c -1.58593,-4.13288 2.48791,-39.04417 6.98539,-59.86216 2.01111,-9.30906 4.86896,-15.03314 8.46694,-16.95872 6.9681,-3.72921 56.15065,-3.6792 63.14528,0.0642 2.92572,1.56579 7.19111,8.56827 9.47866,15.56106 5.29867,16.19752 12.75639,59.25809 10.80876,62.40942 -0.81423,1.31745 -23.08483,2.39536 -49.49023,2.39536 -37.85935,0 -48.30264,-0.76307 -49.3948,-3.60918 z"
       id="path5046"
       inkscape:connector-curvature="0" />
    <path
       style="opacity:1;fill:#e732dd;fill-opacity:1;stroke:#cf3bd2;stroke-width:2.67131305;stroke-miterlimit:4;stroke-dasharray:none;stroke-opacity:1"
       d="m 666.97445,773.4043 -9.06247,-1.10579 1.59109,-20.50504 c 1.98019,-25.51965 6.37864,-46.43096 11.13415,-52.93451 3.16259,-4.3251 7.45614,-4.9689 33.13773,-4.9689 23.59403,0 30.36831,0.86393 33.81711,4.31272 5.05983,5.05983 13.55056,35.70521 16.07515,58.01963 l 1.77035,15.6479 -16.71819,1.7474 c -17.38685,1.81728 -56.04485,1.70229 -71.74492,-0.21341 z"
       id="path5048"
       inkscape:connector-curvature="0" />
    <path
       style="opacity:1;fill:#e732dd;fill-opacity:1;stroke:#cf3bd2;stroke-width:2.67131305;stroke-miterlimit:4;stroke-dasharray:none;stroke-opacity:1"
       d="m 659.91273,756.06082 c 3.07674,-28.99154 7.02446,-48.6024 11.03635,-54.82465 3.63227,-5.63347 5.71697,-6.01046 33.23746,-6.01046 l 29.36213,0 5.12846,8.43309 c 5.38781,8.85954 12.79833,38.87662 14.07547,57.01408 l 0.75239,10.68526 -47.68538,0.73056 -47.68538,0.73056 1.7785,-16.75844 z"
       id="path5050"
       inkscape:connector-curvature="0" />
    <path
       style="opacity:1;fill:#e732dd;fill-opacity:1;stroke:#cf3bd2;stroke-width:2.67131305;stroke-miterlimit:4;stroke-dasharray:none;stroke-opacity:1"
       d="m 660.21086,760.41585 c 3.48695,-29.50938 9.29781,-55.80014 13.19598,-59.7041 3.08327,-3.08786 11.31282,-4.38391 32.14587,-5.06258 l 28.00166,-0.91219 5.08971,11.59745 c 5.08528,11.58735 13.52525,47.92555 13.52525,58.23281 0,4.81211 -1.68266,5.45524 -14.27282,5.45524 -7.85005,0 -28.88898,0.78591 -46.75318,1.74645 l -32.48036,1.74646 1.54789,-13.09954 z"
       id="path5052"
       inkscape:connector-curvature="0" />
    <path
       style="opacity:1;fill:#e732dd;fill-opacity:1;stroke:#cf3bd2;stroke-width:2.67131305;stroke-miterlimit:4;stroke-dasharray:none;stroke-opacity:1"
       d="m 661.33925,764.38412 c -0.01,-15.98863 8.45419,-55.75788 12.98282,-61.003 3.53794,-4.0977 9.62476,-5.42916 31.47518,-6.88502 l 27.08904,-1.8049 5.32308,14.29165 c 8.75579,23.50793 14.69226,56.2539 10.66197,58.81215 -1.85916,1.18012 -16.00225,2.17453 -31.42908,2.20979 -15.42683,0.0353 -34.35976,0.82217 -42.07318,1.74866 l -14.02439,1.68452 -0.005,-9.05385 z"
       id="path5054"
       inkscape:connector-curvature="0" />
    <path
       style="opacity:1;fill:#e732dd;fill-opacity:1;stroke:#cf3bd2;stroke-width:2.67131305;stroke-miterlimit:4;stroke-dasharray:none;stroke-opacity:1"
       d="m 662.26154,768.5587 c -1.52384,-3.97105 5.80071,-48.20494 9.66516,-58.36924 3.41707,-8.98756 9.50904,-11.12612 37.65049,-13.21702 l 22.85502,-1.69812 4.47499,12.66444 c 5.44902,15.421 12.49736,45.27482 12.55133,53.16215 0.0365,5.32945 -1.6455,5.88596 -21.99885,7.27874 -52.16657,3.56976 -63.88466,3.60194 -65.19814,0.17905 z"
       id="path5056"
       inkscape:connector-curvature="0" />
    <path
       style="opacity:1;fill:#e732dd;fill-opacity:1;stroke:#cf3bd2;stroke-width:2.67131305;stroke-miterlimit:4;stroke-dasharray:none;stroke-opacity:1"
       d="m 664.82978,753.32677 c 2.60255,-27.39091 7.61809,-44.89517 14.07645,-49.12685 3.20578,-2.1005 16.31427,-4.73846 29.12999,-5.86211 27.20541,-2.38532 24.24762,-5.48686 35.0803,36.78524 4.51726,17.62758 5.61458,26.04962 3.65,28.0142 -3.02349,3.02349 -35.27223,6.32874 -65.10544,6.67282 l -18.41765,0.21241 1.58635,-16.69571 z"
       id="path5058"
       inkscape:connector-curvature="0" />
    <path
       style="opacity:1;fill:#e732dd;fill-opacity:1;stroke:#cf3bd2;stroke-width:2.67131305;stroke-miterlimit:4;stroke-dasharray:none;stroke-opacity:1"
       d="m 665.20698,756.30486 c 3.27377,-26.40661 7.13201,-42.17048 11.66982,-47.6801 3.35697,-4.07589 10.18715,-6.28591 26.84192,-8.68514 21.66411,-3.12086 22.48173,-3.04208 27.05597,2.60686 5.39892,6.66739 17.36667,52.18306 15.20324,57.82087 -1.49344,3.89186 -11.56073,5.38756 -57.54515,8.54948 l -25.00251,1.71919 1.77671,-14.33116 z"
       id="path5060"
       inkscape:connector-curvature="0" />
    <path
       style="opacity:1;fill:#e732dd;fill-opacity:1;stroke:#cf3bd2;stroke-width:2.67131305;stroke-miterlimit:4;stroke-dasharray:none;stroke-opacity:1"
       d="m 665.34414,760.21737 c 0.90744,-5.62635 3.47279,-18.97535 5.70077,-29.66443 4.78513,-22.9574 7.55142,-25.38344 34.01982,-29.83545 16.01214,-2.69326 18.95139,-2.53425 23.1346,1.2515 4.99471,4.52015 15.95606,40.64505 15.95606,52.58576 0,8.03695 -2.83239,9.04259 -32.05576,11.38143 -11.01916,0.88189 -26.41822,2.25763 -34.22011,3.05719 l -14.18527,1.45375 1.64989,-10.22975 z"
       id="path5062"
       inkscape:connector-curvature="0" />
    <path
       style="opacity:1;fill:#e732dd;fill-opacity:1;stroke:#cf3bd2;stroke-width:2.67131305;stroke-miterlimit:4;stroke-dasharray:none;stroke-opacity:1"
       d="m 666.18887,768.63361 c -2.31005,-2.31006 8.20673,-49.83737 12.46654,-56.33867 2.52939,-3.86033 8.56148,-6.9067 17.45073,-8.81311 20.90132,-4.48253 28.68043,-3.75531 33.12855,3.09696 5.41672,8.34442 15.21423,44.95403 13.48702,50.39598 -1.63122,5.13953 -9.08432,6.7297 -42.64298,9.09821 -13.223,0.93326 -25.93191,2.21691 -28.24202,2.85255 -2.31011,0.63564 -4.85163,0.50428 -5.64784,-0.29192 z"
       id="path5064"
       inkscape:connector-curvature="0" />
    <path
       style="opacity:1;fill:#e732dd;fill-opacity:1;stroke:#cf3bd2;stroke-width:2.67131305;stroke-miterlimit:4;stroke-dasharray:none;stroke-opacity:1"
       d="m 666.68731,764.34269 c 0,-1.65465 2.51486,-13.72037 5.58857,-26.81269 6.31628,-26.9039 8.76325,-29.5973 31.2755,-34.42531 11.83603,-2.53838 15.10634,-2.35441 20.45586,1.15074 6.39834,4.19235 13.93882,24.30316 16.74669,44.6642 1.6386,11.88216 0.35929,12.47955 -33.85677,15.80996 -33.64788,3.27509 -40.20985,3.21195 -40.20985,-0.3869 z"
       id="path5066"
       inkscape:connector-curvature="0" />
    <path
       style="opacity:1;fill:#e732dd;fill-opacity:1;stroke:#cf3bd2;stroke-width:2.67131305;stroke-miterlimit:4;stroke-dasharray:none;stroke-opacity:1"
       d="m 668.44917,765.23874 c -1.78106,-3.09539 8.75262,-43.97704 13.00247,-50.46313 4.43021,-6.76135 21.46545,-12.25521 34.17991,-11.023 7.06951,0.68513 9.48709,2.83278 14.45794,12.84361 6.72545,13.54446 11.56097,35.47821 8.80472,39.93792 -2.91582,4.71789 -68.10416,12.77294 -70.44504,8.7046 z"
       id="path5068"
       inkscape:connector-curvature="0" />
    <path
       style="opacity:1;fill:#e732dd;fill-opacity:1;stroke:#cf3bd2;stroke-width:2.67131305;stroke-miterlimit:4;stroke-dasharray:none;stroke-opacity:1"
       d="m 669.35862,761.28702 c 0,-7.75007 11.38054,-43.6973 15.15558,-47.87129 5.18699,-5.73515 26.60414,-10.41693 34.28832,-7.49541 3.2089,1.22002 7.80965,6.38082 10.22388,11.46844 5.58806,11.77597 11.24473,36.03792 8.93965,38.34299 -6.71813,6.71814 -68.60743,11.72942 -68.60743,5.55527 z"
       id="path5070"
       inkscape:connector-curvature="0" />
    <path
       style="opacity:1;fill:#e732dd;fill-opacity:1;stroke:#cf3bd2;stroke-width:0.23611295;stroke-miterlimit:4;stroke-dasharray:none;stroke-opacity:1"
       d="m 677.69395,762.58625 c -2.92005,-0.24326 -5.23934,-0.64167 -6.33854,-1.08884 l -0.78989,-0.32133 0.16509,-1.24223 c 1.47094,-11.06789 11.56045,-42.16464 14.83268,-45.71558 2.84134,-3.08336 12.62328,-6.47383 21.94034,-7.60463 3.47061,-0.42123 8.91935,-0.18821 10.57822,0.45237 2.56326,0.98982 6.14936,4.64024 8.62861,8.78338 3.62067,6.05062 8.58757,22.37522 10.12561,33.27965 0.36968,2.62094 0.45631,4.90055 0.21057,5.54094 -0.34719,0.90477 -4.91317,2.60496 -10.12314,3.76947 -7.32963,1.63827 -18.74643,3.13475 -29.86829,3.91504 -4.82949,0.33883 -16.41183,0.47748 -19.36126,0.23176 z"
       id="path5072"
       inkscape:connector-curvature="0" />
    <path
       style="opacity:1;fill:#e732dd;fill-opacity:1;stroke:#cf3bd2;stroke-width:0.94445181;stroke-miterlimit:4;stroke-dasharray:none;stroke-opacity:1"
       d="m 674.21637,762.4678 c -3.81724,-0.79713 -4.05259,-1.67882 -2.39622,-8.97708 1.83695,-8.094 9.28955,-30.95978 11.6394,-35.71159 3.21424,-6.49977 12.12319,-10.26204 26.28758,-11.1013 l 8.61389,-0.51038 3.99328,3.99328 c 4.71235,4.71235 7.59416,10.84611 11.30532,24.06274 3.51576,12.52075 4.4415,19.62406 2.73996,21.02418 -2.053,1.68931 -10.94786,3.94073 -21.57179,5.46014 -10.34304,1.47924 -36.52279,2.61382 -40.61142,1.76001 z"
       id="path5074"
       inkscape:connector-curvature="0" />
    <path
       style="opacity:1;fill:#e732dd;fill-opacity:1;stroke:#cf3bd2;stroke-width:0.94445181;stroke-miterlimit:4;stroke-dasharray:none;stroke-opacity:1"
       d="m 672.09135,761.62428 c -1.3548,-1.4323 -0.68907,-5.86076 2.52101,-16.76989 4.93397,-16.76759 9.02082,-27.31207 11.69556,-30.17568 3.39743,-3.63732 11.00647,-6.21971 22.01484,-7.47149 l 9.41928,-1.07108 2.89997,2.73519 c 4.13498,3.90003 6.81215,8.41014 9.63125,16.22535 5.50223,15.25346 7.67587,28.13207 5.09636,30.19546 -1.39074,1.11248 -10.92793,3.51854 -19.59738,4.94408 -7.76862,1.27741 -42.73455,2.38853 -43.68089,1.38806 z"
       id="path5076"
       inkscape:connector-curvature="0" />
    <path
       style="opacity:1;fill:#e732dd;fill-opacity:1;stroke:#cf3bd2;stroke-width:0.94445181;stroke-miterlimit:4;stroke-dasharray:none;stroke-opacity:1"
       d="m 674.21637,761.19873 c -2.07522,-0.53316 -2.32554,-1.04432 -2.06718,-4.22133 0.34509,-4.24356 5.71582,-22.34214 9.68181,-32.62628 4.4189,-11.45858 8.33042,-13.98347 25.71634,-16.59985 10.4377,-1.57076 10.80483,-1.46139 15.67791,4.67058 5.33357,6.71143 12.14174,26.80427 12.5262,36.96835 0.12773,3.37692 -0.25331,4.82066 -1.51597,5.74394 -2.28448,1.67045 -13.40698,4.12827 -23.18549,5.12347 -10.83278,1.10249 -33.9104,1.69214 -36.83362,0.94112 z"
       id="path5078"
       inkscape:connector-curvature="0" />
    <path
       style="opacity:1;fill:#e732dd;fill-opacity:1;stroke:#cf3bd2;stroke-width:0.94445181;stroke-miterlimit:4;stroke-dasharray:none;stroke-opacity:1"
       d="m 672.9571,760.5606 c -1.2196,-1.2196 -0.5965,-4.97868 2.71297,-16.36683 8.29026,-28.52749 11.17904,-32.20688 27.75518,-35.35132 10.95087,-2.07734 13.56463,-1.92886 17.005,0.96603 5.46703,4.6002 13.24623,24.61729 14.75721,37.97258 0.59611,5.26892 0.48477,5.76479 -1.59546,7.10582 -5.0609,3.26251 -28.58037,6.28015 -49.06537,6.29528 -6.01694,0.004 -11.22323,-0.27526 -11.56953,-0.62156 z"
       id="path5080"
       inkscape:connector-curvature="0" />
    <path
       style="opacity:1;fill:#e732dd;fill-opacity:1;stroke:#cf3bd2;stroke-width:0.94445181;stroke-miterlimit:4;stroke-dasharray:none;stroke-opacity:1"
       d="m 675.16082,760.33033 c -3.04555,-0.86629 -2.84113,-3.24593 1.58842,-18.49092 4.15825,-14.31127 8.5429,-23.859 12.47716,-27.16946 4.51773,-3.80142 21.37991,-7.91672 26.95244,-6.57787 4.9965,1.20044 10.56254,10.3006 15.1002,24.68796 3.57594,11.33809 4.45228,18.60533 2.52793,20.96333 -3.49027,4.2768 -48.85497,9.37203 -58.64615,6.58696 z"
       id="path5082"
       inkscape:connector-curvature="0" />
    <path
       style="opacity:1;fill:#e732dd;fill-opacity:1;stroke:#cf3bd2;stroke-width:0.94445181;stroke-miterlimit:4;stroke-dasharray:none;stroke-opacity:1"
       d="m 678.00262,760.34771 c -2.95285,-0.39971 -4.33439,-1.06314 -4.54704,-2.18355 -0.40192,-2.11763 3.61457,-17.04502 7.37131,-27.39573 5.08085,-13.9989 9.32239,-18.06859 21.92941,-21.04088 13.55883,-3.19671 17.30763,-1.40246 23.3812,11.1907 3.52924,7.31764 8.52378,23.95242 8.52378,28.38922 0,3.39863 -2.0712,5.24152 -7.50056,6.67376 -10.87001,2.86745 -40.67443,5.51484 -49.1581,4.36648 z"
       id="path5084"
       inkscape:connector-curvature="0" />
    <path
       style="opacity:1;fill:#e732dd;fill-opacity:1;stroke:#cf3bd2;stroke-width:0.94445181;stroke-miterlimit:4;stroke-dasharray:none;stroke-opacity:1"
       d="m 675.86916,759.59475 c -2.4344,-0.63617 -2.10075,-4.25273 1.56832,-17.0001 7.21416,-25.06392 11.65223,-30.05215 29.6397,-33.3139 7.33188,-1.32953 11.19621,0.10751 15.21773,5.65906 5.14876,7.10765 13.32651,32.26043 11.79024,36.26389 -0.91688,2.38935 -4.94026,4.05642 -13.66085,5.66032 -14.64593,2.6937 -38.98795,4.18559 -44.55514,2.73073 z"
       id="path5086"
       inkscape:connector-curvature="0" />
    <path
       style="opacity:1;fill:#e732dd;fill-opacity:1;stroke:#cf3bd2;stroke-width:0.94445181;stroke-miterlimit:4;stroke-dasharray:none;stroke-opacity:1"
       d="m 678.78353,759.57021 c -1.90337,-0.20529 -3.6851,-0.95809 -3.9594,-1.6729 -1.21985,-3.1789 7.06397,-30.29669 11.13334,-36.44593 3.43759,-5.19454 8.26856,-8.4688 15.42178,-10.45233 9.46686,-2.62508 13.64351,-2.35401 17.62756,1.14404 7.19351,6.31598 17.31689,35.79577 13.76285,40.07812 -0.65387,0.78787 -3.36452,2.05593 -6.02366,2.81792 -9.11847,2.61293 -39.3055,5.46474 -47.96247,4.53108 z"
       id="path5088"
       inkscape:connector-curvature="0" />
    <path
       style="opacity:1;fill:#e732dd;fill-opacity:1;stroke:#cf3bd2;stroke-width:0.94445181;stroke-miterlimit:4;stroke-dasharray:none;stroke-opacity:1"
       d="m 676.34138,758.67584 c -1.70862,-0.68945 -1.46796,-3.47847 1.14016,-13.21343 6.59294,-24.60854 11.80286,-31.2105 27.503,-34.85161 7.3141,-1.69625 10.97158,-0.91861 14.78046,3.14256 7.63832,8.14427 15.88924,35.36934 11.7582,38.7978 -4.54176,3.76932 -48.83539,8.68552 -55.18182,6.12468 z"
       id="path5090"
       inkscape:connector-curvature="0" />
    <path
       style="opacity:1;fill:#e732dd;fill-opacity:1;stroke:#cf3bd2;stroke-width:0.94445181;stroke-miterlimit:4;stroke-dasharray:none;stroke-opacity:1"
       d="m 677.26238,758.37503 c -2.46293,-1.05361 -2.51405,-0.57684 1.75145,-16.33364 5.123,-18.9244 10.619,-26.34186 22.15921,-29.90626 9.18536,-2.83707 12.84549,-2.59637 17.09438,1.12418 7.83365,6.85955 16.76793,33.95593 12.78027,38.76076 -2.93237,3.5333 -47.948,8.85208 -53.78531,6.35496 z"
       id="path5092"
       inkscape:connector-curvature="0" />
    <path
       style="opacity:1;fill:#e732dd;fill-opacity:1;stroke:#cf3bd2;stroke-width:0.94445181;stroke-miterlimit:4;stroke-dasharray:none;stroke-opacity:1"
       d="m 676.49928,757.07695 c -1.1974,-3.12039 5.25686,-25.05416 9.50612,-32.30496 4.84185,-8.26199 14.68929,-13.81363 24.87574,-14.02405 3.80272,-0.0786 4.50244,0.29556 8.20915,4.38921 4.7893,5.28925 9.47812,15.92945 11.65159,26.44061 1.7645,8.53332 1.26744,10.04243 -3.87588,11.76734 -5.92891,1.98838 -22.51204,4.14446 -36.33458,4.72409 -11.92881,0.50022 -13.50212,0.38897 -14.03214,-0.99224 z"
       id="path5094"
       inkscape:connector-curvature="0" />
    <path
       style="opacity:1;fill:#e732dd;fill-opacity:1;stroke:#cf3bd2;stroke-width:0.94445181;stroke-miterlimit:4;stroke-dasharray:none;stroke-opacity:1"
       d="m 678.09572,757.5359 c -0.97953,-0.6506 -1.15757,-2.06128 -0.6977,-5.52798 0.8325,-6.27567 5.844,-21.54726 8.6441,-26.34121 4.61567,-7.90233 13.20311,-13.2859 22.76718,-14.273 4.91592,-0.50736 5.3372,-0.37489 8.47277,2.66421 4.56804,4.42752 7.43189,9.63492 10.75694,19.55953 3.06053,9.13507 3.66647,16.27033 1.53212,18.04168 -3.77039,3.12914 -48.00828,8.17962 -51.47541,5.87677 z"
       id="path5096"
       inkscape:connector-curvature="0" />
    <path
       style="opacity:1;fill:#e732dd;fill-opacity:1;stroke:#cf3bd2;stroke-width:0.94445181;stroke-miterlimit:4;stroke-dasharray:none;stroke-opacity:1"
       d="m 677.68711,756.0856 c -0.76424,-1.99159 1.63919,-12.24035 5.11517,-21.81224 2.6062,-7.17673 3.90727,-9.32199 8.35706,-13.77944 5.29733,-5.30644 9.62653,-7.40909 18.21681,-8.84772 3.16999,-0.53088 3.92893,-0.21327 7.61976,3.18882 4.49513,4.14346 7.95867,10.46693 10.90558,19.91057 3.13106,10.03374 3.42943,13.71933 1.28431,15.86445 -4.38554,4.38553 -50.05369,9.24116 -51.49869,5.47556 z"
       id="path5098"
       inkscape:connector-curvature="0" />
    <path
       style="opacity:1;fill:#e732dd;fill-opacity:1;stroke:#cf3bd2;stroke-width:0.94445181;stroke-miterlimit:4;stroke-dasharray:none;stroke-opacity:1"
       d="m 680.11919,756.78831 c -1.43005,-0.30398 -2.12502,-1.13751 -2.12502,-2.54872 0,-2.95005 2.4079,-12.13367 5.29891,-20.20979 4.26214,-11.90645 14.0421,-20.36614 25.05208,-21.67011 4.49827,-0.53275 4.86964,-0.39647 8.50922,3.12269 4.5082,4.35904 8.33694,11.53531 11.08762,20.78171 2.87825,9.67522 2.69623,13.18264 -0.77734,14.97889 -5.54039,2.86505 -40.35134,6.96827 -47.04547,5.54533 z"
       id="path5100"
       inkscape:connector-curvature="0" />
    <path
       style="opacity:1;fill:#e732dd;fill-opacity:1;stroke:#cf3bd2;stroke-width:0.94445181;stroke-miterlimit:4;stroke-dasharray:none;stroke-opacity:1"
       d="m 678.59043,755.72421 c -1.22444,-1.98118 3.42576,-18.58312 7.46858,-26.66404 4.15425,-8.30365 13.1922,-14.7848 22.90435,-16.42477 2.68361,-0.45315 3.68826,0.0102 7.35967,3.3944 5.02547,4.63231 10.03018,14.40957 12.22901,23.89074 1.80558,7.78554 1.07521,10.22276 -3.50828,11.70695 -9.72948,3.15053 -45.10973,6.27071 -46.45333,4.09672 z"
       id="path5102"
       inkscape:connector-curvature="0" />
    <path
       style="opacity:1;fill:#e732dd;fill-opacity:1;stroke:#cf3bd2;stroke-width:0.94445181;stroke-miterlimit:4;stroke-dasharray:none;stroke-opacity:1"
       d="m 679.91858,755.56545 c -1.18852,-0.75174 -1.20992,-1.70482 -0.15341,-6.83281 3.49877,-16.98194 10.54396,-27.8667 21.36807,-33.01348 8.00449,-3.80607 10.56455,-3.5847 15.24147,1.31795 5.074,5.31889 7.2657,9.16434 10.18779,17.875 3.0859,9.19896 3.17156,13.47702 0.30705,15.33516 -2.66561,1.72913 -15.68985,3.96576 -30.45857,5.23059 -13.81134,1.18284 -14.75288,1.18785 -16.4924,0.0876 z"
       id="path5104"
       inkscape:connector-curvature="0" />
    <path
       style="opacity:1;fill:#e732dd;fill-opacity:1;stroke:#cf3bd2;stroke-width:0.94445181;stroke-miterlimit:4;stroke-dasharray:none;stroke-opacity:1"
       d="m 680.89321,755.36299 c -2.17217,-0.80354 -2.19211,-0.41066 0.59079,-11.64511 3.39703,-13.71365 12.0139,-24.80783 22.24003,-28.63391 6.70696,-2.5094 8.35283,-1.98643 14.19367,4.50999 4.41383,4.90925 7.17411,10.85154 9.80763,21.11371 2.44674,9.5344 0.84539,10.50013 -22.10769,13.33247 -14.73272,1.81797 -22.29257,2.22245 -24.72443,1.32285 z"
       id="path5106"
       inkscape:connector-curvature="0" />
    <path
       style="opacity:1;fill:#e732dd;fill-opacity:1;stroke:#cf3bd2;stroke-width:0.94445181;stroke-miterlimit:4;stroke-dasharray:none;stroke-opacity:1"
       d="m 680.27806,754.24613 c -0.85022,-2.21563 2.13375,-13.65493 5.31859,-20.38927 3.42416,-7.24038 10.09614,-14.40479 16.28832,-17.49048 6.68863,-3.33309 8.50453,-3.09224 13.76174,1.82527 4.95357,4.63349 8.50291,11.08963 10.96933,19.95286 2.15363,7.73925 1.72239,9.92779 -2.34373,11.89439 -3.69852,1.78882 -19.68841,4.21172 -33.97318,5.14785 -8.24335,0.54022 -9.49801,0.42245 -10.02107,-0.94062 z"
       id="path5108"
       inkscape:connector-curvature="0" />
    <path
       style="opacity:1;fill:#e732dd;fill-opacity:1;stroke:#cf3bd2;stroke-width:0.94445181;stroke-miterlimit:4;stroke-dasharray:none;stroke-opacity:1"
       d="m 681.50984,754.94656 c -1.80976,-1.80975 1.09412,-14.43207 5.1579,-22.41988 4.39954,-8.64779 15.39744,-17.61458 21.60456,-17.61458 2.9243,0 4.13194,0.71445 7.7553,4.58811 8.08609,8.64469 13.73451,24.60112 10.21131,28.84631 -1.98512,2.39192 -13.52681,4.43547 -37.8818,6.70729 -3.39073,0.31629 -6.472,0.26803 -6.84727,-0.10725 z"
       id="path5110"
       inkscape:connector-curvature="0" />
    <path
       style="opacity:1;fill:#e732dd;fill-opacity:1;stroke:#cf3bd2;stroke-width:0.94445181;stroke-miterlimit:4;stroke-dasharray:none;stroke-opacity:1"
       d="m 681.58903,753.53054 c -0.82567,-2.2283 1.85687,-13.04341 4.74584,-19.13359 1.51069,-3.18467 4.82083,-7.86457 7.35586,-10.39978 5.1435,-5.14386 13.48594,-9.54243 16.36519,-8.62859 2.72894,0.86613 9.93158,9.25411 12.67677,14.76299 2.77813,5.57498 4.8986,14.15987 4.04618,16.38125 -0.8929,2.32686 -6.10693,4.11807 -16.55547,5.68742 -15.34296,2.30448 -28.05457,2.89503 -28.63437,1.3303 z"
       id="path5112"
       inkscape:connector-curvature="0" />
    <path
       style="opacity:1;fill:#e732dd;fill-opacity:1;stroke:#cf3bd2;stroke-width:0.94445181;stroke-miterlimit:4;stroke-dasharray:none;stroke-opacity:1"
       d="m 681.77198,751.45796 c 0,-4.756 4.70024,-17.31858 8.42674,-22.52257 4.14306,-5.78572 12.09515,-11.77147 16.89992,-12.72101 2.75742,-0.54494 3.5824,-0.17974 6.89725,3.05329 7.18115,7.00388 12.63609,18.4271 11.992,25.11248 -0.22411,2.32612 -0.97104,3.42301 -2.98511,4.38371 -4.35035,2.07509 -16.28217,3.93989 -29.18904,4.56189 l -12.04176,0.5803 0,-2.44809 z"
       id="path5114"
       inkscape:connector-curvature="0" />
    <path
       style="opacity:1;fill:#e732dd;fill-opacity:1;stroke:#cf3bd2;stroke-width:0.94445181;stroke-miterlimit:4;stroke-dasharray:none;stroke-opacity:1"
       d="m 681.78319,752.55593 c 0.0417,-4.76546 5.56337,-18.98668 9.54086,-24.57255 3.34834,-4.70231 12.84907,-11.18238 16.39501,-11.18238 6.77551,0 17.91212,16.80352 17.31633,26.12782 -0.36271,5.67649 -1.69294,6.43116 -14.61289,8.29016 -15.54112,2.23614 -28.65252,2.84822 -28.63931,1.33695 z"
       id="path5116"
       inkscape:connector-curvature="0" />
    <path
       style="opacity:1;fill:#e732dd;fill-opacity:1;stroke:#cf3bd2;stroke-width:0.94445181;stroke-miterlimit:4;stroke-dasharray:none;stroke-opacity:1"
       d="m 682.85921,748.74489 c 1.73251,-7.71082 6.78441,-18.19136 10.88079,-22.57301 5.47994,-5.86154 12.55729,-9.69478 15.69619,-8.50137 6.77385,2.57541 14.83612,15.81181 14.83612,24.35751 0,4.87133 -0.13544,5.14841 -3.12761,6.39862 -4.28163,1.78898 -22.70884,4.26353 -31.74919,4.26353 l -7.42274,0 0.88644,-3.94528 z"
       id="path5118"
       inkscape:connector-curvature="0" />
    <path
       style="opacity:1;fill:#e732dd;fill-opacity:1;stroke:#cf3bd2;stroke-width:0.94445181;stroke-miterlimit:4;stroke-dasharray:none;stroke-opacity:1"
       d="m 682.71643,751.3831 c 0,-2.75099 3.82453,-13.13751 6.69093,-18.17098 4.4065,-7.73793 13.79452,-15.46667 18.78722,-15.46667 2.83623,0 9.7168,7.31041 12.50022,13.28111 4.14814,8.89815 4.42403,14.97194 0.76893,16.92809 -2.30246,1.23224 -18.05062,3.56075 -29.53889,4.36759 -8.24902,0.57935 -9.20841,0.48151 -9.20841,-0.93914 z"
       id="path5120"
       inkscape:connector-curvature="0" />
    <path
       style="opacity:1;fill:#e732dd;fill-opacity:1;stroke:#cf3bd2;stroke-width:0.94445181;stroke-miterlimit:4;stroke-dasharray:none;stroke-opacity:1"
       d="m 683.24864,751.84278 c -0.69987,-1.13243 3.69778,-13.55785 6.56401,-18.54637 2.82055,-4.90901 10.8654,-12.42649 15.26587,-14.26512 3.18708,-1.33165 3.6086,-1.30466 5.88283,0.37669 9.85264,7.28409 15.90492,25.22127 9.53315,28.25344 -4.36399,2.07672 -36.32879,5.6652 -37.24586,4.18136 z"
       id="path5122"
       inkscape:connector-curvature="0" />
    <path
       style="opacity:1;fill:#e732dd;fill-opacity:1;stroke:#cf3bd2;stroke-width:0.94445181;stroke-miterlimit:4;stroke-dasharray:none;stroke-opacity:1"
       d="m 683.66088,750.43359 c 0,-4.18132 5.99006,-16.7878 10.20369,-21.47438 5.43084,-6.0404 11.12394,-10.26931 13.8249,-10.26931 2.86239,0 9.41657,7.0632 12.26943,13.22233 3.00304,6.48332 3.30728,13.62787 0.6411,15.05477 -2.67216,1.4301 -16.38484,3.63309 -27.28925,4.38412 -8.66109,0.59652 -9.64987,0.50251 -9.64987,-0.91753 z"
       id="path5124"
       inkscape:connector-curvature="0" />
    <path
       style="opacity:1;fill:#e732dd;fill-opacity:1;stroke:#cf3bd2;stroke-width:0.94445181;stroke-miterlimit:4;stroke-dasharray:none;stroke-opacity:1"
       d="m 684.21871,750.93977 c -1.55187,-2.51098 5.81549,-16.94605 11.97043,-23.454 6.27548,-6.63539 10.42174,-9.21624 12.77931,-7.95451 5.24433,2.80668 11.58559,12.63255 12.95455,20.07325 1.23685,6.72263 -1.36373,8.23231 -17.48418,10.14988 -15.173,1.80487 -19.67416,2.06875 -20.22011,1.18538 z"
       id="path5126"
       inkscape:connector-curvature="0" />
    <path
       style="opacity:1;fill:#e732dd;fill-opacity:1;stroke:#cf3bd2;stroke-width:0.94445181;stroke-miterlimit:4;stroke-dasharray:none;stroke-opacity:1"
       d="m 684.60534,749.03926 c 0,-0.96911 1.56666,-4.90039 3.48146,-8.73618 4.17286,-8.35918 15.55168,-20.66872 19.10597,-20.66872 4.90732,0 14.24387,14.42331 14.24544,22.00669 6.6e-4,3.1714 -0.36386,3.74223 -3.12687,4.89669 -3.66806,1.53262 -22.25378,4.26353 -29.01622,4.26353 -3.94757,0 -4.68978,-0.27886 -4.68978,-1.76201 z"
       id="path5128"
       inkscape:connector-curvature="0" />
    <path
       style="opacity:1;fill:#e732dd;fill-opacity:1;stroke:#cf3bd2;stroke-width:0.94445181;stroke-miterlimit:4;stroke-dasharray:none;stroke-opacity:1"
       d="m 685.66822,749.98758 c -1.05268,-0.69727 -0.63873,-2.23109 2.18848,-8.1091 2.53583,-5.27221 5.46655,-9.29387 10.74638,-14.74665 3.99282,-4.12361 7.8551,-7.49747 8.58285,-7.49747 3.8279,0 12.69539,13.43418 13.94327,21.12394 0.43813,2.69989 0.15096,3.48466 -1.70676,4.66405 -3.82581,2.42887 -31.35781,6.15254 -33.75422,4.56523 z"
       id="path5130"
       inkscape:connector-curvature="0" />
    <path
       style="opacity:1;fill:#e732dd;fill-opacity:1;stroke:#cf3bd2;stroke-width:0.94445181;stroke-miterlimit:4;stroke-dasharray:none;stroke-opacity:1"
       d="m 685.54979,748.59099 c 0,-3.7558 6.56792,-13.83269 13.90228,-21.3297 l 7.92344,-8.09916 4.05728,4.42168 c 7.04097,7.67336 11.0595,18.71699 7.79618,21.42531 -1.66875,1.38494 -22.08269,4.84769 -28.57855,4.84769 -3.63411,0 -5.10063,-0.36395 -5.10063,-1.26582 z"
       id="path5132"
       inkscape:connector-curvature="0" />
    <path
       style="opacity:1;fill:#e732dd;fill-opacity:1;stroke:#cf3bd2;stroke-width:0.94445181;stroke-miterlimit:4;stroke-dasharray:none;stroke-opacity:1"
       d="m 686.78565,749.15404 c -2.5696,-1.72872 5.73909,-14.60398 15.66968,-24.28196 l 4.80115,-4.67903 3.20916,3.11044 c 6.17603,5.98604 10.97546,17.34214 8.66482,20.50212 -1.89755,2.59506 -29.62289,7.17963 -32.34481,5.34843 z"
       id="path5134"
       inkscape:connector-curvature="0" />
    <path
       style="opacity:1;fill:#e732dd;fill-opacity:1;stroke:#cf3bd2;stroke-width:0.94445181;stroke-miterlimit:4;stroke-dasharray:none;stroke-opacity:1"
       d="m 686.50195,747.7318 c 0.0229,-3.50297 12.44695,-19.90734 18.72712,-24.72671 2.16894,-1.66443 2.26063,-1.64154 5.32633,1.32986 3.8223,3.70471 7.66765,10.61952 8.54897,15.37297 0.6292,3.39361 0.51418,3.6055 -2.68212,4.941 -7.95518,3.32388 -29.93666,5.58878 -29.9203,3.08288 z"
       id="path5136"
       inkscape:connector-curvature="0" />
    <path
       style="opacity:1;fill:#e732dd;fill-opacity:1;stroke:#cf3bd2;stroke-width:0.94445181;stroke-miterlimit:4;stroke-dasharray:none;stroke-opacity:1"
       d="m 688.63488,748.07225 -2.1094,-0.57657 2.73018,-4.72225 c 3.32419,-5.74968 13.56786,-17.99133 16.26104,-19.43268 1.66769,-0.89251 2.43443,-0.58551 5.1773,2.07298 3.84674,3.7284 7.9116,11.51265 7.9116,15.15077 0,3.28735 -1.45307,4.06749 -10.91095,5.85802 -9.47903,1.79453 -16.35317,2.38952 -19.05977,1.64973 z"
       id="path5138"
       inkscape:connector-curvature="0" />
    <path
       style="opacity:1;fill:#e732dd;fill-opacity:1;stroke:#cf3bd2;stroke-width:0.94445181;stroke-miterlimit:4;stroke-dasharray:none;stroke-opacity:1"
       d="m 687.43869,747.31016 c 0,-3.33151 16.68067,-23.898 19.38273,-23.898 2.17082,0 8.79521,8.4886 10.40379,13.33159 2.00385,6.033 1.29153,6.88554 -7.40583,8.86371 -8.52013,1.93786 -22.38069,2.99236 -22.38069,1.7027 z"
       id="path5140"
       inkscape:connector-curvature="0" />
    <path
       style="opacity:1;fill:#e732dd;fill-opacity:1;stroke:#cf3bd2;stroke-width:0.94445181;stroke-miterlimit:4;stroke-dasharray:none;stroke-opacity:1"
       d="m 688.838,746.99536 c -1.09212,-1.76709 4.40233,-9.56566 13.1176,-18.61854 l 4.76741,-4.95208 3.19227,3.06318 c 3.57314,3.42864 7.74587,10.9388 7.74587,13.94117 0,1.33724 -1.00698,2.38923 -3.14012,3.28052 -5.54951,2.31873 -24.76161,4.77663 -25.68303,3.28575 z"
       id="path5142"
       inkscape:connector-curvature="0" />
    <path
       style="opacity:1;fill:#e732dd;fill-opacity:1;stroke:#cf3bd2;stroke-width:0.94445181;stroke-miterlimit:4;stroke-dasharray:none;stroke-opacity:1"
       d="m 689.32759,745.84647 c 0,-1.98276 7.25787,-11.5384 12.94986,-17.04967 l 4.68072,-4.53211 3.0269,3.09599 c 1.6648,1.70279 4.13638,5.36367 5.4924,8.13528 2.22074,4.53903 2.32101,5.18377 1.01004,6.49474 -1.85294,1.85294 -10.44146,3.87894 -19.84041,4.68029 -6.21946,0.53026 -7.31951,0.40634 -7.31951,-0.82452 z"
       id="path5144"
       inkscape:connector-curvature="0" />
    <path
       style="opacity:1;fill:#e732dd;fill-opacity:1;stroke:#cf3bd2;stroke-width:0.94445181;stroke-miterlimit:4;stroke-dasharray:none;stroke-opacity:1"
       d="m 689.86114,746.17823 c -1.19145,-1.92781 15.44367,-21.34789 17.69226,-20.65422 1.64637,0.50789 9.1633,11.92184 9.1633,13.91385 0,0.92818 -0.59056,2.17772 -1.31235,2.77675 -2.59494,2.15361 -24.55576,5.56134 -25.54321,3.96362 z"
       id="path5146"
       inkscape:connector-curvature="0" />
    <path
       style="opacity:1;fill:#e732dd;fill-opacity:1;stroke:#cf3bd2;stroke-width:0.94445181;stroke-miterlimit:4;stroke-dasharray:none;stroke-opacity:1"
       d="m 690.27205,745.51646 c 0,-1.83888 12.63485,-17.00118 15.4007,-18.48141 2.25783,-1.20836 3.89429,0.24464 8.10223,7.19388 3.03886,5.01853 3.1173,5.36839 1.58372,7.06297 -2.3671,2.61562 -25.08665,6.44156 -25.08665,4.22456 z"
       id="path5148"
       inkscape:connector-curvature="0" />
    <path
       style="opacity:1;fill:#e732dd;fill-opacity:1;stroke:#cf3bd2;stroke-width:0.94445181;stroke-miterlimit:4;stroke-dasharray:none;stroke-opacity:1"
       d="m 691.2165,745.10454 c 0,-2.3983 13.59483,-17.91457 15.69614,-17.91457 1.41776,0 4.97171,4.19192 7.38258,8.70784 1.45833,2.73168 1.59654,3.70471 0.68262,4.80591 -2.27699,2.74361 -23.76134,6.7227 -23.76134,4.40082 z"
       id="path5150"
       inkscape:connector-curvature="0" />
    <path
       style="opacity:1;fill:#e732dd;fill-opacity:1;stroke:#cf3bd2;stroke-width:0.94445181;stroke-miterlimit:4;stroke-dasharray:none;stroke-opacity:1"
       d="m 694.03832,741.04181 c 1.61655,-2.25101 5.19499,-6.32053 7.95208,-9.04337 l 5.0129,-4.95063 3.47493,4.05967 c 4.30549,5.02999 5.25475,8.19604 2.96041,9.8737 -2.19095,1.60206 -13.52637,4.15337 -18.45335,4.15337 l -3.88616,0 2.93919,-4.09274 z"
       id="path5152"
       inkscape:connector-curvature="0" />
    <path
       style="opacity:1;fill:#e732dd;fill-opacity:1;stroke:#cf3bd2;stroke-width:0.94445181;stroke-miterlimit:4;stroke-dasharray:none;stroke-opacity:1"
       d="m 692.16095,744.26847 c 0,-1.04554 14.074,-16.13405 15.04924,-16.13405 1.27058,0 6.67315,8.31783 6.67315,10.27403 0,2.51942 -1.80427,3.40868 -10.60399,5.22631 -8.28252,1.7108 -11.1184,1.87244 -11.1184,0.63371 z"
       id="path5154"
       inkscape:connector-curvature="0" />
    <path
       style="opacity:1;fill:#e732dd;fill-opacity:1;stroke:#cf3bd2;stroke-width:0.94445181;stroke-miterlimit:4;stroke-dasharray:none;stroke-opacity:1"
       d="m 693.1054,744.08899 c 0,-1.84525 13.80614,-15.34448 14.96245,-14.62984 0.58895,0.36399 2.18358,2.56058 3.54362,4.88131 3.66757,6.25824 3.65205,6.26809 -16.38105,10.39258 -1.22133,0.25145 -2.12502,-0.0224 -2.12502,-0.64405 z"
       id="path5156"
       inkscape:connector-curvature="0" />
    <path
       style="opacity:1;fill:#e732dd;fill-opacity:1;stroke:#cf3bd2;stroke-width:0.94445181;stroke-miterlimit:4;stroke-dasharray:none;stroke-opacity:1"
       d="m 694.04985,743.55327 c 0,-0.35026 2.99228,-3.72279 6.64951,-7.4945 l 6.64951,-6.85767 2.79501,3.8584 c 4.52839,6.25125 3.89458,7.12485 -7.00275,9.65211 -6.97387,1.61735 -9.09128,1.81338 -9.09128,0.84166 z"
       id="path5158"
       inkscape:connector-curvature="0" />
    <path
       style="opacity:1;fill:#e732dd;fill-opacity:1;stroke:#cf3bd2;stroke-width:0.94445181;stroke-miterlimit:4;stroke-dasharray:none;stroke-opacity:1"
       d="m 695.00256,743.35983 c 0.005,-0.32252 2.71554,-3.56143 6.02444,-7.19757 l 6.01619,-6.61116 1.9959,2.36113 c 2.27843,2.69535 3.41428,6.04897 2.53216,7.47627 -0.93826,1.51813 -16.58696,5.26895 -16.56869,3.97133 z"
       id="path5160"
       inkscape:connector-curvature="0" />
    <path
       style="opacity:1;fill:#e732dd;fill-opacity:1;stroke:#cf3bd2;stroke-width:0.94445181;stroke-miterlimit:4;stroke-dasharray:none;stroke-opacity:1"
       d="m 696.60017,741.95352 c 0.41539,-0.71068 2.95656,-3.68715 5.64703,-6.61439 l 4.89176,-5.32226 1.80183,2.60047 c 4.1225,5.94976 3.60586,6.87247 -5.11052,9.1272 -7.15345,1.85043 -8.20736,1.88089 -7.2301,0.20898 z"
       id="path5162"
       inkscape:connector-curvature="0" />
    <path
       style="opacity:1;fill:#e732dd;fill-opacity:1;stroke:#cf3bd2;stroke-width:0.94445181;stroke-miterlimit:4;stroke-dasharray:none;stroke-opacity:1"
       d="m 696.88491,742.43692 c 9.4e-4,-0.33437 2.256,-3.12688 5.01124,-6.20557 l 5.00954,-5.59763 2.07215,2.91007 c 2.79111,3.91976 2.62645,4.84438 -1.14318,6.41944 -4.11867,1.72089 -10.95196,3.26462 -10.94975,2.47369 z"
       id="path5164"
       inkscape:connector-curvature="0" />
    <path
       style="opacity:1;fill:#e732dd;fill-opacity:1;stroke:#cf3bd2;stroke-width:0.16695707;stroke-miterlimit:4;stroke-dasharray:none;stroke-opacity:1"
       d="m 698.04726,741.48412 c 1.51605,-1.9603 8.60112,-9.97568 8.81784,-9.97568 0.0733,0 0.72553,0.84351 1.44951,1.87448 2.73345,3.89247 2.74572,4.56559 0.10619,5.82532 -2.33102,1.11249 -8.95195,2.98545 -10.5536,2.98545 -0.35206,0 -0.34393,-0.032 0.18006,-0.70957 z"
       id="path5166"
       inkscape:connector-curvature="0" />
    <path
       style="opacity:1;fill:#e732dd;fill-opacity:1;stroke:#cf3bd2;stroke-width:0.16695707;stroke-miterlimit:4;stroke-dasharray:none;stroke-opacity:1"
       d="m 697.79353,741.985 c 0.65477,-1.1414 8.75911,-10.3096 9.11328,-10.3096 0.21479,0 2.48804,3.36849 3.00219,4.44863 0.57653,1.21122 0.52056,1.71531 -0.25625,2.30781 -1.26295,0.9633 -6.14847,2.62206 -10.06546,3.41749 -1.99822,0.40578 -1.94647,0.40186 -1.79376,0.13567 z"
       id="path5168"
       inkscape:connector-curvature="0" />
    <path
       style="opacity:1;fill:#e732dd;fill-opacity:1;stroke:#cf3bd2;stroke-width:0.16695707;stroke-miterlimit:4;stroke-dasharray:none;stroke-opacity:1"
       d="m 698.16559,741.5676 c 0.86707,-1.21425 6.9672,-8.13922 8.17848,-9.28435 0.27772,-0.26256 0.58797,-0.42606 0.68944,-0.36335 0.25917,0.16017 2.13508,2.97527 2.7064,4.06136 0.65561,1.24633 0.62517,1.72368 -0.15071,2.36367 -0.75024,0.61885 -3.26658,1.62771 -6.0835,2.43901 -2.28315,0.65757 -4.78873,1.24279 -5.32092,1.24279 -0.34678,0 -0.34679,-3.6e-4 -0.0192,-0.45913 z"
       id="path5170"
       inkscape:connector-curvature="0" />
    <path
       style="opacity:1;fill:#e732dd;fill-opacity:1;stroke:#cf3bd2;stroke-width:0.16695707;stroke-miterlimit:4;stroke-dasharray:none;stroke-opacity:1"
       d="m 698.02742,741.89437 c 0,-0.42126 8.47972,-9.88506 8.85718,-9.88506 0.33785,0 2.70201,3.60274 3.0949,4.71631 0.22647,0.64189 0.2219,0.73368 -0.0558,1.12184 -0.65988,0.92222 -4.46781,2.43125 -8.80754,3.49031 -2.48048,0.60534 -3.08871,0.71494 -3.08871,0.5566 z"
       id="path5172"
       inkscape:connector-curvature="0" />
  </g>
  <g
     inkscape:groupmode="layer"
     id="layer12"
     inkscape:label="bordo"
     style="display:inline">
    <g
       style="display:inline"
       inkscape:label="bordo"
       id="layer9"
       transform="translate(1.0026851e-4,3.9980999e-4)">
      <g
         transform="matrix(0.98408585,0,0,0.97888478,-0.64744853,7.594777)"
         id="layer4"
         inkscape:label="bordo"
         style="display:inline;stroke-width:1;stroke-miterlimit:4;stroke-dasharray:none">
        <path
           style="color:#000000;clip-rule:nonzero;display:inline;overflow:visible;visibility:visible;opacity:1;isolation:auto;mix-blend-mode:normal;color-interpolation:sRGB;color-interpolation-filters:linearRGB;solid-color:#000000;solid-opacity:1;fill:none;fill-opacity:1;fill-rule:evenodd;stroke:#000000;stroke-width:1;stroke-linecap:butt;stroke-linejoin:miter;stroke-miterlimit:4;stroke-dasharray:none;stroke-dashoffset:0;stroke-opacity:1;color-rendering:auto;image-rendering:auto;shape-rendering:auto;text-rendering:auto;enable-background:accumulate"
           d="m 2.2796702,2.2791692 c 0,894.5596608 0,894.5596608 0,894.5596608 l 905.8926598,0 0,-894.5596608 z"
           id="path13590"
           inkscape:connector-curvature="0" />
      </g>
    </g>
  </g>
</svg>
