<?xml version="1.0" encoding="UTF-8" standalone="no"?>
<!-- Created with Inkscape (http://www.inkscape.org/) -->

<svg
   xmlns:dc="http://purl.org/dc/elements/1.1/"
   xmlns:cc="http://creativecommons.org/ns#"
   xmlns:rdf="http://www.w3.org/1999/02/22-rdf-syntax-ns#"
   xmlns:svg="http://www.w3.org/2000/svg"
   xmlns="http://www.w3.org/2000/svg"
   xmlns:sodipodi="http://sodipodi.sourceforge.net/DTD/sodipodi-0.dtd"
   xmlns:inkscape="http://www.inkscape.org/namespaces/inkscape"
   id="svg18115"
   version="1.1"
   inkscape:version="0.91 r13725"
   width="900"
   height="891.5625"
   viewBox="0 0 900 891.5625"
   sodipodi:docname="livingroom.svg">
  
  <g
     inkscape:groupmode="layer"
     id="layer8"
     inkscape:label="pavimento"
     style="display:inline">
    <rect
       style="opacity:1;fill:none;fill-opacity:1;stroke:#d23b5e;stroke-width:1.03487122;stroke-linecap:butt;stroke-miterlimit:4;stroke-dasharray:none;stroke-opacity:1"
       id="rect17502"
       width="184.04597"
       height="246.71997"
       x="322.54337"
       y="177.01141"
       ry="0" />
    <path
       style="opacity:1;fill:#271022;fill-opacity:1;stroke:#331730;stroke-width:1;stroke-miterlimit:4;stroke-dasharray:none;stroke-opacity:1"
       d="m 323.4966,300.04525 0,-122.30651 91.13959,0 91.1396,0 0,122.30651 0,122.30651 -91.1396,0 -91.13959,0 0,-122.30651 z"
       id="path4848"
       inkscape:connector-curvature="0" />
    <path
       style="opacity:1;fill:#271022;fill-opacity:1;stroke:#331730;stroke-width:0.94445181;stroke-miterlimit:4;stroke-dasharray:none;stroke-opacity:1"
       d="m 323.4966,300.04525 0,-122.30651 91.13959,0 91.1396,0 0,122.30651 0,122.30651 -91.1396,0 -91.13959,0 0,-122.30651 z"
       id="path4850"
       inkscape:connector-curvature="0" />
    <path
       style="opacity:1;fill:#271022;fill-opacity:1;stroke:#331730;stroke-width:0.94445181;stroke-miterlimit:4;stroke-dasharray:none;stroke-opacity:1"
       d="m 323.4966,300.04525 0,-122.30651 91.13959,0 91.1396,0 0,122.30651 0,122.30651 -91.1396,0 -91.13959,0 0,-122.30651 z"
       id="path4852"
       inkscape:connector-curvature="0" />
    <path
       style="opacity:1;fill:#271022;fill-opacity:1;stroke:#331730;stroke-width:0.94445181;stroke-miterlimit:4;stroke-dasharray:none;stroke-opacity:1"
       d="m 323.4966,300.04525 0,-122.30651 91.13959,0 91.1396,0 0,122.30651 0,122.30651 -91.1396,0 -91.13959,0 0,-122.30651 z"
       id="path4854"
       inkscape:connector-curvature="0" />
    <path
       style="opacity:1;fill:#271022;fill-opacity:1;stroke:#331730;stroke-width:0.94445181;stroke-miterlimit:4;stroke-dasharray:none;stroke-opacity:1"
       d="m 323.4966,300.04525 0,-122.30651 91.13959,0 91.1396,0 0,122.30651 0,122.30651 -91.1396,0 -91.13959,0 0,-122.30651 z"
       id="path4856"
       inkscape:connector-curvature="0" />
    <path
       style="opacity:1;fill:#271022;fill-opacity:1;stroke:#331730;stroke-width:0.94445181;stroke-miterlimit:4;stroke-dasharray:none;stroke-opacity:1"
       d="m 323.4966,300.04525 0,-122.30651 91.13959,0 91.1396,0 0,122.30651 0,122.30651 -91.1396,0 -91.13959,0 0,-122.30651 z"
       id="path4858"
       inkscape:connector-curvature="0" />
    <path
       style="opacity:1;fill:#271022;fill-opacity:1;stroke:#331730;stroke-width:0.94445181;stroke-miterlimit:4;stroke-dasharray:none;stroke-opacity:1"
       d="m 323.4966,300.04525 0,-122.30651 91.13959,0 91.1396,0 0,122.30651 0,122.30651 -91.1396,0 -91.13959,0 0,-122.30651 z"
       id="path4860"
       inkscape:connector-curvature="0" />
    <path
       style="opacity:1;fill:#271022;fill-opacity:1;stroke:#331730;stroke-width:0.94445181;stroke-miterlimit:4;stroke-dasharray:none;stroke-opacity:1"
       d="m 323.4966,300.04525 0,-122.30651 91.13959,0 91.1396,0 0,122.30651 0,122.30651 -91.1396,0 -91.13959,0 0,-122.30651 z"
       id="path4862"
       inkscape:connector-curvature="0" />
    <path
       style="opacity:1;fill:#271022;fill-opacity:1;stroke:#331730;stroke-width:0.94445181;stroke-miterlimit:4;stroke-dasharray:none;stroke-opacity:1"
       d="m 323.4966,300.04525 0,-122.30651 91.13959,0 91.1396,0 0,122.30651 0,122.30651 -91.1396,0 -91.13959,0 0,-122.30651 z"
       id="path4864"
       inkscape:connector-curvature="0" />
    <path
       style="opacity:1;fill:#271022;fill-opacity:1;stroke:#331730;stroke-width:0.94445181;stroke-miterlimit:4;stroke-dasharray:none;stroke-opacity:1"
       d="m 323.4966,300.04525 0,-122.30651 91.13959,0 91.1396,0 0,122.30651 0,122.30651 -91.1396,0 -91.13959,0 0,-122.30651 z"
       id="path4866"
       inkscape:connector-curvature="0" />
    <path
       style="opacity:1;fill:#271022;fill-opacity:1;stroke:#331730;stroke-width:0.94445181;stroke-miterlimit:4;stroke-dasharray:none;stroke-opacity:1"
       d="m 323.4966,300.04525 0,-122.30651 91.13959,0 91.1396,0 0,122.30651 0,122.30651 -91.1396,0 -91.13959,0 0,-122.30651 z"
       id="path4868"
       inkscape:connector-curvature="0" />
    <path
       style="opacity:1;fill:#271022;fill-opacity:1;stroke:#331730;stroke-width:0.94445181;stroke-miterlimit:4;stroke-dasharray:none;stroke-opacity:1"
       d="m 323.4966,300.04525 0,-122.30651 91.13959,0 91.1396,0 0,122.30651 0,122.30651 -91.1396,0 -91.13959,0 0,-122.30651 z"
       id="path4870"
       inkscape:connector-curvature="0" />
    <path
       style="opacity:1;fill:#271022;fill-opacity:1;stroke:#331730;stroke-width:0.94445181;stroke-miterlimit:4;stroke-dasharray:none;stroke-opacity:1"
       d="m 323.4966,300.04525 0,-122.30651 91.13959,0 91.1396,0 0,122.30651 0,122.30651 -91.1396,0 -91.13959,0 0,-122.30651 z"
       id="path4872"
       inkscape:connector-curvature="0" />
    <path
       style="opacity:1;fill:#271022;fill-opacity:1;stroke:#ef4ede;stroke-width:0.94445181;stroke-miterlimit:4;stroke-dasharray:none;stroke-opacity:1"
       d="m 323.4966,300.04525 0,-122.30651 91.13959,0 91.1396,0 0,122.30651 0,122.30651 -91.1396,0 -91.13959,0 0,-122.30651 z"
       id="path4874"
       inkscape:connector-curvature="0" />
    <path
       style="opacity:1;fill:#271022;fill-opacity:1;stroke:#ef4ede;stroke-width:0.94445181;stroke-miterlimit:4;stroke-dasharray:none;stroke-opacity:1"
       d="m 324.44105,300.04525 0,-121.36205 90.19514,0 90.19515,0 0,121.36205 0,121.36206 -90.19515,0 -90.19514,0 0,-121.36206 z"
       id="path4876"
       inkscape:connector-curvature="0" />
    <path
       style="opacity:1;fill:#271022;fill-opacity:1;stroke:#ef4ede;stroke-width:0.94445181;stroke-miterlimit:4;stroke-dasharray:none;stroke-opacity:1"
       d="m 325.3855,300.04525 0,-120.4176 89.25069,0 89.2507,0 0,120.4176 0,120.41761 -89.2507,0 -89.25069,0 0,-120.41761 z"
       id="path4878"
       inkscape:connector-curvature="0" />
    <path
       style="opacity:1;fill:#271022;fill-opacity:1;stroke:#ef4ede;stroke-width:0.94445181;stroke-miterlimit:4;stroke-dasharray:none;stroke-opacity:1"
       d="m 326.32995,300.04525 0,-119.47315 88.30624,0 88.30625,0 0,119.47315 0,119.47315 -88.30625,0 -88.30624,0 0,-119.47315 z"
       id="path4880"
       inkscape:connector-curvature="0" />
    <path
       style="opacity:1;fill:#271022;fill-opacity:1;stroke:#ef4ede;stroke-width:0.94445181;stroke-miterlimit:4;stroke-dasharray:none;stroke-opacity:1"
       d="m 327.2744,300.04525 0,-118.5287 87.36179,0 87.3618,0 0,118.5287 0,118.5287 -87.3618,0 -87.36179,0 0,-118.5287 z"
       id="path4882"
       inkscape:connector-curvature="0" />
    <path
       style="opacity:1;fill:#271022;fill-opacity:1;stroke:#ef4ede;stroke-width:0.94445181;stroke-miterlimit:4;stroke-dasharray:none;stroke-opacity:1"
       d="m 328.21885,300.04525 0,-117.58425 86.41734,0 86.41734,0 0,117.58425 0,117.58425 -86.41734,0 -86.41734,0 0,-117.58425 z"
       id="path4884"
       inkscape:connector-curvature="0" />
    <path
       style="opacity:1;fill:#271022;fill-opacity:1;stroke:#ef4ede;stroke-width:0.94445181;stroke-miterlimit:4;stroke-dasharray:none;stroke-opacity:1"
       d="m 329.16331,300.04525 0,-116.6398 85.47288,0 85.47289,0 0,116.6398 0,116.6398 -85.47289,0 -85.47288,0 0,-116.6398 z"
       id="path4886"
       inkscape:connector-curvature="0" />
    <path
       style="opacity:1;fill:#271022;fill-opacity:1;stroke:#ef4ede;stroke-width:0.94445181;stroke-miterlimit:4;stroke-dasharray:none;stroke-opacity:1"
       d="m 330.10776,300.04525 0,-115.69534 84.52843,0 84.52844,0 0,115.69534 0,115.69535 -84.52844,0 -84.52843,0 0,-115.69535 z"
       id="path4888"
       inkscape:connector-curvature="0" />
    <path
       style="opacity:1;fill:#271022;fill-opacity:1;stroke:#ef4ede;stroke-width:0.94445181;stroke-miterlimit:4;stroke-dasharray:none;stroke-opacity:1"
       d="m 331.05221,300.04525 0,-114.75089 83.58398,0 83.58399,0 0,114.75089 0,114.7509 -83.58399,0 -83.58398,0 0,-114.7509 z"
       id="path4890"
       inkscape:connector-curvature="0" />
    <path
       style="opacity:1;fill:#271022;fill-opacity:1;stroke:#ef4ede;stroke-width:0.94445181;stroke-miterlimit:4;stroke-dasharray:none;stroke-opacity:1"
       d="m 331.99666,300.04525 0,-113.80644 82.63953,0 82.63954,0 0,113.80644 0,113.80644 -82.63954,0 -82.63953,0 0,-113.80644 z"
       id="path4892"
       inkscape:connector-curvature="0" />
    <path
       style="opacity:1;fill:#271022;fill-opacity:1;stroke:#ef4ede;stroke-width:0.94445181;stroke-miterlimit:4;stroke-dasharray:none;stroke-opacity:1"
       d="m 332.94111,300.04525 0,-112.86199 81.69508,0 81.69509,0 0,112.86199 0,112.86199 -81.69509,0 -81.69508,0 0,-112.86199 z"
       id="path4894"
       inkscape:connector-curvature="0" />
    <path
       style="opacity:1;fill:#271022;fill-opacity:1;stroke:#ef4ede;stroke-width:1.88890362;stroke-miterlimit:4;stroke-dasharray:none;stroke-opacity:1"
       d="m 334.05869,300.08812 0,-111.44531 80.27841,0 80.2784,0 0,111.44531 0,111.44531 -80.2784,0 -80.27841,0 0,-111.44531 z"
       id="path4896"
       inkscape:connector-curvature="0" />
    <path
       style="opacity:1;fill:#271022;fill-opacity:1;stroke:#ef4ede;stroke-width:1.88890362;stroke-miterlimit:4;stroke-dasharray:none;stroke-opacity:1"
       d="m 335.9476,300.08812 0,-109.55641 78.3895,0 78.3895,0 0,109.55641 0,109.55641 -78.3895,0 -78.3895,0 0,-109.55641 z"
       id="path4898"
       inkscape:connector-curvature="0" />
    <path
       style="opacity:1;fill:#271022;fill-opacity:1;stroke:#ef4ede;stroke-width:1.88890362;stroke-miterlimit:4;stroke-dasharray:none;stroke-opacity:1"
       d="m 337.8365,300.08812 0,-107.66751 76.5006,0 76.50059,0 0,107.66751 0,107.6675 -76.50059,0 -76.5006,0 0,-107.6675 z"
       id="path4900"
       inkscape:connector-curvature="0" />
    <path
       style="opacity:1;fill:#271022;fill-opacity:1;stroke:#ef4ede;stroke-width:1.88890362;stroke-miterlimit:4;stroke-dasharray:none;stroke-opacity:1"
       d="m 339.7254,300.08812 0,-105.7786 74.6117,0 74.61169,0 0,105.7786 0,105.7786 -74.61169,0 -74.6117,0 0,-105.7786 z"
       id="path4902"
       inkscape:connector-curvature="0" />
    <path
       style="opacity:1;fill:#271022;fill-opacity:1;stroke:#ef4ede;stroke-width:1.88890362;stroke-miterlimit:4;stroke-dasharray:none;stroke-opacity:1"
       d="m 341.61431,300.08812 0,-103.8897 72.72279,0 72.72278,0 0,103.8897 0,103.8897 -72.72278,0 -72.72279,0 0,-103.8897 z"
       id="path4904"
       inkscape:connector-curvature="0" />
    <path
       style="opacity:1;fill:#271022;fill-opacity:1;stroke:#ef4ede;stroke-width:1.88890362;stroke-miterlimit:4;stroke-dasharray:none;stroke-opacity:1"
       d="m 343.50321,300.08812 0,-102.0008 70.83389,0 70.83388,0 0,102.0008 0,102.00079 -70.83388,0 -70.83389,0 0,-102.00079 z"
       id="path4906"
       inkscape:connector-curvature="0" />
    <path
       style="opacity:1;fill:#271022;fill-opacity:1;stroke:#ef4ede;stroke-width:1.88890362;stroke-miterlimit:4;stroke-dasharray:none;stroke-opacity:1"
       d="m 345.39211,300.08812 0,-100.11189 68.94499,0 68.94498,0 0,100.11189 0,100.11189 -68.94498,0 -68.94499,0 0,-100.11189 z"
       id="path4908"
       inkscape:connector-curvature="0" />
    <path
       style="opacity:1;fill:#271022;fill-opacity:1;stroke:#ef4ede;stroke-width:1.88890362;stroke-miterlimit:4;stroke-dasharray:none;stroke-opacity:1"
       d="m 347.28102,300.08812 0,-98.22299 67.05608,0 67.05607,0 0,98.22299 0,98.22298 -67.05607,0 -67.05608,0 0,-98.22298 z"
       id="path4910"
       inkscape:connector-curvature="0" />
    <path
       style="opacity:1;fill:#271022;fill-opacity:1;stroke:#ef4ede;stroke-width:1.88890362;stroke-miterlimit:4;stroke-dasharray:none;stroke-opacity:1"
       d="m 349.16992,300.08812 0,-96.33409 65.16718,0 65.16717,0 0,96.33409 0,96.33408 -65.16717,0 -65.16718,0 0,-96.33408 z"
       id="path4912"
       inkscape:connector-curvature="0" />
    <path
       style="opacity:1;fill:#271022;fill-opacity:1;stroke:#ef4ede;stroke-width:1.88890362;stroke-miterlimit:4;stroke-dasharray:none;stroke-opacity:1"
       d="m 351.05883,300.08812 0,-94.44518 63.27827,0 63.27827,0 0,94.44518 0,94.44518 -63.27827,0 -63.27827,0 0,-94.44518 z"
       id="path4914"
       inkscape:connector-curvature="0" />
    <path
       style="opacity:1;fill:#271022;fill-opacity:1;stroke:#ef4ede;stroke-width:1.88890362;stroke-miterlimit:4;stroke-dasharray:none;stroke-opacity:1"
       d="m 352.94773,300.08812 0,-92.55628 61.38937,0 61.38936,0 0,92.55628 0,92.55627 -61.38936,0 -61.38937,0 0,-92.55627 z"
       id="path4916"
       inkscape:connector-curvature="0" />
    <path
       style="opacity:1;fill:#271022;fill-opacity:1;stroke:#ef4ede;stroke-width:1.88890362;stroke-miterlimit:4;stroke-dasharray:none;stroke-opacity:1"
       d="m 354.83663,300.08812 0,-90.66738 59.50047,0 59.50046,0 0,90.66738 0,90.66737 -59.50046,0 -59.50047,0 0,-90.66737 z"
       id="path4918"
       inkscape:connector-curvature="0" />
    <path
       style="opacity:1;fill:#271022;fill-opacity:1;stroke:#ef4ede;stroke-width:1.88890362;stroke-miterlimit:4;stroke-dasharray:none;stroke-opacity:1"
       d="m 356.72554,300.08812 0,-88.77847 57.61156,0 57.61156,0 0,88.77847 0,88.77847 -57.61156,0 -57.61156,0 0,-88.77847 z"
       id="path4920"
       inkscape:connector-curvature="0" />
    <path
       style="opacity:1;fill:#271022;fill-opacity:1;stroke:#ef4ede;stroke-width:1.88890362;stroke-miterlimit:4;stroke-dasharray:none;stroke-opacity:1"
       d="m 358.61444,300.08812 0,-86.88957 55.72266,0 55.72265,0 0,86.88957 0,86.88956 -55.72265,0 -55.72266,0 0,-86.88956 z"
       id="path4922"
       inkscape:connector-curvature="0" />
    <path
       style="opacity:1;fill:#271022;fill-opacity:1;stroke:#ef4ede;stroke-width:1.88890362;stroke-miterlimit:4;stroke-dasharray:none;stroke-opacity:1"
       d="m 360.50334,300.08812 0,-85.00066 53.83376,0 53.83375,0 0,85.00066 0,85.00066 -53.83375,0 -53.83376,0 0,-85.00066 z"
       id="path4924"
       inkscape:connector-curvature="0" />
    <path
       style="opacity:1;fill:#271022;fill-opacity:1;stroke:#ef4ede;stroke-width:1.88890362;stroke-miterlimit:4;stroke-dasharray:none;stroke-opacity:1"
       d="m 362.39225,300.08812 0,-83.11176 51.94485,0 51.94485,0 0,83.11176 0,83.11176 -51.94485,0 -51.94485,0 0,-83.11176 z"
       id="path4926"
       inkscape:connector-curvature="0" />
    <path
       style="opacity:1;fill:#271022;fill-opacity:1;stroke:#ef4ede;stroke-width:1.88890362;stroke-miterlimit:4;stroke-dasharray:none;stroke-opacity:1"
       d="m 364.28115,300.08812 0,-81.22286 50.05595,0 50.05594,0 0,81.22286 0,81.22285 -50.05594,0 -50.05595,0 0,-81.22285 z"
       id="path4928"
       inkscape:connector-curvature="0" />
    <path
       style="opacity:1;fill:#271022;fill-opacity:1;stroke:#ef4ede;stroke-width:1.88890362;stroke-miterlimit:4;stroke-dasharray:none;stroke-opacity:1"
       d="m 366.17005,300.08812 0,-79.33395 48.16705,0 48.16704,0 0,79.33395 0,79.33395 -48.16704,0 -48.16705,0 0,-79.33395 z"
       id="path4930"
       inkscape:connector-curvature="0" />
    <path
       style="opacity:1;fill:#271022;fill-opacity:1;stroke:#ef4ede;stroke-width:1.88890362;stroke-miterlimit:4;stroke-dasharray:none;stroke-opacity:1"
       d="m 368.05896,300.08812 0,-77.44505 46.27814,0 46.27813,0 0,77.44505 0,77.44505 -46.27813,0 -46.27814,0 0,-77.44505 z"
       id="path4932"
       inkscape:connector-curvature="0" />
    <path
       style="opacity:1;fill:#271022;fill-opacity:1;stroke:#ef4ede;stroke-width:1.88890362;stroke-miterlimit:4;stroke-dasharray:none;stroke-opacity:1"
       d="m 369.94786,300.08812 0,-75.55615 44.38924,0 44.38923,0 0,75.55615 0,75.55614 -44.38923,0 -44.38924,0 0,-75.55614 z"
       id="path4934"
       inkscape:connector-curvature="0" />
    <path
       style="opacity:1;fill:#271022;fill-opacity:1;stroke:#ef4ede;stroke-width:1.88890362;stroke-miterlimit:4;stroke-dasharray:none;stroke-opacity:1"
       d="m 371.83677,300.08812 0,-73.66724 42.50033,0 42.50033,0 0,73.66724 0,73.66724 -42.50033,0 -42.50033,0 0,-73.66724 z"
       id="path4936"
       inkscape:connector-curvature="0" />
    <path
       style="opacity:1;fill:#271022;fill-opacity:1;stroke:#ef4ede;stroke-width:1.88890362;stroke-miterlimit:4;stroke-dasharray:none;stroke-opacity:1"
       d="m 373.72567,300.08812 0,-71.77834 40.61143,0 40.61142,0 0,71.77834 0,71.77833 -40.61142,0 -40.61143,0 0,-71.77833 z"
       id="path4938"
       inkscape:connector-curvature="0" />
    <path
       style="opacity:1;fill:#271022;fill-opacity:1;stroke:#ef4ede;stroke-width:1.88890362;stroke-miterlimit:4;stroke-dasharray:none;stroke-opacity:1"
       d="m 375.61457,300.08812 0,-69.88944 38.72253,0 38.72252,0 0,69.88944 0,69.88943 -38.72252,0 -38.72253,0 0,-69.88943 z"
       id="path4940"
       inkscape:connector-curvature="0" />
    <path
       style="opacity:1;fill:#271022;fill-opacity:1;stroke:#ef4ede;stroke-width:1.88890362;stroke-miterlimit:4;stroke-dasharray:none;stroke-opacity:1"
       d="m 377.50348,300.08812 0,-68.00053 36.83362,0 36.83362,0 0,68.00053 0,68.00053 -36.83362,0 -36.83362,0 0,-68.00053 z"
       id="path4942"
       inkscape:connector-curvature="0" />
    <path
       style="opacity:1;fill:#271022;fill-opacity:1;stroke:#ef4ede;stroke-width:1.88890362;stroke-miterlimit:4;stroke-dasharray:none;stroke-opacity:1"
       d="m 379.39238,300.08812 0,-66.11163 34.94472,0 34.94471,0 0,66.11163 0,66.11162 -34.94471,0 -34.94472,0 0,-66.11162 z"
       id="path4944"
       inkscape:connector-curvature="0" />
    <path
       style="opacity:1;fill:#271022;fill-opacity:1;stroke:#ef4ede;stroke-width:1.88890362;stroke-miterlimit:4;stroke-dasharray:none;stroke-opacity:1"
       d="m 381.28128,300.08812 0,-64.22272 33.05582,0 33.05581,0 0,64.22272 0,64.22272 -33.05581,0 -33.05582,0 0,-64.22272 z"
       id="path4946"
       inkscape:connector-curvature="0" />
    <path
       style="opacity:1;fill:#271022;fill-opacity:1;stroke:#ef4ede;stroke-width:1.88890362;stroke-miterlimit:4;stroke-dasharray:none;stroke-opacity:1"
       d="m 383.17019,300.08812 0,-62.33382 31.16691,0 31.16691,0 0,62.33382 0,62.33382 -31.16691,0 -31.16691,0 0,-62.33382 z"
       id="path4948"
       inkscape:connector-curvature="0" />
    <path
       style="opacity:1;fill:#271022;fill-opacity:1;stroke:#800080;stroke-width:1.88890362;stroke-miterlimit:4;stroke-dasharray:none;stroke-opacity:1"
       d="m 385.05909,300.08812 0,-60.44492 29.27801,0 29.278,0 0,60.44492 0,60.44491 -29.278,0 -29.27801,0 0,-60.44491 z"
       id="path4950"
       inkscape:connector-curvature="0" />
    <path
       style="opacity:1;fill:#e91fe4;fill-opacity:1;stroke:#ee33ed;stroke-width:1;stroke-miterlimit:4;stroke-dasharray:none;stroke-opacity:1"
       d="m 386.948,300.08811 0,-58.55601 27.3891,0 27.3891,0 0,58.55601 0,58.55601 -27.3891,0 -27.3891,0 0,-58.55601 z"
       id="path4198"
       inkscape:connector-curvature="0" />
    <path
       style="opacity:1;fill:#e91fe4;fill-opacity:1;stroke:#ee33ed;stroke-width:1.88890362;stroke-miterlimit:4;stroke-dasharray:none;stroke-opacity:1"
       d="m 386.948,300.08811 0,-58.55601 27.3891,0 27.3891,0 0,58.55601 0,58.55601 -27.3891,0 -27.3891,0 0,-58.55601 z"
       id="path4200"
       inkscape:connector-curvature="0" />
    <path
       style="opacity:1;fill:#e91fe4;fill-opacity:1;stroke:#ee33ed;stroke-width:1.88890362;stroke-miterlimit:4;stroke-dasharray:none;stroke-opacity:1"
       d="m 386.948,300.08811 0,-58.55601 27.3891,0 27.3891,0 0,58.55601 0,58.55601 -27.3891,0 -27.3891,0 0,-58.55601 z"
       id="path4202"
       inkscape:connector-curvature="0" />
    <path
       style="opacity:1;fill:#e91fe4;fill-opacity:1;stroke:#ee33ed;stroke-width:1.88890362;stroke-miterlimit:4;stroke-dasharray:none;stroke-opacity:1"
       d="m 386.948,300.08811 0,-58.55601 27.3891,0 27.3891,0 0,58.55601 0,58.55601 -27.3891,0 -27.3891,0 0,-58.55601 z"
       id="path4204"
       inkscape:connector-curvature="0" />
    <path
       style="opacity:1;fill:#e91fe4;fill-opacity:1;stroke:#ee33ed;stroke-width:0.94445181;stroke-miterlimit:4;stroke-dasharray:none;stroke-opacity:1"
       d="m 387.98139,300.04672 0,-57.61156 26.44465,0 26.44465,0 0,57.61156 0,57.61156 -26.44465,0 -26.44465,0 0,-57.61156 z"
       id="path4206"
       inkscape:connector-curvature="0" />
    <path
       style="opacity:1;fill:#e91fe4;fill-opacity:1;stroke:#ee33ed;stroke-width:0.94445181;stroke-miterlimit:4;stroke-dasharray:none;stroke-opacity:1"
       d="m 387.98139,300.04672 0,-57.61156 26.44465,0 26.44465,0 0,57.61156 0,57.61156 -26.44465,0 -26.44465,0 0,-57.61156 z"
       id="path4208"
       inkscape:connector-curvature="0" />
    <path
       style="opacity:1;fill:#e91fe4;fill-opacity:1;stroke:#ee33ed;stroke-width:0.94445181;stroke-miterlimit:4;stroke-dasharray:none;stroke-opacity:1"
       d="m 387.98139,300.04672 0,-57.61156 26.44465,0 26.44465,0 0,57.61156 0,57.61156 -26.44465,0 -26.44465,0 0,-57.61156 z"
       id="path4210"
       inkscape:connector-curvature="0" />
    <path
       style="opacity:1;fill:#e91fe4;fill-opacity:1;stroke:#ee33ed;stroke-width:0.94445181;stroke-miterlimit:4;stroke-dasharray:none;stroke-opacity:1"
       d="m 387.98139,300.04672 0,-57.61156 26.44465,0 26.44465,0 0,57.61156 0,57.61156 -26.44465,0 -26.44465,0 0,-57.61156 z"
       id="path4212"
       inkscape:connector-curvature="0" />
    <path
       style="opacity:1;fill:#e91fe4;fill-opacity:1;stroke:#ee33ed;stroke-width:0.94445181;stroke-miterlimit:4;stroke-dasharray:none;stroke-opacity:1"
       d="m 387.98139,300.04672 0,-57.61156 26.44465,0 26.44465,0 0,57.61156 0,57.61156 -26.44465,0 -26.44465,0 0,-57.61156 z"
       id="path4214"
       inkscape:connector-curvature="0" />
    <path
       style="opacity:1;fill:#ac14a8;fill-opacity:1;stroke:#ee33ed;stroke-width:0.94445181;stroke-miterlimit:4;stroke-dasharray:none;stroke-opacity:1"
       d="m 387.98139,300.04672 0,-57.61156 26.44465,0 26.44465,0 0,57.61156 0,57.61156 -26.44465,0 -26.44465,0 0,-57.61156 z"
       id="path4216"
       inkscape:connector-curvature="0" />
    <path
       style="opacity:1;fill:#ac14a8;fill-opacity:1;stroke:#ee33ed;stroke-width:0.94445181;stroke-miterlimit:4;stroke-dasharray:none;stroke-opacity:1"
       d="m 388.92584,300.04672 0,-56.66711 25.5002,0 25.5002,0 0,56.66711 0,56.6671 -25.5002,0 -25.5002,0 0,-56.6671 z"
       id="path4218"
       inkscape:connector-curvature="0" />
    <path
       style="opacity:1;fill:#ac14a8;fill-opacity:1;stroke:#ee33ed;stroke-width:0.94445181;stroke-miterlimit:4;stroke-dasharray:none;stroke-opacity:1"
       d="m 389.8703,300.04672 0,-55.72266 24.55574,0 24.55575,0 0,55.72266 0,55.72265 -24.55575,0 -24.55574,0 0,-55.72265 z"
       id="path4220"
       inkscape:connector-curvature="0" />
    <path
       style="opacity:1;fill:#ac14a8;fill-opacity:1;stroke:#ee33ed;stroke-width:0.94445181;stroke-miterlimit:4;stroke-dasharray:none;stroke-opacity:1"
       d="m 390.81475,300.04672 0,-54.77821 23.61129,0 23.6113,0 0,54.77821 0,54.7782 -23.6113,0 -23.61129,0 0,-54.7782 z"
       id="path4222"
       inkscape:connector-curvature="0" />
    <path
       style="opacity:1;fill:#ac14a8;fill-opacity:1;stroke:#ee33ed;stroke-width:0.94445181;stroke-miterlimit:4;stroke-dasharray:none;stroke-opacity:1"
       d="m 391.7592,300.04672 0,-53.83376 22.66684,0 22.66685,0 0,53.83376 0,53.83375 -22.66685,0 -22.66684,0 0,-53.83375 z"
       id="path4224"
       inkscape:connector-curvature="0" />
    <path
       style="opacity:1;fill:#ac14a8;fill-opacity:1;stroke:#ee33ed;stroke-width:0.94445181;stroke-miterlimit:4;stroke-dasharray:none;stroke-opacity:1"
       d="m 392.70365,300.04672 0,-52.8893 21.72239,0 21.72239,0 0,52.8893 0,52.8893 -21.72239,0 -21.72239,0 0,-52.8893 z"
       id="path4226"
       inkscape:connector-curvature="0" />
    <path
       style="opacity:1;fill:#ac14a8;fill-opacity:1;stroke:#ee33ed;stroke-width:0.94445181;stroke-miterlimit:4;stroke-dasharray:none;stroke-opacity:1"
       d="m 393.6481,300.04672 0,-51.94485 20.77794,0 20.77794,0 0,51.94485 0,51.94485 -20.77794,0 -20.77794,0 0,-51.94485 z"
       id="path4228"
       inkscape:connector-curvature="0" />
    <path
       style="opacity:1;fill:#ac14a8;fill-opacity:1;stroke:#ee33ed;stroke-width:0.94445181;stroke-miterlimit:4;stroke-dasharray:none;stroke-opacity:1"
       d="m 394.59256,300.04672 0,-51.0004 19.83348,0 19.83349,0 0,51.0004 0,51.00039 -19.83349,0 -19.83348,0 0,-51.00039 z"
       id="path4230"
       inkscape:connector-curvature="0" />
    <path
       style="opacity:1;fill:#ac14a8;fill-opacity:1;stroke:#ee33ed;stroke-width:0.94445181;stroke-miterlimit:4;stroke-dasharray:none;stroke-opacity:1"
       d="m 395.53701,300.04672 0,-50.05595 18.88903,0 18.88904,0 0,50.05595 0,50.05594 -18.88904,0 -18.88903,0 0,-50.05594 z"
       id="path4232"
       inkscape:connector-curvature="0" />
    <path
       style="opacity:1;fill:#ac14a8;fill-opacity:1;stroke:#ee33ed;stroke-width:0.94445181;stroke-miterlimit:4;stroke-dasharray:none;stroke-opacity:1"
       d="m 396.48146,300.04672 0,-49.1115 17.94458,0 17.94459,0 0,49.1115 0,49.11149 -17.94459,0 -17.94458,0 0,-49.11149 z"
       id="path4234"
       inkscape:connector-curvature="0" />
    <path
       style="opacity:1;fill:#800080;fill-opacity:1;stroke:#ee33ed;stroke-width:0.94445181;stroke-miterlimit:4;stroke-dasharray:none;stroke-opacity:1"
       d="m 397.42591,300.04672 0,-48.16705 17.00013,0 17.00014,0 0,48.16705 0,48.16704 -17.00014,0 -17.00013,0 0,-48.16704 z"
       id="path4236"
       inkscape:connector-curvature="0" />
    <path
       style="opacity:1;fill:#e732dd;fill-opacity:1;stroke:#cf3bd2;stroke-width:1;stroke-miterlimit:4;stroke-dasharray:none;stroke-opacity:1"
       d="m 398.37036,300.04672 0,-47.22259 16.05568,0 16.05568,0 0,47.22259 0,47.22258 -16.05568,0 -16.05568,0 0,-47.22258 z"
       id="path4219"
       inkscape:connector-curvature="0" />
    <path
       style="opacity:1;fill:#e732dd;fill-opacity:1;stroke:#cf3bd2;stroke-width:0.94445181;stroke-miterlimit:4;stroke-dasharray:none;stroke-opacity:1"
       d="m 398.81218,346.11223 c -0.25376,-0.66223 -0.35073,-21.81672 -0.21549,-47.00997 l 0.2459,-45.80591 15.58345,0 15.58346,0 0,46.75037 0,46.75036 -15.36797,0.25961 c -11.77557,0.19892 -15.47582,-0.0219 -15.82935,-0.94446 z"
       id="path4221"
       inkscape:connector-curvature="0" />
    <path
       style="opacity:1;fill:#e732dd;fill-opacity:1;stroke:#cf3bd2;stroke-width:0.94445181;stroke-miterlimit:4;stroke-dasharray:none;stroke-opacity:1"
       d="m 399.31482,300.04672 0,-46.27814 15.11122,0 15.11123,0 0,46.27814 0,46.27813 -15.11123,0 -15.11122,0 0,-46.27813 z"
       id="path4223"
       inkscape:connector-curvature="0" />
    <path
       style="opacity:1;fill:#e732dd;fill-opacity:1;stroke:#cf3bd2;stroke-width:0.94445181;stroke-miterlimit:4;stroke-dasharray:none;stroke-opacity:1"
       d="m 399.757,345.169 c -0.25407,-0.6629 -0.35125,-21.39293 -0.21595,-46.06674 l 0.24599,-44.86146 14.639,0 14.63901,0 0,45.80592 0,45.80591 -14.42305,0.26082 c -11.01835,0.19925 -14.5321,-0.0237 -14.885,-0.94445 z"
       id="path4225"
       inkscape:connector-curvature="0" />
    <path
       style="opacity:1;fill:#e732dd;fill-opacity:1;stroke:#cf3bd2;stroke-width:0.94445181;stroke-miterlimit:4;stroke-dasharray:none;stroke-opacity:1"
       d="m 400.25927,300.04672 0,-45.33369 14.16677,0 14.16678,0 0,45.33369 0,45.33368 -14.16678,0 -14.16677,0 0,-45.33368 z"
       id="path4227"
       inkscape:connector-curvature="0" />
    <path
       style="opacity:1;fill:#e732dd;fill-opacity:1;stroke:#cf3bd2;stroke-width:0.94445181;stroke-miterlimit:4;stroke-dasharray:none;stroke-opacity:1"
       d="m 400.70186,344.22589 c -0.25441,-0.66364 -0.35182,-20.96927 -0.21646,-45.12363 l 0.24609,-43.917 13.69455,0 13.69455,0 0,44.86146 0,44.86146 -13.47808,0.26216 c -10.26094,0.19959 -13.58849,-0.0258 -13.94065,-0.94445 z"
       id="path4229"
       inkscape:connector-curvature="0" />
    <path
       style="opacity:1;fill:#e732dd;fill-opacity:1;stroke:#cf3bd2;stroke-width:0.94445181;stroke-miterlimit:4;stroke-dasharray:none;stroke-opacity:1"
       d="m 401.20372,300.04672 0,-44.38924 13.22232,0 13.22233,0 0,44.38924 0,44.38923 -13.22233,0 -13.22232,0 0,-44.38923 z"
       id="path4231"
       inkscape:connector-curvature="0" />
    <path
       style="opacity:1;fill:#e732dd;fill-opacity:1;stroke:#cf3bd2;stroke-width:0.94445181;stroke-miterlimit:4;stroke-dasharray:none;stroke-opacity:1"
       d="m 401.64678,343.28293 c -0.25478,-0.66446 -0.35245,-20.54576 -0.21704,-44.18067 l 0.2462,-42.97255 12.7501,0 12.7501,0 0,43.91701 0,43.917 -12.53305,0.26366 c -9.50334,0.19992 -12.64505,-0.0284 -12.99631,-0.94445 z"
       id="path4233"
       inkscape:connector-curvature="0" />
    <path
       style="opacity:1;fill:#e732dd;fill-opacity:1;stroke:#cf3bd2;stroke-width:0.94445181;stroke-miterlimit:4;stroke-dasharray:none;stroke-opacity:1"
       d="m 402.14817,300.04672 0,-43.44479 12.27787,0 12.27788,0 0,43.44479 0,43.44478 -12.27788,0 -12.27787,0 0,-43.44478 z"
       id="path4235"
       inkscape:connector-curvature="0" />
    <path
       style="opacity:1;fill:#e732dd;fill-opacity:1;stroke:#cf3bd2;stroke-width:0.94445181;stroke-miterlimit:4;stroke-dasharray:none;stroke-opacity:1"
       d="m 402.59177,342.34015 c -0.2552,-0.66538 -0.35316,-20.12243 -0.21769,-43.23789 l 0.24632,-42.0281 11.80564,0 11.80565,0 0,42.97256 0,42.97255 -11.58796,0.26533 c -8.74548,0.20025 -11.70178,-0.0314 -12.05196,-0.94445 z"
       id="path4237"
       inkscape:connector-curvature="0" />
    <path
       style="opacity:1;fill:#e732dd;fill-opacity:1;stroke:#cf3bd2;stroke-width:0.94445181;stroke-miterlimit:4;stroke-dasharray:none;stroke-opacity:1"
       d="m 403.09262,300.04672 0,-42.50033 11.33342,0 11.33343,0 0,42.50033 0,42.50033 -11.33343,0 -11.33342,0 0,-42.50033 z"
       id="path4239"
       inkscape:connector-curvature="0" />
    <path
       style="opacity:1;fill:#e732dd;fill-opacity:1;stroke:#cf3bd2;stroke-width:0.94445181;stroke-miterlimit:4;stroke-dasharray:none;stroke-opacity:1"
       d="m 403.53682,341.39758 c -0.25566,-0.66642 -0.35394,-19.69931 -0.2184,-42.29532 l 0.24643,-41.08365 10.86119,0 10.8612,0 0,42.02811 0,42.0281 -10.64279,0.26721 c -7.98733,0.20054 -10.75877,-0.0351 -11.10763,-0.94445 z"
       id="path4241"
       inkscape:connector-curvature="0" />
    <path
       style="opacity:1;fill:#e732dd;fill-opacity:1;stroke:#cf3bd2;stroke-width:0.94445181;stroke-miterlimit:4;stroke-dasharray:none;stroke-opacity:1"
       d="m 404.03707,300.04672 0,-41.55588 10.38897,0 10.38897,0 0,41.55588 0,41.55587 -10.38897,0 -10.38897,0 0,-41.55587 z"
       id="path4243"
       inkscape:connector-curvature="0" />
    <path
       style="opacity:1;fill:#e732dd;fill-opacity:1;stroke:#cf3bd2;stroke-width:0.94445181;stroke-miterlimit:4;stroke-dasharray:none;stroke-opacity:1"
       d="m 404.48197,340.45526 c -0.25617,-0.66759 -0.35482,-19.27644 -0.21922,-41.353 l 0.24655,-40.1392 9.91674,0 9.91675,0 0,41.08366 0,41.08365 -9.69752,0.26934 c -7.22883,0.20077 -9.8161,-0.0397 -10.1633,-0.94445 z"
       id="path4245"
       inkscape:connector-curvature="0" />
    <path
       style="opacity:1;fill:#e732dd;fill-opacity:1;stroke:#cf3bd2;stroke-width:0.94445181;stroke-miterlimit:4;stroke-dasharray:none;stroke-opacity:1"
       d="m 404.98153,300.04672 0,-40.61143 9.44451,0 9.44452,0 0,40.61143 0,40.61142 -9.44452,0 -9.44451,0 0,-40.61142 z"
       id="path4247"
       inkscape:connector-curvature="0" />
    <path
       style="opacity:1;fill:#e732dd;fill-opacity:1;stroke:#cf3bd2;stroke-width:0.94445181;stroke-miterlimit:4;stroke-dasharray:none;stroke-opacity:1"
       d="m 405.42712,339.51263 c -0.25681,-0.66925 -0.35588,-18.85418 -0.22015,-40.41097 l 0.24678,-39.19415 8.97229,0 8.9723,0 0,40.13921 0,40.1392 -8.75214,0.27176 c -6.47208,0.20097 -8.87379,-0.0452 -9.21908,-0.94505 z"
       id="path4249"
       inkscape:connector-curvature="0" />
    <path
       style="opacity:1;fill:#e732dd;fill-opacity:1;stroke:#cf3bd2;stroke-width:0.94445181;stroke-miterlimit:4;stroke-dasharray:none;stroke-opacity:1"
       d="m 405.92598,300.04672 0,-39.66698 8.50006,0 8.50007,0 0,39.66698 0,39.66697 -8.50007,0 -8.50006,0 0,-39.66697 z"
       id="path4251"
       inkscape:connector-curvature="0" />
    <path
       style="opacity:1;fill:#e732dd;fill-opacity:1;stroke:#cf3bd2;stroke-width:0.94445181;stroke-miterlimit:4;stroke-dasharray:none;stroke-opacity:1"
       d="m 406.3724,338.57032 c -0.25754,-0.67113 -0.35709,-18.43231 -0.22123,-39.4693 l 0.24703,-38.24905 8.02784,0 8.02784,0 0,39.19475 0,39.19474 -7.80662,0.27455 c -5.71444,0.20097 -7.93211,-0.0525 -8.27486,-0.94569 z"
       id="path4253"
       inkscape:connector-curvature="0" />
    <path
       style="opacity:1;fill:#e732dd;fill-opacity:1;stroke:#cf3bd2;stroke-width:0.94445181;stroke-miterlimit:4;stroke-dasharray:none;stroke-opacity:1"
       d="m 406.87043,300.04672 0,-38.72253 7.55561,0 7.55562,0 0,38.72253 0,38.72252 -7.55562,0 -7.55561,0 0,-38.72252 z"
       id="path4255"
       inkscape:connector-curvature="0" />
    <path
       style="opacity:1;fill:#e732dd;fill-opacity:1;stroke:#cf3bd2;stroke-width:0.94445181;stroke-miterlimit:4;stroke-dasharray:none;stroke-opacity:1"
       d="m 407.31782,337.62841 c -0.25836,-0.67327 -0.35846,-18.01089 -0.22245,-38.52806 l 0.24729,-37.30393 7.08338,0 7.08339,0 0,38.2503 0,38.25029 -6.86093,0.27777 c -4.95572,0.20063 -6.99138,-0.0622 -7.33068,-0.94637 z"
       id="path4257"
       inkscape:connector-curvature="0" />
    <path
       style="opacity:1;fill:#e732dd;fill-opacity:1;stroke:#cf3bd2;stroke-width:0.94445181;stroke-miterlimit:4;stroke-dasharray:none;stroke-opacity:1"
       d="m 407.81488,300.04672 0,-37.77808 6.61116,0 6.61117,0 0,37.77808 0,37.77807 -6.61117,0 -6.61116,0 0,-37.77807 z"
       id="path4259"
       inkscape:connector-curvature="0" />
    <path
       style="opacity:1;fill:#e732dd;fill-opacity:1;stroke:#cf3bd2;stroke-width:0.94445181;stroke-miterlimit:4;stroke-dasharray:none;stroke-opacity:1"
       d="m 408.26344,336.68699 c -0.2593,-0.67571 -0.36005,-17.59001 -0.22389,-37.58734 l 0.24756,-36.35878 6.13893,0 6.13894,0 0,37.30585 0,37.30584 -5.91505,0.2815 c -4.19572,0.19967 -6.05208,-0.0756 -6.38649,-0.94707 z"
       id="path4261"
       inkscape:connector-curvature="0" />
    <path
       style="opacity:1;fill:#e732dd;fill-opacity:1;stroke:#cf3bd2;stroke-width:0.94445181;stroke-miterlimit:4;stroke-dasharray:none;stroke-opacity:1"
       d="m 408.75933,300.04672 0,-36.83362 5.66671,0 5.66671,0 0,36.83362 0,36.83362 -5.66671,0 -5.66671,0 0,-36.83362 z"
       id="path4263"
       inkscape:connector-curvature="0" />
    <path
       style="opacity:1;fill:#e732dd;fill-opacity:1;stroke:#cf3bd2;stroke-width:0.94445181;stroke-miterlimit:4;stroke-dasharray:none;stroke-opacity:1"
       d="m 409.20927,335.74614 c -0.26037,-0.6785 -0.36186,-17.16976 -0.22555,-36.64723 l 0.24784,-35.41359 5.19448,0 5.19449,0 0,36.3614 0,36.36139 -4.96893,0.28583 c -3.43425,0.19756 -5.11515,-0.0952 -5.44233,-0.9478 z"
       id="path4265"
       inkscape:connector-curvature="0" />
    <path
       style="opacity:1;fill:#e732dd;fill-opacity:1;stroke:#cf3bd2;stroke-width:0.94445181;stroke-miterlimit:4;stroke-dasharray:none;stroke-opacity:1"
       d="m 409.70379,300.04672 0,-35.88917 4.72225,0 4.72226,0 0,35.88917 0,35.88916 -4.72226,0 -4.72225,0 0,-35.88916 z"
       id="path4267"
       inkscape:connector-curvature="0" />
    <path
       style="opacity:1;fill:#e732dd;fill-opacity:1;stroke:#cf3bd2;stroke-width:0.94445181;stroke-miterlimit:4;stroke-dasharray:none;stroke-opacity:1"
       d="m 410.15534,334.80591 c -0.26158,-0.68168 -0.36394,-16.75018 -0.22747,-35.70778 l 0.24814,-34.46836 4.25003,0 4.25004,0 0,35.41695 0,35.41694 -4.02256,0.29084 c -2.67113,0.19312 -4.18235,-0.12557 -4.49818,-0.94859 z"
       id="path4269"
       inkscape:connector-curvature="0" />
    <path
       style="opacity:1;fill:#e732dd;fill-opacity:1;stroke:#cf3bd2;stroke-width:0.94445181;stroke-miterlimit:4;stroke-dasharray:none;stroke-opacity:1"
       d="m 410.64824,300.04672 0,-34.94472 3.7778,0 3.77781,0 0,34.94472 0,34.94471 -3.77781,0 -3.7778,0 0,-34.94471 z"
       id="path4271"
       inkscape:connector-curvature="0" />
    <path
       style="opacity:1;fill:#e732dd;fill-opacity:1;stroke:#cf3bd2;stroke-width:0.94445181;stroke-miterlimit:4;stroke-dasharray:none;stroke-opacity:1"
       d="m 411.10163,333.86624 c -0.26294,-0.68521 -0.36627,-16.33122 -0.22962,-34.76892 l 0.24845,-33.52309 3.30558,0 3.30559,0 0,34.47249 0,34.47249 -3.07597,0.29643 c -1.90645,0.18373 -3.25772,-0.17724 -3.55403,-0.9494 z"
       id="path4273"
       inkscape:connector-curvature="0" />
    <path
       style="opacity:1;fill:#e732dd;fill-opacity:1;stroke:#cf3bd2;stroke-width:0.94445181;stroke-miterlimit:4;stroke-dasharray:none;stroke-opacity:1"
       d="m 411.59269,300.04672 0,-34.00027 2.83335,0 2.83336,0 0,34.00027 0,34.00026 -2.83336,0 -2.83335,0 0,-34.00026 z"
       id="path4275"
       inkscape:connector-curvature="0" />
    <path
       style="opacity:1;fill:#e732dd;fill-opacity:1;stroke:#cf3bd2;stroke-width:0.94445181;stroke-miterlimit:4;stroke-dasharray:none;stroke-opacity:1"
       d="m 412.04802,332.92685 c -0.26437,-0.68894 -0.36872,-15.91262 -0.23189,-33.83039 l 0.24878,-32.57778 2.36113,0 2.36113,0 0,33.52804 0,33.52803 -2.12924,0.30236 c -1.17108,0.16629 -2.34554,-0.26132 -2.60991,-0.95026 z"
       id="path4277"
       inkscape:connector-curvature="0" />
    <path
       style="opacity:1;fill:#e732dd;fill-opacity:1;stroke:#cf3bd2;stroke-width:0.94445181;stroke-miterlimit:4;stroke-dasharray:none;stroke-opacity:1"
       d="m 412.53714,300.04672 c 0,-32.42618 0.036,-33.05582 1.8889,-33.05582 1.85293,0 1.88891,0.62964 1.88891,33.05582 0,32.42617 -0.036,33.05581 -1.88891,33.05581 -1.85292,0 -1.8889,-0.62964 -1.8889,-33.05581 z"
       id="path4279"
       inkscape:connector-curvature="0" />
    <path
       style="opacity:1;fill:#e732dd;fill-opacity:1;stroke:#cf3bd2;stroke-width:0.94445181;stroke-miterlimit:4;stroke-dasharray:none;stroke-opacity:1"
       d="m 413.00316,325.3108 c -0.81723,-8.74903 -0.22415,-56.04593 0.71455,-56.98309 1.73722,-1.73437 2.12874,2.13421 2.45877,24.29542 0.35629,23.92432 -0.33654,39.53495 -1.75464,39.53495 -0.4285,0 -1.0669,-3.08128 -1.41868,-6.84728 z"
       id="path4281"
       inkscape:connector-curvature="0" />
    <path
       style="opacity:1;fill:#e732dd;fill-opacity:1;stroke:#cf3bd2;stroke-width:0.94445181;stroke-miterlimit:4;stroke-dasharray:none;stroke-opacity:1"
       d="m 413.04727,315.86628 c -0.34825,-7.92159 -0.4174,-16.3154 -0.15365,-18.65292 0.26375,-2.33752 0.50394,-9.69391 0.53376,-16.34753 0.0298,-6.65363 0.41154,-11.87666 0.84827,-11.60674 2.01804,1.24721 2.11885,61.01008 0.10292,61.01008 -0.38396,0 -0.98304,-6.4813 -1.3313,-14.40289 z"
       id="path4283"
       inkscape:connector-curvature="0" />
    <path
       style="opacity:1;fill:#e732dd;fill-opacity:1;stroke:#cf3bd2;stroke-width:0.08347853;stroke-miterlimit:4;stroke-dasharray:none;stroke-opacity:1"
       d="m 414.42273,328.2847 c -0.0269,-0.0689 -0.07,-0.33183 -0.0958,-0.58435 -0.68861,-6.75025 -1.07901,-15.3449 -1.08827,-23.95834 -0.005,-4.47679 0.0189,-5.66578 0.14057,-7.05393 0.25913,-2.95583 0.29266,-4.026 0.56627,-18.0731 0.0811,-4.16545 0.15154,-5.82261 0.2997,-7.05394 l 0.0603,-0.50087 0.0666,0.36654 c 0.2863,1.57634 0.60835,7.19131 0.84079,14.65959 0.14265,4.58328 0.14335,25.57974 10e-4,30.01054 -0.21718,6.75981 -0.60109,12.6742 -0.79114,12.18786 z"
       id="path4285"
       inkscape:connector-curvature="0" />
    <path
       style="opacity:1;fill:#e732dd;fill-opacity:1;stroke:#cf3bd2;stroke-width:0.08347853;stroke-miterlimit:4;stroke-dasharray:none;stroke-opacity:1"
       d="m 414.40783,328.02535 c -0.0509,-0.1502 -0.34612,-3.46718 -0.50437,-5.66762 -0.38285,-5.32314 -0.54558,-9.95023 -0.60186,-17.1131 -0.047,-5.97724 -0.0314,-6.68636 0.2207,-10.05917 0.11362,-1.52004 0.23103,-5.5418 0.37895,-12.98091 0.12393,-6.23305 0.2355,-9.54996 0.34958,-10.39308 l 0.0565,-0.41739 0.0634,0.29218 c 0.24364,1.12323 0.67451,8.92267 0.81892,14.82381 0.0817,3.33868 0.0823,25.97077 7.3e-4,29.12763 -0.12587,4.87281 -0.54964,12.30601 -0.71099,12.47112 -0.0176,0.0181 -0.0498,-0.0195 -0.0715,-0.0835 l 0,0 z"
       id="path4287"
       inkscape:connector-curvature="0" />
    <path
       style="opacity:1;fill:#e732dd;fill-opacity:1;stroke:#cf3bd2;stroke-width:0.08347853;stroke-miterlimit:4;stroke-dasharray:none;stroke-opacity:1"
       d="m 414.41798,327.78383 c -0.0633,-0.24533 -0.33747,-3.39019 -0.51311,-5.88524 -0.33696,-4.78676 -0.45481,-8.02149 -0.54741,-15.02523 -0.0821,-6.20707 -0.0644,-7.6653 0.12918,-10.68615 0.16183,-2.52474 0.26672,-5.73544 0.41455,-12.68874 0.17595,-8.27562 0.30795,-11.90727 0.42844,-11.78678 0.0632,0.0632 0.27744,2.53559 0.40282,4.64936 0.41327,6.96713 0.42045,7.38835 0.42045,24.66791 0,17.33697 -0.0101,17.90727 -0.42686,24.04176 -0.16062,2.36447 -0.23317,3.00342 -0.30806,2.71311 z"
       id="path4289"
       inkscape:connector-curvature="0" />
    <path
       style="opacity:1;fill:#e732dd;fill-opacity:1;stroke:#cf3bd2;stroke-width:0.08347853;stroke-miterlimit:4;stroke-dasharray:none;stroke-opacity:1"
       d="m 414.40626,327.4389 c -0.13086,-0.57232 -0.62973,-7.53578 -0.79462,-11.09163 -0.25495,-5.49829 -0.31131,-17.55332 -0.0958,-20.49398 0.13528,-1.84604 0.24875,-5.1517 0.38398,-11.18612 0.15111,-6.74334 0.27356,-10.92412 0.34962,-11.93743 0.0462,-0.61522 0.0675,-0.69839 0.11749,-0.45913 0.16631,0.79542 0.53788,7.08735 0.66553,11.2696 0.12279,4.02341 0.06,35.35855 -0.0752,37.5236 -0.17328,2.77487 -0.4448,6.51104 -0.47543,6.54204 -0.0167,0.0169 -0.0507,-0.0582 -0.0756,-0.16695 z"
       id="path4291"
       inkscape:connector-curvature="0" />
  </g>
  <g
     inkscape:groupmode="layer"
     id="layer12"
     inkscape:label="bordo"
     style="display:none">
    <g
       style="display:inline"
       inkscape:label="bordo"
       id="layer9"
       transform="translate(1.0026851e-4,3.9980999e-4)">
      <g
         transform="matrix(0.98408585,0,0,0.97888478,-0.64744853,7.594777)"
         id="layer4"
         inkscape:label="bordo"
         style="display:inline;stroke-width:1;stroke-miterlimit:4;stroke-dasharray:none">
        <path
           style="color:#000000;clip-rule:nonzero;display:inline;overflow:visible;visibility:visible;opacity:1;isolation:auto;mix-blend-mode:normal;color-interpolation:sRGB;color-interpolation-filters:linearRGB;solid-color:#000000;solid-opacity:1;fill:none;fill-opacity:1;fill-rule:evenodd;stroke:#000000;stroke-width:1;stroke-linecap:butt;stroke-linejoin:miter;stroke-miterlimit:4;stroke-dasharray:none;stroke-dashoffset:0;stroke-opacity:1;color-rendering:auto;image-rendering:auto;shape-rendering:auto;text-rendering:auto;enable-background:accumulate"
           d="m 2.2796702,2.2791692 c 0,894.5596608 0,894.5596608 0,894.5596608 l 905.8926598,0 0,-894.5596608 z"
           id="path13590"
           inkscape:connector-curvature="0" />
      </g>
    </g>
  </g>
</svg>
