<?xml version="1.0" encoding="UTF-8" standalone="no"?>
<!-- Created with Inkscape (http://www.inkscape.org/) -->

<svg
   xmlns:dc="http://purl.org/dc/elements/1.1/"
   xmlns:cc="http://creativecommons.org/ns#"
   xmlns:rdf="http://www.w3.org/1999/02/22-rdf-syntax-ns#"
   xmlns:svg="http://www.w3.org/2000/svg"
   xmlns="http://www.w3.org/2000/svg"
   xmlns:sodipodi="http://sodipodi.sourceforge.net/DTD/sodipodi-0.dtd"
   xmlns:inkscape="http://www.inkscape.org/namespaces/inkscape"
   id="svg18115"
   version="1.1"
   inkscape:version="0.91 r13725"
   width="900"
   height="891.5625"
   viewBox="0 0 900 891.5625"
   sodipodi:docname="porch.svg">
 
  <g
     inkscape:groupmode="layer"
     id="layer8"
     inkscape:label="pavimento"
     style="display:inline">
    <rect
       style="opacity:1;fill:none;fill-opacity:1;stroke:#d23b5e;stroke-width:1.01410007;stroke-linecap:butt;stroke-miterlimit:4;stroke-dasharray:none;stroke-opacity:1"
       id="rect17510"
       width="304.68604"
       height="137.82021"
       x="541.44885"
       y="35.819847" />
    <path
       style="opacity:1;fill:#e732dd;fill-opacity:1;stroke:#cf3bd2;stroke-width:1.88890362;stroke-miterlimit:4;stroke-dasharray:none;stroke-opacity:1"
       d="m 542.39692,104.83831 0,-67.056078 151.11229,0 151.11229,0 0,67.056078 0,67.05608 -151.11229,0 -151.11229,0 0,-67.05608 z"
       id="path5747"
       inkscape:connector-curvature="0" />
    <path
       style="opacity:1;fill:#e732dd;fill-opacity:1;stroke:#cf3bd2;stroke-width:1.88890362;stroke-miterlimit:4;stroke-dasharray:none;stroke-opacity:1"
       d="m 543.26078,169.53214 c -0.50337,-1.31177 -0.69116,-31.27963 -0.41731,-66.59524 l 0.49791,-64.210216 150.16783,0 150.16784,0 0,66.111626 0,66.11163 -149.75053,0.48361 c -119.21315,0.38499 -149.93715,-0.003 -150.66574,-1.90141 z"
       id="path5749"
       inkscape:connector-curvature="0" />
    <path
       style="opacity:1;fill:#e732dd;fill-opacity:1;stroke:#cf3bd2;stroke-width:1.88890362;stroke-miterlimit:4;stroke-dasharray:none;stroke-opacity:1"
       d="m 544.28583,104.83831 0,-65.167175 149.22338,0 149.22339,0 0,65.167175 0,65.16717 -149.22339,0 -149.22338,0 0,-65.16717 z"
       id="path5751"
       inkscape:connector-curvature="0" />
    <path
       style="opacity:1;fill:#e732dd;fill-opacity:1;stroke:#cf3bd2;stroke-width:1.88890362;stroke-miterlimit:4;stroke-dasharray:none;stroke-opacity:1"
       d="m 545.14902,167.64151 c -0.50379,-1.31287 -0.69161,-30.43078 -0.41736,-64.70648 l 0.49862,-62.319443 148.27893,0 148.27894,0 0,64.222723 0,64.22272 -147.86157,0.48375 c -117.75725,0.38526 -148.04806,-0.002 -148.77756,-1.90327 z"
       id="path5753"
       inkscape:connector-curvature="0" />
    <path
       style="opacity:1;fill:#e732dd;fill-opacity:1;stroke:#cf3bd2;stroke-width:1.88890362;stroke-miterlimit:4;stroke-dasharray:none;stroke-opacity:1"
       d="m 546.17473,104.83831 0,-63.278271 147.33448,0 147.33448,0 0,63.278271 0,63.27827 -147.33448,0 -147.33448,0 0,-63.27827 z"
       id="path5755"
       inkscape:connector-curvature="0" />
    <path
       style="opacity:1;fill:#e732dd;fill-opacity:1;stroke:#cf3bd2;stroke-width:1.88890362;stroke-miterlimit:4;stroke-dasharray:none;stroke-opacity:1"
       d="m 547.03722,165.75077 c -0.50424,-1.31402 -0.69207,-29.58199 -0.41742,-62.81771 l 0.49938,-60.428569 146.39003,0 146.39003,0 0,62.333819 0,62.33382 -145.97261,0.48389 c -116.30307,0.38554 -146.15895,-0.002 -146.88941,-1.90525 z"
       id="path5757"
       inkscape:connector-curvature="0" />
    <path
       style="opacity:1;fill:#e732dd;fill-opacity:1;stroke:#cf3bd2;stroke-width:1.88890362;stroke-miterlimit:4;stroke-dasharray:none;stroke-opacity:1"
       d="m 548.06364,104.83831 0,-61.389367 145.44557,0 145.44558,0 0,61.389367 0,61.38937 -145.44558,0 -145.44557,0 0,-61.38937 z"
       id="path5759"
       inkscape:connector-curvature="0" />
    <path
       style="opacity:1;fill:#e732dd;fill-opacity:1;stroke:#cf3bd2;stroke-width:1.88890362;stroke-miterlimit:4;stroke-dasharray:none;stroke-opacity:1"
       d="m 548.92538,163.85993 c -0.50471,-1.31526 -0.69257,-28.73329 -0.41747,-60.92895 l 0.50018,-58.537586 144.50112,0 144.50113,0 0,60.444916 0,60.44492 -144.08365,0.48403 c -114.85078,0.38584 -144.26983,-0.001 -145.00131,-1.90733 z"
       id="path5761"
       inkscape:connector-curvature="0" />
    <path
       style="opacity:1;fill:#e732dd;fill-opacity:1;stroke:#cf3bd2;stroke-width:1.88890362;stroke-miterlimit:4;stroke-dasharray:none;stroke-opacity:1"
       d="m 549.95254,104.83831 0,-59.500464 143.55667,0 143.55668,0 0,59.500464 0,59.50046 -143.55668,0 -143.55667,0 0,-59.50046 z"
       id="path5763"
       inkscape:connector-curvature="0" />
    <path
       style="opacity:1;fill:#e732dd;fill-opacity:1;stroke:#cf3bd2;stroke-width:1.88890362;stroke-miterlimit:4;stroke-dasharray:none;stroke-opacity:1"
       d="m 550.8135,161.96896 c -0.50521,-1.31655 -0.6931,-27.88464 -0.41754,-59.0402 l 0.50103,-56.646462 142.61222,0 142.61222,0 0,58.556012 0,58.55601 -142.19468,0.48419 c -113.40056,0.38614 -142.3807,-5.4e-4 -143.11325,-1.90955 z"
       id="path5765"
       inkscape:connector-curvature="0" />
    <path
       style="opacity:1;fill:#e732dd;fill-opacity:1;stroke:#cf3bd2;stroke-width:1.88890362;stroke-miterlimit:4;stroke-dasharray:none;stroke-opacity:1"
       d="m 551.84144,104.83831 0,-57.61156 141.66777,0 141.66777,0 0,57.61156 0,57.61156 -141.66777,0 -141.66777,0 0,-57.61156 z"
       id="path5767"
       inkscape:connector-curvature="0" />
    <path
       style="opacity:1;fill:#e732dd;fill-opacity:1;stroke:#cf3bd2;stroke-width:1.88890362;stroke-miterlimit:4;stroke-dasharray:none;stroke-opacity:1"
       d="m 552.70156,160.07786 c -0.50574,-1.31793 -0.69366,-27.03608 -0.4176,-57.15145 l 0.50193,-54.755208 140.72332,0 140.72332,0 0,56.667108 0,56.66711 -140.30572,0.48434 c -111.95256,0.38647 -140.49155,1.1e-4 -141.22525,-1.9119 z"
       id="path5769"
       inkscape:connector-curvature="0" />
    <path
       style="opacity:1;fill:#e732dd;fill-opacity:1;stroke:#cf3bd2;stroke-width:1.88890362;stroke-miterlimit:4;stroke-dasharray:none;stroke-opacity:1"
       d="m 553.73035,104.83831 0,-55.722657 139.77886,0 139.77887,0 0,55.722657 0,55.72266 -139.77887,0 -139.77886,0 0,-55.72266 z"
       id="path5771"
       inkscape:connector-curvature="0" />
    <path
       style="opacity:1;fill:#e732dd;fill-opacity:1;stroke:#cf3bd2;stroke-width:1.88890362;stroke-miterlimit:4;stroke-dasharray:none;stroke-opacity:1"
       d="m 554.58956,158.18661 c -0.5063,-1.31939 -0.69424,-26.18761 -0.41765,-55.2627 l 0.50289,-52.863805 138.83441,0 138.83442,0 0,54.778205 0,54.7782 -138.41676,0.4845 c -110.50701,0.38681 -138.60238,8e-4 -139.33731,-1.9144 z"
       id="path5773"
       inkscape:connector-curvature="0" />
    <path
       style="opacity:1;fill:#e732dd;fill-opacity:1;stroke:#cf3bd2;stroke-width:1.88890362;stroke-miterlimit:4;stroke-dasharray:none;stroke-opacity:1"
       d="m 555.61925,104.83831 0,-53.833753 137.88996,0 137.88997,0 0,53.833753 0,53.83375 -137.88997,0 -137.88996,0 0,-53.83375 z"
       id="path5775"
       inkscape:connector-curvature="0" />
    <path
       style="opacity:1;fill:#e732dd;fill-opacity:1;stroke:#cf3bd2;stroke-width:1.88890362;stroke-miterlimit:4;stroke-dasharray:none;stroke-opacity:1"
       d="m 556.4775,156.2952 c -0.50689,-1.32095 -0.69487,-25.33923 -0.41771,-53.37396 l 0.50391,-50.972231 136.94551,0 136.94551,0 0,52.889301 0,52.8893 -136.52779,0.48466 c -109.06414,0.38717 -136.71319,0.002 -137.44943,-1.91707 z"
       id="path5777"
       inkscape:connector-curvature="0" />
    <path
       style="opacity:1;fill:#e732dd;fill-opacity:1;stroke:#cf3bd2;stroke-width:1.88890362;stroke-miterlimit:4;stroke-dasharray:none;stroke-opacity:1"
       d="m 557.50815,104.83831 0,-51.944849 136.00106,0 136.00106,0 0,51.944849 0,51.94485 -136.00106,0 -136.00106,0 0,-51.94485 z"
       id="path5779"
       inkscape:connector-curvature="0" />
    <path
       style="opacity:1;fill:#e732dd;fill-opacity:1;stroke:#cf3bd2;stroke-width:1.88890362;stroke-miterlimit:4;stroke-dasharray:none;stroke-opacity:1"
       d="m 558.36537,154.40361 c -0.50753,-1.32261 -0.69553,-24.49096 -0.41777,-51.48522 l 0.50501,-49.080478 135.0566,0 135.05661,0 0,51.000398 0,51.0004 -134.63883,0.48482 c -107.62421,0.38755 -134.82398,0.002 -135.56162,-1.91992 z"
       id="path5781"
       inkscape:connector-curvature="0" />
    <path
       style="opacity:1;fill:#e732dd;fill-opacity:1;stroke:#cf3bd2;stroke-width:1.88890362;stroke-miterlimit:4;stroke-dasharray:none;stroke-opacity:1"
       d="m 559.39706,104.83831 0,-50.055946 134.11215,0 134.11216,0 0,50.055946 0,50.05595 -134.11216,0 -134.11215,0 0,-50.05595 z"
       id="path5783"
       inkscape:connector-curvature="0" />
    <path
       style="opacity:1;fill:#e732dd;fill-opacity:1;stroke:#cf3bd2;stroke-width:1.88890362;stroke-miterlimit:4;stroke-dasharray:none;stroke-opacity:1"
       d="m 560.25317,152.51183 c -0.50821,-1.32439 -0.69624,-23.64281 -0.41784,-49.59649 l 0.50618,-47.188524 133.1677,0 133.16771,0 0,49.111494 0,49.11149 -132.74986,0.485 c -106.18753,0.38795 -132.93475,0.003 -133.67389,-1.92297 z"
       id="path5785"
       inkscape:connector-curvature="0" />
    <path
       style="opacity:1;fill:#e732dd;fill-opacity:1;stroke:#cf3bd2;stroke-width:1.88890362;stroke-miterlimit:4;stroke-dasharray:none;stroke-opacity:1"
       d="m 561.28596,104.83831 0,-48.167042 132.22325,0 132.22326,0 0,48.167042 0,48.16704 -132.22326,0 -132.22325,0 0,-48.16704 z"
       id="path5787"
       inkscape:connector-curvature="0" />
    <path
       style="opacity:1;fill:#e732dd;fill-opacity:1;stroke:#cf3bd2;stroke-width:1.88890362;stroke-miterlimit:4;stroke-dasharray:none;stroke-opacity:1"
       d="m 562.14088,150.61982 c -0.50894,-1.32628 -0.697,-22.79478 -0.41791,-47.70776 l 0.50744,-45.29634 131.2788,0 131.2788,0 0,47.22259 0,47.22259 -130.86089,0.48517 c -104.75441,0.38838 -131.04549,0.004 -131.78624,-1.92625 z"
       id="path5789"
       inkscape:connector-curvature="0" />
    <path
       style="opacity:1;fill:#e732dd;fill-opacity:1;stroke:#cf3bd2;stroke-width:1.88890362;stroke-miterlimit:4;stroke-dasharray:none;stroke-opacity:1"
       d="m 563.17486,104.83831 0,-46.278139 130.33435,0 130.33435,0 0,46.278139 0,46.27814 -130.33435,0 -130.33435,0 0,-46.27814 z"
       id="path5791"
       inkscape:connector-curvature="0" />
    <path
       style="opacity:1;fill:#e732dd;fill-opacity:1;stroke:#cf3bd2;stroke-width:1.88890362;stroke-miterlimit:4;stroke-dasharray:none;stroke-opacity:1"
       d="m 564.0285,148.72757 c -0.50972,-1.32833 -0.69781,-21.94689 -0.41798,-45.81904 l 0.5088,-43.403907 129.38989,0 129.3899,0 0,45.333687 0,45.33369 -128.97192,0.48535 c -103.32528,0.38884 -129.15621,0.005 -129.89869,-1.92978 z"
       id="path5793"
       inkscape:connector-curvature="0" />
    <path
       style="opacity:1;fill:#e732dd;fill-opacity:1;stroke:#cf3bd2;stroke-width:1.88890362;stroke-miterlimit:4;stroke-dasharray:none;stroke-opacity:1"
       d="m 565.06377,104.83831 0,-44.389235 128.44544,0 128.44545,0 0,44.389235 0,44.38923 -128.44545,0 -128.44544,0 0,-44.38923 z"
       id="path5795"
       inkscape:connector-curvature="0" />
    <path
       style="opacity:1;fill:#e732dd;fill-opacity:1;stroke:#cf3bd2;stroke-width:1.88890362;stroke-miterlimit:4;stroke-dasharray:none;stroke-opacity:1"
       d="m 565.91602,146.83504 c -0.51057,-1.33052 -0.6987,-21.09916 -0.41806,-43.93032 l 0.51026,-41.511193 127.50099,0 127.501,0 0,43.444783 0,43.44478 -127.08295,0.48554 c -101.90055,0.38932 -127.26689,0.006 -128.01124,-1.93359 z"
       id="path5797"
       inkscape:connector-curvature="0" />
    <path
       style="opacity:1;fill:#e732dd;fill-opacity:1;stroke:#cf3bd2;stroke-width:1.88890362;stroke-miterlimit:4;stroke-dasharray:none;stroke-opacity:1"
       d="m 566.95267,104.83831 0,-42.500331 126.55654,0 126.55654,0 0,42.500331 0,42.50033 -126.55654,0 -126.55654,0 0,-42.50033 z"
       id="path5799"
       inkscape:connector-curvature="0" />
    <path
       style="opacity:1;fill:#e732dd;fill-opacity:1;stroke:#cf3bd2;stroke-width:1.88890362;stroke-miterlimit:4;stroke-dasharray:none;stroke-opacity:1"
       d="m 567.80341,144.9422 c -0.51148,-1.33289 -0.69963,-20.25161 -0.41812,-42.0416 l 0.51183,-39.61817 125.61209,0 125.61209,0 0,41.55588 0,41.55588 -125.19396,0.48573 c -100.48076,0.38984 -125.37754,0.007 -126.12393,-1.93772 z"
       id="path5801"
       inkscape:connector-curvature="0" />
    <path
       style="opacity:1;fill:#e732dd;fill-opacity:1;stroke:#cf3bd2;stroke-width:1.88890362;stroke-miterlimit:4;stroke-dasharray:none;stroke-opacity:1"
       d="m 568.84158,104.83831 0,-40.611428 124.66763,0 124.66764,0 0,40.611428 0,40.61143 -124.66764,0 -124.66763,0 0,-40.61143 z"
       id="path5803"
       inkscape:connector-curvature="0" />
    <path
       style="opacity:1;fill:#e732dd;fill-opacity:1;stroke:#cf3bd2;stroke-width:1.88890362;stroke-miterlimit:4;stroke-dasharray:none;stroke-opacity:1"
       d="m 569.69067,143.04902 c -0.51246,-1.33546 -0.70065,-19.40427 -0.4182,-40.1529 l 0.51356,-37.724786 123.72318,0 123.72319,0 0,39.666976 0,39.66698 -123.30499,0.48592 c -99.06648,0.3904 -123.48814,0.009 -124.23674,-1.94219 z"
       id="path5805"
       inkscape:connector-curvature="0" />
    <path
       style="opacity:1;fill:#e732dd;fill-opacity:1;stroke:#cf3bd2;stroke-width:1.88890362;stroke-miterlimit:4;stroke-dasharray:none;stroke-opacity:1"
       d="m 570.73048,104.83831 0,-38.722524 122.77873,0 122.77874,0 0,38.722524 0,38.72252 -122.77874,0 -122.77873,0 0,-38.72252 z"
       id="path5807"
       inkscape:connector-curvature="0" />
    <path
       style="opacity:1;fill:#e732dd;fill-opacity:1;stroke:#cf3bd2;stroke-width:1.88890362;stroke-miterlimit:4;stroke-dasharray:none;stroke-opacity:1"
       d="m 571.57778,141.15544 c -0.51354,-1.33826 -0.70176,-18.55715 -0.41828,-38.2642 l 0.51543,-35.831002 121.83428,0 121.83429,0 0,37.778072 0,37.77807 -121.41601,0.48613 c -97.65844,0.391 -121.59871,0.01 -122.34971,-1.94707 z"
       id="path5809"
       inkscape:connector-curvature="0" />
    <path
       style="opacity:1;fill:#e732dd;fill-opacity:1;stroke:#cf3bd2;stroke-width:1.88890362;stroke-miterlimit:4;stroke-dasharray:none;stroke-opacity:1"
       d="m 572.61938,104.83831 0,-36.833621 120.88983,0 120.88983,0 0,36.833621 0,36.83362 -120.88983,0 -120.88983,0 0,-36.83362 z"
       id="path5811"
       inkscape:connector-curvature="0" />
    <path
       style="opacity:1;fill:#e732dd;fill-opacity:1;stroke:#cf3bd2;stroke-width:1.88890362;stroke-miterlimit:4;stroke-dasharray:none;stroke-opacity:1"
       d="m 573.46471,139.2614 c -0.5147,-1.3413 -0.70296,-17.71028 -0.41835,-36.3755 l 0.51747,-33.936759 119.94538,0 119.94538,0 0,35.889169 0,35.88917 -119.52702,0.48633 c -96.25742,0.39165 -119.70921,0.0116 -120.46286,-1.95241 z"
       id="path5813"
       inkscape:connector-curvature="0" />
    <path
       style="opacity:1;fill:#e732dd;fill-opacity:1;stroke:#cf3bd2;stroke-width:1.88890362;stroke-miterlimit:4;stroke-dasharray:none;stroke-opacity:1"
       d="m 574.50829,104.83831 0,-34.944717 119.00092,0 119.00093,0 0,34.944717 0,34.94472 -119.00093,0 -119.00092,0 0,-34.94472 z"
       id="path5815"
       inkscape:connector-curvature="0" />
    <path
       style="opacity:1;fill:#e732dd;fill-opacity:1;stroke:#cf3bd2;stroke-width:1.88890362;stroke-miterlimit:4;stroke-dasharray:none;stroke-opacity:1"
       d="m 575.35145,137.36685 c -0.51599,-1.34464 -0.70428,-16.86371 -0.41844,-34.4868 l 0.51973,-32.042005 118.05647,0 118.05648,0 0,34.000265 0,34.00026 -117.63804,0.48655 c -94.86438,0.39235 -117.81966,0.0132 -118.5762,-1.95827 z"
       id="path5817"
       inkscape:connector-curvature="0" />
    <path
       style="opacity:1;fill:#e732dd;fill-opacity:1;stroke:#cf3bd2;stroke-width:1.88890362;stroke-miterlimit:4;stroke-dasharray:none;stroke-opacity:1"
       d="m 576.04464,131.75519 c -0.32555,-3.37642 -0.33573,-18.25153 -0.0226,-33.055817 l 0.56928,-26.916876 117.01497,0 117.01498,0 0,33.055813 0,33.05581 -116.99235,0 -116.99234,0 -0.59191,-6.13893 z"
       id="path5819"
       inkscape:connector-curvature="0" />
    <path
       style="opacity:1;fill:#e732dd;fill-opacity:1;stroke:#cf3bd2;stroke-width:1.88890362;stroke-miterlimit:4;stroke-dasharray:none;stroke-opacity:1"
       d="m 577.23796,135.47171 c -0.5174,-1.34832 -0.70573,-16.01748 -0.41852,-32.59813 l 0.5222,-30.146632 116.16757,0 116.16757,0 0,32.111362 0,32.11136 -115.74904,0.48677 c -93.48048,0.39311 -115.93004,0.0151 -116.68978,-1.96473 z"
       id="path5821"
       inkscape:connector-curvature="0" />
    <path
       style="opacity:1;fill:#e732dd;fill-opacity:1;stroke:#cf3bd2;stroke-width:1.88890362;stroke-miterlimit:4;stroke-dasharray:none;stroke-opacity:1"
       d="m 577.93355,129.86628 c -0.32555,-3.37641 -0.33341,-17.40152 -0.0175,-31.166907 l 0.57444,-25.027973 115.1209,0 115.1209,0 0,31.16691 0,31.16691 -115.10344,0 -115.10344,0 -0.5919,-6.13894 z"
       id="path5823"
       inkscape:connector-curvature="0" />
    <path
       style="opacity:1;fill:#e732dd;fill-opacity:1;stroke:#cf3bd2;stroke-width:1.88890362;stroke-miterlimit:4;stroke-dasharray:none;stroke-opacity:1"
       d="m 579.1242,133.57587 c -0.51896,-1.35238 -0.70733,-15.17163 -0.41861,-30.70945 l 0.52495,-28.250568 114.27867,0 114.27867,0 0,30.222458 0,30.22246 -113.86006,0.48699 c -92.10704,0.39395 -114.04032,0.0172 -114.80362,-1.97189 z"
       id="path5825"
       inkscape:connector-curvature="0" />
    <path
       style="opacity:1;fill:#e732dd;fill-opacity:1;stroke:#cf3bd2;stroke-width:1.88890362;stroke-miterlimit:4;stroke-dasharray:none;stroke-opacity:1"
       d="m 579.93888,129.39406 c -0.12986,-2.59725 -0.23611,-5.99727 -0.23611,-7.55562 0,-1.55834 0.10625,-12.60843 0.23611,-24.555745 l 0.23612,-21.722391 113.33421,0 113.33422,0 0,29.278006 0,29.27801 -113.33422,0 -113.33421,0 -0.23612,-4.72226 z"
       id="path5827"
       inkscape:connector-curvature="0" />
    <path
       style="opacity:1;fill:#e732dd;fill-opacity:1;stroke:#cf3bd2;stroke-width:1.88890362;stroke-miterlimit:4;stroke-dasharray:none;stroke-opacity:1"
       d="m 581.01014,131.67923 c -0.5207,-1.3569 -0.70911,-14.32625 -0.4187,-28.82078 l 0.52801,-26.353694 112.38976,0 112.38977,0 0,28.333554 0,28.33355 -111.97107,0.48723 c -90.74569,0.39487 -112.15052,0.0196 -112.91777,-1.97986 z"
       id="path5829"
       inkscape:connector-curvature="0" />
    <path
       style="opacity:1;fill:#e732dd;fill-opacity:1;stroke:#cf3bd2;stroke-width:1.88890362;stroke-miterlimit:4;stroke-dasharray:none;stroke-opacity:1"
       d="m 581.71135,126.08848 c -0.32554,-3.37642 -0.32794,-15.70152 -0.005,-27.389107 l 0.58658,-21.250165 111.33096,0 111.33096,0 0,27.389102 0,27.3891 -111.32564,0 -111.32563,0 -0.59191,-6.13893 z"
       id="path5831"
       inkscape:connector-curvature="0" />
    <path
       style="opacity:1;fill:#e732dd;fill-opacity:1;stroke:#cf3bd2;stroke-width:1.88890362;stroke-miterlimit:4;stroke-dasharray:none;stroke-opacity:1"
       d="m 582.8957,129.78163 c -0.52262,-1.36195 -0.71108,-13.4814 -0.41879,-26.93212 l 0.53144,-24.455851 110.50086,0 110.50086,0 0,26.444651 0,26.44465 -110.08206,0.48747 c -89.39839,0.39588 -110.26062,0.0222 -111.03231,-1.9888 z"
       id="path5833"
       inkscape:connector-curvature="0" />
    <path
       style="opacity:1;fill:#e732dd;fill-opacity:1;stroke:#cf3bd2;stroke-width:1.88890362;stroke-miterlimit:4;stroke-dasharray:none;stroke-opacity:1"
       d="m 583.71669,125.61625 c -0.12986,-2.59724 -0.23611,-5.99727 -0.23611,-7.55562 0,-1.55834 0.10625,-10.90841 0.23611,-20.777935 l 0.23611,-17.944584 109.55641,0 109.55641,0 0,25.500199 0,25.5002 -109.55641,0 -109.55641,0 -0.23611,-4.72226 z"
       id="path5835"
       inkscape:connector-curvature="0" />
    <path
       style="opacity:1;fill:#e732dd;fill-opacity:1;stroke:#cf3bd2;stroke-width:1.88890362;stroke-miterlimit:4;stroke-dasharray:none;stroke-opacity:1"
       d="m 584.78084,127.88291 c -0.52481,-1.36763 -0.71331,-12.63719 -0.41889,-25.04347 l 0.53531,-22.556877 108.61195,0 108.61196,0 0,24.555747 0,24.55575 -108.19307,0.48772 c -88.06748,0.39699 -108.37056,0.0252 -109.14726,-1.99887 z"
       id="path5837"
       inkscape:connector-curvature="0" />
    <path
       style="opacity:1;fill:#e732dd;fill-opacity:1;stroke:#cf3bd2;stroke-width:1.88890362;stroke-miterlimit:4;stroke-dasharray:none;stroke-opacity:1"
       d="m 585.57614,122.31067 c -0.37339,-3.37642 -0.40606,-14.0015 -0.0726,-23.611297 l 0.60628,-17.472358 107.53345,0 107.53345,0 0,23.611295 0,23.61129 -107.46085,0 -107.46085,0 -0.67888,-6.13893 z"
       id="path5839"
       inkscape:connector-curvature="0" />
    <path
       style="opacity:1;fill:#e732dd;fill-opacity:1;stroke:#cf3bd2;stroke-width:1.88890362;stroke-miterlimit:4;stroke-dasharray:none;stroke-opacity:1"
       d="m 586.66546,125.98283 c -0.52728,-1.37404 -0.71582,-11.79371 -0.41899,-23.15481 l 0.53969,-20.656553 106.72305,0 106.72306,0 0,22.666843 0,22.66684 -106.30407,0.48798 c -86.75587,0.39824 -106.48036,0.0286 -107.26274,-2.0103 z"
       id="path5841"
       inkscape:connector-curvature="0" />
    <path
       style="opacity:1;fill:#e732dd;fill-opacity:1;stroke:#cf3bd2;stroke-width:1.88890362;stroke-miterlimit:4;stroke-dasharray:none;stroke-opacity:1"
       d="m 587.42368,122.31067 c -0.41103,-2.33752 -0.42555,-12.1126 -0.0323,-21.72239 l 0.71508,-17.472362 105.59066,0 105.59065,0 0,21.722392 0,21.72239 -105.55839,0 -105.5584,0 -0.74734,-4.25003 z"
       id="path5843"
       inkscape:connector-curvature="0" />
    <path
       style="opacity:1;fill:#e732dd;fill-opacity:1;stroke:#cf3bd2;stroke-width:1.88890362;stroke-miterlimit:4;stroke-dasharray:none;stroke-opacity:1"
       d="m 588.54945,124.08114 c -0.53008,-1.38138 -0.71867,-10.95116 -0.41909,-21.26618 l 0.5447,-18.75459 104.83415,0 104.83415,0 0,20.77794 0,20.77794 -104.41506,0.48824 c -85.46704,0.39965 -104.58996,0.0325 -105.37885,-2.02335 z"
       id="path5845"
       inkscape:connector-curvature="0" />
    <path
       style="opacity:1;fill:#e732dd;fill-opacity:1;stroke:#cf3bd2;stroke-width:1.88890362;stroke-miterlimit:4;stroke-dasharray:none;stroke-opacity:1"
       d="m 589.36168,119.47731 c -0.37764,-2.85696 -0.40696,-11.78203 -0.0652,-19.833485 l 0.62146,-14.639003 103.74046,0 103.74047,0 0,19.833488 0,19.83349 -103.67531,0 -103.67531,0 -0.68661,-5.19449 z"
       id="path5847"
       inkscape:connector-curvature="0" />
    <path
       style="opacity:1;fill:#e732dd;fill-opacity:1;stroke:#cf3bd2;stroke-width:1.88890362;stroke-miterlimit:4;stroke-dasharray:none;stroke-opacity:1"
       d="m 590.43269,122.17747 c -0.53332,-1.38981 -0.72196,-10.10971 -0.4192,-19.37756 l 0.55048,-16.850636 102.94524,0 102.94525,0 0,18.889036 0,18.88904 -102.52605,0.48852 c -84.20529,0.40122 -102.69933,0.037 -103.49572,-2.0384 z"
       id="path5849"
       inkscape:connector-curvature="0" />
    <path
       style="opacity:1;fill:#e732dd;fill-opacity:1;stroke:#cf3bd2;stroke-width:1.88890362;stroke-miterlimit:4;stroke-dasharray:none;stroke-opacity:1"
       d="m 591.2209,119.47731 c -0.30124,-3.46332 -0.29903,-4.22694 0.0629,-21.722389 l 0.22466,-10.861195 102.00079,0 102.0008,0 0,17.944584 0,17.94458 -102.0008,0 c -95.77481,0 -102.01834,-0.20176 -102.28831,-3.30558 z"
       id="path5851"
       inkscape:connector-curvature="0" />
    <path
       style="opacity:1;fill:#e732dd;fill-opacity:1;stroke:#cf3bd2;stroke-width:1.88890362;stroke-miterlimit:4;stroke-dasharray:none;stroke-opacity:1"
       d="m 604.73074,121.0493 -12.27787,-1.09976 0,-16.05568 0,-16.055683 101.05634,0 101.05635,0 0,17.000133 0,17.00013 -88.77847,0.15531 c -48.82816,0.0854 -94.30352,-0.33958 -101.05635,-0.94445 z"
       id="path5853"
       inkscape:connector-curvature="0" />
    <path
       style="opacity:1;fill:#e732dd;fill-opacity:1;stroke:#cf3bd2;stroke-width:1.88890362;stroke-miterlimit:4;stroke-dasharray:none;stroke-opacity:1"
       d="m 596.7029,119.59192 c -2.7975,-0.73106 -3.30558,-3.16518 -3.30558,-15.83656 l 0,-14.972731 100.11189,0 100.11189,0 0,16.055681 0,16.05568 -96.80631,-0.21911 c -53.24347,-0.12052 -98.29382,-0.60785 -100.11189,-1.08296 z"
       id="path5855"
       inkscape:connector-curvature="0" />
    <path
       style="opacity:1;fill:#e732dd;fill-opacity:1;stroke:#cf3bd2;stroke-width:1.88890362;stroke-miterlimit:4;stroke-dasharray:none;stroke-opacity:1"
       d="m 633.61482,119.49259 -38.17199,-0.56523 -1.15236,-6.14259 c -0.6338,-3.37843 -0.88153,-9.94849 -0.55053,-14.600143 l 0.60183,-8.457546 99.16744,0 99.16744,0 0,15.111229 0,15.11123 -60.44491,0.0541 c -33.24471,0.0298 -77.62232,-0.20021 -98.61692,-0.51108 z"
       id="path5857"
       inkscape:connector-curvature="0" />
    <path
       style="opacity:1;fill:#e732dd;fill-opacity:1;stroke:#cf3bd2;stroke-width:1.88890362;stroke-miterlimit:4;stroke-dasharray:none;stroke-opacity:1"
       d="m 596.02665,116.32116 c -1.05323,-2.74467 -1.5927,-13.78454 -1.04571,-21.399594 l 0.30529,-4.250033 98.22298,0 98.22299,0 0,14.166777 0,14.16678 -97.33782,0 c -82.37138,0 -97.49617,-0.41268 -98.36773,-2.68393 z"
       id="path5859"
       inkscape:connector-curvature="0" />
    <path
       style="opacity:1;fill:#e732dd;fill-opacity:1;stroke:#cf3bd2;stroke-width:1.88890362;stroke-miterlimit:4;stroke-dasharray:none;stroke-opacity:1"
       d="m 611.83025,117.61109 c -16.55322,-0.73947 -17.34263,-1.59958 -16.19608,-17.646553 l 0.59651,-8.348552 97.27853,0 97.27854,0 0,13.222325 0,13.22232 -82.16731,0.10185 c -45.19202,0.056 -88.7476,-0.1921 -96.79019,-0.55139 z"
       id="path5861"
       inkscape:connector-curvature="0" />
    <path
       style="opacity:1;fill:#e732dd;fill-opacity:1;stroke:#cf3bd2;stroke-width:1.88890362;stroke-miterlimit:4;stroke-dasharray:none;stroke-opacity:1"
       d="m 600.56947,115.83121 c -4.31957,-1.13702 -5.85467,-6.74276 -4.32533,-15.79482 l 1.26305,-7.475954 96.16805,0 96.16806,0 0,12.277874 0,12.27787 -93.02851,-0.21911 c -51.16567,-0.12052 -94.47607,-0.60015 -96.24532,-1.06586 z"
       id="path5863"
       inkscape:connector-curvature="0" />
    <path
       style="opacity:1;fill:#e732dd;fill-opacity:1;stroke:#cf3bd2;stroke-width:1.88890362;stroke-miterlimit:4;stroke-dasharray:none;stroke-opacity:1"
       d="m 635.89765,115.30109 -37.77807,-1.01826 0,-10.38897 0,-10.388972 95.38963,0 95.38963,0 0,11.333422 0,11.33342 -57.61156,0.0738 c -31.68635,0.0406 -74.61169,-0.38441 -95.38963,-0.94445 z"
       id="path5865"
       inkscape:connector-curvature="0" />
    <path
       style="opacity:1;fill:#e732dd;fill-opacity:1;stroke:#cf3bd2;stroke-width:1.88890362;stroke-miterlimit:4;stroke-dasharray:none;stroke-opacity:1"
       d="m 609.92523,113.8314 -10.8612,-0.68155 0,-9.35026 0,-9.35025 94.44518,0 94.44518,0 0,10.38897 0,10.38897 -83.58398,-0.35716 c -45.97119,-0.19644 -88.47152,-0.66386 -94.44518,-1.03872 z"
       id="path5867"
       inkscape:connector-curvature="0" />
    <path
       style="opacity:1;fill:#e732dd;fill-opacity:1;stroke:#cf3bd2;stroke-width:1.88890362;stroke-miterlimit:4;stroke-dasharray:none;stroke-opacity:1"
       d="m 651.00888,113.40204 -51.0004,-1.00812 0,-8.50006 0,-8.500068 93.50073,0 93.50073,0 0,9.444518 0,9.44452 -42.50033,0.0637 c -23.37518,0.035 -65.45051,-0.38998 -93.50073,-0.94445 z"
       id="path5869"
       inkscape:connector-curvature="0" />
    <path
       style="opacity:1;fill:#e732dd;fill-opacity:1;stroke:#cf3bd2;stroke-width:1.88890362;stroke-miterlimit:4;stroke-dasharray:none;stroke-opacity:1"
       d="m 615.59194,111.93434 -14.639,-0.64378 0,-7.47616 0,-7.476156 92.55627,0 92.55628,0 0,8.500066 0,8.50007 -77.91727,-0.38013 c -42.8545,-0.20908 -84.50483,-0.66984 -92.55628,-1.02391 z"
       id="path5871"
       inkscape:connector-curvature="0" />
    <path
       style="opacity:1;fill:#e732dd;fill-opacity:1;stroke:#cf3bd2;stroke-width:1.88890362;stroke-miterlimit:4;stroke-dasharray:none;stroke-opacity:1"
       d="m 655.73114,111.51262 -53.83375,-1.0076 0,-6.61116 0,-6.611165 91.61182,0 91.61183,0 0,7.555615 0,7.55561 -37.77807,0.0632 c -20.77794,0.0347 -62.00327,-0.39027 -91.61183,-0.94446 z"
       id="path5873"
       inkscape:connector-curvature="0" />
    <path
       style="opacity:1;fill:#e732dd;fill-opacity:1;stroke:#cf3bd2;stroke-width:1.88890362;stroke-miterlimit:4;stroke-dasharray:none;stroke-opacity:1"
       d="m 676.27809,112.47775 c -0.4723,-0.4723 -14.42615,-0.99319 -31.00855,-1.15752 -40.42736,-0.40063 -42.4277,-0.76087 -42.4277,-7.64076 l 0,-5.452323 90.66737,0 90.66738,0 0,6.611163 0,6.61116 -42.97256,0.1548 c -23.63491,0.0851 -47.71886,0.50971 -53.51988,0.9435 -5.80103,0.43379 -10.93376,0.40228 -11.40606,-0.07 z"
       id="path5875"
       inkscape:connector-curvature="0" />
    <path
       style="opacity:1;fill:#e732dd;fill-opacity:1;stroke:#cf3bd2;stroke-width:1.88890362;stroke-miterlimit:4;stroke-dasharray:none;stroke-opacity:1"
       d="m 622.37327,110.05777 c -15.92689,-0.66596 -21.09871,-3.13294 -18.85047,-8.99174 0.97042,-2.528875 11.88056,-2.816716 90.40647,-2.385186 l 89.30286,0.490755 0,5.666711 0,5.66671 -72.72278,0.0986 c -39.99754,0.0542 -79.65877,-0.1914 -88.13608,-0.54587 z"
       id="path5877"
       inkscape:connector-curvature="0" />
    <path
       style="opacity:1;fill:#e732dd;fill-opacity:1;stroke:#cf3bd2;stroke-width:1.88890362;stroke-miterlimit:4;stroke-dasharray:none;stroke-opacity:1"
       d="m 542.39692,104.83831 0,-67.056078 151.11229,0 151.11229,0 0,67.056078 0,67.05608 -151.11229,0 -151.11229,0 0,-67.05608 z m 239.89076,0 0,-4.72226 -87.72254,0 c -83.3044,0 -93.64509,0.59675 -89.09995,5.14189 3.08018,3.08019 22.0354,3.88625 96.07186,4.08541 l 80.75063,0.21722 0,-4.72226 z"
       id="path5879"
       inkscape:connector-curvature="0" />
    <path
       style="opacity:1;fill:#e732dd;fill-opacity:1;stroke:#cf3bd2;stroke-width:0.23611295;stroke-miterlimit:4;stroke-dasharray:none;stroke-opacity:1"
       d="m 697.80607,108.41519 c -39.18062,-0.15774 -48.56886,-0.26285 -63.7505,-0.71372 -15.50465,-0.46048 -23.33829,-1.1635 -26.61969,-2.38897 -1.18531,-0.44266 -2.06223,-1.23768 -1.81193,-1.64268 0.22894,-0.37044 2.60627,-0.92509 5.4103,-1.26228 9.0995,-1.09421 24.8516,-1.29394 102.4143,-1.29857 l 67.9415,-0.004 0,3.77781 0,3.77781 -21.89947,-0.0426 c -12.04472,-0.0234 -39.80274,-0.11467 -61.68451,-0.20276 z"
       id="path5881"
       inkscape:connector-curvature="0" />
    <path
       style="opacity:1;fill:#e732dd;fill-opacity:1;stroke:#cf3bd2;stroke-width:0.23611295;stroke-miterlimit:4;stroke-dasharray:none;stroke-opacity:1"
       d="m 761.06717,108.57769 c -0.0555,-0.0483 -22.89169,-0.15645 -50.74712,-0.24029 -50.26596,-0.1513 -53.82693,-0.18257 -72.25056,-0.63444 -21.53119,-0.52808 -30.51822,-1.47926 -32.10245,-3.39769 -0.30597,-0.37052 -0.29749,-0.45302 0.0745,-0.72503 0.96021,-0.70212 6.68938,-1.41459 14.20142,-1.76606 8.30601,-0.38862 67.99701,-0.72746 115.81341,-0.65743 l 45.21563,0.0662 0,3.65975 0,3.65975 -10.05198,0.0615 c -5.52858,0.0338 -10.09737,0.022 -10.15285,-0.0263 z"
       id="path5883"
       inkscape:connector-curvature="0" />
    <path
       style="opacity:1;fill:#e732dd;fill-opacity:1;stroke:#cf3bd2;stroke-width:0.23611295;stroke-miterlimit:4;stroke-dasharray:none;stroke-opacity:1"
       d="m 720.82708,108.30599 c -0.12986,-0.0446 -16.06749,-0.13818 -35.41694,-0.20788 -53.49467,-0.19268 -71.53756,-0.85985 -77.58614,-2.86886 -1.16533,-0.38706 -2.00994,-1.10295 -1.76633,-1.49713 0.53263,-0.86181 9.22411,-1.74196 20.08812,-2.03425 2.33752,-0.0629 38.17061,-0.181 79.62909,-0.26247 l 75.37906,-0.14813 0,3.56857 0,3.56858 -30.04537,-0.0186 c -16.52496,-0.0102 -30.15163,-0.0552 -30.28149,-0.0998 z"
       id="path5885"
       inkscape:connector-curvature="0" />
    <path
       style="opacity:1;fill:#e732dd;fill-opacity:1;stroke:#cf3bd2;stroke-width:0.23611295;stroke-miterlimit:4;stroke-dasharray:none;stroke-opacity:1"
       d="m 727.79241,108.25764 c -24.63077,-0.10774 -84.61729,-0.56618 -88.30624,-0.67487 -15.98919,-0.4711 -22.2643,-0.8237 -27.03493,-1.51912 -3.63335,-0.52963 -5.31218,-1.00049 -5.90575,-1.65637 -0.6034,-0.66675 -0.29391,-0.8846 1.83554,-1.29203 6.78235,-1.29768 17.2785,-1.46281 104.83778,-1.64937 l 67.94787,-0.14478 -0.0654,3.49263 -0.0654,3.49264 -20.89599,6.8e-4 c -11.4928,3.8e-4 -26.04916,-0.0219 -32.34748,-0.0494 z"
       id="path5887"
       inkscape:connector-curvature="0" />
    <path
       style="opacity:1;fill:#e732dd;fill-opacity:1;stroke:#cf3bd2;stroke-width:0.23611295;stroke-miterlimit:4;stroke-dasharray:none;stroke-opacity:1"
       d="m 686.23653,107.94225 c -27.76296,-0.19996 -49.42622,-0.44594 -51.35456,-0.58312 -0.77918,-0.0554 -3.43545,-0.16069 -5.90283,-0.23393 -12.44659,-0.36943 -20.86765,-1.40085 -22.18393,-2.71712 -0.65689,-0.6569 -0.32998,-0.86334 2.01455,-1.2722 3.33894,-0.58226 7.4041,-0.84029 17.21797,-1.09288 8.08235,-0.20802 154.89473,-0.77603 155.0708,-0.59996 0.036,0.036 -0.006,1.5684 -0.094,3.40535 l -0.15944,3.33992 -35.79378,-0.0401 c -19.68657,-0.0221 -46.15323,-0.11473 -58.81479,-0.20593 z"
       id="path5889"
       inkscape:connector-curvature="0" />
    <path
       style="opacity:1;fill:#e732dd;fill-opacity:1;stroke:#cf3bd2;stroke-width:0.23611295;stroke-miterlimit:4;stroke-dasharray:none;stroke-opacity:1"
       d="m 741.92164,108.07205 c -0.0639,-0.0639 -13.23019,-0.13459 -29.25833,-0.157 -78.59249,-0.10987 -102.46196,-0.90254 -105.56475,-3.50563 -0.45848,-0.38465 -0.49314,-0.49901 -0.20802,-0.6864 0.96334,-0.63314 5.96686,-1.12274 14.76953,-1.44524 8.26274,-0.30272 63.69699,-0.61029 119.94495,-0.6655 l 39.43086,-0.0387 -0.14495,3.24834 c -0.0797,1.78659 -0.15941,3.27491 -0.17708,3.30737 -0.0623,0.11444 -38.67751,0.0575 -38.79221,-0.0572 z"
       id="path5891"
       inkscape:connector-curvature="0" />
    <path
       style="opacity:1;fill:#e732dd;fill-opacity:1;stroke:#cf3bd2;stroke-width:0.23611295;stroke-miterlimit:4;stroke-dasharray:none;stroke-opacity:1"
       d="m 693.20187,110.29584 c -58.88823,-0.26164 -76.73941,-0.8281 -84.76721,-2.68987 -2.42475,-0.56234 -3.79553,-1.40519 -4.50592,-2.77054 -0.95513,-1.83572 0.27813,-3.14134 3.61397,-3.82604 7.61186,-1.562355 20.75527,-1.78416 106.0239,-1.789228 l 69.71235,-0.0041 0,5.666708 0,5.66671 -25.79534,-0.0413 c -14.18744,-0.0227 -43.11423,-0.11825 -64.28175,-0.2123 z m 87.47984,-4.67526 c 0,-1.28239 0.0664,-2.66365 0.14757,-3.06947 l 0.14758,-0.73785 -39.75552,0.003 c -48.54141,0.003 -111.61705,0.37454 -120.27004,0.70798 -8.80604,0.33934 -13.56939,0.82984 -13.94393,1.43586 -0.47444,0.76765 5.00129,1.84627 11.81892,2.32812 14.774,1.04418 49.70895,1.44675 140.9004,1.62367 l 20.95502,0.0407 0,-2.33162 z"
       id="path5893"
       inkscape:connector-curvature="0" />
    <path
       style="opacity:1;fill:#e732dd;fill-opacity:1;stroke:#cf3bd2;stroke-width:0.23611295;stroke-miterlimit:4;stroke-dasharray:none;stroke-opacity:1"
       d="m 550.7077,104.88273 0,-66.111627 146.50809,0 146.50808,0 0,66.111627 0,66.11163 -146.50808,0 -146.50809,0 0,-66.11163 z m 199.71071,5.48967 c -7.35967,-0.0346 -19.47226,-0.0346 -26.91687,-1e-5 -7.44461,0.0346 -1.42306,0.063 13.38122,0.063 14.80428,0 20.89533,-0.0283 13.53565,-0.063 z m -65.77564,-0.23599 c -3.40888,-0.0369 -8.98705,-0.0369 -12.39593,0 -3.40888,0.0369 -0.6198,0.0671 6.19797,0.0671 6.81776,0 9.60684,-0.0302 6.19796,-0.0671 z m -29.29194,-0.23576 c -1.72834,-0.0404 -4.49086,-0.0403 -6.13894,2.3e-4 -1.64807,0.0405 -0.23398,0.0736 3.14244,0.0734 3.37641,-1.3e-4 4.72484,-0.0333 2.9965,-0.0737 l 0,10e-6 z m -14.87151,-0.23507 c -0.94718,-0.0449 -2.43469,-0.0446 -3.30558,7.1e-4 -0.87089,0.0453 -0.0959,0.0821 1.72215,0.0817 1.81807,-4.7e-4 2.53061,-0.0374 1.58343,-0.0824 l 0,-3e-5 z m -8.96196,-0.23466 c -0.68178,-0.0477 -1.79741,-0.0477 -2.47919,0 -0.68177,0.0477 -0.12396,0.0867 1.23959,0.0867 1.36356,0 1.92137,-0.039 1.2396,-0.0867 z m -6.257,-0.23405 c -0.48698,-0.0509 -1.28386,-0.0509 -1.77084,0 -0.48699,0.051 -0.0885,0.0926 0.88542,0.0926 0.97397,0 1.37241,-0.0417 0.88542,-0.0926 z m -4.2458,-0.23282 c -0.3548,-0.0539 -0.9923,-0.055 -1.41668,-0.002 -0.42438,0.0525 -0.13409,0.0966 0.64508,0.098 0.77918,10e-4 1.12639,-0.0417 0.7716,-0.0956 z m -3.42787,-0.23403 c -0.29219,-0.0563 -0.77032,-0.0563 -1.06251,0 -0.29218,0.0563 -0.0531,0.10232 0.53126,0.10232 0.58438,0 0.82344,-0.0461 0.53125,-0.10232 z m -2.47643,-0.23171 c -0.22574,-0.0591 -0.65075,-0.0612 -0.94445,-0.005 -0.2937,0.0565 -0.10901,0.10483 0.41044,0.10745 0.51945,0.003 0.75976,-0.0436 0.53401,-0.10269 l 0,1e-5 z m -2.24133,-0.22876 c -0.15986,-0.0647 -0.47861,-0.0686 -0.70834,-0.009 -0.22973,0.0599 -0.0989,0.11278 0.29065,0.11759 0.38958,0.005 0.57754,-0.0442 0.41769,-0.10884 l 0,1e-5 z m -1.65729,-0.23761 c -0.16232,-0.0655 -0.42795,-0.0655 -0.59028,0 -0.16233,0.0655 -0.0295,0.11909 0.29514,0.11909 0.32466,0 0.45747,-0.0536 0.29514,-0.11909 z m -1.30354,-0.22239 c -0.0785,-0.0785 -0.2821,-0.0868 -0.45255,-0.0186 -0.18835,0.0754 -0.1324,0.13132 0.14266,0.14265 0.2489,0.0102 0.38835,-0.0456 0.30989,-0.12402 l 0,0 z m 134.47125,-0.0344 c -7.04502,-0.0347 -18.57324,-0.0347 -25.61826,0 -7.04502,0.0347 -1.28091,0.0631 12.80913,0.0631 14.09004,0 19.85415,-0.0284 12.80913,-0.0631 z m -135.65181,-0.20173 c -0.0785,-0.0785 -0.28211,-0.0868 -0.45255,-0.0186 -0.18836,0.0754 -0.13241,0.13132 0.14265,0.14265 0.2489,0.0102 0.38836,-0.0456 0.3099,-0.12401 l 0,-1e-5 z m 77.56802,-0.0342 c -2.88943,-0.0376 -7.61759,-0.0376 -10.50702,0 -2.88944,0.0376 -0.52536,0.0683 5.25351,0.0683 5.77886,0 8.14294,-0.0307 5.25351,-0.0683 z m -27.15299,-0.23553 c -1.46095,-0.0414 -3.85159,-0.0414 -5.31254,0 -1.46095,0.0414 -0.26563,0.0753 2.65627,0.0753 2.9219,0 4.11722,-0.0339 2.65627,-0.0753 z m -15.57266,-0.23495 c -0.93557,-0.0447 -2.52933,-0.045 -3.54169,-7.1e-4 -1.01237,0.0444 -0.24691,0.0809 1.70102,0.0813 1.94793,2.4e-4 2.77624,-0.036 1.84067,-0.0807 l 0,1e-4 z m -37.49372,-0.33591 c -0.82989,-0.45786 -1.81863,-1.47416 -2.14453,-2.20429 -0.22404,-0.50191 -0.31887,-0.5781 -0.32542,-0.26141 -0.0106,0.51458 2.12096,2.74416 2.6133,2.73342 0.19959,-0.004 0.14324,-0.1096 -0.14335,-0.26772 z m 27.45604,0.10167 c -0.61249,-0.0485 -1.675,-0.049 -2.36113,-0.001 -0.68613,0.0478 -0.185,0.0875 1.11362,0.0881 1.29863,7e-4 1.86,-0.0385 1.24751,-0.087 l 0,7e-5 z m -6.73001,-0.23542 c -0.54799,-0.0495 -1.50425,-0.0501 -2.12501,-0.001 -0.62077,0.0488 -0.17241,0.0893 0.99635,0.09 1.16876,7.1e-4 1.67666,-0.0392 1.12866,-0.0887 l 0,1.1e-4 z m -5.31966,-0.2327 c -0.35712,-0.0541 -0.9415,-0.0541 -1.29862,0 -0.35713,0.0541 -0.0649,0.0984 0.64931,0.0984 0.71424,0 1.00643,-0.0443 0.64931,-0.0984 z m -3.42364,-0.23363 c -0.29219,-0.0563 -0.77032,-0.0563 -1.06251,0 -0.29219,0.0563 -0.0531,0.10233 0.53125,0.10233 0.58438,0 0.82345,-0.0461 0.53126,-0.10233 z m -2.47919,-0.23224 c -0.22726,-0.0594 -0.59913,-0.0594 -0.82639,0 -0.22726,0.0594 -0.0413,0.10799 0.4132,0.10799 0.45451,0 0.64045,-0.0486 0.41319,-0.10799 z m -2.00246,-0.22822 c -0.15986,-0.0647 -0.47861,-0.0686 -0.70834,-0.009 -0.22973,0.0599 -0.0989,0.11278 0.29065,0.11759 0.38958,0.005 0.57754,-0.0442 0.41769,-0.10885 l 0,2e-5 z m -1.65729,-0.23761 c -0.16233,-0.0655 -0.42795,-0.0655 -0.59028,0 -0.16233,0.0655 -0.0295,0.11909 0.29514,0.11909 0.32466,0 0.45747,-0.0536 0.29514,-0.11909 z m -1.30354,-0.2224 c -0.0785,-0.0785 -0.2821,-0.0868 -0.45255,-0.0186 -0.18835,0.0754 -0.13241,0.13132 0.14265,0.14265 0.24891,0.0102 0.38836,-0.0456 0.3099,-0.12401 l 0,-1e-5 z m -1.18056,-0.23611 c -0.0785,-0.0785 -0.28211,-0.0868 -0.45255,-0.0186 -0.18836,0.0754 -0.13241,0.13132 0.14265,0.14265 0.2489,0.0102 0.38836,-0.0456 0.3099,-0.12401 l 0,-10e-6 z m -1.88895,-0.58738 c -0.22999,-0.13389 -0.34639,-0.35958 -0.25866,-0.50153 0.0979,-0.15843 0.0498,-0.1903 -0.12456,-0.0825 -0.33125,0.20472 0.0805,0.84694 0.53515,0.83468 0.14643,-0.004 0.0781,-0.11673 -0.15193,-0.25063 z m 173.30178,-1.68737 c -0.0565,-0.29371 -0.10483,-0.10901 -0.10745,0.41044 -0.003,0.51945 0.0436,0.75975 0.10268,0.53401 0.0591,-0.22575 0.0612,-0.65075 0.005,-0.94445 l 0,0 z m -172.5934,0.85807 c -0.0785,-0.0785 -0.2821,-0.0868 -0.45255,-0.0186 -0.18835,0.0754 -0.1324,0.13132 0.14266,0.14265 0.2489,0.0102 0.38835,-0.0456 0.30989,-0.12401 l 0,-10e-6 z m 1.30804,-0.24833 c -0.15986,-0.0647 -0.47861,-0.0686 -0.70834,-0.009 -0.22973,0.0599 -0.0989,0.11278 0.29065,0.11759 0.38958,0.005 0.57754,-0.0442 0.41769,-0.10885 l 0,2e-5 z m 2.24133,-0.24347 c -0.22575,-0.0591 -0.65075,-0.0612 -0.94445,-0.005 -0.29371,0.0565 -0.10901,0.10483 0.41044,0.10745 0.51945,0.003 0.75975,-0.0436 0.53401,-0.10268 l 0,0 z m 2.8306,-0.243 c -0.35712,-0.0541 -0.9415,-0.0541 -1.29862,0 -0.35712,0.0541 -0.0649,0.0984 0.64931,0.0984 0.71424,0 1.00643,-0.0443 0.64931,-0.0984 z m -10.29982,-0.48019 c 0.29369,-0.37449 0.28534,-0.38285 -0.0892,-0.0892 -0.22726,0.17823 -0.4132,0.36417 -0.4132,0.4132 0,0.19433 0.1939,0.0692 0.50235,-0.32405 z m 15.02208,0.24119 c -0.48698,-0.0509 -1.28386,-0.0509 -1.77085,0 -0.48698,0.0509 -0.0885,0.0926 0.88543,0.0926 0.97396,0 1.3724,-0.0417 0.88542,-0.0926 z m 10.40153,-0.23998 c -1.25925,-0.0424 -3.38426,-0.0425 -4.72226,-4.7e-4 -1.33799,0.0422 -0.3077,0.0768 2.28954,0.077 2.59724,2.1e-4 3.69197,-0.0343 2.43272,-0.0767 l 0,9e-5 z m 10.84372,-0.2029 c -0.0785,-0.0785 -0.28211,-0.0868 -0.45255,-0.0186 -0.18836,0.0754 -0.13241,0.13132 0.14265,0.14265 0.2489,0.0102 0.38836,-0.0456 0.3099,-0.12402 l 0,-1e-5 z m 14.27402,-0.0342 c -2.63835,-0.038 -6.88839,-0.038 -9.44451,1.2e-4 -2.55613,0.0381 -0.39748,0.0692 4.79701,0.0691 5.19448,-7e-5 7.28586,-0.0312 4.6475,-0.0693 z m -49.50271,-0.48588 c -0.0727,-0.0727 -0.26322,-1.5e-4 -0.42339,0.16121 -0.23145,0.23319 -0.20433,0.26031 0.13218,0.13218 0.23286,-0.0887 0.3639,-0.22069 0.29121,-0.29339 z m 99.10216,0.2496 c -5.87626,-0.0351 -15.49196,-0.0351 -21.36822,0 -5.87626,0.0352 -1.06841,0.0639 10.68411,0.0639 11.75252,0 16.56037,-0.0288 10.68411,-0.0639 z m -96.45706,-0.91008 c -0.0785,-0.0785 -0.28211,-0.0868 -0.45255,-0.0186 -0.18835,0.0754 -0.13241,0.13132 0.14265,0.14265 0.2489,0.0102 0.38836,-0.0456 0.3099,-0.12401 l 0,-10e-6 z m 1.30354,-0.24983 c -0.16233,-0.0655 -0.42795,-0.0655 -0.59028,0 -0.16233,0.0655 -0.0295,0.11909 0.29514,0.11909 0.32465,0 0.45747,-0.0536 0.29514,-0.11909 z m 1.77085,-0.2425 c -0.22726,-0.0594 -0.59914,-0.0594 -0.8264,0 -0.22726,0.0594 -0.0413,0.10798 0.4132,0.10798 0.45452,0 0.64046,-0.0486 0.4132,-0.10798 z m 2.24307,-0.23999 c -0.29219,-0.0563 -0.77032,-0.0563 -1.06251,0 -0.29219,0.0563 -0.0531,0.10233 0.53126,0.10233 0.58438,0 0.82344,-0.046 0.53125,-0.10233 z m 3.42787,-0.23819 c -0.3548,-0.05387 -0.9923,-0.05496 -1.41668,-0.0024 -0.42438,0.05255 -0.13409,0.09663 0.64508,0.09796 0.77917,0.001 1.12639,-0.0417 0.7716,-0.09555 z m 5.43428,-0.240632 c -0.61249,-0.04846 -1.675,-0.04896 -2.36113,-0.0012 -0.68613,0.04785 -0.185,0.0875 1.11362,0.08811 1.29862,7.08e-4 1.86,-0.03853 1.24751,-0.08699 l 0,6.3e-5 z m 10.73522,-0.238996 c -1.33108,-0.04209 -3.50922,-0.04209 -4.84031,0 -1.33109,0.04209 -0.24202,0.07652 2.42016,0.07652 2.66217,0 3.75124,-0.03443 2.42015,-0.07652 z m 35.29889,-0.23701 c -5.29188,-0.03542 -13.95132,-0.03542 -19.2432,0 -5.29189,0.03542 -0.96216,0.0644 9.6216,0.0644 10.58376,0 14.91348,-0.02898 9.6216,-0.0644 z"
       id="path5895"
       inkscape:connector-curvature="0" />
  </g>
  <g
     inkscape:groupmode="layer"
     id="layer12"
     inkscape:label="bordo"
     style="display:inline">
    <g
       style="display:inline"
       inkscape:label="bordo"
       id="layer9"
       transform="translate(1.0026851e-4,3.9980999e-4)">
      <g
         transform="matrix(0.98408585,0,0,0.97888478,-0.64744853,7.594777)"
         id="layer4"
         inkscape:label="bordo"
         style="display:inline;stroke-width:1;stroke-miterlimit:4;stroke-dasharray:none">
        <path
           style="color:#000000;clip-rule:nonzero;display:inline;overflow:visible;visibility:visible;opacity:1;isolation:auto;mix-blend-mode:normal;color-interpolation:sRGB;color-interpolation-filters:linearRGB;solid-color:#000000;solid-opacity:1;fill:none;fill-opacity:1;fill-rule:evenodd;stroke:#000000;stroke-width:1;stroke-linecap:butt;stroke-linejoin:miter;stroke-miterlimit:4;stroke-dasharray:none;stroke-dashoffset:0;stroke-opacity:1;color-rendering:auto;image-rendering:auto;shape-rendering:auto;text-rendering:auto;enable-background:accumulate"
           d="m 2.2796702,2.2791692 c 0,894.5596608 0,894.5596608 0,894.5596608 l 905.8926598,0 0,-894.5596608 z"
           id="path13590"
           inkscape:connector-curvature="0" />
      </g>
    </g>
  </g>
</svg>
