<?xml version="1.0" encoding="UTF-8" standalone="no"?>
<!-- Created with Inkscape (http://www.inkscape.org/) -->

<svg
   xmlns:dc="http://purl.org/dc/elements/1.1/"
   xmlns:cc="http://creativecommons.org/ns#"
   xmlns:rdf="http://www.w3.org/1999/02/22-rdf-syntax-ns#"
   xmlns:svg="http://www.w3.org/2000/svg"
   xmlns="http://www.w3.org/2000/svg"
   xmlns:sodipodi="http://sodipodi.sourceforge.net/DTD/sodipodi-0.dtd"
   xmlns:inkscape="http://www.inkscape.org/namespaces/inkscape"
   id="svg18115"
   version="1.1"
   inkscape:version="0.91 r13725"
   width="900"
   height="891.5625"
   viewBox="0 0 900 891.5625"
   sodipodi:docname="utility.svg">
  
  <g
     inkscape:groupmode="layer"
     id="layer8"
     inkscape:label="pavimento"
     style="display:inline">
    <rect
       style="opacity:1;fill:none;fill-opacity:1;stroke:#d23b5e;stroke-width:0.99452424;stroke-linecap:butt;stroke-miterlimit:4;stroke-dasharray:none;stroke-opacity:1"
       id="rect17516"
       width="89.494461"
       height="156.37511"
       x="756.64673"
       y="426.75128" />
    <path
       style="opacity:1;fill:#e732dd;fill-opacity:1;stroke:#cf3bd2;stroke-width:1.88890362;stroke-miterlimit:4;stroke-dasharray:none;stroke-opacity:1"
       d="m 757.33365,505.44267 0,-76.5006 43.44478,0 43.44478,0 0,76.5006 0,76.50059 -43.44478,0 -43.44478,0 0,-76.50059 z"
       id="path6470"
       inkscape:connector-curvature="0" />
    <path
       style="opacity:1;fill:#e732dd;fill-opacity:1;stroke:#cf3bd2;stroke-width:1.88890362;stroke-miterlimit:4;stroke-dasharray:none;stroke-opacity:1"
       d="m 758.21011,579.61387 c -0.50693,-1.32105 -0.69902,-35.55013 -0.42685,-76.06463 l 0.49484,-73.66272 42.50033,0 42.50033,0 0,75.55615 0,75.55614 -42.07347,0.50849 c -32.67247,0.39486 -42.27943,-0.0282 -42.99518,-1.89343 z"
       id="path6472"
       inkscape:connector-curvature="0" />
    <path
       style="opacity:1;fill:#e732dd;fill-opacity:1;stroke:#cf3bd2;stroke-width:1.88890362;stroke-miterlimit:4;stroke-dasharray:none;stroke-opacity:1"
       d="m 759.22255,505.44267 0,-74.6117 41.55588,0 41.55588,0 0,74.6117 0,74.61169 -41.55588,0 -41.55588,0 0,-74.61169 z"
       id="path6474"
       inkscape:connector-curvature="0" />
    <path
       style="opacity:1;fill:#e732dd;fill-opacity:1;stroke:#cf3bd2;stroke-width:1.88890362;stroke-miterlimit:4;stroke-dasharray:none;stroke-opacity:1"
       d="m 760.09902,577.72496 c -0.50755,-1.32263 -0.69988,-34.70235 -0.42741,-74.17716 l 0.49539,-71.77237 40.61143,0 40.61143,0 0,73.66724 0,73.66724 -40.18402,0.50992 c -31.16994,0.39554 -40.39102,-0.0295 -41.10682,-1.89487 z"
       id="path6476"
       inkscape:connector-curvature="0" />
    <path
       style="opacity:1;fill:#e732dd;fill-opacity:1;stroke:#cf3bd2;stroke-width:1.88890362;stroke-miterlimit:4;stroke-dasharray:none;stroke-opacity:1"
       d="m 761.11145,505.44267 0,-72.72279 39.66698,0 39.66697,0 0,72.72279 0,72.72278 -39.66697,0 -39.66698,0 0,-72.72278 z"
       id="path6478"
       inkscape:connector-curvature="0" />
    <path
       style="opacity:1;fill:#e732dd;fill-opacity:1;stroke:#cf3bd2;stroke-width:1.88890362;stroke-miterlimit:4;stroke-dasharray:none;stroke-opacity:1"
       d="m 761.98793,575.8361 c -0.50819,-1.32432 -0.70079,-33.85474 -0.428,-72.28981 l 0.49598,-69.88196 38.72252,0 38.72252,0 0,71.77834 0,71.77833 -38.29452,0.51148 c -29.6666,0.39624 -38.50269,-0.031 -39.2185,-1.89638 z"
       id="path6480"
       inkscape:connector-curvature="0" />
    <path
       style="opacity:1;fill:#e732dd;fill-opacity:1;stroke:#cf3bd2;stroke-width:1.88890362;stroke-miterlimit:4;stroke-dasharray:none;stroke-opacity:1"
       d="m 763.00036,505.44267 0,-70.83389 37.77807,0 37.77807,0 0,70.83389 0,70.83388 -37.77807,0 -37.77807,0 0,-70.83388 z"
       id="path6482"
       inkscape:connector-curvature="0" />
    <path
       style="opacity:1;fill:#e732dd;fill-opacity:1;stroke:#cf3bd2;stroke-width:1.88890362;stroke-miterlimit:4;stroke-dasharray:none;stroke-opacity:1"
       d="M 763.87687,573.94729 C 763.36799,572.62117 763.1751,540.94 763.44822,503.5447 l 0.49659,-67.99147 36.83362,0 36.83362,0 0,69.88944 0,69.88943 -36.40497,0.51317 c -28.1624,0.39697 -36.61445,-0.0328 -37.33021,-1.89798 z"
       id="path6484"
       inkscape:connector-curvature="0" />
    <path
       style="opacity:1;fill:#e732dd;fill-opacity:1;stroke:#cf3bd2;stroke-width:1.88890362;stroke-miterlimit:4;stroke-dasharray:none;stroke-opacity:1"
       d="m 764.88926,505.44267 0,-68.94499 35.88917,0 35.88917,0 0,68.94499 0,68.94498 -35.88917,0 -35.88917,0 0,-68.94498 z"
       id="path6486"
       inkscape:connector-curvature="0" />
    <path
       style="opacity:1;fill:#e732dd;fill-opacity:1;stroke:#cf3bd2;stroke-width:1.88890362;stroke-miterlimit:4;stroke-dasharray:none;stroke-opacity:1"
       d="m 765.76584,572.05855 c -0.50962,-1.32806 -0.70283,-32.16005 -0.42936,-68.51553 l 0.49723,-66.10088 34.94472,0 34.94472,0 0,68.00053 0,68.00053 -34.51536,0.515 c -26.65725,0.39775 -34.72632,-0.0347 -35.44195,-1.89965 z"
       id="path6488"
       inkscape:connector-curvature="0" />
    <path
       style="opacity:1;fill:#e732dd;fill-opacity:1;stroke:#cf3bd2;stroke-width:1.88890362;stroke-miterlimit:4;stroke-dasharray:none;stroke-opacity:1"
       d="m 766.77816,505.44267 0,-67.05608 34.00027,0 34.00026,0 0,67.05608 0,67.05607 -34.00026,0 -34.00027,0 0,-67.05607 z"
       id="path6490"
       inkscape:connector-curvature="0" />
    <path
       style="opacity:1;fill:#e732dd;fill-opacity:1;stroke:#cf3bd2;stroke-width:1.88890362;stroke-miterlimit:4;stroke-dasharray:none;stroke-opacity:1"
       d="m 767.65484,570.16989 c -0.51042,-1.33013 -0.70398,-31.31302 -0.43013,-66.62864 l 0.49791,-64.21021 33.05581,0 33.05581,0 0,66.11163 0,66.11162 -32.62568,0.51701 c -25.15107,0.39857 -32.8383,-0.037 -33.55372,-1.90141 z"
       id="path6492"
       inkscape:connector-curvature="0" />
    <path
       style="opacity:1;fill:#e732dd;fill-opacity:1;stroke:#cf3bd2;stroke-width:1.88890362;stroke-miterlimit:4;stroke-dasharray:none;stroke-opacity:1"
       d="m 768.66707,505.44267 0,-65.16718 32.11136,0 32.11136,0 0,65.16718 0,65.16717 -32.11136,0 -32.11136,0 0,-65.16717 z"
       id="path6494"
       inkscape:connector-curvature="0" />
    <path
       style="opacity:1;fill:#e732dd;fill-opacity:1;stroke:#cf3bd2;stroke-width:1.88890362;stroke-miterlimit:4;stroke-dasharray:none;stroke-opacity:1"
       d="m 769.54387,568.28133 c -0.51128,-1.33238 -0.70522,-30.46625 -0.43097,-64.74194 l 0.49862,-62.31945 31.16691,0 31.16691,0 0,64.22273 0,64.22272 -30.73594,0.51921 c -23.64376,0.39941 -30.95043,-0.0398 -31.66553,-1.90327 z"
       id="path6496"
       inkscape:connector-curvature="0" />
    <path
       style="opacity:1;fill:#e732dd;fill-opacity:1;stroke:#cf3bd2;stroke-width:1.88890362;stroke-miterlimit:4;stroke-dasharray:none;stroke-opacity:1"
       d="m 770.55597,505.44267 0,-63.27827 30.22246,0 30.22246,0 0,63.27827 0,63.27827 -30.22246,0 -30.22246,0 0,-63.27827 z"
       id="path6498"
       inkscape:connector-curvature="0" />
    <path
       style="opacity:1;fill:#e732dd;fill-opacity:1;stroke:#cf3bd2;stroke-width:1.88890362;stroke-miterlimit:4;stroke-dasharray:none;stroke-opacity:1"
       d="m 771.43295,566.39288 c -0.51221,-1.33479 -0.70656,-29.61975 -0.43191,-62.85546 l 0.49938,-60.42857 29.27801,0 29.278,0 0,62.33382 0,62.33381 -28.8461,0.52165 c -22.13521,0.40028 -29.06275,-0.043 -29.77738,-1.90525 z"
       id="path6500"
       inkscape:connector-curvature="0" />
    <path
       style="opacity:1;fill:#e732dd;fill-opacity:1;stroke:#cf3bd2;stroke-width:1.88890362;stroke-miterlimit:4;stroke-dasharray:none;stroke-opacity:1"
       d="m 772.44487,505.44267 0,-61.38937 28.33356,0 28.33355,0 0,61.38937 0,61.38936 -28.33355,0 -28.33356,0 0,-61.38936 z"
       id="path6502"
       inkscape:connector-curvature="0" />
    <path
       style="opacity:1;fill:#e732dd;fill-opacity:1;stroke:#cf3bd2;stroke-width:1.88890362;stroke-miterlimit:4;stroke-dasharray:none;stroke-opacity:1"
       d="m 773.32208,564.50458 c -0.51321,-1.33742 -0.70803,-28.77358 -0.43293,-60.96925 l 0.50018,-58.53758 27.3891,0 27.3891,0 0,60.44492 0,60.44491 -26.95616,0.52433 c -20.6253,0.40119 -27.17532,-0.0468 -27.88929,-1.90733 z"
       id="path6504"
       inkscape:connector-curvature="0" />
    <path
       style="opacity:1;fill:#e732dd;fill-opacity:1;stroke:#cf3bd2;stroke-width:1.88890362;stroke-miterlimit:4;stroke-dasharray:none;stroke-opacity:1"
       d="m 774.33378,505.44267 0,-59.50047 26.44465,0 26.44465,0 0,59.50047 0,59.50046 -26.44465,0 -26.44465,0 0,-59.50046 z"
       id="path6506"
       inkscape:connector-curvature="0" />
    <path
       style="opacity:1;fill:#e732dd;fill-opacity:1;stroke:#cf3bd2;stroke-width:1.88890362;stroke-miterlimit:4;stroke-dasharray:none;stroke-opacity:1"
       d="m 775.21128,562.61645 c -0.51431,-1.34028 -0.70964,-27.92778 -0.43408,-59.08333 l 0.50103,-56.64647 25.5002,0 25.5002,0 0,58.55602 0,58.55601 -25.06612,0.52732 c -19.11387,0.40209 -25.28817,-0.0513 -26.00123,-1.90955 z"
       id="path6508"
       inkscape:connector-curvature="0" />
    <path
       style="opacity:1;fill:#e732dd;fill-opacity:1;stroke:#cf3bd2;stroke-width:1.88890362;stroke-miterlimit:4;stroke-dasharray:none;stroke-opacity:1"
       d="m 776.22268,505.44267 0,-57.61156 24.55575,0 24.55575,0 0,57.61156 0,57.61156 -24.55575,0 -24.55575,0 0,-57.61156 z"
       id="path6510"
       inkscape:connector-curvature="0" />
    <path
       style="opacity:1;fill:#e732dd;fill-opacity:1;stroke:#cf3bd2;stroke-width:1.88890362;stroke-miterlimit:4;stroke-dasharray:none;stroke-opacity:1"
       d="m 777.10057,560.72854 c -0.51551,-1.34341 -0.71143,-27.08241 -0.43537,-57.19777 l 0.50193,-54.75521 23.6113,0 23.61129,0 0,56.66711 0,56.6671 -23.17593,0.53066 c -17.60075,0.40301 -23.4014,-0.0569 -24.11322,-1.91189 z"
       id="path6512"
       inkscape:connector-curvature="0" />
    <path
       style="opacity:1;fill:#e732dd;fill-opacity:1;stroke:#cf3bd2;stroke-width:1.88890362;stroke-miterlimit:4;stroke-dasharray:none;stroke-opacity:1"
       d="m 778.11159,505.44267 0,-55.72266 22.66684,0 22.66684,0 0,55.72266 0,55.72265 -22.66684,0 -22.66684,0 0,-55.72265 z"
       id="path6514"
       inkscape:connector-curvature="0" />
    <path
       style="opacity:1;fill:#e732dd;fill-opacity:1;stroke:#cf3bd2;stroke-width:1.88890362;stroke-miterlimit:4;stroke-dasharray:none;stroke-opacity:1"
       d="m 778.98996,558.84089 c -0.51684,-1.34685 -0.7134,-26.23753 -0.43681,-55.31262 l 0.50289,-52.86381 21.72239,0 21.72239,0 0,54.77821 0,54.7782 -21.28558,0.53442 c -16.08577,0.40387 -21.51514,-0.0638 -22.22528,-1.9144 z"
       id="path6516"
       inkscape:connector-curvature="0" />
    <path
       style="opacity:1;fill:#e732dd;fill-opacity:1;stroke:#cf3bd2;stroke-width:1.88890362;stroke-miterlimit:4;stroke-dasharray:none;stroke-opacity:1"
       d="m 780.00049,505.44267 0,-53.83376 20.77794,0 20.77794,0 0,53.83376 0,53.83375 -20.77794,0 -20.77794,0 0,-53.83375 z"
       id="path6518"
       inkscape:connector-curvature="0" />
    <path
       style="opacity:1;fill:#e732dd;fill-opacity:1;stroke:#cf3bd2;stroke-width:1.88890362;stroke-miterlimit:4;stroke-dasharray:none;stroke-opacity:1"
       d="m 780.87947,556.95358 c -0.5183,-1.35066 -0.7156,-25.39325 -0.43844,-53.42798 l 0.50391,-50.97223 19.83349,0 19.83349,0 0,52.8893 0,52.8893 -19.39505,0.53868 c -14.56865,0.40463 -19.62955,-0.0724 -20.3374,-1.91707 z"
       id="path6520"
       inkscape:connector-curvature="0" />
    <path
       style="opacity:1;fill:#e732dd;fill-opacity:1;stroke:#cf3bd2;stroke-width:1.88890362;stroke-miterlimit:4;stroke-dasharray:none;stroke-opacity:1"
       d="m 781.88939,505.44267 0,-51.94485 18.88904,0 18.88903,0 0,51.94485 0,51.94485 -18.88903,0 -18.88904,0 0,-51.94485 z"
       id="path6522"
       inkscape:connector-curvature="0" />
    <path
       style="opacity:1;fill:#e732dd;fill-opacity:1;stroke:#cf3bd2;stroke-width:1.88890362;stroke-miterlimit:4;stroke-dasharray:none;stroke-opacity:1"
       d="m 782.76914,555.06668 c -0.51992,-1.3549 -0.71806,-24.54967 -0.4403,-51.54393 l 0.505,-49.08048 17.94459,0 17.94458,0 0,51.0004 0,51.00039 -17.50428,0.54353 c -13.04913,0.4052 -17.74487,-0.0835 -18.44959,-1.91991 z"
       id="path6524"
       inkscape:connector-curvature="0" />
    <path
       style="opacity:1;fill:#e732dd;fill-opacity:1;stroke:#cf3bd2;stroke-width:1.88890362;stroke-miterlimit:4;stroke-dasharray:none;stroke-opacity:1"
       d="m 783.7783,505.44267 0,-50.05595 17.00013,0 17.00013,0 0,50.05595 0,50.05594 -17.00013,0 -17.00013,0 0,-50.05594 z"
       id="path6526"
       inkscape:connector-curvature="0" />
    <path
       style="opacity:1;fill:#e732dd;fill-opacity:1;stroke:#cf3bd2;stroke-width:1.88890362;stroke-miterlimit:4;stroke-dasharray:none;stroke-opacity:1"
       d="m 784.65901,553.18029 c -0.52174,-1.35964 -0.72084,-23.70691 -0.44244,-49.6606 l 0.50618,-47.18852 16.05568,0 16.05568,0 0,49.1115 0,49.11149 -15.61324,0.5491 c -11.52689,0.40539 -15.86151,-0.0979 -16.56186,-1.92297 z"
       id="path6528"
       inkscape:connector-curvature="0" />
    <path
       style="opacity:1;fill:#e732dd;fill-opacity:1;stroke:#cf3bd2;stroke-width:1.88890362;stroke-miterlimit:4;stroke-dasharray:none;stroke-opacity:1"
       d="m 785.6672,505.44267 0,-48.16705 15.11123,0 15.11123,0 0,48.16705 0,48.16704 -15.11123,0 -15.11123,0 0,-48.16704 z"
       id="path6530"
       inkscape:connector-curvature="0" />
    <path
       style="opacity:1;fill:#e732dd;fill-opacity:1;stroke:#cf3bd2;stroke-width:1.88890362;stroke-miterlimit:4;stroke-dasharray:none;stroke-opacity:1"
       d="m 786.54912,551.29453 c -0.52379,-1.36497 -0.724,-22.86513 -0.44491,-47.77811 l 0.50744,-45.29634 14.16678,0 14.16678,0 0,47.22259 0,47.22259 -13.72187,0.55552 c -10.00151,0.40492 -13.98008,-0.11734 -14.67422,-1.92625 z"
       id="path6532"
       inkscape:connector-curvature="0" />
    <path
       style="opacity:1;fill:#e732dd;fill-opacity:1;stroke:#cf3bd2;stroke-width:1.88890362;stroke-miterlimit:4;stroke-dasharray:none;stroke-opacity:1"
       d="m 787.5561,505.44267 0,-46.27814 13.22233,0 13.22232,0 0,46.27814 0,46.27813 -13.22232,0 -13.22233,0 0,-46.27813 z"
       id="path6534"
       inkscape:connector-curvature="0" />
    <path
       style="opacity:1;fill:#e732dd;fill-opacity:1;stroke:#cf3bd2;stroke-width:1.88890362;stroke-miterlimit:4;stroke-dasharray:none;stroke-opacity:1"
       d="m 788.43954,549.40957 c -0.52612,-1.37103 -0.72761,-22.02454 -0.44778,-45.89669 l 0.5088,-43.4039 12.27787,0 12.27787,0 0,45.33369 0,45.33368 -11.8301,0.563 c -8.47252,0.4032 -12.10159,-0.14451 -12.78666,-1.92978 z"
       id="path6536"
       inkscape:connector-curvature="0" />
    <path
       style="opacity:1;fill:#e732dd;fill-opacity:1;stroke:#cf3bd2;stroke-width:1.88890362;stroke-miterlimit:4;stroke-dasharray:none;stroke-opacity:1"
       d="m 789.44501,505.44267 0,-44.38924 11.33342,0 11.33342,0 0,44.38924 0,44.38923 -11.33342,0 -11.33342,0 0,-44.38923 z"
       id="path6538"
       inkscape:connector-curvature="0" />
    <path
       style="opacity:1;fill:#e732dd;fill-opacity:1;stroke:#cf3bd2;stroke-width:1.88890362;stroke-miterlimit:4;stroke-dasharray:none;stroke-opacity:1"
       d="m 790.33031,547.52553 c -0.52875,-1.37789 -0.73175,-21.1853 -0.45111,-44.01645 l 0.51026,-41.5112 10.38897,0 10.38897,0 0,43.44479 0,43.44478 -9.93787,0.57167 c -6.93939,0.39919 -10.22793,-0.18422 -10.89922,-1.93359 z"
       id="path6540"
       inkscape:connector-curvature="0" />
    <path
       style="opacity:1;fill:#e732dd;fill-opacity:1;stroke:#cf3bd2;stroke-width:1.88890362;stroke-miterlimit:4;stroke-dasharray:none;stroke-opacity:1"
       d="m 791.33391,505.44267 0,-42.50033 9.44452,0 9.44452,0 0,42.50033 0,42.50033 -9.44452,0 -9.44452,0 0,-42.50033 z"
       id="path6542"
       inkscape:connector-curvature="0" />
    <path
       style="opacity:1;fill:#e732dd;fill-opacity:1;stroke:#cf3bd2;stroke-width:1.88890362;stroke-miterlimit:4;stroke-dasharray:none;stroke-opacity:1"
       d="m 792.22147,545.64251 c -0.53173,-1.38566 -0.73645,-20.34757 -0.45494,-42.13756 l 0.51183,-39.61816 8.50007,0 8.50007,0 0,41.55588 0,41.55588 -8.04513,0.58167 c -5.40162,0.39055 -8.36279,-0.24615 -9.0119,-1.93771 z"
       id="path6544"
       inkscape:connector-curvature="0" />
    <path
       style="opacity:1;fill:#e732dd;fill-opacity:1;stroke:#cf3bd2;stroke-width:1.88890362;stroke-miterlimit:4;stroke-dasharray:none;stroke-opacity:1"
       d="m 793.22281,505.44267 0,-40.61143 7.55562,0 7.55561,0 0,40.61143 0,40.61142 -7.55561,0 -7.55562,0 0,-40.61142 z"
       id="path6546"
       inkscape:connector-curvature="0" />
    <path
       style="opacity:1;fill:#e732dd;fill-opacity:1;stroke:#cf3bd2;stroke-width:1.88890362;stroke-miterlimit:4;stroke-dasharray:none;stroke-opacity:1"
       d="m 794.11295,543.76032 c -0.53504,-1.39428 -0.74169,-19.51121 -0.45924,-40.25984 l 0.51356,-37.72479 6.61116,0 6.61116,0 0,39.66698 0,39.66697 -6.15192,0.59287 c -3.85928,0.37193 -6.51446,-0.35187 -7.12472,-1.94219 z"
       id="path6548"
       inkscape:connector-curvature="0" />
    <path
       style="opacity:1;fill:#e732dd;fill-opacity:1;stroke:#cf3bd2;stroke-width:1.88890362;stroke-miterlimit:4;stroke-dasharray:none;stroke-opacity:1"
       d="m 795.11172,505.44267 0,-38.72253 5.66671,0 5.66671,0 0,38.72253 0,38.72252 -5.66671,0 -5.66671,0 0,-38.72252 z"
       id="path6550"
       inkscape:connector-curvature="0" />
    <path
       style="opacity:1;fill:#e732dd;fill-opacity:1;stroke:#cf3bd2;stroke-width:0.94445181;stroke-miterlimit:4;stroke-dasharray:none;stroke-opacity:1"
       d="m 796.12481,505.542 0,-37.77807 4.72226,0 4.72226,0 0,37.77807 0,37.77807 -4.72226,0 -4.72226,0 0,-37.77807 z"
       id="path6554"
       inkscape:connector-curvature="0" />
    <path
       style="opacity:1;fill:#e732dd;fill-opacity:1;stroke:#cf3bd2;stroke-width:0.94445181;stroke-miterlimit:4;stroke-dasharray:none;stroke-opacity:1"
       d="m 796.57695,542.19162 c -0.26126,-0.68085 -0.36363,-17.59936 -0.22747,-37.59669 l 0.24756,-36.35878 4.25003,0 4.25003,0 0,37.30585 0,37.30584 -4.02256,0.29084 c -2.66886,0.19297 -4.18242,-0.12574 -4.49759,-0.94706 z"
       id="path6556"
       inkscape:connector-curvature="0" />
    <path
       style="opacity:1;fill:#e732dd;fill-opacity:1;stroke:#cf3bd2;stroke-width:0.94445181;stroke-miterlimit:4;stroke-dasharray:none;stroke-opacity:1"
       d="m 797.06926,505.542 0,-36.83362 3.77781,0 3.77781,0 0,36.83362 0,36.83362 -3.77781,0 -3.77781,0 0,-36.83362 z"
       id="path6558"
       inkscape:connector-curvature="0" />
    <path
       style="opacity:1;fill:#e732dd;fill-opacity:1;stroke:#cf3bd2;stroke-width:0.94445181;stroke-miterlimit:4;stroke-dasharray:none;stroke-opacity:1"
       d="m 797.52327,541.25202 c -0.26261,-0.68433 -0.36593,-17.18035 -0.22962,-36.65783 l 0.24784,-35.41359 3.30558,0 3.30558,0 0,36.3614 0,36.36139 -3.07596,0.29644 c -1.90472,0.18356 -3.25777,-0.17734 -3.55342,-0.94781 z"
       id="path6560"
       inkscape:connector-curvature="0" />
    <path
       style="opacity:1;fill:#e732dd;fill-opacity:1;stroke:#cf3bd2;stroke-width:0.94445181;stroke-miterlimit:4;stroke-dasharray:none;stroke-opacity:1"
       d="m 798.01372,505.542 0,-35.88917 2.83335,0 2.83336,0 0,35.88917 0,35.88917 -2.83336,0 -2.83335,0 0,-35.88917 z"
       id="path6562"
       inkscape:connector-curvature="0" />
    <path
       style="opacity:1;fill:#e732dd;fill-opacity:1;stroke:#cf3bd2;stroke-width:0.94445181;stroke-miterlimit:4;stroke-dasharray:none;stroke-opacity:1"
       d="m 798.46969,540.31271 c -0.26401,-0.68801 -0.36836,-16.7617 -0.23189,-35.71929 l 0.24814,-34.46836 2.36113,0 2.36113,0 0,35.41694 0,35.41694 -2.12924,0.30235 c -1.17108,0.1663 -2.34525,-0.26056 -2.60927,-0.94858 z"
       id="path6564"
       inkscape:connector-curvature="0" />
    <path
       style="opacity:1;fill:#e732dd;fill-opacity:1;stroke:#cf3bd2;stroke-width:0.94445181;stroke-miterlimit:4;stroke-dasharray:none;stroke-opacity:1"
       d="m 798.95817,505.542 c 0,-34.31508 0.034,-34.94472 1.8889,-34.94472 1.85487,0 1.8889,0.62964 1.8889,34.94472 0,34.31508 -0.034,34.94471 -1.8889,34.94471 -1.85487,0 -1.8889,-0.62963 -1.8889,-34.94471 z"
       id="path6566"
       inkscape:connector-curvature="0" />
    <path
       style="opacity:1;fill:#e732dd;fill-opacity:1;stroke:#cf3bd2;stroke-width:0.94445181;stroke-miterlimit:4;stroke-dasharray:none;stroke-opacity:1"
       d="m 799.41325,531.6318 c -0.82561,-9.91131 -0.23221,-58.73923 0.72548,-59.69671 0.38959,-0.38949 1.02709,-0.3898 1.41668,-6.7e-4 0.93812,0.93701 1.54154,51.95721 0.71839,60.74145 -0.35389,3.77652 -0.99403,6.86639 -1.42253,6.86639 -0.4285,0 -1.07561,-3.55971 -1.43802,-7.91046 z"
       id="path6568"
       inkscape:connector-curvature="0" />
    <path
       style="opacity:1;fill:#e732dd;fill-opacity:1;stroke:#cf3bd2;stroke-width:0.94445181;stroke-miterlimit:4;stroke-dasharray:none;stroke-opacity:1"
       d="m 800.37484,536.70891 c -0.998,-1.49701 -1.06559,-62.99972 -0.0703,-63.99499 0.29841,-0.2984 0.69827,-0.36547 0.88858,-0.14903 0.1903,0.21644 0.56971,11.0186 0.84313,24.00482 0.55109,26.17505 -0.12243,42.44761 -1.66138,40.1392 z"
       id="path6570"
       inkscape:connector-curvature="0" />
    <path
       style="opacity:1;fill:#e732dd;fill-opacity:1;stroke:#cf3bd2;stroke-width:0.94445181;stroke-miterlimit:4;stroke-dasharray:none;stroke-opacity:1"
       d="m 798.37428,527.26439 c 0.33423,-6.49311 0.84977,-21.15572 1.14565,-32.58359 0.29587,-11.42786 0.92802,-21.18169 1.40477,-21.67517 1.07908,-1.11693 1.01178,-3.1132 1.07043,31.75478 0.0483,28.71551 0.03,28.99198 -2.08991,31.63914 l -2.13863,2.67049 0.60769,-11.80565 z m 1.25042,1.65279 c -0.22511,-1.16876 -0.4093,-0.2125 -0.4093,2.12502 0,2.33751 0.18419,3.29377 0.4093,2.12501 0.22511,-1.16876 0.22511,-3.08127 0,-4.25003 z"
       id="path6572"
       inkscape:connector-curvature="0" />
    <path
       style="opacity:1;fill:#e732dd;fill-opacity:1;stroke:#cf3bd2;stroke-width:0.94445181;stroke-miterlimit:4;stroke-dasharray:none;stroke-opacity:1"
       d="m 795.39034,505.40437 c -0.0106,-20.85363 0.32344,-37.36105 0.74241,-36.68315 0.41896,0.6779 0.5431,1.80234 0.27586,2.49875 -0.26724,0.69642 0.01,1.26621 0.61535,1.26621 0.60568,0 0.84157,0.42014 0.52422,0.93364 -0.34502,0.55824 0.088,0.67842 1.07707,0.2989 1.02588,-0.39367 1.22162,-0.77889 0.51539,-1.0143 -0.62628,-0.20876 -0.89846,-0.76827 -0.60484,-1.24335 0.72253,-1.16908 4.20017,-1.10229 4.20017,0.0807 0,0.51945 -0.53125,0.95096 -1.18056,0.95892 -0.92496,0.0113 -0.91967,0.18003 0.0244,0.77917 0.93755,0.59499 1.18265,7.14219 1.10433,29.49966 -0.12549,35.82495 -0.0655,37.84456 1.16803,39.33089 0.79331,0.95587 0.0129,1.2097 -3.71928,1.2097 l -4.72324,0 -0.0193,-37.9157 z m 4.19332,24.45726 c -0.262,-0.64931 -0.47637,-0.11805 -0.47637,1.18057 0,1.29862 0.21437,1.82987 0.47637,1.18056 0.262,-0.64931 0.262,-1.71182 0,-2.36113 z"
       id="path6574"
       inkscape:connector-curvature="0" />
    <path
       style="opacity:1;fill:#e732dd;fill-opacity:1;stroke:#cf3bd2;stroke-width:0.94445181;stroke-miterlimit:4;stroke-dasharray:none;stroke-opacity:1"
       d="m 796.13927,507.72403 c 0.009,-22.39521 0.34207,-35.19205 0.8931,-34.32075 0.89647,1.41752 2.39802,0.69542 2.39802,-1.15321 0,-0.56273 0.47306,-1.18084 1.05124,-1.37357 0.70214,-0.23404 1.10723,2.06469 1.21986,6.92235 0.0927,4.00001 0.35163,7.56885 0.57529,7.93075 0.22367,0.36191 0.44549,13.36156 0.49292,28.88813 l 0.0863,28.23011 -3.36557,0.29313 -3.36557,0.29312 0.0145,-35.71006 z m 3.44439,22.1376 c -0.262,-0.64931 -0.47637,-0.11805 -0.47637,1.18057 0,1.29862 0.21437,1.82987 0.47637,1.18056 0.262,-0.64931 0.262,-1.71182 0,-2.36113 z"
       id="path6576"
       inkscape:connector-curvature="0" />
    <path
       style="opacity:1;fill:#e732dd;fill-opacity:1;stroke:#cf3bd2;stroke-width:0.16695707;stroke-miterlimit:4;stroke-dasharray:none;stroke-opacity:1"
       d="m 796.61719,516.73282 c 0.0289,-25.2313 0.12042,-34.59165 0.38963,-39.86821 l 0.12583,-2.46636 0.56676,0.10632 c 1.11953,0.21003 1.90286,-0.46345 2.15395,-1.85188 0.14062,-0.7776 0.35882,-1.25218 0.57572,-1.25218 0.41832,0 0.60455,1.85027 1.00017,9.93711 0.0944,1.93009 0.24742,3.77079 0.33998,4.09045 0.27866,0.96232 0.47989,14.75174 0.53229,36.47695 l 0.0495,20.53572 -2.88197,0.2539 -2.88196,0.2539 0.0301,-26.21572 z m 3.45,15.35658 c 0.45757,-1.38588 -0.17915,-3.29202 -0.93983,-2.81356 -0.32343,0.20344 -0.5459,1.36485 -0.42701,2.22921 0.17859,1.29845 0.21129,1.35999 0.69304,1.30445 0.36291,-0.0418 0.49729,-0.18546 0.6738,-0.7201 z"
       id="path6578"
       inkscape:connector-curvature="0" />
    <path
       style="opacity:1;fill:#e732dd;fill-opacity:1;stroke:#cf3bd2;stroke-width:0.16695707;stroke-miterlimit:4;stroke-dasharray:none;stroke-opacity:1"
       d="m 796.65961,515.60239 c 0.0997,-24.57163 0.30867,-40.52762 0.53563,-40.89485 0.0458,-0.0742 0.34559,-0.13485 0.66612,-0.13485 1.18697,0 1.78868,-0.6435 2.14479,-2.29374 0.1098,-0.50881 0.35913,-0.83291 0.51831,-0.67373 0.21203,0.21203 0.42528,2.28063 0.65417,6.34582 0.14097,2.50366 0.37458,5.87112 0.51914,7.48323 0.32955,3.67532 0.49643,15.78458 0.54334,39.4259 l 0.0347,17.48042 -0.54672,0.0841 c -0.6094,0.0937 -4.44452,0.43346 -4.89312,0.43346 -0.27054,0 -0.28061,-1.55651 -0.17635,-27.25574 z m 3.38019,16.61716 c 0.49259,-1.17894 0.0456,-3.0519 -0.72836,-3.0519 -0.44341,0 -0.76436,1.15571 -0.64486,2.32206 0.1318,1.28646 0.16513,1.351 0.69762,1.351 0.32239,0 0.4745,-0.13986 0.6756,-0.62116 z"
       id="path6580"
       inkscape:connector-curvature="0" />
    <path
       style="opacity:1;fill:#e732dd;fill-opacity:1;stroke:#cf3bd2;stroke-width:0.16695707;stroke-miterlimit:4;stroke-dasharray:none;stroke-opacity:1"
       d="m 796.79463,542.55688 c -0.33593,-0.8425 0.0739,-65.98468 0.42366,-67.34388 0.12378,-0.48099 0.22157,-0.56321 0.71803,-0.60368 1.14259,-0.0931 1.61801,-0.57755 2.0579,-2.09689 0.10655,-0.36803 0.27699,-0.6969 0.37875,-0.73082 0.25628,-0.0854 0.33297,0.49435 0.63421,4.79457 0.14473,2.06609 0.37744,5.29671 0.51714,7.17915 0.13969,1.88244 0.32191,6.50298 0.40493,10.26786 0.21139,9.58647 0.3911,48.11483 0.2249,48.21733 -0.0753,0.0465 -1.03857,0.16881 -2.14049,0.27186 -1.10192,0.10305 -2.25159,0.21891 -2.55482,0.25748 -0.40687,0.0517 -0.58091,-0.004 -0.66421,-0.21298 z m 3.21474,-10.20875 c 0.32341,-0.62541 0.32705,-1.84941 0.008,-2.61356 -0.19364,-0.46344 -0.32792,-0.57943 -0.62191,-0.53724 -0.59062,0.0847 -0.82572,0.73213 -0.75228,2.07154 0.0755,1.37776 0.16301,1.57184 0.70845,1.57184 0.27768,0 0.48257,-0.15338 0.65797,-0.49258 z"
       id="path6582"
       inkscape:connector-curvature="0" />
    <path
       style="opacity:1;fill:#e732dd;fill-opacity:1;stroke:#cf3bd2;stroke-width:0.16695707;stroke-miterlimit:4;stroke-dasharray:none;stroke-opacity:1"
       d="m 796.80906,542.41646 c -0.058,-0.15109 -0.0529,-12.41618 0.0113,-27.25574 0.11286,-26.08115 0.28719,-39.53421 0.51983,-40.11643 0.0645,-0.16151 0.38637,-0.3261 0.7616,-0.3895 0.94001,-0.15881 1.39483,-0.59943 1.81868,-1.76188 0.2113,-0.57951 0.43766,-0.96425 0.51928,-0.88263 0.25495,0.25495 1.05432,11.09628 1.33379,18.08942 0.0936,2.34157 0.21677,15.01435 0.27377,28.16172 l 0.10362,23.90431 -0.56778,0.0921 c -1.02084,0.1656 -3.56063,0.43238 -4.12086,0.43287 -0.35479,3.3e-4 -0.58499,-0.0963 -0.65326,-0.27425 z m 3.24001,-10.07662 c 0.11556,-0.22957 0.21121,-0.81556 0.21256,-1.30221 0.004,-1.5601 -0.77952,-2.39505 -1.4072,-1.49891 -0.3051,0.43559 -0.36066,2.46785 -0.0817,2.98906 0.25017,0.46744 1.0022,0.35671 1.27636,-0.18794 z"
       id="path6584"
       inkscape:connector-curvature="0" />
    <path
       style="opacity:1;fill:#e732dd;fill-opacity:1;stroke:#cf3bd2;stroke-width:0.16695707;stroke-miterlimit:4;stroke-dasharray:none;stroke-opacity:1"
       d="m 797.09191,542.52981 c -0.22089,-0.14179 -0.24447,-2.66762 -0.19985,-21.41194 0.0523,-21.96055 0.29015,-45.17841 0.46961,-45.83433 0.0698,-0.25526 0.30188,-0.42808 0.72933,-0.54317 0.91074,-0.24524 1.40916,-0.70769 1.83859,-1.7059 0.34453,-0.80087 0.3927,-0.84756 0.51983,-0.50391 0.18636,0.50375 0.75296,7.82723 1.05572,13.64565 0.28273,5.43332 0.38706,12.85267 0.53206,37.83617 l 0.10525,18.13524 -1.73222,0.19396 c -0.95273,0.10669 -2.03275,0.22885 -2.40005,0.27148 -0.36731,0.0426 -0.78053,0.005 -0.91827,-0.0833 z m 2.91228,-10.06016 c 0.31892,-0.45532 0.3467,-2.20179 0.0446,-2.80113 -0.28106,-0.55751 -0.84816,-0.62403 -1.18768,-0.1393 -0.30866,0.44067 -0.37224,2.46814 -0.0937,2.98855 0.23445,0.43809 0.91482,0.41161 1.23683,-0.0481 z"
       id="path6586"
       inkscape:connector-curvature="0" />
    <path
       style="opacity:1;fill:#e732dd;fill-opacity:1;stroke:#cf3bd2;stroke-width:0.16695707;stroke-miterlimit:4;stroke-dasharray:none;stroke-opacity:1"
       d="m 796.99455,541.56422 c -0.23643,-1.86976 0.14689,-63.05854 0.41068,-65.55591 0.10222,-0.96767 0.11587,-0.98934 0.76449,-1.21359 0.84816,-0.29322 1.31866,-0.74327 1.78154,-1.70409 l 0.37185,-0.77186 0.12169,0.66828 c 0.16462,0.90396 0.59504,6.42265 0.90127,11.55562 0.31103,5.21346 0.5503,21.43303 0.61889,41.95367 l 0.0522,15.61049 -1.58609,0.1944 c -0.87235,0.10693 -1.97512,0.20084 -2.4506,0.2087 l -0.86451,0.0143 -0.12139,-0.96 z m 3.00964,-9.09457 c 0.3538,-0.50512 0.3538,-2.42581 0,-2.93093 -0.14294,-0.20409 -0.40164,-0.37107 -0.57488,-0.37107 -0.56861,0 -0.83479,0.64003 -0.83479,2.00725 0,0.76137 0.0798,1.34489 0.20035,1.46546 0.31877,0.31877 0.92657,0.23297 1.20932,-0.17071 z"
       id="path6588"
       inkscape:connector-curvature="0" />
    <path
       style="opacity:1;fill:#e732dd;fill-opacity:1;stroke:#cf3bd2;stroke-width:0.16695707;stroke-miterlimit:4;stroke-dasharray:none;stroke-opacity:1"
       d="m 797.15166,542.32871 c -0.34508,-0.53461 0.0698,-66.02818 0.42422,-66.96025 0.0906,-0.23841 0.34365,-0.46576 0.58601,-0.52659 0.58096,-0.14581 1.51495,-0.99321 1.76797,-1.60407 0.45667,-1.10248 0.48434,-0.93399 1.00504,6.11852 0.645,8.73605 0.90663,22.12758 0.9721,49.75773 0.0289,12.17636 0.0143,12.89015 -0.26357,12.96893 -0.16176,0.0458 -0.85759,0.12888 -1.54629,0.1845 -0.6887,0.0556 -1.60095,0.14208 -2.02722,0.19212 -0.54418,0.0639 -0.8177,0.0249 -0.91826,-0.13089 z m 2.85253,-9.85906 c 0.3538,-0.50512 0.3538,-2.42581 0,-2.93093 -0.14294,-0.20409 -0.40164,-0.37107 -0.57488,-0.37107 -0.56861,0 -0.83479,0.64003 -0.83479,2.00725 0,0.76137 0.0798,1.34489 0.20035,1.46546 0.31877,0.31877 0.92657,0.23297 1.20932,-0.17071 z"
       id="path6590"
       inkscape:connector-curvature="0" />
    <path
       style="opacity:1;fill:#e732dd;fill-opacity:1;stroke:#cf3bd2;stroke-width:0.16695707;stroke-miterlimit:4;stroke-dasharray:none;stroke-opacity:1"
       d="m 797.20004,542.11086 c -0.2648,-0.69005 0.0545,-59.66367 0.35069,-64.78158 l 0.12553,-2.16865 0.50087,-0.23165 c 0.6249,-0.28901 1.36962,-0.96001 1.7576,-1.58359 0.2598,-0.41757 0.30753,-0.43807 0.38882,-0.16696 0.11869,0.3958 0.55448,5.93661 0.7728,9.82559 0.44632,7.95015 0.65351,20.38487 0.73901,44.35119 l 0.0522,14.63283 -0.61499,0.0983 c -0.33824,0.0541 -1.36763,0.14767 -2.28753,0.20795 -1.50081,0.0984 -1.68408,0.0795 -1.785,-0.18347 z m 2.80415,-9.64121 c 0.3538,-0.50512 0.3538,-2.42581 0,-2.93093 -0.14294,-0.20409 -0.40164,-0.37107 -0.57488,-0.37107 -0.56861,0 -0.83479,0.64003 -0.83479,2.00725 0,0.76137 0.0798,1.34489 0.20035,1.46546 0.31877,0.31877 0.92657,0.23297 1.20932,-0.17071 z"
       id="path6592"
       inkscape:connector-curvature="0" />
    <path
       style="opacity:1;fill:#e732dd;fill-opacity:1;stroke:#cf3bd2;stroke-width:0.16695707;stroke-miterlimit:4;stroke-dasharray:none;stroke-opacity:1"
       d="m 797.42583,542.19939 c -0.22078,-0.14469 -0.24535,-2.63142 -0.20745,-20.99798 0.0431,-20.87683 0.28965,-44.08773 0.48249,-45.41828 0.0651,-0.44933 0.18887,-0.70957 0.33743,-0.70957 0.12902,0 0.67913,-0.4323 1.22246,-0.96067 l 0.98786,-0.96067 0.0898,0.58502 c 0.14621,0.95273 0.57065,6.83594 0.75889,10.51896 0.35903,7.02479 0.51011,16.01577 0.61481,36.58861 l 0.10761,21.14508 -1.32042,0.10709 c -0.72623,0.0589 -1.6585,0.14297 -2.07172,0.18682 -0.41322,0.0438 -0.864,0.006 -1.00174,-0.0844 z m 2.57836,-9.72974 c 0.3538,-0.50512 0.3538,-2.42581 0,-2.93093 -0.14294,-0.20409 -0.40164,-0.37107 -0.57488,-0.37107 -0.56861,0 -0.83479,0.64003 -0.83479,2.00725 0,0.76137 0.0798,1.34489 0.20035,1.46546 0.31877,0.31877 0.92657,0.23297 1.20932,-0.17071 z"
       id="path6594"
       inkscape:connector-curvature="0" />
    <path
       style="opacity:1;fill:#e732dd;fill-opacity:1;stroke:#cf3bd2;stroke-width:0.16695707;stroke-miterlimit:4;stroke-dasharray:none;stroke-opacity:1"
       d="m 797.33145,541.25308 c -0.12506,-0.99037 0.0219,-46.00592 0.18367,-56.24557 0.12212,-7.73225 0.22145,-9.57328 0.52974,-9.81837 0.13771,-0.10948 0.65665,-0.56761 1.15319,-1.01807 0.49654,-0.45046 0.93526,-0.78655 0.97495,-0.74687 0.24511,0.24511 0.8568,9.70057 1.08416,16.75898 0.31674,9.83294 0.63886,51.57359 0.39915,51.72174 -0.0838,0.0518 -1.06324,0.14743 -2.17656,0.21255 l -2.0242,0.1184 -0.1241,-0.98279 z m 2.67274,-8.78343 c 0.3538,-0.50512 0.3538,-2.42581 0,-2.93093 -0.14294,-0.20409 -0.40164,-0.37107 -0.57488,-0.37107 -0.56861,0 -0.83479,0.64003 -0.83479,2.00725 0,0.76137 0.0798,1.34489 0.20035,1.46546 0.31877,0.31877 0.92657,0.23297 1.20932,-0.17071 z"
       id="path6596"
       inkscape:connector-curvature="0" />
    <path
       style="opacity:1;fill:#e732dd;fill-opacity:1;stroke:#cf3bd2;stroke-width:0.16695707;stroke-miterlimit:4;stroke-dasharray:none;stroke-opacity:1"
       d="m 797.50138,542.01052 c -0.0662,-0.10717 -0.10834,-10.83546 -0.0936,-23.84066 0.027,-23.78651 0.23172,-41.15853 0.49824,-42.28385 0.17299,-0.7304 2.03145,-2.54296 2.24715,-2.19163 0.18605,0.30304 0.62638,6.83395 0.94287,13.98444 0.31889,7.20479 0.53941,29.27131 0.5084,50.8726 l -0.005,3.28984 -0.54261,0.083 c -1.47158,0.22506 -3.44047,0.27283 -3.55576,0.0863 z m 2.50281,-9.54087 c 0.3538,-0.50512 0.3538,-2.42581 0,-2.93093 -0.14294,-0.20409 -0.40164,-0.37107 -0.57488,-0.37107 -0.56861,0 -0.83479,0.64003 -0.83479,2.00725 0,0.76137 0.0798,1.34489 0.20035,1.46546 0.31877,0.31877 0.92657,0.23297 1.20932,-0.17071 z"
       id="path6598"
       inkscape:connector-curvature="0" />
    <path
       style="opacity:1;fill:#e732dd;fill-opacity:1;stroke:#cf3bd2;stroke-width:0.16695707;stroke-miterlimit:4;stroke-dasharray:none;stroke-opacity:1"
       d="m 797.53397,540.8356 c -0.14707,-1.83085 0.043,-53.64701 0.21914,-59.72676 0.15128,-5.22261 0.15256,-5.23568 0.57605,-5.84349 0.58576,-0.84072 1.60083,-1.63094 1.76135,-1.37121 0.14963,0.2421 0.42262,3.86147 0.75638,10.02815 0.35627,6.58274 0.55896,18.13171 0.68887,39.25147 0.0906,14.73536 0.0712,18.4915 -0.0961,18.5949 -0.11532,0.0713 -1.01899,0.16794 -2.00816,0.21482 l -1.79849,0.0852 -0.0991,-1.23313 z m 2.47022,-8.36595 c 0.3538,-0.50512 0.3538,-2.42581 0,-2.93093 -0.14294,-0.20409 -0.40164,-0.37107 -0.57488,-0.37107 -0.56861,0 -0.83479,0.64003 -0.83479,2.00725 0,0.76137 0.0798,1.34489 0.20035,1.46546 0.31877,0.31877 0.92657,0.23297 1.20932,-0.17071 z"
       id="path6600"
       inkscape:connector-curvature="0" />
    <path
       style="opacity:1;fill:#e732dd;fill-opacity:1;stroke:#cf3bd2;stroke-width:0.16695707;stroke-miterlimit:4;stroke-dasharray:none;stroke-opacity:1"
       d="m 797.71493,541.92322 c -0.15197,-0.15237 -0.1109,-45.77155 0.0514,-57.08267 0.0619,-4.31584 0.16896,-8.1749 0.23787,-8.57568 0.0943,-0.54844 0.31976,-0.93047 0.91146,-1.54435 0.43241,-0.44861 0.8666,-0.81566 0.96488,-0.81566 0.24479,0 0.33845,0.79603 0.62862,5.34263 0.57865,9.06671 0.8544,22.43849 0.9692,46.99841 0.0672,14.3792 0.0443,15.39649 -0.34901,15.5074 -0.5646,0.15922 -3.28983,0.29484 -3.41441,0.16992 z m 2.28926,-9.45357 c 0.3538,-0.50512 0.3538,-2.42581 0,-2.93093 -0.14294,-0.20409 -0.40164,-0.37107 -0.57488,-0.37107 -0.56861,0 -0.83479,0.64003 -0.83479,2.00725 0,0.76137 0.0798,1.34489 0.20035,1.46546 0.31877,0.31877 0.92657,0.23297 1.20932,-0.17071 z"
       id="path6602"
       inkscape:connector-curvature="0" />
    <path
       style="opacity:1;fill:#e732dd;fill-opacity:1;stroke:#cf3bd2;stroke-width:0.16695707;stroke-miterlimit:4;stroke-dasharray:none;stroke-opacity:1"
       d="m 797.75021,532.13114 c -0.0244,-24.86863 0.0446,-46.88023 0.16052,-51.21408 0.14004,-5.23737 0.14674,-5.27119 1.25423,-6.3357 0.37296,-0.35848 0.65689,-0.51596 0.75257,-0.41739 0.24184,0.24913 0.60472,5.40333 0.92801,13.18094 0.25324,6.09248 0.43245,18.15816 0.52571,35.3949 l 0.10208,18.86615 -0.4794,0.10546 c -0.26367,0.058 -1.09923,0.11435 -1.85679,0.12522 l -1.3774,0.0198 -0.01,-9.72525 z m 2.25398,0.33851 c 0.3538,-0.50512 0.3538,-2.42581 0,-2.93093 -0.14294,-0.20409 -0.40164,-0.37107 -0.57488,-0.37107 -0.56861,0 -0.83479,0.64003 -0.83479,2.00725 0,0.76137 0.0798,1.34489 0.20035,1.46546 0.31877,0.31877 0.92657,0.23297 1.20932,-0.17071 z"
       id="path6604"
       inkscape:connector-curvature="0" />
    <path
       style="opacity:1;fill:#e732dd;fill-opacity:1;stroke:#cf3bd2;stroke-width:0.16695707;stroke-miterlimit:4;stroke-dasharray:none;stroke-opacity:1"
       d="m 797.81753,541.59921 c -0.15948,-0.41559 0.0903,-61.02255 0.26192,-63.55394 0.11552,-1.70385 0.21363,-2.23352 0.49932,-2.69578 0.2998,-0.48509 0.99892,-1.11071 1.24119,-1.11071 0.2359,0 0.6481,5.54067 0.93777,12.60526 0.36283,8.84899 0.83305,54.56498 0.56287,54.724 -0.076,0.0447 -0.87044,0.13492 -1.76535,0.20038 -1.45321,0.1063 -1.63894,0.0882 -1.73772,-0.16921 z m 2.18666,-9.12956 c 0.3538,-0.50512 0.3538,-2.42581 0,-2.93093 -0.14294,-0.20409 -0.40164,-0.37107 -0.57488,-0.37107 -0.56861,0 -0.83479,0.64003 -0.83479,2.00725 0,0.76137 0.0798,1.34489 0.20035,1.46546 0.31877,0.31877 0.92657,0.23297 1.20932,-0.17071 z"
       id="path6606"
       inkscape:connector-curvature="0" />
    <path
       style="opacity:1;fill:#e732dd;fill-opacity:1;stroke:#cf3bd2;stroke-width:0.16695707;stroke-miterlimit:4;stroke-dasharray:none;stroke-opacity:1"
       d="m 797.83416,540.0616 c -0.068,-0.8953 -0.0745,-6.73672 -0.0143,-12.98091 0.0602,-6.24419 0.12373,-17.73919 0.14124,-25.54443 0.0397,-17.72535 0.1669,-25.03414 0.44728,-25.71139 0.24139,-0.58305 0.99522,-1.41913 1.27953,-1.41913 0.21085,0 0.2976,0.66176 0.56899,4.34088 0.32219,4.36763 0.5026,8.99929 0.59831,15.36005 0.0532,3.53532 0.12778,6.6908 0.16575,7.0122 0.038,0.32139 0.12091,9.5317 0.18431,20.46735 l 0.11528,19.883 -0.40302,0.10783 c -0.22166,0.0593 -0.97827,0.10885 -1.68135,0.1101 l -1.27834,0.002 -0.1237,-1.62783 z m 2.17003,-7.59195 c 0.3538,-0.50512 0.3538,-2.42581 0,-2.93093 -0.14294,-0.20409 -0.40164,-0.37107 -0.57488,-0.37107 -0.56861,0 -0.83479,0.64003 -0.83479,2.00725 0,0.76137 0.0798,1.34489 0.20035,1.46546 0.31877,0.31877 0.92657,0.23297 1.20932,-0.17071 z"
       id="path6608"
       inkscape:connector-curvature="0" />
    <path
       style="opacity:1;fill:#e732dd;fill-opacity:1;stroke:#cf3bd2;stroke-width:0.16695707;stroke-miterlimit:4;stroke-dasharray:none;stroke-opacity:1"
       d="m 797.99307,541.4948 c -0.19141,-0.30971 -0.0284,-49.37092 0.19932,-59.99339 0.11122,-5.18785 0.18594,-5.76652 0.83155,-6.4404 0.54123,-0.56492 0.6839,-0.59977 0.803,-0.19614 0.30737,1.04165 0.74213,9.40755 0.93135,17.92129 0.29604,13.32013 0.33744,16.39796 0.43902,32.64156 l 0.10034,16.04448 -0.89243,0.10716 c -1.36,0.16332 -2.27886,0.13111 -2.41215,-0.0846 z m 2.01112,-9.02515 c 0.3538,-0.50512 0.3538,-2.42581 0,-2.93093 -0.14294,-0.20409 -0.40164,-0.37107 -0.57488,-0.37107 -0.56861,0 -0.83479,0.64003 -0.83479,2.00725 0,0.76137 0.0798,1.34489 0.20035,1.46546 0.31877,0.31877 0.92657,0.23297 1.20932,-0.17071 z"
       id="path6610"
       inkscape:connector-curvature="0" />
    <path
       style="opacity:1;fill:#e732dd;fill-opacity:1;stroke:#cf3bd2;stroke-width:0.16695707;stroke-miterlimit:4;stroke-dasharray:none;stroke-opacity:1"
       d="m 798.40348,541.57783 c -0.15099,-0.0402 -0.32011,-0.31323 -0.37584,-0.60681 -0.1118,-0.58903 0.0151,-46.86179 0.15256,-55.6296 0.0978,-6.2404 0.19686,-8.41952 0.42155,-9.27699 0.14961,-0.57093 0.90105,-1.4739 1.0787,-1.29625 0.68201,0.68201 1.26126,21.46246 1.50134,53.86012 0.0761,10.26941 0.053,12.74662 -0.11949,12.80029 -0.36535,0.1137 -2.36959,0.22619 -2.65882,0.14924 z m 1.60071,-9.10818 c 0.3538,-0.50512 0.3538,-2.42581 0,-2.93093 -0.14294,-0.20409 -0.40164,-0.37107 -0.57488,-0.37107 -0.56861,0 -0.83479,0.64003 -0.83479,2.00725 0,0.76137 0.0798,1.34489 0.20035,1.46546 0.31877,0.31877 0.92657,0.23297 1.20932,-0.17071 z"
       id="path6612"
       inkscape:connector-curvature="0" />
    <path
       style="opacity:1;fill:#e732dd;fill-opacity:1;stroke:#cf3bd2;stroke-width:0.16695707;stroke-miterlimit:4;stroke-dasharray:none;stroke-opacity:1"
       d="m 798.19392,541.25559 c -0.1369,-0.35676 -0.0762,-47.85876 0.0725,-56.74895 0.12589,-7.52596 0.23532,-8.62998 0.919,-9.27226 0.22524,-0.21161 0.44687,-0.3474 0.49251,-0.30177 0.64052,0.64052 1.41996,31.50783 1.42066,56.2608 l 2.9e-4,10.12317 -0.37565,0.10067 c -0.20661,0.0554 -0.83718,0.10169 -1.40127,0.10295 -0.78719,0.002 -1.04943,-0.0598 -1.12804,-0.26461 z m 1.81027,-8.78594 c 0.3538,-0.50512 0.3538,-2.42581 0,-2.93093 -0.14294,-0.20409 -0.40164,-0.37107 -0.57488,-0.37107 -0.56861,0 -0.83479,0.64003 -0.83479,2.00725 0,0.76137 0.0798,1.34489 0.20035,1.46546 0.31877,0.31877 0.92657,0.23297 1.20932,-0.17071 z"
       id="path6614"
       inkscape:connector-curvature="0" />
  </g>
  <g
     inkscape:groupmode="layer"
     id="layer12"
     inkscape:label="bordo"
     style="display:inline">
    <g
       style="display:inline"
       inkscape:label="bordo"
       id="layer9"
       transform="translate(1.0026851e-4,3.9980999e-4)">
      <g
         transform="matrix(0.98408585,0,0,0.97888478,-0.64744853,7.594777)"
         id="layer4"
         inkscape:label="bordo"
         style="display:inline;stroke-width:1;stroke-miterlimit:4;stroke-dasharray:none">
        <path
           style="color:#000000;clip-rule:nonzero;display:inline;overflow:visible;visibility:visible;opacity:1;isolation:auto;mix-blend-mode:normal;color-interpolation:sRGB;color-interpolation-filters:linearRGB;solid-color:#000000;solid-opacity:1;fill:none;fill-opacity:1;fill-rule:evenodd;stroke:#000000;stroke-width:1;stroke-linecap:butt;stroke-linejoin:miter;stroke-miterlimit:4;stroke-dasharray:none;stroke-dashoffset:0;stroke-opacity:1;color-rendering:auto;image-rendering:auto;shape-rendering:auto;text-rendering:auto;enable-background:accumulate"
           d="m 2.2796702,2.2791692 c 0,894.5596608 0,894.5596608 0,894.5596608 l 905.8926598,0 0,-894.5596608 z"
           id="path13590"
           inkscape:connector-curvature="0" />
      </g>
    </g>
  </g>
</svg>
